G04 #@! TF.FileFunction,Copper,L2,Bot,Signal*
%FSLAX46Y46*%
G04 Gerber Fmt 4.6, Leading zero omitted, Abs format (unit mm)*
G04 Created by KiCad (PCBNEW 4.0.4+e1-6308~48~ubuntu16.04.1-stable) date Tue Nov 15 10:08:48 2016*
%MOMM*%
%LPD*%
G01*
G04 APERTURE LIST*
%ADD10C,0.500000*%
%ADD11C,0.600000*%
%ADD12O,1.524000X1.524000*%
%ADD13C,1.300480*%
%ADD14R,1.300480X1.300480*%
%ADD15O,2.760000X4.800000*%
%ADD16C,5.080000*%
%ADD17R,2.760000X4.800000*%
%ADD18C,1.600000*%
%ADD19C,1.524000*%
%ADD20R,2.500000X3.000000*%
%ADD21C,2.500000*%
%ADD22C,1.500000*%
%ADD23C,2.000000*%
%ADD24R,1.900000X2.000000*%
%ADD25C,1.900000*%
%ADD26C,1.000000*%
%ADD27O,1.500000X2.000000*%
%ADD28O,1.250000X1.000000*%
%ADD29C,3.200000*%
%ADD30R,6.000000X2.000000*%
%ADD31R,2.032000X7.516000*%
%ADD32R,6.000000X6.000000*%
%ADD33C,2.032000*%
%ADD34C,6.000000*%
%ADD35C,0.254000*%
%ADD36C,0.305000*%
%ADD37C,0.304800*%
%ADD38C,0.250000*%
%ADD39C,0.203200*%
G04 APERTURE END LIST*
D10*
D11*
X146000000Y50000000D03*
X146000000Y48000000D03*
X145000000Y47000000D03*
X145000000Y49000000D03*
X147000000Y47000000D03*
X147000000Y49000000D03*
X148000000Y48000000D03*
X148000000Y50000000D03*
X138000000Y50000000D03*
X137000000Y47000000D03*
X137000000Y49000000D03*
X139000000Y49000000D03*
X140000000Y48000000D03*
X140000000Y50000000D03*
X138000000Y48000000D03*
X139000000Y47000000D03*
X141000000Y49000000D03*
X142000000Y48000000D03*
X142000000Y50000000D03*
X144000000Y50000000D03*
X143000000Y49000000D03*
X144000000Y48000000D03*
X141000000Y47000000D03*
X143000000Y47000000D03*
X148000000Y44000000D03*
X145000000Y45000000D03*
X146000000Y44000000D03*
X147000000Y45000000D03*
X147000000Y43000000D03*
X145000000Y43000000D03*
X147000000Y41000000D03*
X148000000Y42000000D03*
X146000000Y42000000D03*
X145000000Y41000000D03*
X146000000Y46000000D03*
X148000000Y46000000D03*
X143000000Y43000000D03*
X143000000Y41000000D03*
X144000000Y42000000D03*
X144000000Y44000000D03*
X144000000Y46000000D03*
X143000000Y45000000D03*
X142000000Y42000000D03*
X142000000Y44000000D03*
X142000000Y46000000D03*
X141000000Y41000000D03*
X141000000Y45000000D03*
D12*
X46748800Y89260600D03*
X53251200Y89260600D03*
X46748800Y84739400D03*
X53251200Y84739400D03*
D13*
X23999240Y90000000D03*
D14*
X26000760Y90000000D03*
D13*
X22000260Y90000000D03*
X27999740Y90000000D03*
X123999240Y90000000D03*
D14*
X126000760Y90000000D03*
D13*
X122000260Y90000000D03*
X127999740Y90000000D03*
D15*
X38550000Y20050000D03*
D16*
X102805000Y20050000D03*
X47195000Y20050000D03*
D17*
X111450000Y20050000D03*
D12*
X137858800Y66373000D03*
X144361200Y66373000D03*
X137858800Y61851800D03*
X144361200Y61851800D03*
X126067800Y60002700D03*
X132570200Y60002700D03*
X126067800Y55481500D03*
X132570200Y55481500D03*
D18*
X118000000Y26000000D03*
X118000000Y23500000D03*
X118000000Y28500000D03*
D19*
X136475000Y75900000D03*
X138975000Y75900000D03*
X141475000Y75900000D03*
X136475000Y90400000D03*
X141475000Y90400000D03*
D20*
X133425000Y83400000D03*
X144525000Y83400000D03*
D21*
X22750000Y63150000D03*
X7250000Y63150000D03*
X7250000Y76450000D03*
X22750000Y76450000D03*
D22*
X24750000Y69800000D03*
X24750000Y67300000D03*
X24750000Y72300000D03*
X15000000Y79550000D03*
X17500000Y79550000D03*
X12500000Y79550000D03*
D23*
X18850000Y61550000D03*
X11150000Y61550000D03*
X11150000Y57050000D03*
X18850000Y57050000D03*
D24*
X35000000Y91825000D03*
D25*
X37540000Y91825000D03*
D26*
X134000000Y26800000D03*
X134000000Y19200000D03*
D27*
X104850000Y92000000D03*
X97850000Y92000000D03*
D28*
X103850000Y89300000D03*
X98850000Y89300000D03*
D12*
X32000000Y75000000D03*
X32000000Y72460000D03*
X32000000Y69920000D03*
X32000000Y67380000D03*
X32000000Y64840000D03*
X32000000Y62300000D03*
X32000000Y59760000D03*
X32000000Y57220000D03*
X32000000Y54680000D03*
X32000000Y52140000D03*
X32000000Y49600000D03*
X32000000Y47060000D03*
X32000000Y44520000D03*
X32000000Y41980000D03*
D29*
X36920000Y80490000D03*
X36920000Y36490000D03*
X113000000Y80490000D03*
X113000000Y36490000D03*
D12*
X113000000Y54680000D03*
X113000000Y62300000D03*
X113000000Y59760000D03*
X113000000Y57220000D03*
D11*
X141000000Y43000000D03*
D30*
X139668000Y5000000D03*
D31*
X135144000Y3758000D03*
X132604000Y3758000D03*
X127524000Y3758000D03*
X130064000Y3758000D03*
D32*
X123000000Y3000000D03*
D31*
X99268000Y3758000D03*
X96728000Y3758000D03*
X94188000Y3758000D03*
X91648000Y3758000D03*
D32*
X84584000Y3000000D03*
X103792000Y3000000D03*
D31*
X110856000Y3758000D03*
X113396000Y3758000D03*
X115936000Y3758000D03*
X118476000Y3758000D03*
X89108000Y3758000D03*
X108316000Y3758000D03*
X80060000Y3758000D03*
X77520000Y3758000D03*
X74980000Y3758000D03*
X72440000Y3758000D03*
D32*
X65376000Y3000000D03*
D31*
X69900000Y3758000D03*
X53232000Y3758000D03*
D32*
X46168000Y3000000D03*
D31*
X55772000Y3758000D03*
X58312000Y3758000D03*
X60852000Y3758000D03*
X50692000Y3758000D03*
X14816000Y3758000D03*
X41644000Y3758000D03*
X22436000Y3758000D03*
X19896000Y3758000D03*
D30*
X10292000Y4000000D03*
D31*
X17356000Y3758000D03*
X31484000Y3758000D03*
D32*
X26960000Y3000000D03*
D31*
X34024000Y3758000D03*
X39104000Y3758000D03*
X36564000Y3758000D03*
D33*
X36564000Y7516000D03*
X39104000Y7516000D03*
D34*
X26960000Y6000000D03*
X10292000Y6000000D03*
D33*
X17356000Y7516000D03*
X34024000Y7516000D03*
X22436000Y7516000D03*
X41644000Y7516000D03*
X19896000Y7516000D03*
X31484000Y7516000D03*
X14816000Y7516000D03*
X50692000Y7516000D03*
X69900000Y7516000D03*
X55772000Y7516000D03*
X60852000Y7516000D03*
X58312000Y7516000D03*
X77520000Y7516000D03*
X80060000Y7516000D03*
X72440000Y7516000D03*
X74980000Y7516000D03*
X53232000Y7516000D03*
D34*
X46168000Y6000000D03*
X65376000Y6000000D03*
D33*
X89108000Y7516000D03*
X108316000Y7516000D03*
D34*
X103792000Y6000000D03*
X84584000Y6000000D03*
D33*
X94188000Y7516000D03*
X91648000Y7516000D03*
X99268000Y7516000D03*
X96728000Y7516000D03*
X110856000Y7516000D03*
X113396000Y7516000D03*
X115936000Y7516000D03*
X118476000Y7516000D03*
D34*
X123000000Y6000000D03*
D33*
X127524000Y7516000D03*
X130064000Y7516000D03*
X132604000Y7516000D03*
X135144000Y7516000D03*
D34*
X139668000Y6000000D03*
D29*
X5000000Y85000000D03*
X5000000Y10000000D03*
X145000000Y10000000D03*
D26*
X117540000Y93000000D03*
X115000000Y93000000D03*
X112460000Y93000000D03*
D11*
X28750000Y33500000D03*
X28750000Y31000000D03*
X78784000Y51150000D03*
X78784000Y54150000D03*
X12500000Y83100000D03*
X42000000Y60000000D03*
X21000000Y43750000D03*
X21000000Y53000000D03*
X112500000Y85300000D03*
X106300000Y82300000D03*
X6397635Y26347916D03*
X62006178Y87032302D03*
X42171508Y85832526D03*
X24575358Y31068104D03*
X70014114Y39611201D03*
X126000000Y18000000D03*
X17744961Y22032815D03*
X103030322Y38504112D03*
X111500000Y15000000D03*
X76750000Y33380200D03*
X47995600Y50398200D03*
X7442700Y32253000D03*
X11750000Y27750000D03*
X107681000Y80935900D03*
X70000000Y73000000D03*
X57066000Y68629300D03*
X123222000Y82245500D03*
X105922000Y79556900D03*
X70574000Y79489800D03*
X49972600Y39158000D03*
X26000000Y47000000D03*
X16500000Y32500000D03*
X23500000Y40500000D03*
X73500000Y21500000D03*
X75677000Y50293200D03*
X92500000Y47000000D03*
X12715200Y40062000D03*
X137660000Y34112000D03*
X10615200Y35988000D03*
X12565200Y35988000D03*
X143292000Y16262000D03*
X121012000Y68887500D03*
X127602000Y72807400D03*
X10615200Y51064300D03*
X12715200Y43313000D03*
X64030000Y37521000D03*
X86780000Y87102300D03*
X90341000Y39561000D03*
X66034000Y36157000D03*
X104199500Y87055200D03*
X55000000Y51686600D03*
X49056300Y51825400D03*
X18254600Y45817000D03*
X96260000Y39385000D03*
X96400000Y43038000D03*
X101506000Y84775000D03*
X86267000Y81300200D03*
X79616246Y39265613D03*
X79139000Y33582000D03*
X48196449Y63557827D03*
X60921251Y75768919D03*
X63045000Y72753800D03*
X52758000Y43832000D03*
X68386306Y60619200D03*
X66000000Y68750000D03*
X53446000Y42030000D03*
X35170542Y61527604D03*
X69832000Y66890400D03*
X72515000Y66898600D03*
X98125124Y82862230D03*
X95767387Y82185174D03*
X99288000Y76663500D03*
X96304395Y80315280D03*
X88572000Y78272600D03*
X91662000Y71493600D03*
X87392000Y75734200D03*
X11330000Y24630000D03*
X87576000Y19238000D03*
X18055600Y31138000D03*
X86781000Y74469500D03*
X83317000Y13302000D03*
X81660000Y75630000D03*
X91750000Y84923200D03*
X81073000Y72329800D03*
X80764000Y43198000D03*
X80860000Y66555500D03*
X80010000Y72349100D03*
X78059000Y66077100D03*
X101944000Y39836000D03*
X97235000Y33466000D03*
X56000000Y40500000D03*
X55500000Y37000000D03*
X62131703Y46738554D03*
X57664409Y47014592D03*
X68838000Y45830000D03*
X66125000Y15841000D03*
X74636000Y72423400D03*
X85448000Y15709000D03*
X85956000Y49201000D03*
X81674000Y80580100D03*
X51106000Y33842000D03*
X79862000Y66401000D03*
X34580900Y84863700D03*
X106838000Y62502400D03*
X37712409Y61905704D03*
X34444000Y17075000D03*
X24978000Y25188000D03*
D35*
X28750000Y31000000D02*
X28750000Y33500000D01*
D36*
X78784000Y51150000D02*
X78784000Y54150000D01*
D35*
X21000000Y53000000D02*
X20593110Y53406890D01*
X20593110Y53406890D02*
X20593110Y65393110D01*
X20593110Y65393110D02*
X22500000Y67300000D01*
X22500000Y67300000D02*
X24750000Y67300000D01*
D37*
X12500000Y79550000D02*
X12500000Y83100000D01*
X32000000Y75000000D02*
X42000000Y65000000D01*
X42000000Y65000000D02*
X42000000Y60000000D01*
D35*
X21000000Y53000000D02*
X21000000Y43750000D01*
X109300000Y85300000D02*
X112500000Y85300000D01*
X106300000Y82300000D02*
X109300000Y85300000D01*
D38*
X118476000Y7516000D02*
X118476000Y3758000D01*
X123000000Y6000000D02*
X123000000Y3000000D01*
X127524000Y7516000D02*
X127524000Y3758000D01*
D35*
X135144000Y3758000D02*
X135144000Y7770000D01*
X135144000Y7770000D02*
X136373999Y8999999D01*
X136373999Y8999999D02*
X136668001Y8999999D01*
X136668001Y8999999D02*
X139668000Y6000000D01*
D39*
X126000000Y18000000D02*
X126349136Y18000000D01*
X126349136Y18000000D02*
X126357471Y18008335D01*
D37*
X135144000Y7516000D02*
X135144000Y10106000D01*
X135144000Y10106000D02*
X127241665Y18008335D01*
X126357471Y18008335D02*
X126356903Y18008903D01*
X127241665Y18008335D02*
X126357471Y18008335D01*
X111450000Y20050000D02*
X111450000Y15050000D01*
X111450000Y15050000D02*
X111500000Y15000000D01*
D39*
X35000000Y91775000D02*
X35000000Y91825000D01*
X37514400Y89260600D02*
X35000000Y91775000D01*
X46748800Y89260600D02*
X37514400Y89260600D01*
X23999200Y90000000D02*
X23999200Y87100800D01*
X110000000Y88000000D02*
X109500000Y88000000D01*
X115000000Y93000000D02*
X110000000Y88000000D01*
X98850000Y90105100D02*
X98850000Y89300000D01*
X98260000Y90694900D02*
X98850000Y90105100D01*
X97850000Y90694900D02*
X98260000Y90694900D01*
X97850000Y92000000D02*
X97850000Y90694900D01*
X141475000Y88209400D02*
X141475000Y90400000D01*
X123999000Y86235400D02*
X123999000Y90000000D01*
X98850000Y88881700D02*
X98850000Y89300000D01*
X103850000Y87921400D02*
X103850000Y89300000D01*
D37*
X7250000Y76450000D02*
X7250000Y63150000D01*
X7250000Y63150000D02*
X7250000Y23734000D01*
D38*
X97500000Y84775000D02*
X101506000Y84775000D01*
D35*
X92500000Y81449768D02*
X95825232Y84775000D01*
X97500000Y84775000D02*
X95825232Y84775000D01*
X96139000Y70000000D02*
X96139000Y71611300D01*
X96139000Y71611300D02*
X92500000Y75250000D01*
X92500000Y75250000D02*
X92500000Y81449768D01*
D38*
X96139000Y43298000D02*
X96139000Y70000000D01*
X96400000Y43038000D02*
X96139000Y43298000D01*
X18735100Y45336000D02*
X18254600Y45817000D01*
X18735100Y11435000D02*
X18735100Y45336000D01*
X14816000Y7516000D02*
X18735100Y11435000D01*
X10716700Y5575000D02*
X10292000Y6000000D01*
X10716700Y4000000D02*
X10716700Y5575000D01*
X10292000Y4000000D02*
X10716700Y4000000D01*
X14816000Y3758000D02*
X14816000Y7516000D01*
X96260000Y42898000D02*
X96400000Y43038000D01*
X96260000Y39385000D02*
X96260000Y42898000D01*
D39*
X132570000Y55481500D02*
X132570200Y55481500D01*
X132570000Y55481500D02*
X126068000Y55481500D01*
X126068000Y55481500D02*
X126067800Y55481500D01*
X82828000Y84739400D02*
X86267000Y81300200D01*
X53251200Y84739400D02*
X82828000Y84739400D01*
X53251000Y84739400D02*
X53251200Y84739400D01*
D38*
X79139000Y38788367D02*
X79616246Y39265613D01*
X79139000Y33582000D02*
X79139000Y38788367D01*
D39*
X122000000Y90000000D02*
X120095000Y91905200D01*
X30229200Y87770500D02*
X27999700Y90000000D01*
X53158000Y87770500D02*
X30229200Y87770500D01*
X53498000Y88111000D02*
X53158000Y87770500D01*
X100037000Y88111000D02*
X53498000Y88111000D01*
X102511000Y90585300D02*
X100037000Y88111000D01*
X105823000Y90585300D02*
X102511000Y90585300D01*
X109048000Y93810400D02*
X105823000Y90585300D01*
X118190000Y93810400D02*
X109048000Y93810400D01*
X120095000Y91905200D02*
X118190000Y93810400D01*
X120095100Y91905200D02*
X122000300Y90000000D01*
X120095000Y91905200D02*
X120095100Y91905200D01*
X22436000Y3758000D02*
X22436000Y7516000D01*
X29619700Y9380000D02*
X31484000Y7516000D01*
X29619700Y67539700D02*
X29619700Y9380000D01*
X32000000Y69920000D02*
X29619700Y67539700D01*
X31484000Y3758000D02*
X31484000Y7516000D01*
X30029300Y11511000D02*
X34024000Y7516000D01*
X30029300Y65409300D02*
X30029300Y11511000D01*
X32000000Y67380000D02*
X30029300Y65409300D01*
X34024000Y3758000D02*
X34024000Y7516000D01*
X30449800Y13630000D02*
X36564000Y7516000D01*
X30449800Y63289800D02*
X30449800Y13630000D01*
X32000000Y64840000D02*
X30449800Y63289800D01*
X36564000Y3758000D02*
X36564000Y7516000D01*
X48196449Y63557827D02*
X60407541Y75768919D01*
X60407541Y75768919D02*
X60921251Y75768919D01*
X48196449Y52052049D02*
X48196449Y63557827D01*
X33699400Y37555000D02*
X48196449Y52052049D01*
X39104000Y7516000D02*
X33699400Y12920600D01*
X33699400Y12920600D02*
X33699400Y37555000D01*
X39104000Y3758000D02*
X39104000Y7516000D01*
X41644000Y3758000D02*
X41644000Y7516000D01*
X63045000Y57813500D02*
X63045000Y72753800D01*
X51777000Y46546000D02*
X63045000Y57813500D01*
X51777000Y8601000D02*
X51777000Y46546000D01*
X50692000Y7516000D02*
X51777000Y8601000D01*
X50692000Y3758000D02*
X50692000Y7516000D01*
X32000000Y58692900D02*
X32000000Y59760000D01*
X31889400Y58692900D02*
X32000000Y58692900D01*
X30928100Y57731600D02*
X31889400Y58692900D01*
X30928100Y53211900D02*
X30928100Y57731600D01*
X32000000Y52140000D02*
X30928100Y53211900D01*
X53232000Y3758000D02*
X53232000Y7516000D01*
X52758000Y7990000D02*
X53232000Y7516000D01*
X52758000Y43832000D02*
X52758000Y7990000D01*
X66000000Y63005506D02*
X68386306Y60619200D01*
X66000000Y68750000D02*
X66000000Y63005506D01*
X55215000Y41474000D02*
X55215000Y47447894D01*
X55215000Y47447894D02*
X68386306Y60619200D01*
X33442200Y53237800D02*
X32000000Y54680000D01*
X33442200Y45962000D02*
X33442200Y53237800D01*
X32000000Y44520000D02*
X33442200Y45962000D01*
X54756000Y41014000D02*
X55215000Y41474000D01*
X54756000Y8532000D02*
X54756000Y41014000D01*
X55772000Y7516000D02*
X54756000Y8532000D01*
X55772000Y3758000D02*
X55772000Y7516000D01*
X54659000Y42030000D02*
X55215000Y41474000D01*
X53446000Y42030000D02*
X54659000Y42030000D01*
X69832000Y66890400D02*
X72106000Y64616600D01*
X72106000Y64616600D02*
X72106000Y63225352D01*
X72106000Y63225352D02*
X56000000Y47119352D01*
X58312000Y41250000D02*
X58312000Y7516000D01*
X56000000Y47119352D02*
X56000000Y43562000D01*
X56000000Y43562000D02*
X58312000Y41250000D01*
X32772396Y61527604D02*
X35170542Y61527604D01*
X32000000Y62300000D02*
X32772396Y61527604D01*
X33941200Y60260200D02*
X35219000Y61538000D01*
X33941200Y44308000D02*
X33941200Y60260200D01*
X32961800Y43328000D02*
X33941200Y44308000D01*
X31418800Y43328000D02*
X32961800Y43328000D01*
X30857200Y43890000D02*
X31418800Y43328000D01*
X30857200Y45917000D02*
X30857200Y43890000D01*
X32000000Y47060000D02*
X30857200Y45917000D01*
X58312000Y3758000D02*
X58312000Y7516000D01*
X32762000Y61538000D02*
X35219000Y61538000D01*
X32000000Y62300000D02*
X32762000Y61538000D01*
X72515000Y66898600D02*
X72515000Y55500000D01*
X72515000Y55500000D02*
X65000000Y55500000D01*
X65000000Y55500000D02*
X56750000Y47250000D01*
X56750000Y47250000D02*
X56750000Y43852000D01*
X60852000Y39750000D02*
X60852000Y7516000D01*
X56750000Y43852000D02*
X60852000Y39750000D01*
X60852000Y3758000D02*
X60852000Y7516000D01*
X115936000Y42468000D02*
X102220569Y56183431D01*
X102220569Y78766785D02*
X98125124Y82862230D01*
X115936000Y7516000D02*
X115936000Y42468000D01*
X102220569Y56183431D02*
X102220569Y78766785D01*
X115936000Y3758000D02*
X115936000Y7516000D01*
X99288000Y78664561D02*
X95767387Y82185174D01*
X99288000Y76663500D02*
X99288000Y78664561D01*
X98249000Y75624500D02*
X99288000Y76663500D01*
X98249000Y38317000D02*
X98249000Y75624500D01*
X96224000Y36292000D02*
X98249000Y38317000D01*
X96224000Y20779000D02*
X96224000Y36292000D01*
X105542000Y11460000D02*
X96224000Y20779000D01*
X109452000Y11460000D02*
X105542000Y11460000D01*
X113396000Y7516000D02*
X109452000Y11460000D01*
X113396000Y7516000D02*
X113396000Y3758000D01*
X97025000Y79594675D02*
X96304395Y80315280D01*
X97025000Y37984000D02*
X97025000Y79594675D01*
X95817000Y19690000D02*
X95817000Y36777000D01*
X107615000Y10757000D02*
X104750000Y10757000D01*
X104750000Y10757000D02*
X95817000Y19690000D01*
X110856000Y7516000D02*
X107615000Y10757000D01*
X95817000Y36777000D02*
X97025000Y37984000D01*
X110856000Y3758000D02*
X110856000Y7516000D01*
X95411000Y71433600D02*
X88572000Y78272600D01*
X99268000Y7516000D02*
X95410589Y11373411D01*
X95411000Y36945847D02*
X95411000Y71433600D01*
X95410589Y36945436D02*
X95411000Y36945847D01*
X95410589Y11373411D02*
X95410589Y36945436D01*
X103792000Y4500000D02*
X108316000Y4500000D01*
X99268000Y7516000D02*
X99268000Y3758000D01*
X103792000Y6000000D02*
X103792000Y4500000D01*
X103792000Y4500000D02*
X103792000Y3000000D01*
X108316000Y7516000D02*
X108316000Y4500000D01*
X108316000Y4500000D02*
X108316000Y3758000D01*
X94188000Y68967400D02*
X91662000Y71493600D01*
X94188000Y7516000D02*
X94188000Y68967400D01*
X94188000Y3758000D02*
X94188000Y7516000D01*
X87575000Y19237000D02*
X87576000Y19238000D01*
X87575000Y11589000D02*
X87575000Y19237000D01*
X91648000Y7516000D02*
X87575000Y11589000D01*
X87392000Y19845000D02*
X87392000Y75734200D01*
X87576000Y19662000D02*
X87392000Y19845000D01*
X87576000Y19238000D02*
X87576000Y19662000D01*
X11388500Y24571000D02*
X11330000Y24630000D01*
X11388500Y24646000D02*
X11388500Y24571000D01*
X17879900Y31138000D02*
X11388500Y24646000D01*
X18055600Y31138000D02*
X17879900Y31138000D01*
X91648000Y3758000D02*
X91648000Y7516000D01*
X86781000Y9843000D02*
X86781000Y74469500D01*
X89108000Y7516000D02*
X86781000Y9843000D01*
X89108000Y3758000D02*
X89108000Y7516000D01*
X83506000Y13491000D02*
X83317000Y13302000D01*
X83506000Y73783700D02*
X83506000Y13491000D01*
X81660000Y75630000D02*
X83506000Y73783700D01*
X83317000Y10773000D02*
X83317000Y13302000D01*
X80060000Y7516000D02*
X83317000Y10773000D01*
X80060000Y7516000D02*
X80060000Y3758000D01*
X84432000Y80655600D02*
X82672000Y82415900D01*
X87482000Y80655600D02*
X84432000Y80655600D01*
X91750000Y84923200D02*
X87482000Y80655600D01*
X79705000Y81346600D02*
X79705000Y73698400D01*
X80774000Y82415900D02*
X79705000Y81346600D01*
X82672000Y82415900D02*
X80774000Y82415900D01*
X79705000Y73698400D02*
X81073000Y72329800D01*
X81550000Y71852900D02*
X81073000Y72329800D01*
X81550000Y41515000D02*
X81550000Y71852900D01*
X81184000Y41149000D02*
X81550000Y41515000D01*
X81184000Y12617000D02*
X81184000Y41149000D01*
X77520000Y8953000D02*
X81184000Y12617000D01*
X77520000Y7516000D02*
X77520000Y8953000D01*
X77520000Y3758000D02*
X77520000Y7516000D01*
X80860000Y43294000D02*
X80764000Y43198000D01*
X80860000Y66555500D02*
X80860000Y43294000D01*
X80764000Y13300000D02*
X80764000Y43198000D01*
X74980000Y7516000D02*
X80764000Y13300000D01*
X80010000Y67405700D02*
X80860000Y66555500D01*
X80010000Y72349100D02*
X80010000Y67405700D01*
X74980000Y7516000D02*
X74980000Y3758000D01*
X77991000Y66009100D02*
X78059000Y66077100D01*
X77991000Y15607000D02*
X77991000Y66009100D01*
X69900000Y7516000D02*
X77991000Y15607000D01*
X69900000Y3758000D02*
X69900000Y7516000D01*
D38*
X97235000Y35127000D02*
X101944000Y39836000D01*
X97235000Y33466000D02*
X97235000Y35127000D01*
D35*
X55500000Y40000000D02*
X56000000Y40500000D01*
X55500000Y37000000D02*
X55500000Y40000000D01*
X61855665Y47014592D02*
X62131703Y46738554D01*
X57664409Y47014592D02*
X61855665Y47014592D01*
D39*
X74636000Y51627900D02*
X68838000Y45830000D01*
X74636000Y72423400D02*
X74636000Y51627900D01*
X68838000Y18553000D02*
X68838000Y45830000D01*
X66125000Y15841000D02*
X68838000Y18553000D01*
X65376000Y15092000D02*
X66125000Y15841000D01*
X65376000Y6000000D02*
X65376000Y15092000D01*
X65376000Y3000000D02*
X65376000Y6000000D01*
X85448000Y6864000D02*
X84584000Y6000000D01*
X85448000Y15709000D02*
X85448000Y6864000D01*
X85861000Y16122000D02*
X85448000Y15709000D01*
X85861000Y49106000D02*
X85861000Y16122000D01*
X85956000Y49201000D02*
X85861000Y49106000D01*
X85846000Y49310000D02*
X85956000Y49201000D01*
X85846000Y76407700D02*
X85846000Y49310000D01*
X81674000Y80580100D02*
X85846000Y76407700D01*
X84584000Y3000000D02*
X84584000Y6000000D01*
X84287000Y6297000D02*
X84584000Y6000000D01*
D37*
X38550000Y21286000D02*
X51106000Y33842000D01*
X38550000Y20050000D02*
X38550000Y21286000D01*
D39*
X80170247Y66092753D02*
X79862000Y66401000D01*
X80170247Y15246247D02*
X80170247Y66092753D01*
X72440000Y7516000D02*
X80170247Y15246247D01*
X72440000Y7516000D02*
X72440000Y3758000D01*
X20161300Y70444100D02*
X34580900Y84863700D01*
X20161300Y56157900D02*
X20161300Y70444100D01*
X19216200Y55212800D02*
X20161300Y56157900D01*
X19216200Y9376000D02*
X19216200Y55212800D01*
X17356000Y7516000D02*
X19216200Y9376000D01*
X17356000Y3758000D02*
X17356000Y7516000D01*
X134736000Y90400000D02*
X106838000Y62502400D01*
X136475000Y90400000D02*
X134736000Y90400000D01*
X19896000Y7516000D02*
X19896000Y3758000D01*
X37712409Y46614779D02*
X37712409Y61905704D01*
X32000000Y41980000D02*
X33077630Y41980000D01*
X33077630Y41980000D02*
X37712409Y46614779D01*
X35093200Y17075000D02*
X34444000Y17075000D01*
X46168000Y6000000D02*
X35093200Y17075000D01*
X46168000Y6000000D02*
X46168000Y3000000D01*
X26960000Y23206000D02*
X26960000Y6000000D01*
X24978000Y25188000D02*
X26960000Y23206000D01*
X26960000Y6000000D02*
X26960000Y3000000D01*
X132604000Y7516000D02*
X132604000Y3758000D01*
X130064000Y7516000D02*
X130064000Y3758000D01*
X96728000Y7516000D02*
X96728000Y3758000D01*
D35*
G36*
X135271000Y3885000D02*
X135291000Y3885000D01*
X135291000Y3631000D01*
X135271000Y3631000D01*
X135271000Y3611000D01*
X135017000Y3611000D01*
X135017000Y3631000D01*
X134997000Y3631000D01*
X134997000Y3885000D01*
X135017000Y3885000D01*
X135017000Y3905000D01*
X135271000Y3905000D01*
X135271000Y3885000D01*
X135271000Y3885000D01*
G37*
X135271000Y3885000D02*
X135291000Y3885000D01*
X135291000Y3631000D01*
X135271000Y3631000D01*
X135271000Y3611000D01*
X135017000Y3611000D01*
X135017000Y3631000D01*
X134997000Y3631000D01*
X134997000Y3885000D01*
X135017000Y3885000D01*
X135017000Y3905000D01*
X135271000Y3905000D01*
X135271000Y3885000D01*
G36*
X29708345Y87249645D02*
X29947315Y87089970D01*
X30229200Y87033900D01*
X53158000Y87033900D01*
X53158270Y87033954D01*
X53158541Y87033900D01*
X53299506Y87062047D01*
X53439885Y87089970D01*
X53440114Y87090123D01*
X53440385Y87090177D01*
X53559499Y87169894D01*
X53678855Y87249645D01*
X53679009Y87249875D01*
X53679237Y87250028D01*
X53803426Y87374400D01*
X100037000Y87374400D01*
X100037022Y87374404D01*
X100037045Y87374400D01*
X100178828Y87402611D01*
X100318885Y87430470D01*
X100318904Y87430483D01*
X100318926Y87430487D01*
X100433496Y87507051D01*
X100557855Y87590145D01*
X100557869Y87590165D01*
X100557886Y87590177D01*
X101340615Y88373000D01*
X103087623Y88373000D01*
X103130317Y88333394D01*
X103545489Y88179397D01*
X103723000Y88323862D01*
X103723000Y88373000D01*
X103977000Y88373000D01*
X103977000Y88323862D01*
X104154511Y88179397D01*
X104569683Y88333394D01*
X104612377Y88373000D01*
X131667253Y88373000D01*
X106731390Y63437494D01*
X106652833Y63437562D01*
X106309057Y63295517D01*
X106045808Y63032727D01*
X105903162Y62689199D01*
X105902838Y62317233D01*
X106044883Y61973457D01*
X106307673Y61710208D01*
X106651201Y61567562D01*
X107023167Y61567238D01*
X107366943Y61709283D01*
X107630192Y61972073D01*
X107766359Y62300000D01*
X111575631Y62300000D01*
X111681971Y61765391D01*
X111984803Y61312172D01*
X112407102Y61030000D01*
X111984803Y60747828D01*
X111681971Y60294609D01*
X111575631Y59760000D01*
X111681971Y59225391D01*
X111984803Y58772172D01*
X112407102Y58490000D01*
X111984803Y58207828D01*
X111681971Y57754609D01*
X111575631Y57220000D01*
X111681971Y56685391D01*
X111984803Y56232172D01*
X112407102Y55950000D01*
X111984803Y55667828D01*
X111681971Y55214609D01*
X111575631Y54680000D01*
X111681971Y54145391D01*
X111984803Y53692172D01*
X112438022Y53389340D01*
X112972631Y53283000D01*
X113027369Y53283000D01*
X113561978Y53389340D01*
X114015197Y53692172D01*
X114318029Y54145391D01*
X114424369Y54680000D01*
X114318029Y55214609D01*
X114139698Y55481500D01*
X124643431Y55481500D01*
X124749771Y54946891D01*
X125052603Y54493672D01*
X125505822Y54190840D01*
X126040431Y54084500D01*
X126095169Y54084500D01*
X126629778Y54190840D01*
X127082997Y54493672D01*
X127250863Y54744900D01*
X131387137Y54744900D01*
X131555003Y54493672D01*
X132008222Y54190840D01*
X132542831Y54084500D01*
X132597569Y54084500D01*
X133132178Y54190840D01*
X133585397Y54493672D01*
X133888229Y54946891D01*
X133994569Y55481500D01*
X133888229Y56016109D01*
X133585397Y56469328D01*
X133132178Y56772160D01*
X132597569Y56878500D01*
X132542831Y56878500D01*
X132008222Y56772160D01*
X131555003Y56469328D01*
X131387137Y56218100D01*
X127250863Y56218100D01*
X127082997Y56469328D01*
X126629778Y56772160D01*
X126095169Y56878500D01*
X126040431Y56878500D01*
X125505822Y56772160D01*
X125052603Y56469328D01*
X124749771Y56016109D01*
X124643431Y55481500D01*
X114139698Y55481500D01*
X114015197Y55667828D01*
X113592898Y55950000D01*
X114015197Y56232172D01*
X114318029Y56685391D01*
X114424369Y57220000D01*
X114318029Y57754609D01*
X114015197Y58207828D01*
X113592898Y58490000D01*
X114015197Y58772172D01*
X114318029Y59225391D01*
X114404404Y59659630D01*
X124713580Y59659630D01*
X124867626Y59287703D01*
X125232601Y58882842D01*
X125724728Y58648469D01*
X125940800Y58770224D01*
X125940800Y59875700D01*
X126194800Y59875700D01*
X126194800Y58770224D01*
X126410872Y58648469D01*
X126902999Y58882842D01*
X127267974Y59287703D01*
X127422020Y59659630D01*
X131215980Y59659630D01*
X131370026Y59287703D01*
X131735001Y58882842D01*
X132227128Y58648469D01*
X132443200Y58770224D01*
X132443200Y59875700D01*
X132697200Y59875700D01*
X132697200Y58770224D01*
X132913272Y58648469D01*
X133405399Y58882842D01*
X133770374Y59287703D01*
X133924420Y59659630D01*
X133801920Y59875700D01*
X132697200Y59875700D01*
X132443200Y59875700D01*
X131338480Y59875700D01*
X131215980Y59659630D01*
X127422020Y59659630D01*
X127299520Y59875700D01*
X126194800Y59875700D01*
X125940800Y59875700D01*
X124836080Y59875700D01*
X124713580Y59659630D01*
X114404404Y59659630D01*
X114424369Y59760000D01*
X114318029Y60294609D01*
X114283845Y60345770D01*
X124713580Y60345770D01*
X124836080Y60129700D01*
X125940800Y60129700D01*
X125940800Y61235176D01*
X126194800Y61235176D01*
X126194800Y60129700D01*
X127299520Y60129700D01*
X127422020Y60345770D01*
X131215980Y60345770D01*
X131338480Y60129700D01*
X132443200Y60129700D01*
X132443200Y61235176D01*
X132697200Y61235176D01*
X132697200Y60129700D01*
X133801920Y60129700D01*
X133924420Y60345770D01*
X133770374Y60717697D01*
X133405399Y61122558D01*
X132913272Y61356931D01*
X132697200Y61235176D01*
X132443200Y61235176D01*
X132227128Y61356931D01*
X131735001Y61122558D01*
X131370026Y60717697D01*
X131215980Y60345770D01*
X127422020Y60345770D01*
X127267974Y60717697D01*
X126902999Y61122558D01*
X126410872Y61356931D01*
X126194800Y61235176D01*
X125940800Y61235176D01*
X125724728Y61356931D01*
X125232601Y61122558D01*
X124867626Y60717697D01*
X124713580Y60345770D01*
X114283845Y60345770D01*
X114015197Y60747828D01*
X113592898Y61030000D01*
X114015197Y61312172D01*
X114318029Y61765391D01*
X114335216Y61851800D01*
X136434431Y61851800D01*
X136540771Y61317191D01*
X136843603Y60863972D01*
X137296822Y60561140D01*
X137831431Y60454800D01*
X137886169Y60454800D01*
X138420778Y60561140D01*
X138873997Y60863972D01*
X139176829Y61317191D01*
X139283169Y61851800D01*
X142936831Y61851800D01*
X143043171Y61317191D01*
X143346003Y60863972D01*
X143799222Y60561140D01*
X144333831Y60454800D01*
X144388569Y60454800D01*
X144923178Y60561140D01*
X145376397Y60863972D01*
X145679229Y61317191D01*
X145785569Y61851800D01*
X145679229Y62386409D01*
X145376397Y62839628D01*
X144923178Y63142460D01*
X144388569Y63248800D01*
X144333831Y63248800D01*
X143799222Y63142460D01*
X143346003Y62839628D01*
X143043171Y62386409D01*
X142936831Y61851800D01*
X139283169Y61851800D01*
X139176829Y62386409D01*
X138873997Y62839628D01*
X138420778Y63142460D01*
X137886169Y63248800D01*
X137831431Y63248800D01*
X137296822Y63142460D01*
X136843603Y62839628D01*
X136540771Y62386409D01*
X136434431Y61851800D01*
X114335216Y61851800D01*
X114424369Y62300000D01*
X114318029Y62834609D01*
X114015197Y63287828D01*
X113561978Y63590660D01*
X113027369Y63697000D01*
X112972631Y63697000D01*
X112438022Y63590660D01*
X111984803Y63287828D01*
X111681971Y62834609D01*
X111575631Y62300000D01*
X107766359Y62300000D01*
X107772838Y62315601D01*
X107772908Y62395592D01*
X111407297Y66029930D01*
X136504580Y66029930D01*
X136658626Y65658003D01*
X137023601Y65253142D01*
X137515728Y65018769D01*
X137731800Y65140524D01*
X137731800Y66246000D01*
X137985800Y66246000D01*
X137985800Y65140524D01*
X138201872Y65018769D01*
X138693999Y65253142D01*
X139058974Y65658003D01*
X139213020Y66029930D01*
X143006980Y66029930D01*
X143161026Y65658003D01*
X143526001Y65253142D01*
X144018128Y65018769D01*
X144234200Y65140524D01*
X144234200Y66246000D01*
X144488200Y66246000D01*
X144488200Y65140524D01*
X144704272Y65018769D01*
X145196399Y65253142D01*
X145561374Y65658003D01*
X145715420Y66029930D01*
X145592920Y66246000D01*
X144488200Y66246000D01*
X144234200Y66246000D01*
X143129480Y66246000D01*
X143006980Y66029930D01*
X139213020Y66029930D01*
X139090520Y66246000D01*
X137985800Y66246000D01*
X137731800Y66246000D01*
X136627080Y66246000D01*
X136504580Y66029930D01*
X111407297Y66029930D01*
X112093446Y66716070D01*
X136504580Y66716070D01*
X136627080Y66500000D01*
X137731800Y66500000D01*
X137731800Y67605476D01*
X137985800Y67605476D01*
X137985800Y66500000D01*
X139090520Y66500000D01*
X139213020Y66716070D01*
X143006980Y66716070D01*
X143129480Y66500000D01*
X144234200Y66500000D01*
X144234200Y67605476D01*
X144488200Y67605476D01*
X144488200Y66500000D01*
X145592920Y66500000D01*
X145715420Y66716070D01*
X145561374Y67087997D01*
X145196399Y67492858D01*
X144704272Y67727231D01*
X144488200Y67605476D01*
X144234200Y67605476D01*
X144018128Y67727231D01*
X143526001Y67492858D01*
X143161026Y67087997D01*
X143006980Y66716070D01*
X139213020Y66716070D01*
X139058974Y67087997D01*
X138693999Y67492858D01*
X138201872Y67727231D01*
X137985800Y67605476D01*
X137731800Y67605476D01*
X137515728Y67727231D01*
X137023601Y67492858D01*
X136658626Y67087997D01*
X136504580Y66716070D01*
X112093446Y66716070D01*
X121000844Y75623339D01*
X135077758Y75623339D01*
X135289990Y75109697D01*
X135682630Y74716371D01*
X136195900Y74503243D01*
X136751661Y74502758D01*
X137265303Y74714990D01*
X137470457Y74919787D01*
X138174392Y74919787D01*
X138243857Y74677603D01*
X138767302Y74490856D01*
X139322368Y74518638D01*
X139706143Y74677603D01*
X139775608Y74919787D01*
X138975000Y75720395D01*
X138174392Y74919787D01*
X137470457Y74919787D01*
X137658629Y75107630D01*
X137718370Y75251503D01*
X137752603Y75168857D01*
X137994787Y75099392D01*
X138795395Y75900000D01*
X139154605Y75900000D01*
X139955213Y75099392D01*
X140197397Y75168857D01*
X140228974Y75257367D01*
X140289990Y75109697D01*
X140682630Y74716371D01*
X141195900Y74503243D01*
X141751661Y74502758D01*
X142265303Y74714990D01*
X142658629Y75107630D01*
X142871757Y75620900D01*
X142872242Y76176661D01*
X142660010Y76690303D01*
X142267370Y77083629D01*
X141754100Y77296757D01*
X141198339Y77297242D01*
X140684697Y77085010D01*
X140291371Y76692370D01*
X140231630Y76548497D01*
X140197397Y76631143D01*
X139955213Y76700608D01*
X139154605Y75900000D01*
X138795395Y75900000D01*
X137994787Y76700608D01*
X137752603Y76631143D01*
X137721026Y76542633D01*
X137660010Y76690303D01*
X137470432Y76880213D01*
X138174392Y76880213D01*
X138975000Y76079605D01*
X139775608Y76880213D01*
X139706143Y77122397D01*
X139182698Y77309144D01*
X138627632Y77281362D01*
X138243857Y77122397D01*
X138174392Y76880213D01*
X137470432Y76880213D01*
X137267370Y77083629D01*
X136754100Y77296757D01*
X136198339Y77297242D01*
X135684697Y77085010D01*
X135291371Y76692370D01*
X135078243Y76179100D01*
X135077758Y75623339D01*
X121000844Y75623339D01*
X130277638Y84900000D01*
X131527560Y84900000D01*
X131527560Y81900000D01*
X131571838Y81664683D01*
X131710910Y81448559D01*
X131923110Y81303569D01*
X132175000Y81252560D01*
X134675000Y81252560D01*
X134910317Y81296838D01*
X135126441Y81435910D01*
X135271431Y81648110D01*
X135322440Y81900000D01*
X135322440Y84900000D01*
X142627560Y84900000D01*
X142627560Y81900000D01*
X142671838Y81664683D01*
X142810910Y81448559D01*
X143023110Y81303569D01*
X143275000Y81252560D01*
X145775000Y81252560D01*
X146010317Y81296838D01*
X146226441Y81435910D01*
X146371431Y81648110D01*
X146422440Y81900000D01*
X146422440Y84900000D01*
X146378162Y85135317D01*
X146239090Y85351441D01*
X146026890Y85496431D01*
X145775000Y85547440D01*
X143275000Y85547440D01*
X143039683Y85503162D01*
X142823559Y85364090D01*
X142678569Y85151890D01*
X142627560Y84900000D01*
X135322440Y84900000D01*
X135278162Y85135317D01*
X135139090Y85351441D01*
X134926890Y85496431D01*
X134675000Y85547440D01*
X132175000Y85547440D01*
X131939683Y85503162D01*
X131723559Y85364090D01*
X131578569Y85151890D01*
X131527560Y84900000D01*
X130277638Y84900000D01*
X133750688Y88373000D01*
X146110552Y88373000D01*
X146150125Y88323138D01*
X146448677Y87920587D01*
X146733888Y87508496D01*
X147005436Y87087340D01*
X147263098Y86657456D01*
X147506553Y86219380D01*
X147735520Y85773618D01*
X147949800Y85320560D01*
X148149129Y84860767D01*
X148333313Y84394680D01*
X148502150Y83922810D01*
X148655454Y83445681D01*
X148793068Y82963779D01*
X148914833Y82477667D01*
X149020640Y81987771D01*
X149110349Y81494748D01*
X149183887Y80999000D01*
X149241163Y80501119D01*
X149282118Y80001641D01*
X149306709Y79501077D01*
X149315000Y78994414D01*
X149315000Y16005586D01*
X149306709Y15498923D01*
X149282118Y14998359D01*
X149241163Y14498881D01*
X149183887Y14001000D01*
X149110349Y13505252D01*
X149020640Y13012229D01*
X148914833Y12522333D01*
X148793068Y12036221D01*
X148655454Y11554319D01*
X148502150Y11077190D01*
X148333313Y10605320D01*
X148149129Y10139233D01*
X147949800Y9679440D01*
X147735520Y9226382D01*
X147506553Y8780620D01*
X147263098Y8342544D01*
X147005436Y7912660D01*
X146733888Y7491504D01*
X146448677Y7079413D01*
X146150125Y6676862D01*
X145838580Y6284320D01*
X145514353Y5902174D01*
X145177813Y5530859D01*
X144829275Y5170725D01*
X144469157Y4822202D01*
X144097826Y4485646D01*
X143715681Y4161421D01*
X143323119Y3849861D01*
X143279832Y3817758D01*
X143303000Y3873691D01*
X143303000Y4714250D01*
X143144250Y4873000D01*
X143137275Y4873000D01*
X143299342Y5258800D01*
X143299459Y5282209D01*
X143303000Y5285750D01*
X143303000Y5990843D01*
X143306568Y6704875D01*
X142759854Y8043639D01*
X142739277Y8074434D01*
X142264630Y8417025D01*
X140482605Y6635000D01*
X140123395Y6635000D01*
X142085025Y8596630D01*
X141742434Y9071277D01*
X140585265Y9557381D01*
X142764613Y9557381D01*
X143104155Y8735628D01*
X143732321Y8106364D01*
X144553481Y7765389D01*
X145442619Y7764613D01*
X146264372Y8104155D01*
X146893636Y8732321D01*
X147234611Y9553481D01*
X147235387Y10442619D01*
X146895845Y11264372D01*
X146267679Y11893636D01*
X145446519Y12234611D01*
X144557381Y12235387D01*
X143735628Y11895845D01*
X143106364Y11267679D01*
X142765389Y10446519D01*
X142764613Y9557381D01*
X140585265Y9557381D01*
X140409200Y9631342D01*
X138963125Y9638568D01*
X137624361Y9091854D01*
X137593566Y9071277D01*
X137250975Y8596630D01*
X139212605Y6635000D01*
X138853395Y6635000D01*
X137071370Y8417025D01*
X136685026Y8138169D01*
X136576622Y8399880D01*
X136308107Y8500502D01*
X135958605Y8151000D01*
X135599395Y8151000D01*
X136128502Y8680107D01*
X136027880Y8948622D01*
X135412358Y9177816D01*
X134755981Y9154014D01*
X134260120Y8948622D01*
X134159498Y8680107D01*
X134688605Y8151000D01*
X134329395Y8151000D01*
X133979893Y8500502D01*
X133961083Y8493453D01*
X133540437Y8914834D01*
X132933845Y9166713D01*
X132277037Y9167286D01*
X131670005Y8916466D01*
X131333821Y8580868D01*
X131000437Y8914834D01*
X130393845Y9166713D01*
X129737037Y9167286D01*
X129130005Y8916466D01*
X128793821Y8580868D01*
X128460437Y8914834D01*
X127853845Y9166713D01*
X127197037Y9167286D01*
X126590005Y8916466D01*
X126125166Y8452437D01*
X125996749Y8143174D01*
X125061751Y9079806D01*
X123726218Y9634368D01*
X122280126Y9635630D01*
X120943628Y9083400D01*
X120002809Y8144222D01*
X119876466Y8449995D01*
X119412437Y8914834D01*
X118805845Y9166713D01*
X118149037Y9167286D01*
X117542005Y8916466D01*
X117205821Y8580868D01*
X116872437Y8914834D01*
X116672600Y8997814D01*
X116672600Y18975225D01*
X132864803Y18975225D01*
X133037233Y18557914D01*
X133356235Y18238355D01*
X133773244Y18065197D01*
X134224775Y18064803D01*
X134642086Y18237233D01*
X134961645Y18556235D01*
X135134803Y18973244D01*
X135135197Y19424775D01*
X134962767Y19842086D01*
X134643765Y20161645D01*
X134226756Y20334803D01*
X133775225Y20335197D01*
X133357914Y20162767D01*
X133038355Y19843765D01*
X132865197Y19426756D01*
X132864803Y18975225D01*
X116672600Y18975225D01*
X116672600Y22954801D01*
X116782757Y22688200D01*
X117186077Y22284176D01*
X117713309Y22065250D01*
X118284187Y22064752D01*
X118811800Y22282757D01*
X119215824Y22686077D01*
X119434750Y23213309D01*
X119435248Y23784187D01*
X119217243Y24311800D01*
X118813923Y24715824D01*
X118732069Y24749813D01*
X118811800Y24782757D01*
X119215824Y25186077D01*
X119434750Y25713309D01*
X119435248Y26284187D01*
X119314994Y26575225D01*
X132864803Y26575225D01*
X133037233Y26157914D01*
X133356235Y25838355D01*
X133773244Y25665197D01*
X134224775Y25664803D01*
X134642086Y25837233D01*
X134961645Y26156235D01*
X135134803Y26573244D01*
X135135197Y27024775D01*
X134962767Y27442086D01*
X134643765Y27761645D01*
X134226756Y27934803D01*
X133775225Y27935197D01*
X133357914Y27762767D01*
X133038355Y27443765D01*
X132865197Y27026756D01*
X132864803Y26575225D01*
X119314994Y26575225D01*
X119217243Y26811800D01*
X118813923Y27215824D01*
X118732069Y27249813D01*
X118811800Y27282757D01*
X119215824Y27686077D01*
X119434750Y28213309D01*
X119435248Y28784187D01*
X119217243Y29311800D01*
X118813923Y29715824D01*
X118286691Y29934750D01*
X117715813Y29935248D01*
X117188200Y29717243D01*
X116784176Y29313923D01*
X116672600Y29045218D01*
X116672600Y40355576D01*
X140535181Y40355576D01*
X140547393Y40160975D01*
X140902927Y40051637D01*
X141273239Y40086678D01*
X141452607Y40160975D01*
X141464819Y40355576D01*
X142535181Y40355576D01*
X142547393Y40160975D01*
X142902927Y40051637D01*
X143273239Y40086678D01*
X143452607Y40160975D01*
X143464819Y40355576D01*
X144535181Y40355576D01*
X144547393Y40160975D01*
X144902927Y40051637D01*
X145273239Y40086678D01*
X145452607Y40160975D01*
X145464819Y40355576D01*
X146535181Y40355576D01*
X146547393Y40160975D01*
X146902927Y40051637D01*
X147273239Y40086678D01*
X147452607Y40160975D01*
X147464819Y40355576D01*
X147000000Y40820395D01*
X146535181Y40355576D01*
X145464819Y40355576D01*
X145000000Y40820395D01*
X144535181Y40355576D01*
X143464819Y40355576D01*
X143000000Y40820395D01*
X142535181Y40355576D01*
X141464819Y40355576D01*
X141000000Y40820395D01*
X140535181Y40355576D01*
X116672600Y40355576D01*
X116672600Y41097073D01*
X140051637Y41097073D01*
X140086678Y40726761D01*
X140160975Y40547393D01*
X140355576Y40535181D01*
X140820395Y41000000D01*
X141179605Y41000000D01*
X141644424Y40535181D01*
X141839025Y40547393D01*
X141948363Y40902927D01*
X141934013Y41054579D01*
X142054579Y41065987D01*
X142086678Y40726761D01*
X142160975Y40547393D01*
X142355576Y40535181D01*
X142820395Y41000000D01*
X143179605Y41000000D01*
X143644424Y40535181D01*
X143839025Y40547393D01*
X143948363Y40902927D01*
X143934013Y41054579D01*
X144054579Y41065987D01*
X144086678Y40726761D01*
X144160975Y40547393D01*
X144355576Y40535181D01*
X144820395Y41000000D01*
X145179605Y41000000D01*
X145644424Y40535181D01*
X145839025Y40547393D01*
X145948363Y40902927D01*
X145934013Y41054579D01*
X146054579Y41065987D01*
X146086678Y40726761D01*
X146160975Y40547393D01*
X146355576Y40535181D01*
X146820395Y41000000D01*
X147179605Y41000000D01*
X147644424Y40535181D01*
X147839025Y40547393D01*
X147948363Y40902927D01*
X147934013Y41054579D01*
X148273239Y41086678D01*
X148452607Y41160975D01*
X148464819Y41355576D01*
X148000000Y41820395D01*
X147179605Y41000000D01*
X146820395Y41000000D01*
X146000000Y41820395D01*
X145179605Y41000000D01*
X144820395Y41000000D01*
X144000000Y41820395D01*
X143179605Y41000000D01*
X142820395Y41000000D01*
X142000000Y41820395D01*
X141179605Y41000000D01*
X140820395Y41000000D01*
X140355576Y41464819D01*
X140160975Y41452607D01*
X140051637Y41097073D01*
X116672600Y41097073D01*
X116672600Y42355576D01*
X140535181Y42355576D01*
X140547393Y42160975D01*
X140902927Y42051637D01*
X141054579Y42065987D01*
X141065987Y41945421D01*
X140726761Y41913322D01*
X140547393Y41839025D01*
X140535181Y41644424D01*
X141000000Y41179605D01*
X141820395Y42000000D01*
X142179605Y42000000D01*
X143000000Y41179605D01*
X143820395Y42000000D01*
X144179605Y42000000D01*
X145000000Y41179605D01*
X145820395Y42000000D01*
X146179605Y42000000D01*
X147000000Y41179605D01*
X147820395Y42000000D01*
X148179605Y42000000D01*
X148644424Y41535181D01*
X148839025Y41547393D01*
X148948363Y41902927D01*
X148913322Y42273239D01*
X148839025Y42452607D01*
X148644424Y42464819D01*
X148179605Y42000000D01*
X147820395Y42000000D01*
X147000000Y42820395D01*
X146179605Y42000000D01*
X145820395Y42000000D01*
X145000000Y42820395D01*
X144179605Y42000000D01*
X143820395Y42000000D01*
X143000000Y42820395D01*
X142179605Y42000000D01*
X141820395Y42000000D01*
X141000000Y42820395D01*
X140535181Y42355576D01*
X116672600Y42355576D01*
X116672600Y42467995D01*
X116672601Y42468000D01*
X116616531Y42749884D01*
X116456855Y42988855D01*
X116348637Y43097073D01*
X140051637Y43097073D01*
X140086678Y42726761D01*
X140160975Y42547393D01*
X140355576Y42535181D01*
X140820395Y43000000D01*
X141179605Y43000000D01*
X142000000Y42179605D01*
X142820395Y43000000D01*
X143179605Y43000000D01*
X144000000Y42179605D01*
X144820395Y43000000D01*
X145179605Y43000000D01*
X146000000Y42179605D01*
X146820395Y43000000D01*
X147179605Y43000000D01*
X148000000Y42179605D01*
X148464819Y42644424D01*
X148452607Y42839025D01*
X148097073Y42948363D01*
X147945421Y42934013D01*
X147934013Y43054579D01*
X148273239Y43086678D01*
X148452607Y43160975D01*
X148464819Y43355576D01*
X148000000Y43820395D01*
X147179605Y43000000D01*
X146820395Y43000000D01*
X146000000Y43820395D01*
X145179605Y43000000D01*
X144820395Y43000000D01*
X144000000Y43820395D01*
X143179605Y43000000D01*
X142820395Y43000000D01*
X142000000Y43820395D01*
X141179605Y43000000D01*
X140820395Y43000000D01*
X140355576Y43464819D01*
X140160975Y43452607D01*
X140051637Y43097073D01*
X116348637Y43097073D01*
X115090134Y44355576D01*
X140535181Y44355576D01*
X140547393Y44160975D01*
X140902927Y44051637D01*
X141054579Y44065987D01*
X141065987Y43945421D01*
X140726761Y43913322D01*
X140547393Y43839025D01*
X140535181Y43644424D01*
X141000000Y43179605D01*
X141820395Y44000000D01*
X142179605Y44000000D01*
X143000000Y43179605D01*
X143820395Y44000000D01*
X144179605Y44000000D01*
X145000000Y43179605D01*
X145820395Y44000000D01*
X146179605Y44000000D01*
X147000000Y43179605D01*
X147820395Y44000000D01*
X148179605Y44000000D01*
X148644424Y43535181D01*
X148839025Y43547393D01*
X148948363Y43902927D01*
X148913322Y44273239D01*
X148839025Y44452607D01*
X148644424Y44464819D01*
X148179605Y44000000D01*
X147820395Y44000000D01*
X147000000Y44820395D01*
X146179605Y44000000D01*
X145820395Y44000000D01*
X145000000Y44820395D01*
X144179605Y44000000D01*
X143820395Y44000000D01*
X143000000Y44820395D01*
X142179605Y44000000D01*
X141820395Y44000000D01*
X141000000Y44820395D01*
X140535181Y44355576D01*
X115090134Y44355576D01*
X114348637Y45097073D01*
X140051637Y45097073D01*
X140086678Y44726761D01*
X140160975Y44547393D01*
X140355576Y44535181D01*
X140820395Y45000000D01*
X141179605Y45000000D01*
X142000000Y44179605D01*
X142820395Y45000000D01*
X143179605Y45000000D01*
X144000000Y44179605D01*
X144820395Y45000000D01*
X145179605Y45000000D01*
X146000000Y44179605D01*
X146820395Y45000000D01*
X147179605Y45000000D01*
X148000000Y44179605D01*
X148464819Y44644424D01*
X148452607Y44839025D01*
X148097073Y44948363D01*
X147945421Y44934013D01*
X147934013Y45054579D01*
X148273239Y45086678D01*
X148452607Y45160975D01*
X148464819Y45355576D01*
X148000000Y45820395D01*
X147179605Y45000000D01*
X146820395Y45000000D01*
X146000000Y45820395D01*
X145179605Y45000000D01*
X144820395Y45000000D01*
X144000000Y45820395D01*
X143179605Y45000000D01*
X142820395Y45000000D01*
X142000000Y45820395D01*
X141179605Y45000000D01*
X140820395Y45000000D01*
X140355576Y45464819D01*
X140160975Y45452607D01*
X140051637Y45097073D01*
X114348637Y45097073D01*
X113090134Y46355576D01*
X136535181Y46355576D01*
X136547393Y46160975D01*
X136902927Y46051637D01*
X137273239Y46086678D01*
X137452607Y46160975D01*
X137464819Y46355576D01*
X138535181Y46355576D01*
X138547393Y46160975D01*
X138902927Y46051637D01*
X139273239Y46086678D01*
X139452607Y46160975D01*
X139464819Y46355576D01*
X140535181Y46355576D01*
X140547393Y46160975D01*
X140902927Y46051637D01*
X141054579Y46065987D01*
X141065987Y45945421D01*
X140726761Y45913322D01*
X140547393Y45839025D01*
X140535181Y45644424D01*
X141000000Y45179605D01*
X141820395Y46000000D01*
X142179605Y46000000D01*
X143000000Y45179605D01*
X143820395Y46000000D01*
X144179605Y46000000D01*
X145000000Y45179605D01*
X145820395Y46000000D01*
X146179605Y46000000D01*
X147000000Y45179605D01*
X147820395Y46000000D01*
X148179605Y46000000D01*
X148644424Y45535181D01*
X148839025Y45547393D01*
X148948363Y45902927D01*
X148913322Y46273239D01*
X148839025Y46452607D01*
X148644424Y46464819D01*
X148179605Y46000000D01*
X147820395Y46000000D01*
X147000000Y46820395D01*
X146179605Y46000000D01*
X145820395Y46000000D01*
X145000000Y46820395D01*
X144179605Y46000000D01*
X143820395Y46000000D01*
X143000000Y46820395D01*
X142179605Y46000000D01*
X141820395Y46000000D01*
X141000000Y46820395D01*
X140535181Y46355576D01*
X139464819Y46355576D01*
X139000000Y46820395D01*
X138535181Y46355576D01*
X137464819Y46355576D01*
X137000000Y46820395D01*
X136535181Y46355576D01*
X113090134Y46355576D01*
X112348637Y47097073D01*
X136051637Y47097073D01*
X136086678Y46726761D01*
X136160975Y46547393D01*
X136355576Y46535181D01*
X136820395Y47000000D01*
X137179605Y47000000D01*
X137644424Y46535181D01*
X137839025Y46547393D01*
X137948363Y46902927D01*
X137934013Y47054579D01*
X138054579Y47065987D01*
X138086678Y46726761D01*
X138160975Y46547393D01*
X138355576Y46535181D01*
X138820395Y47000000D01*
X139179605Y47000000D01*
X139644424Y46535181D01*
X139839025Y46547393D01*
X139948363Y46902927D01*
X139934013Y47054579D01*
X140054579Y47065987D01*
X140086678Y46726761D01*
X140160975Y46547393D01*
X140355576Y46535181D01*
X140820395Y47000000D01*
X141179605Y47000000D01*
X142000000Y46179605D01*
X142820395Y47000000D01*
X143179605Y47000000D01*
X144000000Y46179605D01*
X144820395Y47000000D01*
X145179605Y47000000D01*
X146000000Y46179605D01*
X146820395Y47000000D01*
X147179605Y47000000D01*
X148000000Y46179605D01*
X148464819Y46644424D01*
X148452607Y46839025D01*
X148097073Y46948363D01*
X147945421Y46934013D01*
X147934013Y47054579D01*
X148273239Y47086678D01*
X148452607Y47160975D01*
X148464819Y47355576D01*
X148000000Y47820395D01*
X147179605Y47000000D01*
X146820395Y47000000D01*
X146000000Y47820395D01*
X145179605Y47000000D01*
X144820395Y47000000D01*
X144000000Y47820395D01*
X143179605Y47000000D01*
X142820395Y47000000D01*
X142000000Y47820395D01*
X141179605Y47000000D01*
X140820395Y47000000D01*
X140000000Y47820395D01*
X139179605Y47000000D01*
X138820395Y47000000D01*
X138000000Y47820395D01*
X137179605Y47000000D01*
X136820395Y47000000D01*
X136355576Y47464819D01*
X136160975Y47452607D01*
X136051637Y47097073D01*
X112348637Y47097073D01*
X111090134Y48355576D01*
X136535181Y48355576D01*
X136547393Y48160975D01*
X136902927Y48051637D01*
X137054579Y48065987D01*
X137065987Y47945421D01*
X136726761Y47913322D01*
X136547393Y47839025D01*
X136535181Y47644424D01*
X137000000Y47179605D01*
X137820395Y48000000D01*
X138179605Y48000000D01*
X139000000Y47179605D01*
X139820395Y48000000D01*
X140179605Y48000000D01*
X141000000Y47179605D01*
X141820395Y48000000D01*
X142179605Y48000000D01*
X143000000Y47179605D01*
X143820395Y48000000D01*
X144179605Y48000000D01*
X145000000Y47179605D01*
X145820395Y48000000D01*
X146179605Y48000000D01*
X147000000Y47179605D01*
X147820395Y48000000D01*
X148179605Y48000000D01*
X148644424Y47535181D01*
X148839025Y47547393D01*
X148948363Y47902927D01*
X148913322Y48273239D01*
X148839025Y48452607D01*
X148644424Y48464819D01*
X148179605Y48000000D01*
X147820395Y48000000D01*
X147000000Y48820395D01*
X146179605Y48000000D01*
X145820395Y48000000D01*
X145000000Y48820395D01*
X144179605Y48000000D01*
X143820395Y48000000D01*
X143000000Y48820395D01*
X142179605Y48000000D01*
X141820395Y48000000D01*
X141000000Y48820395D01*
X140179605Y48000000D01*
X139820395Y48000000D01*
X139000000Y48820395D01*
X138179605Y48000000D01*
X137820395Y48000000D01*
X137000000Y48820395D01*
X136535181Y48355576D01*
X111090134Y48355576D01*
X110348637Y49097073D01*
X136051637Y49097073D01*
X136086678Y48726761D01*
X136160975Y48547393D01*
X136355576Y48535181D01*
X136820395Y49000000D01*
X137179605Y49000000D01*
X138000000Y48179605D01*
X138820395Y49000000D01*
X139179605Y49000000D01*
X140000000Y48179605D01*
X140820395Y49000000D01*
X141179605Y49000000D01*
X142000000Y48179605D01*
X142820395Y49000000D01*
X143179605Y49000000D01*
X144000000Y48179605D01*
X144820395Y49000000D01*
X145179605Y49000000D01*
X146000000Y48179605D01*
X146820395Y49000000D01*
X147179605Y49000000D01*
X148000000Y48179605D01*
X148464819Y48644424D01*
X148452607Y48839025D01*
X148097073Y48948363D01*
X147945421Y48934013D01*
X147934013Y49054579D01*
X148273239Y49086678D01*
X148452607Y49160975D01*
X148464819Y49355576D01*
X148000000Y49820395D01*
X147179605Y49000000D01*
X146820395Y49000000D01*
X146000000Y49820395D01*
X145179605Y49000000D01*
X144820395Y49000000D01*
X144000000Y49820395D01*
X143179605Y49000000D01*
X142820395Y49000000D01*
X142000000Y49820395D01*
X141179605Y49000000D01*
X140820395Y49000000D01*
X140000000Y49820395D01*
X139179605Y49000000D01*
X138820395Y49000000D01*
X138000000Y49820395D01*
X137179605Y49000000D01*
X136820395Y49000000D01*
X136355576Y49464819D01*
X136160975Y49452607D01*
X136051637Y49097073D01*
X110348637Y49097073D01*
X109801286Y49644424D01*
X136535181Y49644424D01*
X137000000Y49179605D01*
X137820395Y50000000D01*
X138179605Y50000000D01*
X139000000Y49179605D01*
X139820395Y50000000D01*
X140179605Y50000000D01*
X141000000Y49179605D01*
X141820395Y50000000D01*
X142179605Y50000000D01*
X143000000Y49179605D01*
X143820395Y50000000D01*
X144179605Y50000000D01*
X145000000Y49179605D01*
X145820395Y50000000D01*
X146179605Y50000000D01*
X147000000Y49179605D01*
X147820395Y50000000D01*
X148179605Y50000000D01*
X148644424Y49535181D01*
X148839025Y49547393D01*
X148948363Y49902927D01*
X148913322Y50273239D01*
X148839025Y50452607D01*
X148644424Y50464819D01*
X148179605Y50000000D01*
X147820395Y50000000D01*
X147355576Y50464819D01*
X147160975Y50452607D01*
X147051637Y50097073D01*
X147065987Y49945421D01*
X146945421Y49934013D01*
X146913322Y50273239D01*
X146839025Y50452607D01*
X146644424Y50464819D01*
X146179605Y50000000D01*
X145820395Y50000000D01*
X145355576Y50464819D01*
X145160975Y50452607D01*
X145051637Y50097073D01*
X145065987Y49945421D01*
X144945421Y49934013D01*
X144913322Y50273239D01*
X144839025Y50452607D01*
X144644424Y50464819D01*
X144179605Y50000000D01*
X143820395Y50000000D01*
X143355576Y50464819D01*
X143160975Y50452607D01*
X143051637Y50097073D01*
X143065987Y49945421D01*
X142945421Y49934013D01*
X142913322Y50273239D01*
X142839025Y50452607D01*
X142644424Y50464819D01*
X142179605Y50000000D01*
X141820395Y50000000D01*
X141355576Y50464819D01*
X141160975Y50452607D01*
X141051637Y50097073D01*
X141065987Y49945421D01*
X140945421Y49934013D01*
X140913322Y50273239D01*
X140839025Y50452607D01*
X140644424Y50464819D01*
X140179605Y50000000D01*
X139820395Y50000000D01*
X139355576Y50464819D01*
X139160975Y50452607D01*
X139051637Y50097073D01*
X139065987Y49945421D01*
X138945421Y49934013D01*
X138913322Y50273239D01*
X138839025Y50452607D01*
X138644424Y50464819D01*
X138179605Y50000000D01*
X137820395Y50000000D01*
X137355576Y50464819D01*
X137160975Y50452607D01*
X137051637Y50097073D01*
X137065987Y49945421D01*
X136726761Y49913322D01*
X136547393Y49839025D01*
X136535181Y49644424D01*
X109801286Y49644424D01*
X108801286Y50644424D01*
X137535181Y50644424D01*
X138000000Y50179605D01*
X138464819Y50644424D01*
X139535181Y50644424D01*
X140000000Y50179605D01*
X140464819Y50644424D01*
X141535181Y50644424D01*
X142000000Y50179605D01*
X142464819Y50644424D01*
X143535181Y50644424D01*
X144000000Y50179605D01*
X144464819Y50644424D01*
X145535181Y50644424D01*
X146000000Y50179605D01*
X146464819Y50644424D01*
X147535181Y50644424D01*
X148000000Y50179605D01*
X148464819Y50644424D01*
X148452607Y50839025D01*
X148097073Y50948363D01*
X147726761Y50913322D01*
X147547393Y50839025D01*
X147535181Y50644424D01*
X146464819Y50644424D01*
X146452607Y50839025D01*
X146097073Y50948363D01*
X145726761Y50913322D01*
X145547393Y50839025D01*
X145535181Y50644424D01*
X144464819Y50644424D01*
X144452607Y50839025D01*
X144097073Y50948363D01*
X143726761Y50913322D01*
X143547393Y50839025D01*
X143535181Y50644424D01*
X142464819Y50644424D01*
X142452607Y50839025D01*
X142097073Y50948363D01*
X141726761Y50913322D01*
X141547393Y50839025D01*
X141535181Y50644424D01*
X140464819Y50644424D01*
X140452607Y50839025D01*
X140097073Y50948363D01*
X139726761Y50913322D01*
X139547393Y50839025D01*
X139535181Y50644424D01*
X138464819Y50644424D01*
X138452607Y50839025D01*
X138097073Y50948363D01*
X137726761Y50913322D01*
X137547393Y50839025D01*
X137535181Y50644424D01*
X108801286Y50644424D01*
X102957169Y56488541D01*
X102957169Y78766785D01*
X102901099Y79048670D01*
X102741424Y79287640D01*
X101981683Y80047381D01*
X110764613Y80047381D01*
X111104155Y79225628D01*
X111732321Y78596364D01*
X112553481Y78255389D01*
X113442619Y78254613D01*
X114264372Y78594155D01*
X114893636Y79222321D01*
X115234611Y80043481D01*
X115235387Y80932619D01*
X114895845Y81754372D01*
X114267679Y82383636D01*
X113446519Y82724611D01*
X112557381Y82725387D01*
X111735628Y82385845D01*
X111106364Y81757679D01*
X110765389Y80936519D01*
X110764613Y80047381D01*
X101981683Y80047381D01*
X99914231Y82114833D01*
X105364838Y82114833D01*
X105506883Y81771057D01*
X105769673Y81507808D01*
X106113201Y81365162D01*
X106485167Y81364838D01*
X106828943Y81506883D01*
X107092192Y81769673D01*
X107234838Y82113201D01*
X107234876Y82157246D01*
X109615631Y84538000D01*
X111939534Y84538000D01*
X111969673Y84507808D01*
X112313201Y84365162D01*
X112685167Y84364838D01*
X113028943Y84506883D01*
X113292192Y84769673D01*
X113434838Y85113201D01*
X113435162Y85485167D01*
X113293117Y85828943D01*
X113030327Y86092192D01*
X112686799Y86234838D01*
X112314833Y86235162D01*
X111971057Y86093117D01*
X111939886Y86062000D01*
X109300000Y86062000D01*
X109008395Y86003996D01*
X108918002Y85943597D01*
X108761185Y85838816D01*
X106157495Y83235125D01*
X106114833Y83235162D01*
X105771057Y83093117D01*
X105507808Y82830327D01*
X105365162Y82486799D01*
X105364838Y82114833D01*
X99914231Y82114833D01*
X99060218Y82968846D01*
X99060286Y83047397D01*
X98918241Y83391173D01*
X98655451Y83654422D01*
X98311923Y83797068D01*
X97939957Y83797392D01*
X97596181Y83655347D01*
X97332932Y83392557D01*
X97190286Y83049029D01*
X97189962Y82677063D01*
X97332007Y82333287D01*
X97594797Y82070038D01*
X97938325Y81927392D01*
X98018322Y81927322D01*
X101483969Y78461675D01*
X101483969Y56183431D01*
X101540039Y55901546D01*
X101699714Y55662576D01*
X115199400Y42162890D01*
X115199400Y37019714D01*
X114895845Y37754372D01*
X114267679Y38383636D01*
X113446519Y38724611D01*
X112557381Y38725387D01*
X111735628Y38385845D01*
X111106364Y37757679D01*
X110765389Y36936519D01*
X110764613Y36047381D01*
X111104155Y35225628D01*
X111732321Y34596364D01*
X112553481Y34255389D01*
X113442619Y34254613D01*
X114264372Y34594155D01*
X114893636Y35222321D01*
X115199400Y35958683D01*
X115199400Y8998028D01*
X115002005Y8916466D01*
X114665821Y8580868D01*
X114332437Y8914834D01*
X113725845Y9166713D01*
X113069037Y9167286D01*
X112869055Y9084655D01*
X109972855Y11980855D01*
X109733885Y12140530D01*
X109452000Y12196600D01*
X105847133Y12196600D01*
X98623285Y19421224D01*
X99629450Y19421224D01*
X100111796Y18253857D01*
X101004159Y17359935D01*
X102170683Y16875552D01*
X103433776Y16874450D01*
X104601143Y17356796D01*
X105495065Y18249159D01*
X105979448Y19415683D01*
X105979752Y19764250D01*
X109435000Y19764250D01*
X109435000Y17523690D01*
X109531673Y17290301D01*
X109710302Y17111673D01*
X109943691Y17015000D01*
X111164250Y17015000D01*
X111323000Y17173750D01*
X111323000Y19923000D01*
X111577000Y19923000D01*
X111577000Y17173750D01*
X111735750Y17015000D01*
X112956309Y17015000D01*
X113189698Y17111673D01*
X113368327Y17290301D01*
X113465000Y17523690D01*
X113465000Y19764250D01*
X113306250Y19923000D01*
X111577000Y19923000D01*
X111323000Y19923000D01*
X109593750Y19923000D01*
X109435000Y19764250D01*
X105979752Y19764250D01*
X105980550Y20678776D01*
X105498204Y21846143D01*
X104769311Y22576310D01*
X109435000Y22576310D01*
X109435000Y20335750D01*
X109593750Y20177000D01*
X111323000Y20177000D01*
X111323000Y22926250D01*
X111577000Y22926250D01*
X111577000Y20177000D01*
X113306250Y20177000D01*
X113465000Y20335750D01*
X113465000Y22576310D01*
X113368327Y22809699D01*
X113189698Y22988327D01*
X112956309Y23085000D01*
X111735750Y23085000D01*
X111577000Y22926250D01*
X111323000Y22926250D01*
X111164250Y23085000D01*
X109943691Y23085000D01*
X109710302Y22988327D01*
X109531673Y22809699D01*
X109435000Y22576310D01*
X104769311Y22576310D01*
X104605841Y22740065D01*
X103439317Y23224448D01*
X102176224Y23225550D01*
X101008857Y22743204D01*
X100114935Y21850841D01*
X99630552Y20684317D01*
X99629450Y19421224D01*
X98623285Y19421224D01*
X96960600Y21084087D01*
X96960600Y32567537D01*
X97048201Y32531162D01*
X97420167Y32530838D01*
X97763943Y32672883D01*
X98027192Y32935673D01*
X98169838Y33279201D01*
X98170162Y33651167D01*
X98028117Y33994943D01*
X97995000Y34028118D01*
X97995000Y34812198D01*
X102083680Y38900878D01*
X102129167Y38900838D01*
X102472943Y39042883D01*
X102736192Y39305673D01*
X102878838Y39649201D01*
X102879162Y40021167D01*
X102737117Y40364943D01*
X102474327Y40628192D01*
X102130799Y40770838D01*
X101758833Y40771162D01*
X101415057Y40629117D01*
X101151808Y40366327D01*
X101009162Y40022799D01*
X101009121Y39975923D01*
X96960600Y35927402D01*
X96960600Y35986890D01*
X98769855Y37796145D01*
X98929530Y38035115D01*
X98985600Y38317000D01*
X98985600Y75319390D01*
X99394616Y75728406D01*
X99473167Y75728338D01*
X99816943Y75870383D01*
X100080192Y76133173D01*
X100222838Y76476701D01*
X100223162Y76848667D01*
X100081117Y77192443D01*
X100024600Y77249059D01*
X100024600Y78664561D01*
X99968530Y78946446D01*
X99808855Y79185416D01*
X96702481Y82291790D01*
X96702549Y82370341D01*
X96560504Y82714117D01*
X96297714Y82977366D01*
X95954186Y83120012D01*
X95582220Y83120336D01*
X95238444Y82978291D01*
X94975195Y82715501D01*
X94832549Y82371973D01*
X94832225Y82000007D01*
X94974270Y81656231D01*
X95237060Y81392982D01*
X95580588Y81250336D01*
X95660585Y81250266D01*
X95794559Y81116292D01*
X95775452Y81108397D01*
X95512203Y80845607D01*
X95369557Y80502079D01*
X95369233Y80130113D01*
X95511278Y79786337D01*
X95774068Y79523088D01*
X96117596Y79380442D01*
X96197593Y79380372D01*
X96288400Y79289565D01*
X96288400Y72539499D01*
X93262000Y75565649D01*
X93262000Y81134138D01*
X96140863Y84013000D01*
X97500000Y84013000D01*
X97510055Y84015000D01*
X100943537Y84015000D01*
X100975673Y83982808D01*
X101319201Y83840162D01*
X101691167Y83839838D01*
X102034943Y83981883D01*
X102298192Y84244673D01*
X102440838Y84588201D01*
X102441162Y84960167D01*
X102299117Y85303943D01*
X102036327Y85567192D01*
X101692799Y85709838D01*
X101320833Y85710162D01*
X100977057Y85568117D01*
X100943882Y85535000D01*
X97510055Y85535000D01*
X97500000Y85537000D01*
X95825232Y85537000D01*
X95564651Y85485167D01*
X95533627Y85478996D01*
X95286416Y85313815D01*
X91961185Y81988583D01*
X91796004Y81741373D01*
X91738000Y81449768D01*
X91738000Y76148310D01*
X89507094Y78379216D01*
X89507162Y78457767D01*
X89365117Y78801543D01*
X89102327Y79064792D01*
X88758799Y79207438D01*
X88386833Y79207762D01*
X88043057Y79065717D01*
X87779808Y78802927D01*
X87637162Y78459399D01*
X87636838Y78087433D01*
X87778883Y77743657D01*
X88041673Y77480408D01*
X88385201Y77337762D01*
X88465198Y77337692D01*
X94674400Y71128490D01*
X94674400Y69522713D01*
X92597094Y71600183D01*
X92597162Y71678767D01*
X92455117Y72022543D01*
X92192327Y72285792D01*
X91848799Y72428438D01*
X91476833Y72428762D01*
X91133057Y72286717D01*
X90869808Y72023927D01*
X90727162Y71680399D01*
X90726838Y71308433D01*
X90868883Y70964657D01*
X91131673Y70701408D01*
X91475201Y70558762D01*
X91555166Y70558692D01*
X93451400Y68662308D01*
X93451400Y8998028D01*
X93254005Y8916466D01*
X92917821Y8580868D01*
X92584437Y8914834D01*
X91977845Y9166713D01*
X91321037Y9167286D01*
X91121055Y9084655D01*
X88311600Y11894110D01*
X88311600Y18651180D01*
X88368192Y18707673D01*
X88510838Y19051201D01*
X88511162Y19423167D01*
X88369117Y19766943D01*
X88272467Y19863761D01*
X88256530Y19943885D01*
X88255961Y19944736D01*
X88255759Y19945738D01*
X88176197Y20064112D01*
X88128600Y20135345D01*
X88128600Y75148378D01*
X88184192Y75203873D01*
X88326838Y75547401D01*
X88327162Y75919367D01*
X88185117Y76263143D01*
X87922327Y76526392D01*
X87578799Y76669038D01*
X87206833Y76669362D01*
X86863057Y76527317D01*
X86599808Y76264527D01*
X86582600Y76223086D01*
X86582600Y76407700D01*
X86555495Y76543968D01*
X86526544Y76689552D01*
X86526533Y76689568D01*
X86526530Y76689585D01*
X86447911Y76807246D01*
X86366880Y76928530D01*
X82609094Y80686677D01*
X82609162Y80765267D01*
X82467117Y81109043D01*
X82204327Y81372292D01*
X81860799Y81514938D01*
X81488833Y81515262D01*
X81145057Y81373217D01*
X80881808Y81110427D01*
X80739162Y80766899D01*
X80738838Y80394933D01*
X80880883Y80051157D01*
X81143673Y79787908D01*
X81487201Y79645262D01*
X81567158Y79645192D01*
X85109400Y76102611D01*
X85109400Y49600299D01*
X85021162Y49387799D01*
X85020838Y49015833D01*
X85124400Y48765193D01*
X85124400Y16586963D01*
X84919057Y16502117D01*
X84655808Y16239327D01*
X84513162Y15895799D01*
X84512838Y15523833D01*
X84654883Y15180057D01*
X84711400Y15123441D01*
X84711400Y9634891D01*
X83864126Y9635630D01*
X82768732Y9183022D01*
X83837855Y10252145D01*
X83892975Y10334638D01*
X83997530Y10491115D01*
X84008047Y10543990D01*
X84053601Y10773000D01*
X84053600Y10773005D01*
X84053600Y12716178D01*
X84109192Y12771673D01*
X84251838Y13115201D01*
X84252162Y13487167D01*
X84242600Y13510309D01*
X84242600Y73783700D01*
X84214723Y73923849D01*
X84186553Y74065530D01*
X84186536Y74065556D01*
X84186530Y74065585D01*
X84107263Y74184216D01*
X84026897Y74304513D01*
X82595094Y75736549D01*
X82595162Y75815167D01*
X82453117Y76158943D01*
X82190327Y76422192D01*
X81846799Y76564838D01*
X81474833Y76565162D01*
X81131057Y76423117D01*
X80867808Y76160327D01*
X80725162Y75816799D01*
X80724838Y75444833D01*
X80866883Y75101057D01*
X81129673Y74837808D01*
X81473201Y74695162D01*
X81553131Y74695092D01*
X82769400Y73478626D01*
X82769400Y14076493D01*
X82524808Y13832327D01*
X82382162Y13488799D01*
X82381838Y13116833D01*
X82523883Y12773057D01*
X82580400Y12716441D01*
X82580400Y11078110D01*
X80587097Y9084807D01*
X80389845Y9166713D01*
X79733037Y9167286D01*
X79126005Y8916466D01*
X78789821Y8580868D01*
X78489961Y8881251D01*
X81704855Y12096145D01*
X81864530Y12335115D01*
X81920600Y12617000D01*
X81920600Y40843890D01*
X82070855Y40994145D01*
X82230530Y41233115D01*
X82286600Y41515000D01*
X82286600Y71852900D01*
X82286592Y71852938D01*
X82286600Y71852977D01*
X82258143Y71995965D01*
X82230530Y72134785D01*
X82230509Y72134817D01*
X82230501Y72134856D01*
X82150235Y72254954D01*
X82070855Y72373755D01*
X82070822Y72373777D01*
X82070800Y72373810D01*
X82008094Y72436503D01*
X82008162Y72514967D01*
X81866117Y72858743D01*
X81603327Y73121992D01*
X81259799Y73264638D01*
X81179984Y73264708D01*
X80441600Y74003415D01*
X80441600Y81041551D01*
X81079171Y81679300D01*
X82366854Y81679300D01*
X83911101Y80134790D01*
X83911126Y80134773D01*
X83911145Y80134745D01*
X84033907Y80052718D01*
X84150057Y79975094D01*
X84150088Y79975088D01*
X84150115Y79975070D01*
X84290612Y79947124D01*
X84431937Y79919000D01*
X84431969Y79919006D01*
X84432000Y79919000D01*
X87482000Y79919000D01*
X87626299Y79947703D01*
X87763853Y79975057D01*
X87763867Y79975066D01*
X87763885Y79975070D01*
X87891621Y80060421D01*
X88002830Y80134721D01*
X88002852Y80134743D01*
X88002855Y80134745D01*
X88002857Y80134748D01*
X91856578Y83988106D01*
X91935167Y83988038D01*
X92278943Y84130083D01*
X92542192Y84392873D01*
X92684838Y84736401D01*
X92685162Y85108367D01*
X92543117Y85452143D01*
X92280327Y85715392D01*
X91936799Y85858038D01*
X91564833Y85858362D01*
X91221057Y85716317D01*
X90957808Y85453527D01*
X90815162Y85109999D01*
X90815092Y85030041D01*
X87202103Y81417389D01*
X87202162Y81485367D01*
X87060117Y81829143D01*
X86797327Y82092392D01*
X86453799Y82235038D01*
X86373826Y82235108D01*
X83348870Y85260240D01*
X83348861Y85260246D01*
X83348855Y85260255D01*
X83225905Y85342408D01*
X83109904Y85419922D01*
X83109894Y85419924D01*
X83109885Y85419930D01*
X82968231Y85448106D01*
X82828021Y85476000D01*
X82828010Y85475998D01*
X82828000Y85476000D01*
X54434263Y85476000D01*
X54266397Y85727228D01*
X53813178Y86030060D01*
X53278569Y86136400D01*
X53223831Y86136400D01*
X52689222Y86030060D01*
X52236003Y85727228D01*
X51933171Y85274009D01*
X51826831Y84739400D01*
X51933171Y84204791D01*
X52236003Y83751572D01*
X52689222Y83448740D01*
X53223831Y83342400D01*
X53278569Y83342400D01*
X53813178Y83448740D01*
X54266397Y83751572D01*
X54434263Y84002800D01*
X82522877Y84002800D01*
X85133326Y81392200D01*
X84737146Y81392200D01*
X83192899Y82936710D01*
X83192874Y82936727D01*
X83192855Y82936755D01*
X83070093Y83018782D01*
X82953943Y83096406D01*
X82953912Y83096412D01*
X82953885Y83096430D01*
X82813388Y83124376D01*
X82672063Y83152500D01*
X82672031Y83152494D01*
X82672000Y83152500D01*
X80774000Y83152500D01*
X80773948Y83152490D01*
X80773896Y83152500D01*
X80634363Y83124725D01*
X80492115Y83096430D01*
X80492070Y83096400D01*
X80492020Y83096390D01*
X80376829Y83019398D01*
X80253145Y82936755D01*
X80253115Y82936710D01*
X80253072Y82936681D01*
X79184072Y81867382D01*
X79105830Y81750249D01*
X79024470Y81628485D01*
X79024460Y81628434D01*
X79024430Y81628389D01*
X78996327Y81486999D01*
X78968400Y81346600D01*
X78968400Y73698400D01*
X78996343Y73557918D01*
X79024408Y73416665D01*
X79024454Y73416596D01*
X79024470Y73416515D01*
X79104639Y73296534D01*
X79184031Y73177659D01*
X79350114Y73011503D01*
X79217808Y72879427D01*
X79075162Y72535899D01*
X79074838Y72163933D01*
X79216883Y71820157D01*
X79273400Y71763541D01*
X79273400Y67405700D01*
X79301596Y67263947D01*
X79318388Y67179474D01*
X79069808Y66931327D01*
X78927162Y66587799D01*
X78927020Y66424763D01*
X78852117Y66606043D01*
X78589327Y66869292D01*
X78245799Y67011938D01*
X77873833Y67012262D01*
X77530057Y66870217D01*
X77266808Y66607427D01*
X77124162Y66263899D01*
X77123838Y65891933D01*
X77254400Y65575948D01*
X77254400Y15912110D01*
X70427097Y9084807D01*
X70229845Y9166713D01*
X69573037Y9167286D01*
X68966005Y8916466D01*
X68501166Y8452437D01*
X68372749Y8143174D01*
X67437751Y9079806D01*
X66112600Y9630057D01*
X66112600Y14786890D01*
X66231616Y14905906D01*
X66310167Y14905838D01*
X66653943Y15047883D01*
X66917192Y15310673D01*
X67059838Y15654201D01*
X67059908Y15734045D01*
X69358759Y18032049D01*
X69358797Y18032107D01*
X69358855Y18032145D01*
X69439037Y18152146D01*
X69518478Y18270990D01*
X69518491Y18271057D01*
X69518530Y18271115D01*
X69546583Y18412146D01*
X69574600Y18552864D01*
X69574586Y18552932D01*
X69574600Y18553000D01*
X69574600Y45244178D01*
X69630192Y45299673D01*
X69772838Y45643201D01*
X69772908Y45723191D01*
X75156851Y51107041D01*
X75156855Y51107045D01*
X75236282Y51225916D01*
X75316528Y51346010D01*
X75316529Y51346013D01*
X75316530Y51346015D01*
X75334152Y51434609D01*
X75372601Y51627894D01*
X75372600Y51627900D01*
X75372600Y71837578D01*
X75428192Y71893073D01*
X75570838Y72236601D01*
X75571162Y72608567D01*
X75429117Y72952343D01*
X75166327Y73215592D01*
X74822799Y73358238D01*
X74450833Y73358562D01*
X74107057Y73216517D01*
X73843808Y72953727D01*
X73701162Y72610199D01*
X73700838Y72238233D01*
X73842883Y71894457D01*
X73899400Y71837841D01*
X73899400Y51933014D01*
X68731392Y46765094D01*
X68652833Y46765162D01*
X68309057Y46623117D01*
X68045808Y46360327D01*
X67903162Y46016799D01*
X67902838Y45644833D01*
X68044883Y45301057D01*
X68101400Y45244441D01*
X68101400Y18858190D01*
X66018536Y16776093D01*
X65939833Y16776162D01*
X65596057Y16634117D01*
X65332808Y16371327D01*
X65190162Y16027799D01*
X65190092Y15947802D01*
X64855145Y15612855D01*
X64695470Y15373885D01*
X64639400Y15092000D01*
X64639400Y9628719D01*
X63319628Y9083400D01*
X62378809Y8144222D01*
X62252466Y8449995D01*
X61788437Y8914834D01*
X61588600Y8997814D01*
X61588600Y39750000D01*
X61532530Y40031885D01*
X61372855Y40270855D01*
X57486600Y44157110D01*
X57486600Y46079746D01*
X57849576Y46079430D01*
X58193352Y46221475D01*
X58224523Y46252592D01*
X61320827Y46252592D01*
X61338586Y46209611D01*
X61601376Y45946362D01*
X61944904Y45803716D01*
X62316870Y45803392D01*
X62660646Y45945437D01*
X62923895Y46208227D01*
X63066541Y46551755D01*
X63066865Y46923721D01*
X62924820Y47267497D01*
X62662030Y47530746D01*
X62318502Y47673392D01*
X62214775Y47673482D01*
X62147270Y47718588D01*
X61855665Y47776592D01*
X58318302Y47776592D01*
X65305110Y54763400D01*
X72515000Y54763400D01*
X72796885Y54819470D01*
X73035855Y54979145D01*
X73195530Y55218115D01*
X73251600Y55500000D01*
X73251600Y66312778D01*
X73307192Y66368273D01*
X73449838Y66711801D01*
X73450162Y67083767D01*
X73308117Y67427543D01*
X73045327Y67690792D01*
X72701799Y67833438D01*
X72329833Y67833762D01*
X71986057Y67691717D01*
X71722808Y67428927D01*
X71580162Y67085399D01*
X71579838Y66713433D01*
X71721883Y66369657D01*
X71778400Y66313041D01*
X71778400Y65985835D01*
X70767094Y66997053D01*
X70767162Y67075567D01*
X70625117Y67419343D01*
X70362327Y67682592D01*
X70018799Y67825238D01*
X69646833Y67825562D01*
X69303057Y67683517D01*
X69039808Y67420727D01*
X68897162Y67077199D01*
X68896838Y66705233D01*
X69038883Y66361457D01*
X69301673Y66098208D01*
X69645201Y65955562D01*
X69725234Y65955492D01*
X71369400Y64311471D01*
X71369400Y63530462D01*
X69083336Y61244398D01*
X68916633Y61411392D01*
X68573105Y61554038D01*
X68493108Y61554108D01*
X66736600Y63310616D01*
X66736600Y68164178D01*
X66792192Y68219673D01*
X66934838Y68563201D01*
X66935162Y68935167D01*
X66793117Y69278943D01*
X66530327Y69542192D01*
X66186799Y69684838D01*
X65814833Y69685162D01*
X65471057Y69543117D01*
X65207808Y69280327D01*
X65065162Y68936799D01*
X65064838Y68564833D01*
X65206883Y68221057D01*
X65263400Y68164441D01*
X65263400Y63005506D01*
X65319470Y62723621D01*
X65479145Y62484651D01*
X67344596Y60619200D01*
X54694145Y47968749D01*
X54534470Y47729779D01*
X54478400Y47447894D01*
X54478400Y42766600D01*
X54031822Y42766600D01*
X53976327Y42822192D01*
X53632799Y42964838D01*
X53494600Y42964958D01*
X53494600Y43246178D01*
X53550192Y43301673D01*
X53692838Y43645201D01*
X53693162Y44017167D01*
X53551117Y44360943D01*
X53288327Y44624192D01*
X52944799Y44766838D01*
X52572833Y44767162D01*
X52513600Y44742687D01*
X52513600Y46240881D01*
X63565843Y57292634D01*
X63565847Y57292639D01*
X63565855Y57292645D01*
X63651459Y57420759D01*
X63725524Y57531600D01*
X63725526Y57531609D01*
X63725530Y57531615D01*
X63752810Y57668762D01*
X63781600Y57813484D01*
X63781598Y57813492D01*
X63781600Y57813500D01*
X63781600Y72167978D01*
X63837192Y72223473D01*
X63979838Y72567001D01*
X63980162Y72938967D01*
X63838117Y73282743D01*
X63575327Y73545992D01*
X63231799Y73688638D01*
X62859833Y73688962D01*
X62516057Y73546917D01*
X62252808Y73284127D01*
X62110162Y72940599D01*
X62109838Y72568633D01*
X62251883Y72224857D01*
X62308400Y72168241D01*
X62308400Y58118620D01*
X51256157Y47066866D01*
X51256153Y47066861D01*
X51256145Y47066855D01*
X51176971Y46948363D01*
X51096476Y46827900D01*
X51096474Y46827891D01*
X51096470Y46827885D01*
X51075605Y46722987D01*
X51040400Y46546016D01*
X51040402Y46546008D01*
X51040400Y46546000D01*
X51040400Y34777058D01*
X50920833Y34777162D01*
X50577057Y34635117D01*
X50313808Y34372327D01*
X50171162Y34028799D01*
X50171155Y34020707D01*
X39171319Y23020871D01*
X38550000Y23144459D01*
X37778893Y22991076D01*
X37125180Y22554279D01*
X36688383Y21900566D01*
X36535000Y21129459D01*
X36535000Y18970541D01*
X36688383Y18199434D01*
X37125180Y17545721D01*
X37778893Y17108924D01*
X38550000Y16955541D01*
X39321107Y17108924D01*
X39974820Y17545721D01*
X40411617Y18199434D01*
X40565000Y18970541D01*
X40565000Y19421224D01*
X44019450Y19421224D01*
X44501796Y18253857D01*
X45394159Y17359935D01*
X46560683Y16875552D01*
X47823776Y16874450D01*
X48991143Y17356796D01*
X49885065Y18249159D01*
X50369448Y19415683D01*
X50370550Y20678776D01*
X49888204Y21846143D01*
X48995841Y22740065D01*
X47829317Y23224448D01*
X46566224Y23225550D01*
X45398857Y22743204D01*
X44504935Y21850841D01*
X44020552Y20684317D01*
X44019450Y19421224D01*
X40565000Y19421224D01*
X40565000Y21129459D01*
X40411617Y21900566D01*
X40358145Y21980593D01*
X51040400Y32662848D01*
X51040400Y9159008D01*
X51021845Y9166713D01*
X50365037Y9167286D01*
X49758005Y8916466D01*
X49293166Y8452437D01*
X49164749Y8143174D01*
X48229751Y9079806D01*
X46894218Y9634368D01*
X45448126Y9635630D01*
X44122050Y9087706D01*
X35614060Y17595850D01*
X35614057Y17595852D01*
X35614055Y17595855D01*
X35505976Y17668072D01*
X35375091Y17755528D01*
X35375087Y17755529D01*
X35375085Y17755530D01*
X35271699Y17776095D01*
X35093207Y17811600D01*
X35093203Y17811599D01*
X35093200Y17811600D01*
X35029822Y17811600D01*
X34974327Y17867192D01*
X34630799Y18009838D01*
X34436000Y18010008D01*
X34436000Y36047381D01*
X34684613Y36047381D01*
X35024155Y35225628D01*
X35652321Y34596364D01*
X36473481Y34255389D01*
X37362619Y34254613D01*
X38184372Y34594155D01*
X38813636Y35222321D01*
X39154611Y36043481D01*
X39155387Y36932619D01*
X38815845Y37754372D01*
X38187679Y38383636D01*
X37366519Y38724611D01*
X36477381Y38725387D01*
X35655628Y38385845D01*
X35026364Y37757679D01*
X34685389Y36936519D01*
X34684613Y36047381D01*
X34436000Y36047381D01*
X34436000Y37249890D01*
X48717304Y51531194D01*
X48876979Y51770164D01*
X48933049Y52052049D01*
X48933049Y62972005D01*
X48988641Y63027500D01*
X49131287Y63371028D01*
X49131357Y63451025D01*
X60578974Y74898642D01*
X60734452Y74834081D01*
X61106418Y74833757D01*
X61450194Y74975802D01*
X61713443Y75238592D01*
X61856089Y75582120D01*
X61856413Y75954086D01*
X61714368Y76297862D01*
X61451578Y76561111D01*
X61108050Y76703757D01*
X60736084Y76704081D01*
X60392308Y76562036D01*
X60317813Y76487671D01*
X60125656Y76449449D01*
X59886686Y76289774D01*
X48089833Y64492921D01*
X48011282Y64492989D01*
X47667506Y64350944D01*
X47404257Y64088154D01*
X47261611Y63744626D01*
X47261287Y63372660D01*
X47403332Y63028884D01*
X47459849Y62972268D01*
X47459849Y52357159D01*
X33178545Y38075855D01*
X33018870Y37836885D01*
X32962800Y37555000D01*
X32962800Y12920600D01*
X33018870Y12638715D01*
X33178545Y12399745D01*
X36411156Y9167134D01*
X36237037Y9167286D01*
X36037030Y9084645D01*
X31186400Y13935116D01*
X31186400Y40857469D01*
X31438022Y40689340D01*
X31972631Y40583000D01*
X32027369Y40583000D01*
X32561978Y40689340D01*
X33015197Y40992172D01*
X33199223Y41267586D01*
X33359515Y41299470D01*
X33598485Y41459145D01*
X38233264Y46093924D01*
X38392939Y46332894D01*
X38449009Y46614779D01*
X38449009Y61319882D01*
X38504601Y61375377D01*
X38647247Y61718905D01*
X38647571Y62090871D01*
X38505526Y62434647D01*
X38242736Y62697896D01*
X37899208Y62840542D01*
X37527242Y62840866D01*
X37183466Y62698821D01*
X36920217Y62436031D01*
X36777571Y62092503D01*
X36777247Y61720537D01*
X36919292Y61376761D01*
X36975809Y61320145D01*
X36975809Y46919889D01*
X34677800Y44621880D01*
X34677800Y59955090D01*
X35315187Y60592477D01*
X35355709Y60592442D01*
X35699485Y60734487D01*
X35962734Y60997277D01*
X36105380Y61340805D01*
X36105704Y61712771D01*
X35963659Y62056547D01*
X35700869Y62319796D01*
X35357341Y62462442D01*
X34985375Y62462766D01*
X34641599Y62320721D01*
X34595397Y62274600D01*
X33419317Y62274600D01*
X33424369Y62300000D01*
X33318029Y62834609D01*
X33015197Y63287828D01*
X32592898Y63570000D01*
X33015197Y63852172D01*
X33318029Y64305391D01*
X33424369Y64840000D01*
X33318029Y65374609D01*
X33015197Y65827828D01*
X32592898Y66110000D01*
X33015197Y66392172D01*
X33318029Y66845391D01*
X33424369Y67380000D01*
X33318029Y67914609D01*
X33015197Y68367828D01*
X32592898Y68650000D01*
X33015197Y68932172D01*
X33318029Y69385391D01*
X33424369Y69920000D01*
X33318029Y70454609D01*
X33015197Y70907828D01*
X32562536Y71210287D01*
X32835199Y71340142D01*
X33200174Y71745003D01*
X33354220Y72116930D01*
X33231720Y72333000D01*
X32127000Y72333000D01*
X32127000Y72313000D01*
X31873000Y72313000D01*
X31873000Y72333000D01*
X30768280Y72333000D01*
X30645780Y72116930D01*
X30799826Y71745003D01*
X31164801Y71340142D01*
X31437464Y71210287D01*
X30984803Y70907828D01*
X30681971Y70454609D01*
X30575631Y69920000D01*
X30639118Y69600828D01*
X29098845Y68060555D01*
X28939170Y67821585D01*
X28883100Y67539700D01*
X28883100Y34434885D01*
X28564833Y34435162D01*
X28221057Y34293117D01*
X27957808Y34030327D01*
X27815162Y33686799D01*
X27814838Y33314833D01*
X27956883Y32971057D01*
X27988000Y32939886D01*
X27988000Y31560466D01*
X27957808Y31530327D01*
X27815162Y31186799D01*
X27814838Y30814833D01*
X27956883Y30471057D01*
X28219673Y30207808D01*
X28563201Y30065162D01*
X28883100Y30064883D01*
X28883100Y9380000D01*
X28883106Y9379971D01*
X28883100Y9379941D01*
X28909240Y9248582D01*
X28935705Y9115535D01*
X27696600Y9630057D01*
X27696600Y23206000D01*
X27640530Y23487885D01*
X27480855Y23726855D01*
X25913094Y25294616D01*
X25913162Y25373167D01*
X25771117Y25716943D01*
X25508327Y25980192D01*
X25164799Y26122838D01*
X24792833Y26123162D01*
X24449057Y25981117D01*
X24185808Y25718327D01*
X24043162Y25374799D01*
X24042838Y25002833D01*
X24184883Y24659057D01*
X24447673Y24395808D01*
X24791201Y24253162D01*
X24871198Y24253092D01*
X26223400Y22900890D01*
X26223400Y9628719D01*
X24903628Y9083400D01*
X23962809Y8144222D01*
X23836466Y8449995D01*
X23372437Y8914834D01*
X22765845Y9166713D01*
X22109037Y9167286D01*
X21502005Y8916466D01*
X21165821Y8580868D01*
X20832437Y8914834D01*
X20225845Y9166713D01*
X19911225Y9166987D01*
X19925749Y9240003D01*
X19952800Y9375961D01*
X19952796Y9375981D01*
X19952800Y9376000D01*
X19952800Y53019972D01*
X19995602Y52955915D01*
X20054295Y52868075D01*
X20064875Y52857495D01*
X20064838Y52814833D01*
X20206883Y52471057D01*
X20238000Y52439886D01*
X20238000Y44310466D01*
X20207808Y44280327D01*
X20065162Y43936799D01*
X20064838Y43564833D01*
X20206883Y43221057D01*
X20469673Y42957808D01*
X20813201Y42815162D01*
X21185167Y42814838D01*
X21528943Y42956883D01*
X21792192Y43219673D01*
X21934838Y43563201D01*
X21935162Y43935167D01*
X21793117Y44278943D01*
X21762000Y44310114D01*
X21762000Y52439534D01*
X21792192Y52469673D01*
X21934838Y52813201D01*
X21935162Y53185167D01*
X21793117Y53528943D01*
X21530327Y53792192D01*
X21355110Y53864949D01*
X21355110Y61816680D01*
X21596285Y61816680D01*
X21725533Y61523877D01*
X22425806Y61255612D01*
X23175435Y61275750D01*
X23774467Y61523877D01*
X23903715Y61816680D01*
X22750000Y62970395D01*
X21596285Y61816680D01*
X21355110Y61816680D01*
X21355110Y62023463D01*
X21416680Y61996285D01*
X22570395Y63150000D01*
X22929605Y63150000D01*
X24083320Y61996285D01*
X24376123Y62125533D01*
X24644388Y62825806D01*
X24624250Y63575435D01*
X24376123Y64174467D01*
X24083320Y64303715D01*
X22929605Y63150000D01*
X22570395Y63150000D01*
X21416680Y64303715D01*
X21355110Y64276537D01*
X21355110Y64483320D01*
X21596285Y64483320D01*
X22750000Y63329605D01*
X23903715Y64483320D01*
X23774467Y64776123D01*
X23074194Y65044388D01*
X22324565Y65024250D01*
X21725533Y64776123D01*
X21596285Y64483320D01*
X21355110Y64483320D01*
X21355110Y65077480D01*
X22815631Y66538000D01*
X23566279Y66538000D01*
X23575169Y66516485D01*
X23964436Y66126539D01*
X24473298Y65915241D01*
X25024285Y65914760D01*
X25533515Y66125169D01*
X25923461Y66514436D01*
X26134759Y67023298D01*
X26135240Y67574285D01*
X25924831Y68083515D01*
X25535564Y68473461D01*
X25351414Y68549927D01*
X25533515Y68625169D01*
X25923461Y69014436D01*
X26134759Y69523298D01*
X26135240Y70074285D01*
X25924831Y70583515D01*
X25535564Y70973461D01*
X25367246Y71043353D01*
X25473923Y71087540D01*
X25541912Y71328483D01*
X24750000Y72120395D01*
X23958088Y71328483D01*
X24026077Y71087540D01*
X24140611Y71046778D01*
X23966485Y70974831D01*
X23576539Y70585564D01*
X23365241Y70076702D01*
X23364760Y69525715D01*
X23575169Y69016485D01*
X23964436Y68626539D01*
X24148586Y68550073D01*
X23966485Y68474831D01*
X23576539Y68085564D01*
X23566754Y68062000D01*
X22500000Y68062000D01*
X22208395Y68003996D01*
X22139270Y67957808D01*
X21961185Y67838816D01*
X20897900Y66775530D01*
X20897900Y70138990D01*
X23402008Y72643098D01*
X23352799Y72504829D01*
X23380770Y71954552D01*
X23537540Y71576077D01*
X23778483Y71508088D01*
X24570395Y72300000D01*
X24929605Y72300000D01*
X25721517Y71508088D01*
X25962460Y71576077D01*
X26147201Y72095171D01*
X26119230Y72645448D01*
X25962460Y73023923D01*
X25721517Y73091912D01*
X24929605Y72300000D01*
X24570395Y72300000D01*
X24556253Y72314142D01*
X24735858Y72493747D01*
X24750000Y72479605D01*
X25541912Y73271517D01*
X25473923Y73512460D01*
X24954829Y73697201D01*
X24429403Y73670493D01*
X25758910Y75000000D01*
X30575631Y75000000D01*
X30681971Y74465391D01*
X30984803Y74012172D01*
X31437464Y73709713D01*
X31164801Y73579858D01*
X30799826Y73174997D01*
X30645780Y72803070D01*
X30768280Y72587000D01*
X31873000Y72587000D01*
X31873000Y72607000D01*
X32127000Y72607000D01*
X32127000Y72587000D01*
X33231720Y72587000D01*
X33256225Y72630223D01*
X41212600Y64673848D01*
X41212600Y60535111D01*
X41207808Y60530327D01*
X41065162Y60186799D01*
X41064838Y59814833D01*
X41206883Y59471057D01*
X41469673Y59207808D01*
X41813201Y59065162D01*
X42185167Y59064838D01*
X42528943Y59206883D01*
X42792192Y59469673D01*
X42934838Y59813201D01*
X42935162Y60185167D01*
X42793117Y60528943D01*
X42787400Y60534670D01*
X42787400Y65000000D01*
X42727463Y65301325D01*
X42556776Y65556776D01*
X33372801Y74740751D01*
X33424369Y75000000D01*
X33318029Y75534609D01*
X33015197Y75987828D01*
X32561978Y76290660D01*
X32027369Y76397000D01*
X31972631Y76397000D01*
X31438022Y76290660D01*
X30984803Y75987828D01*
X30681971Y75534609D01*
X30575631Y75000000D01*
X25758910Y75000000D01*
X30806291Y80047381D01*
X34684613Y80047381D01*
X35024155Y79225628D01*
X35652321Y78596364D01*
X36473481Y78255389D01*
X37362619Y78254613D01*
X38184372Y78594155D01*
X38813636Y79222321D01*
X39154611Y80043481D01*
X39155387Y80932619D01*
X38815845Y81754372D01*
X38187679Y82383636D01*
X37366519Y82724611D01*
X36477381Y82725387D01*
X35655628Y82385845D01*
X35026364Y81757679D01*
X34685389Y80936519D01*
X34684613Y80047381D01*
X30806291Y80047381D01*
X34687516Y83928606D01*
X34766067Y83928538D01*
X35109843Y84070583D01*
X35373092Y84333373D01*
X35515738Y84676901D01*
X35515792Y84739400D01*
X45324431Y84739400D01*
X45430771Y84204791D01*
X45733603Y83751572D01*
X46186822Y83448740D01*
X46721431Y83342400D01*
X46776169Y83342400D01*
X47310778Y83448740D01*
X47763997Y83751572D01*
X48066829Y84204791D01*
X48173169Y84739400D01*
X48066829Y85274009D01*
X47763997Y85727228D01*
X47310778Y86030060D01*
X46776169Y86136400D01*
X46721431Y86136400D01*
X46186822Y86030060D01*
X45733603Y85727228D01*
X45430771Y85274009D01*
X45324431Y84739400D01*
X35515792Y84739400D01*
X35516062Y85048867D01*
X35374017Y85392643D01*
X35111227Y85655892D01*
X34767699Y85798538D01*
X34395733Y85798862D01*
X34051957Y85656817D01*
X33788708Y85394027D01*
X33646062Y85050499D01*
X33645992Y84970502D01*
X24546952Y75871462D01*
X24644388Y76125806D01*
X24624250Y76875435D01*
X24376123Y77474467D01*
X24083320Y77603715D01*
X22929605Y76450000D01*
X22943748Y76435857D01*
X22764143Y76256252D01*
X22750000Y76270395D01*
X21596285Y75116680D01*
X21725533Y74823877D01*
X22425806Y74555612D01*
X23175435Y74575750D01*
X23304842Y74629352D01*
X19640445Y70964955D01*
X19480770Y70725985D01*
X19424700Y70444100D01*
X19424700Y63081716D01*
X19176648Y63184716D01*
X18526205Y63185284D01*
X17925057Y62936894D01*
X17464722Y62477363D01*
X17215284Y61876648D01*
X17214716Y61226205D01*
X17463106Y60625057D01*
X17922637Y60164722D01*
X18523352Y59915284D01*
X19173795Y59914716D01*
X19424700Y60018388D01*
X19424700Y58580679D01*
X19114539Y58695908D01*
X18464540Y58671856D01*
X17975736Y58469387D01*
X17877073Y58202532D01*
X18850000Y57229605D01*
X18864143Y57243747D01*
X19043748Y57064142D01*
X19029605Y57050000D01*
X19043748Y57035857D01*
X18864143Y56856252D01*
X18850000Y56870395D01*
X17877073Y55897468D01*
X17975736Y55630613D01*
X18522316Y55427551D01*
X18479600Y55212800D01*
X18479600Y46735975D01*
X18441399Y46751838D01*
X18069433Y46752162D01*
X17725657Y46610117D01*
X17462408Y46347327D01*
X17319762Y46003799D01*
X17319438Y45631833D01*
X17461483Y45288057D01*
X17724273Y45024808D01*
X17975100Y44920655D01*
X17975100Y32073071D01*
X17870433Y32073162D01*
X17526657Y31931117D01*
X17263408Y31668327D01*
X17188759Y31488553D01*
X11265810Y25565057D01*
X11144833Y25565162D01*
X10801057Y25423117D01*
X10537808Y25160327D01*
X10395162Y24816799D01*
X10394838Y24444833D01*
X10536883Y24101057D01*
X10799673Y23837808D01*
X11143201Y23695162D01*
X11515167Y23694838D01*
X11858943Y23836883D01*
X12122192Y24099673D01*
X12264838Y24443201D01*
X12264871Y24480694D01*
X17975100Y30191451D01*
X17975100Y11749808D01*
X15319733Y9094508D01*
X15145845Y9166713D01*
X14489037Y9167286D01*
X13882005Y8916466D01*
X13417166Y8452437D01*
X13288749Y8143174D01*
X12353751Y9079806D01*
X11018218Y9634368D01*
X9572126Y9635630D01*
X8235628Y9083400D01*
X7212194Y8061751D01*
X6657632Y6726218D01*
X6656370Y5280126D01*
X6686514Y5207173D01*
X6644560Y5000000D01*
X6644560Y3875513D01*
X6284320Y4161420D01*
X5902174Y4485647D01*
X5530859Y4822187D01*
X5170725Y5170725D01*
X4822202Y5530843D01*
X4485646Y5902174D01*
X4161421Y6284319D01*
X3849861Y6676881D01*
X3551323Y7079414D01*
X3266125Y7491483D01*
X2994542Y7912696D01*
X2736902Y8342545D01*
X2493447Y8780620D01*
X2264480Y9226381D01*
X2107930Y9557381D01*
X2764613Y9557381D01*
X3104155Y8735628D01*
X3732321Y8106364D01*
X4553481Y7765389D01*
X5442619Y7764613D01*
X6264372Y8104155D01*
X6893636Y8732321D01*
X7234611Y9553481D01*
X7235387Y10442619D01*
X6895845Y11264372D01*
X6267679Y11893636D01*
X5446519Y12234611D01*
X4557381Y12235387D01*
X3735628Y11895845D01*
X3106364Y11267679D01*
X2765389Y10446519D01*
X2764613Y9557381D01*
X2107930Y9557381D01*
X2050200Y9679440D01*
X1850871Y10139233D01*
X1666687Y10605320D01*
X1497850Y11077191D01*
X1344551Y11554302D01*
X1206932Y12036221D01*
X1085168Y12522327D01*
X979360Y13012229D01*
X889651Y13505252D01*
X816113Y14001003D01*
X758837Y14498881D01*
X717882Y14998360D01*
X693000Y15504855D01*
X685000Y15741767D01*
X685000Y55897468D01*
X10177073Y55897468D01*
X10275736Y55630613D01*
X10885461Y55404092D01*
X11535460Y55428144D01*
X12024264Y55630613D01*
X12122927Y55897468D01*
X11150000Y56870395D01*
X10177073Y55897468D01*
X685000Y55897468D01*
X685000Y57314539D01*
X9504092Y57314539D01*
X9528144Y56664540D01*
X9730613Y56175736D01*
X9997468Y56077073D01*
X10970395Y57050000D01*
X11329605Y57050000D01*
X12302532Y56077073D01*
X12569387Y56175736D01*
X12795908Y56785461D01*
X12776331Y57314539D01*
X17204092Y57314539D01*
X17228144Y56664540D01*
X17430613Y56175736D01*
X17697468Y56077073D01*
X18670395Y57050000D01*
X17697468Y58022927D01*
X17430613Y57924264D01*
X17204092Y57314539D01*
X12776331Y57314539D01*
X12771856Y57435460D01*
X12569387Y57924264D01*
X12302532Y58022927D01*
X11329605Y57050000D01*
X10970395Y57050000D01*
X9997468Y58022927D01*
X9730613Y57924264D01*
X9504092Y57314539D01*
X685000Y57314539D01*
X685000Y58202532D01*
X10177073Y58202532D01*
X11150000Y57229605D01*
X12122927Y58202532D01*
X12024264Y58469387D01*
X11414539Y58695908D01*
X10764540Y58671856D01*
X10275736Y58469387D01*
X10177073Y58202532D01*
X685000Y58202532D01*
X685000Y61226205D01*
X9514716Y61226205D01*
X9763106Y60625057D01*
X10222637Y60164722D01*
X10823352Y59915284D01*
X11473795Y59914716D01*
X12074943Y60163106D01*
X12535278Y60622637D01*
X12784716Y61223352D01*
X12785284Y61873795D01*
X12536894Y62474943D01*
X12077363Y62935278D01*
X11476648Y63184716D01*
X10826205Y63185284D01*
X10225057Y62936894D01*
X9764722Y62477363D01*
X9515284Y61876648D01*
X9514716Y61226205D01*
X685000Y61226205D01*
X685000Y61816680D01*
X6096285Y61816680D01*
X6225533Y61523877D01*
X6925806Y61255612D01*
X7675435Y61275750D01*
X8274467Y61523877D01*
X8403715Y61816680D01*
X7250000Y62970395D01*
X6096285Y61816680D01*
X685000Y61816680D01*
X685000Y63474194D01*
X5355612Y63474194D01*
X5375750Y62724565D01*
X5623877Y62125533D01*
X5916680Y61996285D01*
X7070395Y63150000D01*
X7429605Y63150000D01*
X8583320Y61996285D01*
X8876123Y62125533D01*
X9144388Y62825806D01*
X9124250Y63575435D01*
X8876123Y64174467D01*
X8583320Y64303715D01*
X7429605Y63150000D01*
X7070395Y63150000D01*
X5916680Y64303715D01*
X5623877Y64174467D01*
X5355612Y63474194D01*
X685000Y63474194D01*
X685000Y64483320D01*
X6096285Y64483320D01*
X7250000Y63329605D01*
X8403715Y64483320D01*
X8274467Y64776123D01*
X7574194Y65044388D01*
X6824565Y65024250D01*
X6225533Y64776123D01*
X6096285Y64483320D01*
X685000Y64483320D01*
X685000Y75116680D01*
X6096285Y75116680D01*
X6225533Y74823877D01*
X6925806Y74555612D01*
X7675435Y74575750D01*
X8274467Y74823877D01*
X8403715Y75116680D01*
X7250000Y76270395D01*
X6096285Y75116680D01*
X685000Y75116680D01*
X685000Y76774194D01*
X5355612Y76774194D01*
X5375750Y76024565D01*
X5623877Y75425533D01*
X5916680Y75296285D01*
X7070395Y76450000D01*
X7429605Y76450000D01*
X8583320Y75296285D01*
X8876123Y75425533D01*
X9144388Y76125806D01*
X9126970Y76774194D01*
X20855612Y76774194D01*
X20875750Y76024565D01*
X21123877Y75425533D01*
X21416680Y75296285D01*
X22570395Y76450000D01*
X21416680Y77603715D01*
X21123877Y77474467D01*
X20855612Y76774194D01*
X9126970Y76774194D01*
X9124250Y76875435D01*
X8876123Y77474467D01*
X8583320Y77603715D01*
X7429605Y76450000D01*
X7070395Y76450000D01*
X5916680Y77603715D01*
X5623877Y77474467D01*
X5355612Y76774194D01*
X685000Y76774194D01*
X685000Y77783320D01*
X6096285Y77783320D01*
X7250000Y76629605D01*
X8403715Y77783320D01*
X21596285Y77783320D01*
X22750000Y76629605D01*
X23903715Y77783320D01*
X23774467Y78076123D01*
X23074194Y78344388D01*
X22324565Y78324250D01*
X21725533Y78076123D01*
X21596285Y77783320D01*
X8403715Y77783320D01*
X8274467Y78076123D01*
X7574194Y78344388D01*
X6824565Y78324250D01*
X6225533Y78076123D01*
X6096285Y77783320D01*
X685000Y77783320D01*
X685000Y78994414D01*
X689603Y79275715D01*
X11114760Y79275715D01*
X11325169Y78766485D01*
X11714436Y78376539D01*
X12223298Y78165241D01*
X12774285Y78164760D01*
X13283515Y78375169D01*
X13673461Y78764436D01*
X13749927Y78948586D01*
X13825169Y78766485D01*
X14214436Y78376539D01*
X14723298Y78165241D01*
X15274285Y78164760D01*
X15783515Y78375169D01*
X15987183Y78578483D01*
X16708088Y78578483D01*
X16776077Y78337540D01*
X17295171Y78152799D01*
X17845448Y78180770D01*
X18223923Y78337540D01*
X18291912Y78578483D01*
X17500000Y79370395D01*
X16708088Y78578483D01*
X15987183Y78578483D01*
X16173461Y78764436D01*
X16243353Y78932754D01*
X16287540Y78826077D01*
X16528483Y78758088D01*
X17320395Y79550000D01*
X17679605Y79550000D01*
X18471517Y78758088D01*
X18712460Y78826077D01*
X18897201Y79345171D01*
X18869230Y79895448D01*
X18712460Y80273923D01*
X18471517Y80341912D01*
X17679605Y79550000D01*
X17320395Y79550000D01*
X16528483Y80341912D01*
X16287540Y80273923D01*
X16246778Y80159389D01*
X16174831Y80333515D01*
X15987157Y80521517D01*
X16708088Y80521517D01*
X17500000Y79729605D01*
X18291912Y80521517D01*
X18223923Y80762460D01*
X17704829Y80947201D01*
X17154552Y80919230D01*
X16776077Y80762460D01*
X16708088Y80521517D01*
X15987157Y80521517D01*
X15785564Y80723461D01*
X15276702Y80934759D01*
X14725715Y80935240D01*
X14216485Y80724831D01*
X13826539Y80335564D01*
X13750073Y80151414D01*
X13674831Y80333515D01*
X13287400Y80721622D01*
X13287400Y82564889D01*
X13292192Y82569673D01*
X13434838Y82913201D01*
X13435162Y83285167D01*
X13293117Y83628943D01*
X13030327Y83892192D01*
X12686799Y84034838D01*
X12314833Y84035162D01*
X11971057Y83893117D01*
X11707808Y83630327D01*
X11565162Y83286799D01*
X11564838Y82914833D01*
X11706883Y82571057D01*
X11712600Y82565330D01*
X11712600Y80720953D01*
X11326539Y80335564D01*
X11115241Y79826702D01*
X11114760Y79275715D01*
X689603Y79275715D01*
X693291Y79501078D01*
X717882Y80001640D01*
X758837Y80501119D01*
X816113Y80998997D01*
X889651Y81494748D01*
X979360Y81987771D01*
X1085168Y82477673D01*
X1206932Y82963779D01*
X1344551Y83445698D01*
X1497850Y83922809D01*
X1666687Y84394680D01*
X1730981Y84557381D01*
X2764613Y84557381D01*
X3104155Y83735628D01*
X3732321Y83106364D01*
X4553481Y82765389D01*
X5442619Y82764613D01*
X6264372Y83104155D01*
X6893636Y83732321D01*
X7234611Y84553481D01*
X7235387Y85442619D01*
X6895845Y86264372D01*
X6267679Y86893636D01*
X5446519Y87234611D01*
X4557381Y87235387D01*
X3735628Y86895845D01*
X3106364Y86267679D01*
X2765389Y85446519D01*
X2764613Y84557381D01*
X1730981Y84557381D01*
X1850871Y84860767D01*
X2050200Y85320560D01*
X2264480Y85773619D01*
X2493447Y86219380D01*
X2736902Y86657455D01*
X2994542Y87087304D01*
X3266125Y87508517D01*
X3551323Y87920586D01*
X3849861Y88323119D01*
X3889449Y88373000D01*
X28584990Y88373000D01*
X29708345Y87249645D01*
X29708345Y87249645D01*
G37*
X29708345Y87249645D02*
X29947315Y87089970D01*
X30229200Y87033900D01*
X53158000Y87033900D01*
X53158270Y87033954D01*
X53158541Y87033900D01*
X53299506Y87062047D01*
X53439885Y87089970D01*
X53440114Y87090123D01*
X53440385Y87090177D01*
X53559499Y87169894D01*
X53678855Y87249645D01*
X53679009Y87249875D01*
X53679237Y87250028D01*
X53803426Y87374400D01*
X100037000Y87374400D01*
X100037022Y87374404D01*
X100037045Y87374400D01*
X100178828Y87402611D01*
X100318885Y87430470D01*
X100318904Y87430483D01*
X100318926Y87430487D01*
X100433496Y87507051D01*
X100557855Y87590145D01*
X100557869Y87590165D01*
X100557886Y87590177D01*
X101340615Y88373000D01*
X103087623Y88373000D01*
X103130317Y88333394D01*
X103545489Y88179397D01*
X103723000Y88323862D01*
X103723000Y88373000D01*
X103977000Y88373000D01*
X103977000Y88323862D01*
X104154511Y88179397D01*
X104569683Y88333394D01*
X104612377Y88373000D01*
X131667253Y88373000D01*
X106731390Y63437494D01*
X106652833Y63437562D01*
X106309057Y63295517D01*
X106045808Y63032727D01*
X105903162Y62689199D01*
X105902838Y62317233D01*
X106044883Y61973457D01*
X106307673Y61710208D01*
X106651201Y61567562D01*
X107023167Y61567238D01*
X107366943Y61709283D01*
X107630192Y61972073D01*
X107766359Y62300000D01*
X111575631Y62300000D01*
X111681971Y61765391D01*
X111984803Y61312172D01*
X112407102Y61030000D01*
X111984803Y60747828D01*
X111681971Y60294609D01*
X111575631Y59760000D01*
X111681971Y59225391D01*
X111984803Y58772172D01*
X112407102Y58490000D01*
X111984803Y58207828D01*
X111681971Y57754609D01*
X111575631Y57220000D01*
X111681971Y56685391D01*
X111984803Y56232172D01*
X112407102Y55950000D01*
X111984803Y55667828D01*
X111681971Y55214609D01*
X111575631Y54680000D01*
X111681971Y54145391D01*
X111984803Y53692172D01*
X112438022Y53389340D01*
X112972631Y53283000D01*
X113027369Y53283000D01*
X113561978Y53389340D01*
X114015197Y53692172D01*
X114318029Y54145391D01*
X114424369Y54680000D01*
X114318029Y55214609D01*
X114139698Y55481500D01*
X124643431Y55481500D01*
X124749771Y54946891D01*
X125052603Y54493672D01*
X125505822Y54190840D01*
X126040431Y54084500D01*
X126095169Y54084500D01*
X126629778Y54190840D01*
X127082997Y54493672D01*
X127250863Y54744900D01*
X131387137Y54744900D01*
X131555003Y54493672D01*
X132008222Y54190840D01*
X132542831Y54084500D01*
X132597569Y54084500D01*
X133132178Y54190840D01*
X133585397Y54493672D01*
X133888229Y54946891D01*
X133994569Y55481500D01*
X133888229Y56016109D01*
X133585397Y56469328D01*
X133132178Y56772160D01*
X132597569Y56878500D01*
X132542831Y56878500D01*
X132008222Y56772160D01*
X131555003Y56469328D01*
X131387137Y56218100D01*
X127250863Y56218100D01*
X127082997Y56469328D01*
X126629778Y56772160D01*
X126095169Y56878500D01*
X126040431Y56878500D01*
X125505822Y56772160D01*
X125052603Y56469328D01*
X124749771Y56016109D01*
X124643431Y55481500D01*
X114139698Y55481500D01*
X114015197Y55667828D01*
X113592898Y55950000D01*
X114015197Y56232172D01*
X114318029Y56685391D01*
X114424369Y57220000D01*
X114318029Y57754609D01*
X114015197Y58207828D01*
X113592898Y58490000D01*
X114015197Y58772172D01*
X114318029Y59225391D01*
X114404404Y59659630D01*
X124713580Y59659630D01*
X124867626Y59287703D01*
X125232601Y58882842D01*
X125724728Y58648469D01*
X125940800Y58770224D01*
X125940800Y59875700D01*
X126194800Y59875700D01*
X126194800Y58770224D01*
X126410872Y58648469D01*
X126902999Y58882842D01*
X127267974Y59287703D01*
X127422020Y59659630D01*
X131215980Y59659630D01*
X131370026Y59287703D01*
X131735001Y58882842D01*
X132227128Y58648469D01*
X132443200Y58770224D01*
X132443200Y59875700D01*
X132697200Y59875700D01*
X132697200Y58770224D01*
X132913272Y58648469D01*
X133405399Y58882842D01*
X133770374Y59287703D01*
X133924420Y59659630D01*
X133801920Y59875700D01*
X132697200Y59875700D01*
X132443200Y59875700D01*
X131338480Y59875700D01*
X131215980Y59659630D01*
X127422020Y59659630D01*
X127299520Y59875700D01*
X126194800Y59875700D01*
X125940800Y59875700D01*
X124836080Y59875700D01*
X124713580Y59659630D01*
X114404404Y59659630D01*
X114424369Y59760000D01*
X114318029Y60294609D01*
X114283845Y60345770D01*
X124713580Y60345770D01*
X124836080Y60129700D01*
X125940800Y60129700D01*
X125940800Y61235176D01*
X126194800Y61235176D01*
X126194800Y60129700D01*
X127299520Y60129700D01*
X127422020Y60345770D01*
X131215980Y60345770D01*
X131338480Y60129700D01*
X132443200Y60129700D01*
X132443200Y61235176D01*
X132697200Y61235176D01*
X132697200Y60129700D01*
X133801920Y60129700D01*
X133924420Y60345770D01*
X133770374Y60717697D01*
X133405399Y61122558D01*
X132913272Y61356931D01*
X132697200Y61235176D01*
X132443200Y61235176D01*
X132227128Y61356931D01*
X131735001Y61122558D01*
X131370026Y60717697D01*
X131215980Y60345770D01*
X127422020Y60345770D01*
X127267974Y60717697D01*
X126902999Y61122558D01*
X126410872Y61356931D01*
X126194800Y61235176D01*
X125940800Y61235176D01*
X125724728Y61356931D01*
X125232601Y61122558D01*
X124867626Y60717697D01*
X124713580Y60345770D01*
X114283845Y60345770D01*
X114015197Y60747828D01*
X113592898Y61030000D01*
X114015197Y61312172D01*
X114318029Y61765391D01*
X114335216Y61851800D01*
X136434431Y61851800D01*
X136540771Y61317191D01*
X136843603Y60863972D01*
X137296822Y60561140D01*
X137831431Y60454800D01*
X137886169Y60454800D01*
X138420778Y60561140D01*
X138873997Y60863972D01*
X139176829Y61317191D01*
X139283169Y61851800D01*
X142936831Y61851800D01*
X143043171Y61317191D01*
X143346003Y60863972D01*
X143799222Y60561140D01*
X144333831Y60454800D01*
X144388569Y60454800D01*
X144923178Y60561140D01*
X145376397Y60863972D01*
X145679229Y61317191D01*
X145785569Y61851800D01*
X145679229Y62386409D01*
X145376397Y62839628D01*
X144923178Y63142460D01*
X144388569Y63248800D01*
X144333831Y63248800D01*
X143799222Y63142460D01*
X143346003Y62839628D01*
X143043171Y62386409D01*
X142936831Y61851800D01*
X139283169Y61851800D01*
X139176829Y62386409D01*
X138873997Y62839628D01*
X138420778Y63142460D01*
X137886169Y63248800D01*
X137831431Y63248800D01*
X137296822Y63142460D01*
X136843603Y62839628D01*
X136540771Y62386409D01*
X136434431Y61851800D01*
X114335216Y61851800D01*
X114424369Y62300000D01*
X114318029Y62834609D01*
X114015197Y63287828D01*
X113561978Y63590660D01*
X113027369Y63697000D01*
X112972631Y63697000D01*
X112438022Y63590660D01*
X111984803Y63287828D01*
X111681971Y62834609D01*
X111575631Y62300000D01*
X107766359Y62300000D01*
X107772838Y62315601D01*
X107772908Y62395592D01*
X111407297Y66029930D01*
X136504580Y66029930D01*
X136658626Y65658003D01*
X137023601Y65253142D01*
X137515728Y65018769D01*
X137731800Y65140524D01*
X137731800Y66246000D01*
X137985800Y66246000D01*
X137985800Y65140524D01*
X138201872Y65018769D01*
X138693999Y65253142D01*
X139058974Y65658003D01*
X139213020Y66029930D01*
X143006980Y66029930D01*
X143161026Y65658003D01*
X143526001Y65253142D01*
X144018128Y65018769D01*
X144234200Y65140524D01*
X144234200Y66246000D01*
X144488200Y66246000D01*
X144488200Y65140524D01*
X144704272Y65018769D01*
X145196399Y65253142D01*
X145561374Y65658003D01*
X145715420Y66029930D01*
X145592920Y66246000D01*
X144488200Y66246000D01*
X144234200Y66246000D01*
X143129480Y66246000D01*
X143006980Y66029930D01*
X139213020Y66029930D01*
X139090520Y66246000D01*
X137985800Y66246000D01*
X137731800Y66246000D01*
X136627080Y66246000D01*
X136504580Y66029930D01*
X111407297Y66029930D01*
X112093446Y66716070D01*
X136504580Y66716070D01*
X136627080Y66500000D01*
X137731800Y66500000D01*
X137731800Y67605476D01*
X137985800Y67605476D01*
X137985800Y66500000D01*
X139090520Y66500000D01*
X139213020Y66716070D01*
X143006980Y66716070D01*
X143129480Y66500000D01*
X144234200Y66500000D01*
X144234200Y67605476D01*
X144488200Y67605476D01*
X144488200Y66500000D01*
X145592920Y66500000D01*
X145715420Y66716070D01*
X145561374Y67087997D01*
X145196399Y67492858D01*
X144704272Y67727231D01*
X144488200Y67605476D01*
X144234200Y67605476D01*
X144018128Y67727231D01*
X143526001Y67492858D01*
X143161026Y67087997D01*
X143006980Y66716070D01*
X139213020Y66716070D01*
X139058974Y67087997D01*
X138693999Y67492858D01*
X138201872Y67727231D01*
X137985800Y67605476D01*
X137731800Y67605476D01*
X137515728Y67727231D01*
X137023601Y67492858D01*
X136658626Y67087997D01*
X136504580Y66716070D01*
X112093446Y66716070D01*
X121000844Y75623339D01*
X135077758Y75623339D01*
X135289990Y75109697D01*
X135682630Y74716371D01*
X136195900Y74503243D01*
X136751661Y74502758D01*
X137265303Y74714990D01*
X137470457Y74919787D01*
X138174392Y74919787D01*
X138243857Y74677603D01*
X138767302Y74490856D01*
X139322368Y74518638D01*
X139706143Y74677603D01*
X139775608Y74919787D01*
X138975000Y75720395D01*
X138174392Y74919787D01*
X137470457Y74919787D01*
X137658629Y75107630D01*
X137718370Y75251503D01*
X137752603Y75168857D01*
X137994787Y75099392D01*
X138795395Y75900000D01*
X139154605Y75900000D01*
X139955213Y75099392D01*
X140197397Y75168857D01*
X140228974Y75257367D01*
X140289990Y75109697D01*
X140682630Y74716371D01*
X141195900Y74503243D01*
X141751661Y74502758D01*
X142265303Y74714990D01*
X142658629Y75107630D01*
X142871757Y75620900D01*
X142872242Y76176661D01*
X142660010Y76690303D01*
X142267370Y77083629D01*
X141754100Y77296757D01*
X141198339Y77297242D01*
X140684697Y77085010D01*
X140291371Y76692370D01*
X140231630Y76548497D01*
X140197397Y76631143D01*
X139955213Y76700608D01*
X139154605Y75900000D01*
X138795395Y75900000D01*
X137994787Y76700608D01*
X137752603Y76631143D01*
X137721026Y76542633D01*
X137660010Y76690303D01*
X137470432Y76880213D01*
X138174392Y76880213D01*
X138975000Y76079605D01*
X139775608Y76880213D01*
X139706143Y77122397D01*
X139182698Y77309144D01*
X138627632Y77281362D01*
X138243857Y77122397D01*
X138174392Y76880213D01*
X137470432Y76880213D01*
X137267370Y77083629D01*
X136754100Y77296757D01*
X136198339Y77297242D01*
X135684697Y77085010D01*
X135291371Y76692370D01*
X135078243Y76179100D01*
X135077758Y75623339D01*
X121000844Y75623339D01*
X130277638Y84900000D01*
X131527560Y84900000D01*
X131527560Y81900000D01*
X131571838Y81664683D01*
X131710910Y81448559D01*
X131923110Y81303569D01*
X132175000Y81252560D01*
X134675000Y81252560D01*
X134910317Y81296838D01*
X135126441Y81435910D01*
X135271431Y81648110D01*
X135322440Y81900000D01*
X135322440Y84900000D01*
X142627560Y84900000D01*
X142627560Y81900000D01*
X142671838Y81664683D01*
X142810910Y81448559D01*
X143023110Y81303569D01*
X143275000Y81252560D01*
X145775000Y81252560D01*
X146010317Y81296838D01*
X146226441Y81435910D01*
X146371431Y81648110D01*
X146422440Y81900000D01*
X146422440Y84900000D01*
X146378162Y85135317D01*
X146239090Y85351441D01*
X146026890Y85496431D01*
X145775000Y85547440D01*
X143275000Y85547440D01*
X143039683Y85503162D01*
X142823559Y85364090D01*
X142678569Y85151890D01*
X142627560Y84900000D01*
X135322440Y84900000D01*
X135278162Y85135317D01*
X135139090Y85351441D01*
X134926890Y85496431D01*
X134675000Y85547440D01*
X132175000Y85547440D01*
X131939683Y85503162D01*
X131723559Y85364090D01*
X131578569Y85151890D01*
X131527560Y84900000D01*
X130277638Y84900000D01*
X133750688Y88373000D01*
X146110552Y88373000D01*
X146150125Y88323138D01*
X146448677Y87920587D01*
X146733888Y87508496D01*
X147005436Y87087340D01*
X147263098Y86657456D01*
X147506553Y86219380D01*
X147735520Y85773618D01*
X147949800Y85320560D01*
X148149129Y84860767D01*
X148333313Y84394680D01*
X148502150Y83922810D01*
X148655454Y83445681D01*
X148793068Y82963779D01*
X148914833Y82477667D01*
X149020640Y81987771D01*
X149110349Y81494748D01*
X149183887Y80999000D01*
X149241163Y80501119D01*
X149282118Y80001641D01*
X149306709Y79501077D01*
X149315000Y78994414D01*
X149315000Y16005586D01*
X149306709Y15498923D01*
X149282118Y14998359D01*
X149241163Y14498881D01*
X149183887Y14001000D01*
X149110349Y13505252D01*
X149020640Y13012229D01*
X148914833Y12522333D01*
X148793068Y12036221D01*
X148655454Y11554319D01*
X148502150Y11077190D01*
X148333313Y10605320D01*
X148149129Y10139233D01*
X147949800Y9679440D01*
X147735520Y9226382D01*
X147506553Y8780620D01*
X147263098Y8342544D01*
X147005436Y7912660D01*
X146733888Y7491504D01*
X146448677Y7079413D01*
X146150125Y6676862D01*
X145838580Y6284320D01*
X145514353Y5902174D01*
X145177813Y5530859D01*
X144829275Y5170725D01*
X144469157Y4822202D01*
X144097826Y4485646D01*
X143715681Y4161421D01*
X143323119Y3849861D01*
X143279832Y3817758D01*
X143303000Y3873691D01*
X143303000Y4714250D01*
X143144250Y4873000D01*
X143137275Y4873000D01*
X143299342Y5258800D01*
X143299459Y5282209D01*
X143303000Y5285750D01*
X143303000Y5990843D01*
X143306568Y6704875D01*
X142759854Y8043639D01*
X142739277Y8074434D01*
X142264630Y8417025D01*
X140482605Y6635000D01*
X140123395Y6635000D01*
X142085025Y8596630D01*
X141742434Y9071277D01*
X140585265Y9557381D01*
X142764613Y9557381D01*
X143104155Y8735628D01*
X143732321Y8106364D01*
X144553481Y7765389D01*
X145442619Y7764613D01*
X146264372Y8104155D01*
X146893636Y8732321D01*
X147234611Y9553481D01*
X147235387Y10442619D01*
X146895845Y11264372D01*
X146267679Y11893636D01*
X145446519Y12234611D01*
X144557381Y12235387D01*
X143735628Y11895845D01*
X143106364Y11267679D01*
X142765389Y10446519D01*
X142764613Y9557381D01*
X140585265Y9557381D01*
X140409200Y9631342D01*
X138963125Y9638568D01*
X137624361Y9091854D01*
X137593566Y9071277D01*
X137250975Y8596630D01*
X139212605Y6635000D01*
X138853395Y6635000D01*
X137071370Y8417025D01*
X136685026Y8138169D01*
X136576622Y8399880D01*
X136308107Y8500502D01*
X135958605Y8151000D01*
X135599395Y8151000D01*
X136128502Y8680107D01*
X136027880Y8948622D01*
X135412358Y9177816D01*
X134755981Y9154014D01*
X134260120Y8948622D01*
X134159498Y8680107D01*
X134688605Y8151000D01*
X134329395Y8151000D01*
X133979893Y8500502D01*
X133961083Y8493453D01*
X133540437Y8914834D01*
X132933845Y9166713D01*
X132277037Y9167286D01*
X131670005Y8916466D01*
X131333821Y8580868D01*
X131000437Y8914834D01*
X130393845Y9166713D01*
X129737037Y9167286D01*
X129130005Y8916466D01*
X128793821Y8580868D01*
X128460437Y8914834D01*
X127853845Y9166713D01*
X127197037Y9167286D01*
X126590005Y8916466D01*
X126125166Y8452437D01*
X125996749Y8143174D01*
X125061751Y9079806D01*
X123726218Y9634368D01*
X122280126Y9635630D01*
X120943628Y9083400D01*
X120002809Y8144222D01*
X119876466Y8449995D01*
X119412437Y8914834D01*
X118805845Y9166713D01*
X118149037Y9167286D01*
X117542005Y8916466D01*
X117205821Y8580868D01*
X116872437Y8914834D01*
X116672600Y8997814D01*
X116672600Y18975225D01*
X132864803Y18975225D01*
X133037233Y18557914D01*
X133356235Y18238355D01*
X133773244Y18065197D01*
X134224775Y18064803D01*
X134642086Y18237233D01*
X134961645Y18556235D01*
X135134803Y18973244D01*
X135135197Y19424775D01*
X134962767Y19842086D01*
X134643765Y20161645D01*
X134226756Y20334803D01*
X133775225Y20335197D01*
X133357914Y20162767D01*
X133038355Y19843765D01*
X132865197Y19426756D01*
X132864803Y18975225D01*
X116672600Y18975225D01*
X116672600Y22954801D01*
X116782757Y22688200D01*
X117186077Y22284176D01*
X117713309Y22065250D01*
X118284187Y22064752D01*
X118811800Y22282757D01*
X119215824Y22686077D01*
X119434750Y23213309D01*
X119435248Y23784187D01*
X119217243Y24311800D01*
X118813923Y24715824D01*
X118732069Y24749813D01*
X118811800Y24782757D01*
X119215824Y25186077D01*
X119434750Y25713309D01*
X119435248Y26284187D01*
X119314994Y26575225D01*
X132864803Y26575225D01*
X133037233Y26157914D01*
X133356235Y25838355D01*
X133773244Y25665197D01*
X134224775Y25664803D01*
X134642086Y25837233D01*
X134961645Y26156235D01*
X135134803Y26573244D01*
X135135197Y27024775D01*
X134962767Y27442086D01*
X134643765Y27761645D01*
X134226756Y27934803D01*
X133775225Y27935197D01*
X133357914Y27762767D01*
X133038355Y27443765D01*
X132865197Y27026756D01*
X132864803Y26575225D01*
X119314994Y26575225D01*
X119217243Y26811800D01*
X118813923Y27215824D01*
X118732069Y27249813D01*
X118811800Y27282757D01*
X119215824Y27686077D01*
X119434750Y28213309D01*
X119435248Y28784187D01*
X119217243Y29311800D01*
X118813923Y29715824D01*
X118286691Y29934750D01*
X117715813Y29935248D01*
X117188200Y29717243D01*
X116784176Y29313923D01*
X116672600Y29045218D01*
X116672600Y40355576D01*
X140535181Y40355576D01*
X140547393Y40160975D01*
X140902927Y40051637D01*
X141273239Y40086678D01*
X141452607Y40160975D01*
X141464819Y40355576D01*
X142535181Y40355576D01*
X142547393Y40160975D01*
X142902927Y40051637D01*
X143273239Y40086678D01*
X143452607Y40160975D01*
X143464819Y40355576D01*
X144535181Y40355576D01*
X144547393Y40160975D01*
X144902927Y40051637D01*
X145273239Y40086678D01*
X145452607Y40160975D01*
X145464819Y40355576D01*
X146535181Y40355576D01*
X146547393Y40160975D01*
X146902927Y40051637D01*
X147273239Y40086678D01*
X147452607Y40160975D01*
X147464819Y40355576D01*
X147000000Y40820395D01*
X146535181Y40355576D01*
X145464819Y40355576D01*
X145000000Y40820395D01*
X144535181Y40355576D01*
X143464819Y40355576D01*
X143000000Y40820395D01*
X142535181Y40355576D01*
X141464819Y40355576D01*
X141000000Y40820395D01*
X140535181Y40355576D01*
X116672600Y40355576D01*
X116672600Y41097073D01*
X140051637Y41097073D01*
X140086678Y40726761D01*
X140160975Y40547393D01*
X140355576Y40535181D01*
X140820395Y41000000D01*
X141179605Y41000000D01*
X141644424Y40535181D01*
X141839025Y40547393D01*
X141948363Y40902927D01*
X141934013Y41054579D01*
X142054579Y41065987D01*
X142086678Y40726761D01*
X142160975Y40547393D01*
X142355576Y40535181D01*
X142820395Y41000000D01*
X143179605Y41000000D01*
X143644424Y40535181D01*
X143839025Y40547393D01*
X143948363Y40902927D01*
X143934013Y41054579D01*
X144054579Y41065987D01*
X144086678Y40726761D01*
X144160975Y40547393D01*
X144355576Y40535181D01*
X144820395Y41000000D01*
X145179605Y41000000D01*
X145644424Y40535181D01*
X145839025Y40547393D01*
X145948363Y40902927D01*
X145934013Y41054579D01*
X146054579Y41065987D01*
X146086678Y40726761D01*
X146160975Y40547393D01*
X146355576Y40535181D01*
X146820395Y41000000D01*
X147179605Y41000000D01*
X147644424Y40535181D01*
X147839025Y40547393D01*
X147948363Y40902927D01*
X147934013Y41054579D01*
X148273239Y41086678D01*
X148452607Y41160975D01*
X148464819Y41355576D01*
X148000000Y41820395D01*
X147179605Y41000000D01*
X146820395Y41000000D01*
X146000000Y41820395D01*
X145179605Y41000000D01*
X144820395Y41000000D01*
X144000000Y41820395D01*
X143179605Y41000000D01*
X142820395Y41000000D01*
X142000000Y41820395D01*
X141179605Y41000000D01*
X140820395Y41000000D01*
X140355576Y41464819D01*
X140160975Y41452607D01*
X140051637Y41097073D01*
X116672600Y41097073D01*
X116672600Y42355576D01*
X140535181Y42355576D01*
X140547393Y42160975D01*
X140902927Y42051637D01*
X141054579Y42065987D01*
X141065987Y41945421D01*
X140726761Y41913322D01*
X140547393Y41839025D01*
X140535181Y41644424D01*
X141000000Y41179605D01*
X141820395Y42000000D01*
X142179605Y42000000D01*
X143000000Y41179605D01*
X143820395Y42000000D01*
X144179605Y42000000D01*
X145000000Y41179605D01*
X145820395Y42000000D01*
X146179605Y42000000D01*
X147000000Y41179605D01*
X147820395Y42000000D01*
X148179605Y42000000D01*
X148644424Y41535181D01*
X148839025Y41547393D01*
X148948363Y41902927D01*
X148913322Y42273239D01*
X148839025Y42452607D01*
X148644424Y42464819D01*
X148179605Y42000000D01*
X147820395Y42000000D01*
X147000000Y42820395D01*
X146179605Y42000000D01*
X145820395Y42000000D01*
X145000000Y42820395D01*
X144179605Y42000000D01*
X143820395Y42000000D01*
X143000000Y42820395D01*
X142179605Y42000000D01*
X141820395Y42000000D01*
X141000000Y42820395D01*
X140535181Y42355576D01*
X116672600Y42355576D01*
X116672600Y42467995D01*
X116672601Y42468000D01*
X116616531Y42749884D01*
X116456855Y42988855D01*
X116348637Y43097073D01*
X140051637Y43097073D01*
X140086678Y42726761D01*
X140160975Y42547393D01*
X140355576Y42535181D01*
X140820395Y43000000D01*
X141179605Y43000000D01*
X142000000Y42179605D01*
X142820395Y43000000D01*
X143179605Y43000000D01*
X144000000Y42179605D01*
X144820395Y43000000D01*
X145179605Y43000000D01*
X146000000Y42179605D01*
X146820395Y43000000D01*
X147179605Y43000000D01*
X148000000Y42179605D01*
X148464819Y42644424D01*
X148452607Y42839025D01*
X148097073Y42948363D01*
X147945421Y42934013D01*
X147934013Y43054579D01*
X148273239Y43086678D01*
X148452607Y43160975D01*
X148464819Y43355576D01*
X148000000Y43820395D01*
X147179605Y43000000D01*
X146820395Y43000000D01*
X146000000Y43820395D01*
X145179605Y43000000D01*
X144820395Y43000000D01*
X144000000Y43820395D01*
X143179605Y43000000D01*
X142820395Y43000000D01*
X142000000Y43820395D01*
X141179605Y43000000D01*
X140820395Y43000000D01*
X140355576Y43464819D01*
X140160975Y43452607D01*
X140051637Y43097073D01*
X116348637Y43097073D01*
X115090134Y44355576D01*
X140535181Y44355576D01*
X140547393Y44160975D01*
X140902927Y44051637D01*
X141054579Y44065987D01*
X141065987Y43945421D01*
X140726761Y43913322D01*
X140547393Y43839025D01*
X140535181Y43644424D01*
X141000000Y43179605D01*
X141820395Y44000000D01*
X142179605Y44000000D01*
X143000000Y43179605D01*
X143820395Y44000000D01*
X144179605Y44000000D01*
X145000000Y43179605D01*
X145820395Y44000000D01*
X146179605Y44000000D01*
X147000000Y43179605D01*
X147820395Y44000000D01*
X148179605Y44000000D01*
X148644424Y43535181D01*
X148839025Y43547393D01*
X148948363Y43902927D01*
X148913322Y44273239D01*
X148839025Y44452607D01*
X148644424Y44464819D01*
X148179605Y44000000D01*
X147820395Y44000000D01*
X147000000Y44820395D01*
X146179605Y44000000D01*
X145820395Y44000000D01*
X145000000Y44820395D01*
X144179605Y44000000D01*
X143820395Y44000000D01*
X143000000Y44820395D01*
X142179605Y44000000D01*
X141820395Y44000000D01*
X141000000Y44820395D01*
X140535181Y44355576D01*
X115090134Y44355576D01*
X114348637Y45097073D01*
X140051637Y45097073D01*
X140086678Y44726761D01*
X140160975Y44547393D01*
X140355576Y44535181D01*
X140820395Y45000000D01*
X141179605Y45000000D01*
X142000000Y44179605D01*
X142820395Y45000000D01*
X143179605Y45000000D01*
X144000000Y44179605D01*
X144820395Y45000000D01*
X145179605Y45000000D01*
X146000000Y44179605D01*
X146820395Y45000000D01*
X147179605Y45000000D01*
X148000000Y44179605D01*
X148464819Y44644424D01*
X148452607Y44839025D01*
X148097073Y44948363D01*
X147945421Y44934013D01*
X147934013Y45054579D01*
X148273239Y45086678D01*
X148452607Y45160975D01*
X148464819Y45355576D01*
X148000000Y45820395D01*
X147179605Y45000000D01*
X146820395Y45000000D01*
X146000000Y45820395D01*
X145179605Y45000000D01*
X144820395Y45000000D01*
X144000000Y45820395D01*
X143179605Y45000000D01*
X142820395Y45000000D01*
X142000000Y45820395D01*
X141179605Y45000000D01*
X140820395Y45000000D01*
X140355576Y45464819D01*
X140160975Y45452607D01*
X140051637Y45097073D01*
X114348637Y45097073D01*
X113090134Y46355576D01*
X136535181Y46355576D01*
X136547393Y46160975D01*
X136902927Y46051637D01*
X137273239Y46086678D01*
X137452607Y46160975D01*
X137464819Y46355576D01*
X138535181Y46355576D01*
X138547393Y46160975D01*
X138902927Y46051637D01*
X139273239Y46086678D01*
X139452607Y46160975D01*
X139464819Y46355576D01*
X140535181Y46355576D01*
X140547393Y46160975D01*
X140902927Y46051637D01*
X141054579Y46065987D01*
X141065987Y45945421D01*
X140726761Y45913322D01*
X140547393Y45839025D01*
X140535181Y45644424D01*
X141000000Y45179605D01*
X141820395Y46000000D01*
X142179605Y46000000D01*
X143000000Y45179605D01*
X143820395Y46000000D01*
X144179605Y46000000D01*
X145000000Y45179605D01*
X145820395Y46000000D01*
X146179605Y46000000D01*
X147000000Y45179605D01*
X147820395Y46000000D01*
X148179605Y46000000D01*
X148644424Y45535181D01*
X148839025Y45547393D01*
X148948363Y45902927D01*
X148913322Y46273239D01*
X148839025Y46452607D01*
X148644424Y46464819D01*
X148179605Y46000000D01*
X147820395Y46000000D01*
X147000000Y46820395D01*
X146179605Y46000000D01*
X145820395Y46000000D01*
X145000000Y46820395D01*
X144179605Y46000000D01*
X143820395Y46000000D01*
X143000000Y46820395D01*
X142179605Y46000000D01*
X141820395Y46000000D01*
X141000000Y46820395D01*
X140535181Y46355576D01*
X139464819Y46355576D01*
X139000000Y46820395D01*
X138535181Y46355576D01*
X137464819Y46355576D01*
X137000000Y46820395D01*
X136535181Y46355576D01*
X113090134Y46355576D01*
X112348637Y47097073D01*
X136051637Y47097073D01*
X136086678Y46726761D01*
X136160975Y46547393D01*
X136355576Y46535181D01*
X136820395Y47000000D01*
X137179605Y47000000D01*
X137644424Y46535181D01*
X137839025Y46547393D01*
X137948363Y46902927D01*
X137934013Y47054579D01*
X138054579Y47065987D01*
X138086678Y46726761D01*
X138160975Y46547393D01*
X138355576Y46535181D01*
X138820395Y47000000D01*
X139179605Y47000000D01*
X139644424Y46535181D01*
X139839025Y46547393D01*
X139948363Y46902927D01*
X139934013Y47054579D01*
X140054579Y47065987D01*
X140086678Y46726761D01*
X140160975Y46547393D01*
X140355576Y46535181D01*
X140820395Y47000000D01*
X141179605Y47000000D01*
X142000000Y46179605D01*
X142820395Y47000000D01*
X143179605Y47000000D01*
X144000000Y46179605D01*
X144820395Y47000000D01*
X145179605Y47000000D01*
X146000000Y46179605D01*
X146820395Y47000000D01*
X147179605Y47000000D01*
X148000000Y46179605D01*
X148464819Y46644424D01*
X148452607Y46839025D01*
X148097073Y46948363D01*
X147945421Y46934013D01*
X147934013Y47054579D01*
X148273239Y47086678D01*
X148452607Y47160975D01*
X148464819Y47355576D01*
X148000000Y47820395D01*
X147179605Y47000000D01*
X146820395Y47000000D01*
X146000000Y47820395D01*
X145179605Y47000000D01*
X144820395Y47000000D01*
X144000000Y47820395D01*
X143179605Y47000000D01*
X142820395Y47000000D01*
X142000000Y47820395D01*
X141179605Y47000000D01*
X140820395Y47000000D01*
X140000000Y47820395D01*
X139179605Y47000000D01*
X138820395Y47000000D01*
X138000000Y47820395D01*
X137179605Y47000000D01*
X136820395Y47000000D01*
X136355576Y47464819D01*
X136160975Y47452607D01*
X136051637Y47097073D01*
X112348637Y47097073D01*
X111090134Y48355576D01*
X136535181Y48355576D01*
X136547393Y48160975D01*
X136902927Y48051637D01*
X137054579Y48065987D01*
X137065987Y47945421D01*
X136726761Y47913322D01*
X136547393Y47839025D01*
X136535181Y47644424D01*
X137000000Y47179605D01*
X137820395Y48000000D01*
X138179605Y48000000D01*
X139000000Y47179605D01*
X139820395Y48000000D01*
X140179605Y48000000D01*
X141000000Y47179605D01*
X141820395Y48000000D01*
X142179605Y48000000D01*
X143000000Y47179605D01*
X143820395Y48000000D01*
X144179605Y48000000D01*
X145000000Y47179605D01*
X145820395Y48000000D01*
X146179605Y48000000D01*
X147000000Y47179605D01*
X147820395Y48000000D01*
X148179605Y48000000D01*
X148644424Y47535181D01*
X148839025Y47547393D01*
X148948363Y47902927D01*
X148913322Y48273239D01*
X148839025Y48452607D01*
X148644424Y48464819D01*
X148179605Y48000000D01*
X147820395Y48000000D01*
X147000000Y48820395D01*
X146179605Y48000000D01*
X145820395Y48000000D01*
X145000000Y48820395D01*
X144179605Y48000000D01*
X143820395Y48000000D01*
X143000000Y48820395D01*
X142179605Y48000000D01*
X141820395Y48000000D01*
X141000000Y48820395D01*
X140179605Y48000000D01*
X139820395Y48000000D01*
X139000000Y48820395D01*
X138179605Y48000000D01*
X137820395Y48000000D01*
X137000000Y48820395D01*
X136535181Y48355576D01*
X111090134Y48355576D01*
X110348637Y49097073D01*
X136051637Y49097073D01*
X136086678Y48726761D01*
X136160975Y48547393D01*
X136355576Y48535181D01*
X136820395Y49000000D01*
X137179605Y49000000D01*
X138000000Y48179605D01*
X138820395Y49000000D01*
X139179605Y49000000D01*
X140000000Y48179605D01*
X140820395Y49000000D01*
X141179605Y49000000D01*
X142000000Y48179605D01*
X142820395Y49000000D01*
X143179605Y49000000D01*
X144000000Y48179605D01*
X144820395Y49000000D01*
X145179605Y49000000D01*
X146000000Y48179605D01*
X146820395Y49000000D01*
X147179605Y49000000D01*
X148000000Y48179605D01*
X148464819Y48644424D01*
X148452607Y48839025D01*
X148097073Y48948363D01*
X147945421Y48934013D01*
X147934013Y49054579D01*
X148273239Y49086678D01*
X148452607Y49160975D01*
X148464819Y49355576D01*
X148000000Y49820395D01*
X147179605Y49000000D01*
X146820395Y49000000D01*
X146000000Y49820395D01*
X145179605Y49000000D01*
X144820395Y49000000D01*
X144000000Y49820395D01*
X143179605Y49000000D01*
X142820395Y49000000D01*
X142000000Y49820395D01*
X141179605Y49000000D01*
X140820395Y49000000D01*
X140000000Y49820395D01*
X139179605Y49000000D01*
X138820395Y49000000D01*
X138000000Y49820395D01*
X137179605Y49000000D01*
X136820395Y49000000D01*
X136355576Y49464819D01*
X136160975Y49452607D01*
X136051637Y49097073D01*
X110348637Y49097073D01*
X109801286Y49644424D01*
X136535181Y49644424D01*
X137000000Y49179605D01*
X137820395Y50000000D01*
X138179605Y50000000D01*
X139000000Y49179605D01*
X139820395Y50000000D01*
X140179605Y50000000D01*
X141000000Y49179605D01*
X141820395Y50000000D01*
X142179605Y50000000D01*
X143000000Y49179605D01*
X143820395Y50000000D01*
X144179605Y50000000D01*
X145000000Y49179605D01*
X145820395Y50000000D01*
X146179605Y50000000D01*
X147000000Y49179605D01*
X147820395Y50000000D01*
X148179605Y50000000D01*
X148644424Y49535181D01*
X148839025Y49547393D01*
X148948363Y49902927D01*
X148913322Y50273239D01*
X148839025Y50452607D01*
X148644424Y50464819D01*
X148179605Y50000000D01*
X147820395Y50000000D01*
X147355576Y50464819D01*
X147160975Y50452607D01*
X147051637Y50097073D01*
X147065987Y49945421D01*
X146945421Y49934013D01*
X146913322Y50273239D01*
X146839025Y50452607D01*
X146644424Y50464819D01*
X146179605Y50000000D01*
X145820395Y50000000D01*
X145355576Y50464819D01*
X145160975Y50452607D01*
X145051637Y50097073D01*
X145065987Y49945421D01*
X144945421Y49934013D01*
X144913322Y50273239D01*
X144839025Y50452607D01*
X144644424Y50464819D01*
X144179605Y50000000D01*
X143820395Y50000000D01*
X143355576Y50464819D01*
X143160975Y50452607D01*
X143051637Y50097073D01*
X143065987Y49945421D01*
X142945421Y49934013D01*
X142913322Y50273239D01*
X142839025Y50452607D01*
X142644424Y50464819D01*
X142179605Y50000000D01*
X141820395Y50000000D01*
X141355576Y50464819D01*
X141160975Y50452607D01*
X141051637Y50097073D01*
X141065987Y49945421D01*
X140945421Y49934013D01*
X140913322Y50273239D01*
X140839025Y50452607D01*
X140644424Y50464819D01*
X140179605Y50000000D01*
X139820395Y50000000D01*
X139355576Y50464819D01*
X139160975Y50452607D01*
X139051637Y50097073D01*
X139065987Y49945421D01*
X138945421Y49934013D01*
X138913322Y50273239D01*
X138839025Y50452607D01*
X138644424Y50464819D01*
X138179605Y50000000D01*
X137820395Y50000000D01*
X137355576Y50464819D01*
X137160975Y50452607D01*
X137051637Y50097073D01*
X137065987Y49945421D01*
X136726761Y49913322D01*
X136547393Y49839025D01*
X136535181Y49644424D01*
X109801286Y49644424D01*
X108801286Y50644424D01*
X137535181Y50644424D01*
X138000000Y50179605D01*
X138464819Y50644424D01*
X139535181Y50644424D01*
X140000000Y50179605D01*
X140464819Y50644424D01*
X141535181Y50644424D01*
X142000000Y50179605D01*
X142464819Y50644424D01*
X143535181Y50644424D01*
X144000000Y50179605D01*
X144464819Y50644424D01*
X145535181Y50644424D01*
X146000000Y50179605D01*
X146464819Y50644424D01*
X147535181Y50644424D01*
X148000000Y50179605D01*
X148464819Y50644424D01*
X148452607Y50839025D01*
X148097073Y50948363D01*
X147726761Y50913322D01*
X147547393Y50839025D01*
X147535181Y50644424D01*
X146464819Y50644424D01*
X146452607Y50839025D01*
X146097073Y50948363D01*
X145726761Y50913322D01*
X145547393Y50839025D01*
X145535181Y50644424D01*
X144464819Y50644424D01*
X144452607Y50839025D01*
X144097073Y50948363D01*
X143726761Y50913322D01*
X143547393Y50839025D01*
X143535181Y50644424D01*
X142464819Y50644424D01*
X142452607Y50839025D01*
X142097073Y50948363D01*
X141726761Y50913322D01*
X141547393Y50839025D01*
X141535181Y50644424D01*
X140464819Y50644424D01*
X140452607Y50839025D01*
X140097073Y50948363D01*
X139726761Y50913322D01*
X139547393Y50839025D01*
X139535181Y50644424D01*
X138464819Y50644424D01*
X138452607Y50839025D01*
X138097073Y50948363D01*
X137726761Y50913322D01*
X137547393Y50839025D01*
X137535181Y50644424D01*
X108801286Y50644424D01*
X102957169Y56488541D01*
X102957169Y78766785D01*
X102901099Y79048670D01*
X102741424Y79287640D01*
X101981683Y80047381D01*
X110764613Y80047381D01*
X111104155Y79225628D01*
X111732321Y78596364D01*
X112553481Y78255389D01*
X113442619Y78254613D01*
X114264372Y78594155D01*
X114893636Y79222321D01*
X115234611Y80043481D01*
X115235387Y80932619D01*
X114895845Y81754372D01*
X114267679Y82383636D01*
X113446519Y82724611D01*
X112557381Y82725387D01*
X111735628Y82385845D01*
X111106364Y81757679D01*
X110765389Y80936519D01*
X110764613Y80047381D01*
X101981683Y80047381D01*
X99914231Y82114833D01*
X105364838Y82114833D01*
X105506883Y81771057D01*
X105769673Y81507808D01*
X106113201Y81365162D01*
X106485167Y81364838D01*
X106828943Y81506883D01*
X107092192Y81769673D01*
X107234838Y82113201D01*
X107234876Y82157246D01*
X109615631Y84538000D01*
X111939534Y84538000D01*
X111969673Y84507808D01*
X112313201Y84365162D01*
X112685167Y84364838D01*
X113028943Y84506883D01*
X113292192Y84769673D01*
X113434838Y85113201D01*
X113435162Y85485167D01*
X113293117Y85828943D01*
X113030327Y86092192D01*
X112686799Y86234838D01*
X112314833Y86235162D01*
X111971057Y86093117D01*
X111939886Y86062000D01*
X109300000Y86062000D01*
X109008395Y86003996D01*
X108918002Y85943597D01*
X108761185Y85838816D01*
X106157495Y83235125D01*
X106114833Y83235162D01*
X105771057Y83093117D01*
X105507808Y82830327D01*
X105365162Y82486799D01*
X105364838Y82114833D01*
X99914231Y82114833D01*
X99060218Y82968846D01*
X99060286Y83047397D01*
X98918241Y83391173D01*
X98655451Y83654422D01*
X98311923Y83797068D01*
X97939957Y83797392D01*
X97596181Y83655347D01*
X97332932Y83392557D01*
X97190286Y83049029D01*
X97189962Y82677063D01*
X97332007Y82333287D01*
X97594797Y82070038D01*
X97938325Y81927392D01*
X98018322Y81927322D01*
X101483969Y78461675D01*
X101483969Y56183431D01*
X101540039Y55901546D01*
X101699714Y55662576D01*
X115199400Y42162890D01*
X115199400Y37019714D01*
X114895845Y37754372D01*
X114267679Y38383636D01*
X113446519Y38724611D01*
X112557381Y38725387D01*
X111735628Y38385845D01*
X111106364Y37757679D01*
X110765389Y36936519D01*
X110764613Y36047381D01*
X111104155Y35225628D01*
X111732321Y34596364D01*
X112553481Y34255389D01*
X113442619Y34254613D01*
X114264372Y34594155D01*
X114893636Y35222321D01*
X115199400Y35958683D01*
X115199400Y8998028D01*
X115002005Y8916466D01*
X114665821Y8580868D01*
X114332437Y8914834D01*
X113725845Y9166713D01*
X113069037Y9167286D01*
X112869055Y9084655D01*
X109972855Y11980855D01*
X109733885Y12140530D01*
X109452000Y12196600D01*
X105847133Y12196600D01*
X98623285Y19421224D01*
X99629450Y19421224D01*
X100111796Y18253857D01*
X101004159Y17359935D01*
X102170683Y16875552D01*
X103433776Y16874450D01*
X104601143Y17356796D01*
X105495065Y18249159D01*
X105979448Y19415683D01*
X105979752Y19764250D01*
X109435000Y19764250D01*
X109435000Y17523690D01*
X109531673Y17290301D01*
X109710302Y17111673D01*
X109943691Y17015000D01*
X111164250Y17015000D01*
X111323000Y17173750D01*
X111323000Y19923000D01*
X111577000Y19923000D01*
X111577000Y17173750D01*
X111735750Y17015000D01*
X112956309Y17015000D01*
X113189698Y17111673D01*
X113368327Y17290301D01*
X113465000Y17523690D01*
X113465000Y19764250D01*
X113306250Y19923000D01*
X111577000Y19923000D01*
X111323000Y19923000D01*
X109593750Y19923000D01*
X109435000Y19764250D01*
X105979752Y19764250D01*
X105980550Y20678776D01*
X105498204Y21846143D01*
X104769311Y22576310D01*
X109435000Y22576310D01*
X109435000Y20335750D01*
X109593750Y20177000D01*
X111323000Y20177000D01*
X111323000Y22926250D01*
X111577000Y22926250D01*
X111577000Y20177000D01*
X113306250Y20177000D01*
X113465000Y20335750D01*
X113465000Y22576310D01*
X113368327Y22809699D01*
X113189698Y22988327D01*
X112956309Y23085000D01*
X111735750Y23085000D01*
X111577000Y22926250D01*
X111323000Y22926250D01*
X111164250Y23085000D01*
X109943691Y23085000D01*
X109710302Y22988327D01*
X109531673Y22809699D01*
X109435000Y22576310D01*
X104769311Y22576310D01*
X104605841Y22740065D01*
X103439317Y23224448D01*
X102176224Y23225550D01*
X101008857Y22743204D01*
X100114935Y21850841D01*
X99630552Y20684317D01*
X99629450Y19421224D01*
X98623285Y19421224D01*
X96960600Y21084087D01*
X96960600Y32567537D01*
X97048201Y32531162D01*
X97420167Y32530838D01*
X97763943Y32672883D01*
X98027192Y32935673D01*
X98169838Y33279201D01*
X98170162Y33651167D01*
X98028117Y33994943D01*
X97995000Y34028118D01*
X97995000Y34812198D01*
X102083680Y38900878D01*
X102129167Y38900838D01*
X102472943Y39042883D01*
X102736192Y39305673D01*
X102878838Y39649201D01*
X102879162Y40021167D01*
X102737117Y40364943D01*
X102474327Y40628192D01*
X102130799Y40770838D01*
X101758833Y40771162D01*
X101415057Y40629117D01*
X101151808Y40366327D01*
X101009162Y40022799D01*
X101009121Y39975923D01*
X96960600Y35927402D01*
X96960600Y35986890D01*
X98769855Y37796145D01*
X98929530Y38035115D01*
X98985600Y38317000D01*
X98985600Y75319390D01*
X99394616Y75728406D01*
X99473167Y75728338D01*
X99816943Y75870383D01*
X100080192Y76133173D01*
X100222838Y76476701D01*
X100223162Y76848667D01*
X100081117Y77192443D01*
X100024600Y77249059D01*
X100024600Y78664561D01*
X99968530Y78946446D01*
X99808855Y79185416D01*
X96702481Y82291790D01*
X96702549Y82370341D01*
X96560504Y82714117D01*
X96297714Y82977366D01*
X95954186Y83120012D01*
X95582220Y83120336D01*
X95238444Y82978291D01*
X94975195Y82715501D01*
X94832549Y82371973D01*
X94832225Y82000007D01*
X94974270Y81656231D01*
X95237060Y81392982D01*
X95580588Y81250336D01*
X95660585Y81250266D01*
X95794559Y81116292D01*
X95775452Y81108397D01*
X95512203Y80845607D01*
X95369557Y80502079D01*
X95369233Y80130113D01*
X95511278Y79786337D01*
X95774068Y79523088D01*
X96117596Y79380442D01*
X96197593Y79380372D01*
X96288400Y79289565D01*
X96288400Y72539499D01*
X93262000Y75565649D01*
X93262000Y81134138D01*
X96140863Y84013000D01*
X97500000Y84013000D01*
X97510055Y84015000D01*
X100943537Y84015000D01*
X100975673Y83982808D01*
X101319201Y83840162D01*
X101691167Y83839838D01*
X102034943Y83981883D01*
X102298192Y84244673D01*
X102440838Y84588201D01*
X102441162Y84960167D01*
X102299117Y85303943D01*
X102036327Y85567192D01*
X101692799Y85709838D01*
X101320833Y85710162D01*
X100977057Y85568117D01*
X100943882Y85535000D01*
X97510055Y85535000D01*
X97500000Y85537000D01*
X95825232Y85537000D01*
X95564651Y85485167D01*
X95533627Y85478996D01*
X95286416Y85313815D01*
X91961185Y81988583D01*
X91796004Y81741373D01*
X91738000Y81449768D01*
X91738000Y76148310D01*
X89507094Y78379216D01*
X89507162Y78457767D01*
X89365117Y78801543D01*
X89102327Y79064792D01*
X88758799Y79207438D01*
X88386833Y79207762D01*
X88043057Y79065717D01*
X87779808Y78802927D01*
X87637162Y78459399D01*
X87636838Y78087433D01*
X87778883Y77743657D01*
X88041673Y77480408D01*
X88385201Y77337762D01*
X88465198Y77337692D01*
X94674400Y71128490D01*
X94674400Y69522713D01*
X92597094Y71600183D01*
X92597162Y71678767D01*
X92455117Y72022543D01*
X92192327Y72285792D01*
X91848799Y72428438D01*
X91476833Y72428762D01*
X91133057Y72286717D01*
X90869808Y72023927D01*
X90727162Y71680399D01*
X90726838Y71308433D01*
X90868883Y70964657D01*
X91131673Y70701408D01*
X91475201Y70558762D01*
X91555166Y70558692D01*
X93451400Y68662308D01*
X93451400Y8998028D01*
X93254005Y8916466D01*
X92917821Y8580868D01*
X92584437Y8914834D01*
X91977845Y9166713D01*
X91321037Y9167286D01*
X91121055Y9084655D01*
X88311600Y11894110D01*
X88311600Y18651180D01*
X88368192Y18707673D01*
X88510838Y19051201D01*
X88511162Y19423167D01*
X88369117Y19766943D01*
X88272467Y19863761D01*
X88256530Y19943885D01*
X88255961Y19944736D01*
X88255759Y19945738D01*
X88176197Y20064112D01*
X88128600Y20135345D01*
X88128600Y75148378D01*
X88184192Y75203873D01*
X88326838Y75547401D01*
X88327162Y75919367D01*
X88185117Y76263143D01*
X87922327Y76526392D01*
X87578799Y76669038D01*
X87206833Y76669362D01*
X86863057Y76527317D01*
X86599808Y76264527D01*
X86582600Y76223086D01*
X86582600Y76407700D01*
X86555495Y76543968D01*
X86526544Y76689552D01*
X86526533Y76689568D01*
X86526530Y76689585D01*
X86447911Y76807246D01*
X86366880Y76928530D01*
X82609094Y80686677D01*
X82609162Y80765267D01*
X82467117Y81109043D01*
X82204327Y81372292D01*
X81860799Y81514938D01*
X81488833Y81515262D01*
X81145057Y81373217D01*
X80881808Y81110427D01*
X80739162Y80766899D01*
X80738838Y80394933D01*
X80880883Y80051157D01*
X81143673Y79787908D01*
X81487201Y79645262D01*
X81567158Y79645192D01*
X85109400Y76102611D01*
X85109400Y49600299D01*
X85021162Y49387799D01*
X85020838Y49015833D01*
X85124400Y48765193D01*
X85124400Y16586963D01*
X84919057Y16502117D01*
X84655808Y16239327D01*
X84513162Y15895799D01*
X84512838Y15523833D01*
X84654883Y15180057D01*
X84711400Y15123441D01*
X84711400Y9634891D01*
X83864126Y9635630D01*
X82768732Y9183022D01*
X83837855Y10252145D01*
X83892975Y10334638D01*
X83997530Y10491115D01*
X84008047Y10543990D01*
X84053601Y10773000D01*
X84053600Y10773005D01*
X84053600Y12716178D01*
X84109192Y12771673D01*
X84251838Y13115201D01*
X84252162Y13487167D01*
X84242600Y13510309D01*
X84242600Y73783700D01*
X84214723Y73923849D01*
X84186553Y74065530D01*
X84186536Y74065556D01*
X84186530Y74065585D01*
X84107263Y74184216D01*
X84026897Y74304513D01*
X82595094Y75736549D01*
X82595162Y75815167D01*
X82453117Y76158943D01*
X82190327Y76422192D01*
X81846799Y76564838D01*
X81474833Y76565162D01*
X81131057Y76423117D01*
X80867808Y76160327D01*
X80725162Y75816799D01*
X80724838Y75444833D01*
X80866883Y75101057D01*
X81129673Y74837808D01*
X81473201Y74695162D01*
X81553131Y74695092D01*
X82769400Y73478626D01*
X82769400Y14076493D01*
X82524808Y13832327D01*
X82382162Y13488799D01*
X82381838Y13116833D01*
X82523883Y12773057D01*
X82580400Y12716441D01*
X82580400Y11078110D01*
X80587097Y9084807D01*
X80389845Y9166713D01*
X79733037Y9167286D01*
X79126005Y8916466D01*
X78789821Y8580868D01*
X78489961Y8881251D01*
X81704855Y12096145D01*
X81864530Y12335115D01*
X81920600Y12617000D01*
X81920600Y40843890D01*
X82070855Y40994145D01*
X82230530Y41233115D01*
X82286600Y41515000D01*
X82286600Y71852900D01*
X82286592Y71852938D01*
X82286600Y71852977D01*
X82258143Y71995965D01*
X82230530Y72134785D01*
X82230509Y72134817D01*
X82230501Y72134856D01*
X82150235Y72254954D01*
X82070855Y72373755D01*
X82070822Y72373777D01*
X82070800Y72373810D01*
X82008094Y72436503D01*
X82008162Y72514967D01*
X81866117Y72858743D01*
X81603327Y73121992D01*
X81259799Y73264638D01*
X81179984Y73264708D01*
X80441600Y74003415D01*
X80441600Y81041551D01*
X81079171Y81679300D01*
X82366854Y81679300D01*
X83911101Y80134790D01*
X83911126Y80134773D01*
X83911145Y80134745D01*
X84033907Y80052718D01*
X84150057Y79975094D01*
X84150088Y79975088D01*
X84150115Y79975070D01*
X84290612Y79947124D01*
X84431937Y79919000D01*
X84431969Y79919006D01*
X84432000Y79919000D01*
X87482000Y79919000D01*
X87626299Y79947703D01*
X87763853Y79975057D01*
X87763867Y79975066D01*
X87763885Y79975070D01*
X87891621Y80060421D01*
X88002830Y80134721D01*
X88002852Y80134743D01*
X88002855Y80134745D01*
X88002857Y80134748D01*
X91856578Y83988106D01*
X91935167Y83988038D01*
X92278943Y84130083D01*
X92542192Y84392873D01*
X92684838Y84736401D01*
X92685162Y85108367D01*
X92543117Y85452143D01*
X92280327Y85715392D01*
X91936799Y85858038D01*
X91564833Y85858362D01*
X91221057Y85716317D01*
X90957808Y85453527D01*
X90815162Y85109999D01*
X90815092Y85030041D01*
X87202103Y81417389D01*
X87202162Y81485367D01*
X87060117Y81829143D01*
X86797327Y82092392D01*
X86453799Y82235038D01*
X86373826Y82235108D01*
X83348870Y85260240D01*
X83348861Y85260246D01*
X83348855Y85260255D01*
X83225905Y85342408D01*
X83109904Y85419922D01*
X83109894Y85419924D01*
X83109885Y85419930D01*
X82968231Y85448106D01*
X82828021Y85476000D01*
X82828010Y85475998D01*
X82828000Y85476000D01*
X54434263Y85476000D01*
X54266397Y85727228D01*
X53813178Y86030060D01*
X53278569Y86136400D01*
X53223831Y86136400D01*
X52689222Y86030060D01*
X52236003Y85727228D01*
X51933171Y85274009D01*
X51826831Y84739400D01*
X51933171Y84204791D01*
X52236003Y83751572D01*
X52689222Y83448740D01*
X53223831Y83342400D01*
X53278569Y83342400D01*
X53813178Y83448740D01*
X54266397Y83751572D01*
X54434263Y84002800D01*
X82522877Y84002800D01*
X85133326Y81392200D01*
X84737146Y81392200D01*
X83192899Y82936710D01*
X83192874Y82936727D01*
X83192855Y82936755D01*
X83070093Y83018782D01*
X82953943Y83096406D01*
X82953912Y83096412D01*
X82953885Y83096430D01*
X82813388Y83124376D01*
X82672063Y83152500D01*
X82672031Y83152494D01*
X82672000Y83152500D01*
X80774000Y83152500D01*
X80773948Y83152490D01*
X80773896Y83152500D01*
X80634363Y83124725D01*
X80492115Y83096430D01*
X80492070Y83096400D01*
X80492020Y83096390D01*
X80376829Y83019398D01*
X80253145Y82936755D01*
X80253115Y82936710D01*
X80253072Y82936681D01*
X79184072Y81867382D01*
X79105830Y81750249D01*
X79024470Y81628485D01*
X79024460Y81628434D01*
X79024430Y81628389D01*
X78996327Y81486999D01*
X78968400Y81346600D01*
X78968400Y73698400D01*
X78996343Y73557918D01*
X79024408Y73416665D01*
X79024454Y73416596D01*
X79024470Y73416515D01*
X79104639Y73296534D01*
X79184031Y73177659D01*
X79350114Y73011503D01*
X79217808Y72879427D01*
X79075162Y72535899D01*
X79074838Y72163933D01*
X79216883Y71820157D01*
X79273400Y71763541D01*
X79273400Y67405700D01*
X79301596Y67263947D01*
X79318388Y67179474D01*
X79069808Y66931327D01*
X78927162Y66587799D01*
X78927020Y66424763D01*
X78852117Y66606043D01*
X78589327Y66869292D01*
X78245799Y67011938D01*
X77873833Y67012262D01*
X77530057Y66870217D01*
X77266808Y66607427D01*
X77124162Y66263899D01*
X77123838Y65891933D01*
X77254400Y65575948D01*
X77254400Y15912110D01*
X70427097Y9084807D01*
X70229845Y9166713D01*
X69573037Y9167286D01*
X68966005Y8916466D01*
X68501166Y8452437D01*
X68372749Y8143174D01*
X67437751Y9079806D01*
X66112600Y9630057D01*
X66112600Y14786890D01*
X66231616Y14905906D01*
X66310167Y14905838D01*
X66653943Y15047883D01*
X66917192Y15310673D01*
X67059838Y15654201D01*
X67059908Y15734045D01*
X69358759Y18032049D01*
X69358797Y18032107D01*
X69358855Y18032145D01*
X69439037Y18152146D01*
X69518478Y18270990D01*
X69518491Y18271057D01*
X69518530Y18271115D01*
X69546583Y18412146D01*
X69574600Y18552864D01*
X69574586Y18552932D01*
X69574600Y18553000D01*
X69574600Y45244178D01*
X69630192Y45299673D01*
X69772838Y45643201D01*
X69772908Y45723191D01*
X75156851Y51107041D01*
X75156855Y51107045D01*
X75236282Y51225916D01*
X75316528Y51346010D01*
X75316529Y51346013D01*
X75316530Y51346015D01*
X75334152Y51434609D01*
X75372601Y51627894D01*
X75372600Y51627900D01*
X75372600Y71837578D01*
X75428192Y71893073D01*
X75570838Y72236601D01*
X75571162Y72608567D01*
X75429117Y72952343D01*
X75166327Y73215592D01*
X74822799Y73358238D01*
X74450833Y73358562D01*
X74107057Y73216517D01*
X73843808Y72953727D01*
X73701162Y72610199D01*
X73700838Y72238233D01*
X73842883Y71894457D01*
X73899400Y71837841D01*
X73899400Y51933014D01*
X68731392Y46765094D01*
X68652833Y46765162D01*
X68309057Y46623117D01*
X68045808Y46360327D01*
X67903162Y46016799D01*
X67902838Y45644833D01*
X68044883Y45301057D01*
X68101400Y45244441D01*
X68101400Y18858190D01*
X66018536Y16776093D01*
X65939833Y16776162D01*
X65596057Y16634117D01*
X65332808Y16371327D01*
X65190162Y16027799D01*
X65190092Y15947802D01*
X64855145Y15612855D01*
X64695470Y15373885D01*
X64639400Y15092000D01*
X64639400Y9628719D01*
X63319628Y9083400D01*
X62378809Y8144222D01*
X62252466Y8449995D01*
X61788437Y8914834D01*
X61588600Y8997814D01*
X61588600Y39750000D01*
X61532530Y40031885D01*
X61372855Y40270855D01*
X57486600Y44157110D01*
X57486600Y46079746D01*
X57849576Y46079430D01*
X58193352Y46221475D01*
X58224523Y46252592D01*
X61320827Y46252592D01*
X61338586Y46209611D01*
X61601376Y45946362D01*
X61944904Y45803716D01*
X62316870Y45803392D01*
X62660646Y45945437D01*
X62923895Y46208227D01*
X63066541Y46551755D01*
X63066865Y46923721D01*
X62924820Y47267497D01*
X62662030Y47530746D01*
X62318502Y47673392D01*
X62214775Y47673482D01*
X62147270Y47718588D01*
X61855665Y47776592D01*
X58318302Y47776592D01*
X65305110Y54763400D01*
X72515000Y54763400D01*
X72796885Y54819470D01*
X73035855Y54979145D01*
X73195530Y55218115D01*
X73251600Y55500000D01*
X73251600Y66312778D01*
X73307192Y66368273D01*
X73449838Y66711801D01*
X73450162Y67083767D01*
X73308117Y67427543D01*
X73045327Y67690792D01*
X72701799Y67833438D01*
X72329833Y67833762D01*
X71986057Y67691717D01*
X71722808Y67428927D01*
X71580162Y67085399D01*
X71579838Y66713433D01*
X71721883Y66369657D01*
X71778400Y66313041D01*
X71778400Y65985835D01*
X70767094Y66997053D01*
X70767162Y67075567D01*
X70625117Y67419343D01*
X70362327Y67682592D01*
X70018799Y67825238D01*
X69646833Y67825562D01*
X69303057Y67683517D01*
X69039808Y67420727D01*
X68897162Y67077199D01*
X68896838Y66705233D01*
X69038883Y66361457D01*
X69301673Y66098208D01*
X69645201Y65955562D01*
X69725234Y65955492D01*
X71369400Y64311471D01*
X71369400Y63530462D01*
X69083336Y61244398D01*
X68916633Y61411392D01*
X68573105Y61554038D01*
X68493108Y61554108D01*
X66736600Y63310616D01*
X66736600Y68164178D01*
X66792192Y68219673D01*
X66934838Y68563201D01*
X66935162Y68935167D01*
X66793117Y69278943D01*
X66530327Y69542192D01*
X66186799Y69684838D01*
X65814833Y69685162D01*
X65471057Y69543117D01*
X65207808Y69280327D01*
X65065162Y68936799D01*
X65064838Y68564833D01*
X65206883Y68221057D01*
X65263400Y68164441D01*
X65263400Y63005506D01*
X65319470Y62723621D01*
X65479145Y62484651D01*
X67344596Y60619200D01*
X54694145Y47968749D01*
X54534470Y47729779D01*
X54478400Y47447894D01*
X54478400Y42766600D01*
X54031822Y42766600D01*
X53976327Y42822192D01*
X53632799Y42964838D01*
X53494600Y42964958D01*
X53494600Y43246178D01*
X53550192Y43301673D01*
X53692838Y43645201D01*
X53693162Y44017167D01*
X53551117Y44360943D01*
X53288327Y44624192D01*
X52944799Y44766838D01*
X52572833Y44767162D01*
X52513600Y44742687D01*
X52513600Y46240881D01*
X63565843Y57292634D01*
X63565847Y57292639D01*
X63565855Y57292645D01*
X63651459Y57420759D01*
X63725524Y57531600D01*
X63725526Y57531609D01*
X63725530Y57531615D01*
X63752810Y57668762D01*
X63781600Y57813484D01*
X63781598Y57813492D01*
X63781600Y57813500D01*
X63781600Y72167978D01*
X63837192Y72223473D01*
X63979838Y72567001D01*
X63980162Y72938967D01*
X63838117Y73282743D01*
X63575327Y73545992D01*
X63231799Y73688638D01*
X62859833Y73688962D01*
X62516057Y73546917D01*
X62252808Y73284127D01*
X62110162Y72940599D01*
X62109838Y72568633D01*
X62251883Y72224857D01*
X62308400Y72168241D01*
X62308400Y58118620D01*
X51256157Y47066866D01*
X51256153Y47066861D01*
X51256145Y47066855D01*
X51176971Y46948363D01*
X51096476Y46827900D01*
X51096474Y46827891D01*
X51096470Y46827885D01*
X51075605Y46722987D01*
X51040400Y46546016D01*
X51040402Y46546008D01*
X51040400Y46546000D01*
X51040400Y34777058D01*
X50920833Y34777162D01*
X50577057Y34635117D01*
X50313808Y34372327D01*
X50171162Y34028799D01*
X50171155Y34020707D01*
X39171319Y23020871D01*
X38550000Y23144459D01*
X37778893Y22991076D01*
X37125180Y22554279D01*
X36688383Y21900566D01*
X36535000Y21129459D01*
X36535000Y18970541D01*
X36688383Y18199434D01*
X37125180Y17545721D01*
X37778893Y17108924D01*
X38550000Y16955541D01*
X39321107Y17108924D01*
X39974820Y17545721D01*
X40411617Y18199434D01*
X40565000Y18970541D01*
X40565000Y19421224D01*
X44019450Y19421224D01*
X44501796Y18253857D01*
X45394159Y17359935D01*
X46560683Y16875552D01*
X47823776Y16874450D01*
X48991143Y17356796D01*
X49885065Y18249159D01*
X50369448Y19415683D01*
X50370550Y20678776D01*
X49888204Y21846143D01*
X48995841Y22740065D01*
X47829317Y23224448D01*
X46566224Y23225550D01*
X45398857Y22743204D01*
X44504935Y21850841D01*
X44020552Y20684317D01*
X44019450Y19421224D01*
X40565000Y19421224D01*
X40565000Y21129459D01*
X40411617Y21900566D01*
X40358145Y21980593D01*
X51040400Y32662848D01*
X51040400Y9159008D01*
X51021845Y9166713D01*
X50365037Y9167286D01*
X49758005Y8916466D01*
X49293166Y8452437D01*
X49164749Y8143174D01*
X48229751Y9079806D01*
X46894218Y9634368D01*
X45448126Y9635630D01*
X44122050Y9087706D01*
X35614060Y17595850D01*
X35614057Y17595852D01*
X35614055Y17595855D01*
X35505976Y17668072D01*
X35375091Y17755528D01*
X35375087Y17755529D01*
X35375085Y17755530D01*
X35271699Y17776095D01*
X35093207Y17811600D01*
X35093203Y17811599D01*
X35093200Y17811600D01*
X35029822Y17811600D01*
X34974327Y17867192D01*
X34630799Y18009838D01*
X34436000Y18010008D01*
X34436000Y36047381D01*
X34684613Y36047381D01*
X35024155Y35225628D01*
X35652321Y34596364D01*
X36473481Y34255389D01*
X37362619Y34254613D01*
X38184372Y34594155D01*
X38813636Y35222321D01*
X39154611Y36043481D01*
X39155387Y36932619D01*
X38815845Y37754372D01*
X38187679Y38383636D01*
X37366519Y38724611D01*
X36477381Y38725387D01*
X35655628Y38385845D01*
X35026364Y37757679D01*
X34685389Y36936519D01*
X34684613Y36047381D01*
X34436000Y36047381D01*
X34436000Y37249890D01*
X48717304Y51531194D01*
X48876979Y51770164D01*
X48933049Y52052049D01*
X48933049Y62972005D01*
X48988641Y63027500D01*
X49131287Y63371028D01*
X49131357Y63451025D01*
X60578974Y74898642D01*
X60734452Y74834081D01*
X61106418Y74833757D01*
X61450194Y74975802D01*
X61713443Y75238592D01*
X61856089Y75582120D01*
X61856413Y75954086D01*
X61714368Y76297862D01*
X61451578Y76561111D01*
X61108050Y76703757D01*
X60736084Y76704081D01*
X60392308Y76562036D01*
X60317813Y76487671D01*
X60125656Y76449449D01*
X59886686Y76289774D01*
X48089833Y64492921D01*
X48011282Y64492989D01*
X47667506Y64350944D01*
X47404257Y64088154D01*
X47261611Y63744626D01*
X47261287Y63372660D01*
X47403332Y63028884D01*
X47459849Y62972268D01*
X47459849Y52357159D01*
X33178545Y38075855D01*
X33018870Y37836885D01*
X32962800Y37555000D01*
X32962800Y12920600D01*
X33018870Y12638715D01*
X33178545Y12399745D01*
X36411156Y9167134D01*
X36237037Y9167286D01*
X36037030Y9084645D01*
X31186400Y13935116D01*
X31186400Y40857469D01*
X31438022Y40689340D01*
X31972631Y40583000D01*
X32027369Y40583000D01*
X32561978Y40689340D01*
X33015197Y40992172D01*
X33199223Y41267586D01*
X33359515Y41299470D01*
X33598485Y41459145D01*
X38233264Y46093924D01*
X38392939Y46332894D01*
X38449009Y46614779D01*
X38449009Y61319882D01*
X38504601Y61375377D01*
X38647247Y61718905D01*
X38647571Y62090871D01*
X38505526Y62434647D01*
X38242736Y62697896D01*
X37899208Y62840542D01*
X37527242Y62840866D01*
X37183466Y62698821D01*
X36920217Y62436031D01*
X36777571Y62092503D01*
X36777247Y61720537D01*
X36919292Y61376761D01*
X36975809Y61320145D01*
X36975809Y46919889D01*
X34677800Y44621880D01*
X34677800Y59955090D01*
X35315187Y60592477D01*
X35355709Y60592442D01*
X35699485Y60734487D01*
X35962734Y60997277D01*
X36105380Y61340805D01*
X36105704Y61712771D01*
X35963659Y62056547D01*
X35700869Y62319796D01*
X35357341Y62462442D01*
X34985375Y62462766D01*
X34641599Y62320721D01*
X34595397Y62274600D01*
X33419317Y62274600D01*
X33424369Y62300000D01*
X33318029Y62834609D01*
X33015197Y63287828D01*
X32592898Y63570000D01*
X33015197Y63852172D01*
X33318029Y64305391D01*
X33424369Y64840000D01*
X33318029Y65374609D01*
X33015197Y65827828D01*
X32592898Y66110000D01*
X33015197Y66392172D01*
X33318029Y66845391D01*
X33424369Y67380000D01*
X33318029Y67914609D01*
X33015197Y68367828D01*
X32592898Y68650000D01*
X33015197Y68932172D01*
X33318029Y69385391D01*
X33424369Y69920000D01*
X33318029Y70454609D01*
X33015197Y70907828D01*
X32562536Y71210287D01*
X32835199Y71340142D01*
X33200174Y71745003D01*
X33354220Y72116930D01*
X33231720Y72333000D01*
X32127000Y72333000D01*
X32127000Y72313000D01*
X31873000Y72313000D01*
X31873000Y72333000D01*
X30768280Y72333000D01*
X30645780Y72116930D01*
X30799826Y71745003D01*
X31164801Y71340142D01*
X31437464Y71210287D01*
X30984803Y70907828D01*
X30681971Y70454609D01*
X30575631Y69920000D01*
X30639118Y69600828D01*
X29098845Y68060555D01*
X28939170Y67821585D01*
X28883100Y67539700D01*
X28883100Y34434885D01*
X28564833Y34435162D01*
X28221057Y34293117D01*
X27957808Y34030327D01*
X27815162Y33686799D01*
X27814838Y33314833D01*
X27956883Y32971057D01*
X27988000Y32939886D01*
X27988000Y31560466D01*
X27957808Y31530327D01*
X27815162Y31186799D01*
X27814838Y30814833D01*
X27956883Y30471057D01*
X28219673Y30207808D01*
X28563201Y30065162D01*
X28883100Y30064883D01*
X28883100Y9380000D01*
X28883106Y9379971D01*
X28883100Y9379941D01*
X28909240Y9248582D01*
X28935705Y9115535D01*
X27696600Y9630057D01*
X27696600Y23206000D01*
X27640530Y23487885D01*
X27480855Y23726855D01*
X25913094Y25294616D01*
X25913162Y25373167D01*
X25771117Y25716943D01*
X25508327Y25980192D01*
X25164799Y26122838D01*
X24792833Y26123162D01*
X24449057Y25981117D01*
X24185808Y25718327D01*
X24043162Y25374799D01*
X24042838Y25002833D01*
X24184883Y24659057D01*
X24447673Y24395808D01*
X24791201Y24253162D01*
X24871198Y24253092D01*
X26223400Y22900890D01*
X26223400Y9628719D01*
X24903628Y9083400D01*
X23962809Y8144222D01*
X23836466Y8449995D01*
X23372437Y8914834D01*
X22765845Y9166713D01*
X22109037Y9167286D01*
X21502005Y8916466D01*
X21165821Y8580868D01*
X20832437Y8914834D01*
X20225845Y9166713D01*
X19911225Y9166987D01*
X19925749Y9240003D01*
X19952800Y9375961D01*
X19952796Y9375981D01*
X19952800Y9376000D01*
X19952800Y53019972D01*
X19995602Y52955915D01*
X20054295Y52868075D01*
X20064875Y52857495D01*
X20064838Y52814833D01*
X20206883Y52471057D01*
X20238000Y52439886D01*
X20238000Y44310466D01*
X20207808Y44280327D01*
X20065162Y43936799D01*
X20064838Y43564833D01*
X20206883Y43221057D01*
X20469673Y42957808D01*
X20813201Y42815162D01*
X21185167Y42814838D01*
X21528943Y42956883D01*
X21792192Y43219673D01*
X21934838Y43563201D01*
X21935162Y43935167D01*
X21793117Y44278943D01*
X21762000Y44310114D01*
X21762000Y52439534D01*
X21792192Y52469673D01*
X21934838Y52813201D01*
X21935162Y53185167D01*
X21793117Y53528943D01*
X21530327Y53792192D01*
X21355110Y53864949D01*
X21355110Y61816680D01*
X21596285Y61816680D01*
X21725533Y61523877D01*
X22425806Y61255612D01*
X23175435Y61275750D01*
X23774467Y61523877D01*
X23903715Y61816680D01*
X22750000Y62970395D01*
X21596285Y61816680D01*
X21355110Y61816680D01*
X21355110Y62023463D01*
X21416680Y61996285D01*
X22570395Y63150000D01*
X22929605Y63150000D01*
X24083320Y61996285D01*
X24376123Y62125533D01*
X24644388Y62825806D01*
X24624250Y63575435D01*
X24376123Y64174467D01*
X24083320Y64303715D01*
X22929605Y63150000D01*
X22570395Y63150000D01*
X21416680Y64303715D01*
X21355110Y64276537D01*
X21355110Y64483320D01*
X21596285Y64483320D01*
X22750000Y63329605D01*
X23903715Y64483320D01*
X23774467Y64776123D01*
X23074194Y65044388D01*
X22324565Y65024250D01*
X21725533Y64776123D01*
X21596285Y64483320D01*
X21355110Y64483320D01*
X21355110Y65077480D01*
X22815631Y66538000D01*
X23566279Y66538000D01*
X23575169Y66516485D01*
X23964436Y66126539D01*
X24473298Y65915241D01*
X25024285Y65914760D01*
X25533515Y66125169D01*
X25923461Y66514436D01*
X26134759Y67023298D01*
X26135240Y67574285D01*
X25924831Y68083515D01*
X25535564Y68473461D01*
X25351414Y68549927D01*
X25533515Y68625169D01*
X25923461Y69014436D01*
X26134759Y69523298D01*
X26135240Y70074285D01*
X25924831Y70583515D01*
X25535564Y70973461D01*
X25367246Y71043353D01*
X25473923Y71087540D01*
X25541912Y71328483D01*
X24750000Y72120395D01*
X23958088Y71328483D01*
X24026077Y71087540D01*
X24140611Y71046778D01*
X23966485Y70974831D01*
X23576539Y70585564D01*
X23365241Y70076702D01*
X23364760Y69525715D01*
X23575169Y69016485D01*
X23964436Y68626539D01*
X24148586Y68550073D01*
X23966485Y68474831D01*
X23576539Y68085564D01*
X23566754Y68062000D01*
X22500000Y68062000D01*
X22208395Y68003996D01*
X22139270Y67957808D01*
X21961185Y67838816D01*
X20897900Y66775530D01*
X20897900Y70138990D01*
X23402008Y72643098D01*
X23352799Y72504829D01*
X23380770Y71954552D01*
X23537540Y71576077D01*
X23778483Y71508088D01*
X24570395Y72300000D01*
X24929605Y72300000D01*
X25721517Y71508088D01*
X25962460Y71576077D01*
X26147201Y72095171D01*
X26119230Y72645448D01*
X25962460Y73023923D01*
X25721517Y73091912D01*
X24929605Y72300000D01*
X24570395Y72300000D01*
X24556253Y72314142D01*
X24735858Y72493747D01*
X24750000Y72479605D01*
X25541912Y73271517D01*
X25473923Y73512460D01*
X24954829Y73697201D01*
X24429403Y73670493D01*
X25758910Y75000000D01*
X30575631Y75000000D01*
X30681971Y74465391D01*
X30984803Y74012172D01*
X31437464Y73709713D01*
X31164801Y73579858D01*
X30799826Y73174997D01*
X30645780Y72803070D01*
X30768280Y72587000D01*
X31873000Y72587000D01*
X31873000Y72607000D01*
X32127000Y72607000D01*
X32127000Y72587000D01*
X33231720Y72587000D01*
X33256225Y72630223D01*
X41212600Y64673848D01*
X41212600Y60535111D01*
X41207808Y60530327D01*
X41065162Y60186799D01*
X41064838Y59814833D01*
X41206883Y59471057D01*
X41469673Y59207808D01*
X41813201Y59065162D01*
X42185167Y59064838D01*
X42528943Y59206883D01*
X42792192Y59469673D01*
X42934838Y59813201D01*
X42935162Y60185167D01*
X42793117Y60528943D01*
X42787400Y60534670D01*
X42787400Y65000000D01*
X42727463Y65301325D01*
X42556776Y65556776D01*
X33372801Y74740751D01*
X33424369Y75000000D01*
X33318029Y75534609D01*
X33015197Y75987828D01*
X32561978Y76290660D01*
X32027369Y76397000D01*
X31972631Y76397000D01*
X31438022Y76290660D01*
X30984803Y75987828D01*
X30681971Y75534609D01*
X30575631Y75000000D01*
X25758910Y75000000D01*
X30806291Y80047381D01*
X34684613Y80047381D01*
X35024155Y79225628D01*
X35652321Y78596364D01*
X36473481Y78255389D01*
X37362619Y78254613D01*
X38184372Y78594155D01*
X38813636Y79222321D01*
X39154611Y80043481D01*
X39155387Y80932619D01*
X38815845Y81754372D01*
X38187679Y82383636D01*
X37366519Y82724611D01*
X36477381Y82725387D01*
X35655628Y82385845D01*
X35026364Y81757679D01*
X34685389Y80936519D01*
X34684613Y80047381D01*
X30806291Y80047381D01*
X34687516Y83928606D01*
X34766067Y83928538D01*
X35109843Y84070583D01*
X35373092Y84333373D01*
X35515738Y84676901D01*
X35515792Y84739400D01*
X45324431Y84739400D01*
X45430771Y84204791D01*
X45733603Y83751572D01*
X46186822Y83448740D01*
X46721431Y83342400D01*
X46776169Y83342400D01*
X47310778Y83448740D01*
X47763997Y83751572D01*
X48066829Y84204791D01*
X48173169Y84739400D01*
X48066829Y85274009D01*
X47763997Y85727228D01*
X47310778Y86030060D01*
X46776169Y86136400D01*
X46721431Y86136400D01*
X46186822Y86030060D01*
X45733603Y85727228D01*
X45430771Y85274009D01*
X45324431Y84739400D01*
X35515792Y84739400D01*
X35516062Y85048867D01*
X35374017Y85392643D01*
X35111227Y85655892D01*
X34767699Y85798538D01*
X34395733Y85798862D01*
X34051957Y85656817D01*
X33788708Y85394027D01*
X33646062Y85050499D01*
X33645992Y84970502D01*
X24546952Y75871462D01*
X24644388Y76125806D01*
X24624250Y76875435D01*
X24376123Y77474467D01*
X24083320Y77603715D01*
X22929605Y76450000D01*
X22943748Y76435857D01*
X22764143Y76256252D01*
X22750000Y76270395D01*
X21596285Y75116680D01*
X21725533Y74823877D01*
X22425806Y74555612D01*
X23175435Y74575750D01*
X23304842Y74629352D01*
X19640445Y70964955D01*
X19480770Y70725985D01*
X19424700Y70444100D01*
X19424700Y63081716D01*
X19176648Y63184716D01*
X18526205Y63185284D01*
X17925057Y62936894D01*
X17464722Y62477363D01*
X17215284Y61876648D01*
X17214716Y61226205D01*
X17463106Y60625057D01*
X17922637Y60164722D01*
X18523352Y59915284D01*
X19173795Y59914716D01*
X19424700Y60018388D01*
X19424700Y58580679D01*
X19114539Y58695908D01*
X18464540Y58671856D01*
X17975736Y58469387D01*
X17877073Y58202532D01*
X18850000Y57229605D01*
X18864143Y57243747D01*
X19043748Y57064142D01*
X19029605Y57050000D01*
X19043748Y57035857D01*
X18864143Y56856252D01*
X18850000Y56870395D01*
X17877073Y55897468D01*
X17975736Y55630613D01*
X18522316Y55427551D01*
X18479600Y55212800D01*
X18479600Y46735975D01*
X18441399Y46751838D01*
X18069433Y46752162D01*
X17725657Y46610117D01*
X17462408Y46347327D01*
X17319762Y46003799D01*
X17319438Y45631833D01*
X17461483Y45288057D01*
X17724273Y45024808D01*
X17975100Y44920655D01*
X17975100Y32073071D01*
X17870433Y32073162D01*
X17526657Y31931117D01*
X17263408Y31668327D01*
X17188759Y31488553D01*
X11265810Y25565057D01*
X11144833Y25565162D01*
X10801057Y25423117D01*
X10537808Y25160327D01*
X10395162Y24816799D01*
X10394838Y24444833D01*
X10536883Y24101057D01*
X10799673Y23837808D01*
X11143201Y23695162D01*
X11515167Y23694838D01*
X11858943Y23836883D01*
X12122192Y24099673D01*
X12264838Y24443201D01*
X12264871Y24480694D01*
X17975100Y30191451D01*
X17975100Y11749808D01*
X15319733Y9094508D01*
X15145845Y9166713D01*
X14489037Y9167286D01*
X13882005Y8916466D01*
X13417166Y8452437D01*
X13288749Y8143174D01*
X12353751Y9079806D01*
X11018218Y9634368D01*
X9572126Y9635630D01*
X8235628Y9083400D01*
X7212194Y8061751D01*
X6657632Y6726218D01*
X6656370Y5280126D01*
X6686514Y5207173D01*
X6644560Y5000000D01*
X6644560Y3875513D01*
X6284320Y4161420D01*
X5902174Y4485647D01*
X5530859Y4822187D01*
X5170725Y5170725D01*
X4822202Y5530843D01*
X4485646Y5902174D01*
X4161421Y6284319D01*
X3849861Y6676881D01*
X3551323Y7079414D01*
X3266125Y7491483D01*
X2994542Y7912696D01*
X2736902Y8342545D01*
X2493447Y8780620D01*
X2264480Y9226381D01*
X2107930Y9557381D01*
X2764613Y9557381D01*
X3104155Y8735628D01*
X3732321Y8106364D01*
X4553481Y7765389D01*
X5442619Y7764613D01*
X6264372Y8104155D01*
X6893636Y8732321D01*
X7234611Y9553481D01*
X7235387Y10442619D01*
X6895845Y11264372D01*
X6267679Y11893636D01*
X5446519Y12234611D01*
X4557381Y12235387D01*
X3735628Y11895845D01*
X3106364Y11267679D01*
X2765389Y10446519D01*
X2764613Y9557381D01*
X2107930Y9557381D01*
X2050200Y9679440D01*
X1850871Y10139233D01*
X1666687Y10605320D01*
X1497850Y11077191D01*
X1344551Y11554302D01*
X1206932Y12036221D01*
X1085168Y12522327D01*
X979360Y13012229D01*
X889651Y13505252D01*
X816113Y14001003D01*
X758837Y14498881D01*
X717882Y14998360D01*
X693000Y15504855D01*
X685000Y15741767D01*
X685000Y55897468D01*
X10177073Y55897468D01*
X10275736Y55630613D01*
X10885461Y55404092D01*
X11535460Y55428144D01*
X12024264Y55630613D01*
X12122927Y55897468D01*
X11150000Y56870395D01*
X10177073Y55897468D01*
X685000Y55897468D01*
X685000Y57314539D01*
X9504092Y57314539D01*
X9528144Y56664540D01*
X9730613Y56175736D01*
X9997468Y56077073D01*
X10970395Y57050000D01*
X11329605Y57050000D01*
X12302532Y56077073D01*
X12569387Y56175736D01*
X12795908Y56785461D01*
X12776331Y57314539D01*
X17204092Y57314539D01*
X17228144Y56664540D01*
X17430613Y56175736D01*
X17697468Y56077073D01*
X18670395Y57050000D01*
X17697468Y58022927D01*
X17430613Y57924264D01*
X17204092Y57314539D01*
X12776331Y57314539D01*
X12771856Y57435460D01*
X12569387Y57924264D01*
X12302532Y58022927D01*
X11329605Y57050000D01*
X10970395Y57050000D01*
X9997468Y58022927D01*
X9730613Y57924264D01*
X9504092Y57314539D01*
X685000Y57314539D01*
X685000Y58202532D01*
X10177073Y58202532D01*
X11150000Y57229605D01*
X12122927Y58202532D01*
X12024264Y58469387D01*
X11414539Y58695908D01*
X10764540Y58671856D01*
X10275736Y58469387D01*
X10177073Y58202532D01*
X685000Y58202532D01*
X685000Y61226205D01*
X9514716Y61226205D01*
X9763106Y60625057D01*
X10222637Y60164722D01*
X10823352Y59915284D01*
X11473795Y59914716D01*
X12074943Y60163106D01*
X12535278Y60622637D01*
X12784716Y61223352D01*
X12785284Y61873795D01*
X12536894Y62474943D01*
X12077363Y62935278D01*
X11476648Y63184716D01*
X10826205Y63185284D01*
X10225057Y62936894D01*
X9764722Y62477363D01*
X9515284Y61876648D01*
X9514716Y61226205D01*
X685000Y61226205D01*
X685000Y61816680D01*
X6096285Y61816680D01*
X6225533Y61523877D01*
X6925806Y61255612D01*
X7675435Y61275750D01*
X8274467Y61523877D01*
X8403715Y61816680D01*
X7250000Y62970395D01*
X6096285Y61816680D01*
X685000Y61816680D01*
X685000Y63474194D01*
X5355612Y63474194D01*
X5375750Y62724565D01*
X5623877Y62125533D01*
X5916680Y61996285D01*
X7070395Y63150000D01*
X7429605Y63150000D01*
X8583320Y61996285D01*
X8876123Y62125533D01*
X9144388Y62825806D01*
X9124250Y63575435D01*
X8876123Y64174467D01*
X8583320Y64303715D01*
X7429605Y63150000D01*
X7070395Y63150000D01*
X5916680Y64303715D01*
X5623877Y64174467D01*
X5355612Y63474194D01*
X685000Y63474194D01*
X685000Y64483320D01*
X6096285Y64483320D01*
X7250000Y63329605D01*
X8403715Y64483320D01*
X8274467Y64776123D01*
X7574194Y65044388D01*
X6824565Y65024250D01*
X6225533Y64776123D01*
X6096285Y64483320D01*
X685000Y64483320D01*
X685000Y75116680D01*
X6096285Y75116680D01*
X6225533Y74823877D01*
X6925806Y74555612D01*
X7675435Y74575750D01*
X8274467Y74823877D01*
X8403715Y75116680D01*
X7250000Y76270395D01*
X6096285Y75116680D01*
X685000Y75116680D01*
X685000Y76774194D01*
X5355612Y76774194D01*
X5375750Y76024565D01*
X5623877Y75425533D01*
X5916680Y75296285D01*
X7070395Y76450000D01*
X7429605Y76450000D01*
X8583320Y75296285D01*
X8876123Y75425533D01*
X9144388Y76125806D01*
X9126970Y76774194D01*
X20855612Y76774194D01*
X20875750Y76024565D01*
X21123877Y75425533D01*
X21416680Y75296285D01*
X22570395Y76450000D01*
X21416680Y77603715D01*
X21123877Y77474467D01*
X20855612Y76774194D01*
X9126970Y76774194D01*
X9124250Y76875435D01*
X8876123Y77474467D01*
X8583320Y77603715D01*
X7429605Y76450000D01*
X7070395Y76450000D01*
X5916680Y77603715D01*
X5623877Y77474467D01*
X5355612Y76774194D01*
X685000Y76774194D01*
X685000Y77783320D01*
X6096285Y77783320D01*
X7250000Y76629605D01*
X8403715Y77783320D01*
X21596285Y77783320D01*
X22750000Y76629605D01*
X23903715Y77783320D01*
X23774467Y78076123D01*
X23074194Y78344388D01*
X22324565Y78324250D01*
X21725533Y78076123D01*
X21596285Y77783320D01*
X8403715Y77783320D01*
X8274467Y78076123D01*
X7574194Y78344388D01*
X6824565Y78324250D01*
X6225533Y78076123D01*
X6096285Y77783320D01*
X685000Y77783320D01*
X685000Y78994414D01*
X689603Y79275715D01*
X11114760Y79275715D01*
X11325169Y78766485D01*
X11714436Y78376539D01*
X12223298Y78165241D01*
X12774285Y78164760D01*
X13283515Y78375169D01*
X13673461Y78764436D01*
X13749927Y78948586D01*
X13825169Y78766485D01*
X14214436Y78376539D01*
X14723298Y78165241D01*
X15274285Y78164760D01*
X15783515Y78375169D01*
X15987183Y78578483D01*
X16708088Y78578483D01*
X16776077Y78337540D01*
X17295171Y78152799D01*
X17845448Y78180770D01*
X18223923Y78337540D01*
X18291912Y78578483D01*
X17500000Y79370395D01*
X16708088Y78578483D01*
X15987183Y78578483D01*
X16173461Y78764436D01*
X16243353Y78932754D01*
X16287540Y78826077D01*
X16528483Y78758088D01*
X17320395Y79550000D01*
X17679605Y79550000D01*
X18471517Y78758088D01*
X18712460Y78826077D01*
X18897201Y79345171D01*
X18869230Y79895448D01*
X18712460Y80273923D01*
X18471517Y80341912D01*
X17679605Y79550000D01*
X17320395Y79550000D01*
X16528483Y80341912D01*
X16287540Y80273923D01*
X16246778Y80159389D01*
X16174831Y80333515D01*
X15987157Y80521517D01*
X16708088Y80521517D01*
X17500000Y79729605D01*
X18291912Y80521517D01*
X18223923Y80762460D01*
X17704829Y80947201D01*
X17154552Y80919230D01*
X16776077Y80762460D01*
X16708088Y80521517D01*
X15987157Y80521517D01*
X15785564Y80723461D01*
X15276702Y80934759D01*
X14725715Y80935240D01*
X14216485Y80724831D01*
X13826539Y80335564D01*
X13750073Y80151414D01*
X13674831Y80333515D01*
X13287400Y80721622D01*
X13287400Y82564889D01*
X13292192Y82569673D01*
X13434838Y82913201D01*
X13435162Y83285167D01*
X13293117Y83628943D01*
X13030327Y83892192D01*
X12686799Y84034838D01*
X12314833Y84035162D01*
X11971057Y83893117D01*
X11707808Y83630327D01*
X11565162Y83286799D01*
X11564838Y82914833D01*
X11706883Y82571057D01*
X11712600Y82565330D01*
X11712600Y80720953D01*
X11326539Y80335564D01*
X11115241Y79826702D01*
X11114760Y79275715D01*
X689603Y79275715D01*
X693291Y79501078D01*
X717882Y80001640D01*
X758837Y80501119D01*
X816113Y80998997D01*
X889651Y81494748D01*
X979360Y81987771D01*
X1085168Y82477673D01*
X1206932Y82963779D01*
X1344551Y83445698D01*
X1497850Y83922809D01*
X1666687Y84394680D01*
X1730981Y84557381D01*
X2764613Y84557381D01*
X3104155Y83735628D01*
X3732321Y83106364D01*
X4553481Y82765389D01*
X5442619Y82764613D01*
X6264372Y83104155D01*
X6893636Y83732321D01*
X7234611Y84553481D01*
X7235387Y85442619D01*
X6895845Y86264372D01*
X6267679Y86893636D01*
X5446519Y87234611D01*
X4557381Y87235387D01*
X3735628Y86895845D01*
X3106364Y86267679D01*
X2765389Y85446519D01*
X2764613Y84557381D01*
X1730981Y84557381D01*
X1850871Y84860767D01*
X2050200Y85320560D01*
X2264480Y85773619D01*
X2493447Y86219380D01*
X2736902Y86657455D01*
X2994542Y87087304D01*
X3266125Y87508517D01*
X3551323Y87920586D01*
X3849861Y88323119D01*
X3889449Y88373000D01*
X28584990Y88373000D01*
X29708345Y87249645D01*
M02*
