G04 #@! TF.FileFunction,Profile,NP*
%FSLAX46Y46*%
G04 Gerber Fmt 4.6, Leading zero omitted, Abs format (unit mm)*
G04 Created by KiCad (PCBNEW 4.0.4+e1-6308~48~ubuntu16.04.1-stable) date Tue Nov 15 10:08:49 2016*
%MOMM*%
%LPD*%
G01*
G04 APERTURE LIST*
%ADD10C,0.500000*%
%ADD11C,0.100000*%
G04 APERTURE END LIST*
D10*
D11*
X0Y15730198D02*
X0Y34230198D01*
X8567Y15476495D02*
X0Y15730198D01*
X34257Y14953550D02*
X8567Y15476495D01*
X77044Y14431726D02*
X34257Y14953550D01*
X136882Y13911581D02*
X77044Y14431726D01*
X213707Y13393672D02*
X136882Y13911581D01*
X307436Y12878555D02*
X213707Y13393672D01*
X417968Y12366780D02*
X307436Y12878555D01*
X545187Y11858895D02*
X417968Y12366780D01*
X688955Y11355445D02*
X545187Y11858895D01*
X849118Y10856969D02*
X688955Y11355445D01*
X1025505Y10363999D02*
X849118Y10856969D01*
X1217927Y9877065D02*
X1025505Y10363999D01*
X1426179Y9396688D02*
X1217927Y9877065D01*
X1650036Y8923381D02*
X1426179Y9396688D01*
X1889260Y8457652D02*
X1650036Y8923381D01*
X2143594Y8000000D02*
X1889260Y8457652D01*
X2412765Y7550914D02*
X2143594Y8000000D01*
X2696486Y7110876D02*
X2412765Y7550914D01*
X2994453Y6680357D02*
X2696486Y7110876D01*
X3306347Y6259817D02*
X2994453Y6680357D01*
X3631833Y5849707D02*
X3306347Y6259817D01*
X3970563Y5450467D02*
X3631833Y5849707D01*
X4322175Y5062523D02*
X3970563Y5450467D01*
X4686292Y4686292D02*
X4322175Y5062523D01*
X5062523Y4322175D02*
X4686292Y4686292D01*
X5450467Y3970563D02*
X5062523Y4322175D01*
X5849707Y3631833D02*
X5450467Y3970563D01*
X6259817Y3306347D02*
X5849707Y3631833D01*
X6680357Y2994453D02*
X6259817Y3306347D01*
X7110876Y2696486D02*
X6680357Y2994453D01*
X7550914Y2412765D02*
X7110876Y2696486D01*
X8000000Y2143594D02*
X7550914Y2412765D01*
X8457652Y1889260D02*
X8000000Y2143594D01*
X8923381Y1650036D02*
X8457652Y1889260D01*
X9396688Y1426179D02*
X8923381Y1650036D01*
X9877065Y1217927D02*
X9396688Y1426179D01*
X10363999Y1025505D02*
X9877065Y1217927D01*
X10856969Y849118D02*
X10363999Y1025505D01*
X11355445Y688955D02*
X10856969Y849118D01*
X11858895Y545187D02*
X11355445Y688955D01*
X12366780Y417968D02*
X11858895Y545187D01*
X12878555Y307436D02*
X12366780Y417968D01*
X13393672Y213707D02*
X12878555Y307436D01*
X13911581Y136882D02*
X13393672Y213707D01*
X14431726Y77044D02*
X13911581Y136882D01*
X14953550Y34257D02*
X14431726Y77044D01*
X15476495Y8567D02*
X14953550Y34257D01*
X16000000Y0D02*
X15476495Y8567D01*
X134000000Y0D02*
X16000000Y0D01*
X134523505Y8567D02*
X134000000Y0D01*
X135046450Y34257D02*
X134523505Y8567D01*
X135568274Y77044D02*
X135046450Y34257D01*
X136088419Y136882D02*
X135568274Y77044D01*
X136606328Y213707D02*
X136088419Y136882D01*
X137121445Y307436D02*
X136606328Y213707D01*
X137633220Y417968D02*
X137121445Y307436D01*
X138141105Y545187D02*
X137633220Y417968D01*
X138644555Y688955D02*
X138141105Y545187D01*
X139143031Y849118D02*
X138644555Y688955D01*
X139636001Y1025505D02*
X139143031Y849118D01*
X140122935Y1217927D02*
X139636001Y1025505D01*
X140603312Y1426179D02*
X140122935Y1217927D01*
X141076619Y1650036D02*
X140603312Y1426179D01*
X141542348Y1889260D02*
X141076619Y1650036D01*
X142000000Y2143594D02*
X141542348Y1889260D01*
X142449086Y2412765D02*
X142000000Y2143594D01*
X142889124Y2696486D02*
X142449086Y2412765D01*
X143319643Y2994453D02*
X142889124Y2696486D01*
X143740183Y3306347D02*
X143319643Y2994453D01*
X144150293Y3631833D02*
X143740183Y3306347D01*
X144549533Y3970563D02*
X144150293Y3631833D01*
X144937477Y4322175D02*
X144549533Y3970563D01*
X145313708Y4686292D02*
X144937477Y4322175D01*
X145677825Y5062523D02*
X145313708Y4686292D01*
X146029437Y5450467D02*
X145677825Y5062523D01*
X146368167Y5849707D02*
X146029437Y5450467D01*
X146693653Y6259817D02*
X146368167Y5849707D01*
X147005547Y6680357D02*
X146693653Y6259817D01*
X147303514Y7110876D02*
X147005547Y6680357D01*
X147587235Y7550914D02*
X147303514Y7110876D01*
X147856406Y8000000D02*
X147587235Y7550914D01*
X148110740Y8457652D02*
X147856406Y8000000D01*
X148349964Y8923381D02*
X148110740Y8457652D01*
X148573821Y9396688D02*
X148349964Y8923381D01*
X148782073Y9877065D02*
X148573821Y9396688D01*
X148974495Y10363999D02*
X148782073Y9877065D01*
X149150882Y10856969D02*
X148974495Y10363999D01*
X149311045Y11355445D02*
X149150882Y10856969D01*
X149454813Y11858895D02*
X149311045Y11355445D01*
X149582032Y12366780D02*
X149454813Y11858895D01*
X149692564Y12878555D02*
X149582032Y12366780D01*
X149786293Y13393672D02*
X149692564Y12878555D01*
X149863118Y13911581D02*
X149786293Y13393672D01*
X149922956Y14431726D02*
X149863118Y13911581D01*
X149965743Y14953550D02*
X149922956Y14431726D01*
X149991433Y15476495D02*
X149965743Y14953550D01*
X150000000Y16000000D02*
X149991433Y15476495D01*
X150000000Y79000000D02*
X150000000Y16000000D01*
X149991433Y79523505D02*
X150000000Y79000000D01*
X149965743Y80046450D02*
X149991433Y79523505D01*
X149922956Y80568274D02*
X149965743Y80046450D01*
X149863118Y81088419D02*
X149922956Y80568274D01*
X149786293Y81606328D02*
X149863118Y81088419D01*
X149692564Y82121445D02*
X149786293Y81606328D01*
X149582032Y82633220D02*
X149692564Y82121445D01*
X149454813Y83141105D02*
X149582032Y82633220D01*
X149311045Y83644555D02*
X149454813Y83141105D01*
X149150882Y84143031D02*
X149311045Y83644555D01*
X148974495Y84636001D02*
X149150882Y84143031D01*
X148782073Y85122935D02*
X148974495Y84636001D01*
X148573821Y85603312D02*
X148782073Y85122935D01*
X148349964Y86076619D02*
X148573821Y85603312D01*
X148110740Y86542348D02*
X148349964Y86076619D01*
X147856406Y87000000D02*
X148110740Y86542348D01*
X147587235Y87449086D02*
X147856406Y87000000D01*
X147303514Y87889124D02*
X147587235Y87449086D01*
X147005547Y88319643D02*
X147303514Y87889124D01*
X146693653Y88740183D02*
X147005547Y88319643D01*
X146368167Y89150293D02*
X146693653Y88740183D01*
X146029437Y89549533D02*
X146368167Y89150293D01*
X145677825Y89937477D02*
X146029437Y89549533D01*
X145313708Y90313708D02*
X145677825Y89937477D01*
X144937477Y90677825D02*
X145313708Y90313708D01*
X144549533Y91029437D02*
X144937477Y90677825D01*
X144150293Y91368167D02*
X144549533Y91029437D01*
X143740183Y91693653D02*
X144150293Y91368167D01*
X143319643Y92005547D02*
X143740183Y91693653D01*
X142889124Y92303514D02*
X143319643Y92005547D01*
X142449086Y92587235D02*
X142889124Y92303514D01*
X142000000Y92856406D02*
X142449086Y92587235D01*
X141542348Y93110740D02*
X142000000Y92856406D01*
X141076619Y93349964D02*
X141542348Y93110740D01*
X140603312Y93573821D02*
X141076619Y93349964D01*
X140122935Y93782073D02*
X140603312Y93573821D01*
X139636001Y93974495D02*
X140122935Y93782073D01*
X139143031Y94150882D02*
X139636001Y93974495D01*
X138644555Y94311045D02*
X139143031Y94150882D01*
X138141105Y94454813D02*
X138644555Y94311045D01*
X137633220Y94582032D02*
X138141105Y94454813D01*
X137121445Y94692564D02*
X137633220Y94582032D01*
X136606328Y94786293D02*
X137121445Y94692564D01*
X136088419Y94863118D02*
X136606328Y94786293D01*
X135568274Y94922956D02*
X136088419Y94863118D01*
X135046450Y94965743D02*
X135568274Y94922956D01*
X134523505Y94991433D02*
X135046450Y94965743D01*
X134000000Y95000000D02*
X134523505Y94991433D01*
X16000000Y95000000D02*
X134000000Y95000000D01*
X15476495Y94991433D02*
X16000000Y95000000D01*
X14953550Y94965743D02*
X15476495Y94991433D01*
X14431726Y94922956D02*
X14953550Y94965743D01*
X13911581Y94863118D02*
X14431726Y94922956D01*
X13393672Y94786293D02*
X13911581Y94863118D01*
X12878555Y94692564D02*
X13393672Y94786293D01*
X12366780Y94582032D02*
X12878555Y94692564D01*
X11858895Y94454813D02*
X12366780Y94582032D01*
X11355445Y94311045D02*
X11858895Y94454813D01*
X10856969Y94150882D02*
X11355445Y94311045D01*
X10363999Y93974495D02*
X10856969Y94150882D01*
X9877065Y93782073D02*
X10363999Y93974495D01*
X9396688Y93573821D02*
X9877065Y93782073D01*
X8923381Y93349964D02*
X9396688Y93573821D01*
X8457652Y93110740D02*
X8923381Y93349964D01*
X8000000Y92856406D02*
X8457652Y93110740D01*
X7550914Y92587235D02*
X8000000Y92856406D01*
X7110876Y92303514D02*
X7550914Y92587235D01*
X6680357Y92005547D02*
X7110876Y92303514D01*
X6259817Y91693653D02*
X6680357Y92005547D01*
X5849707Y91368167D02*
X6259817Y91693653D01*
X5450467Y91029437D02*
X5849707Y91368167D01*
X5062523Y90677825D02*
X5450467Y91029437D01*
X4686292Y90313708D02*
X5062523Y90677825D01*
X4322175Y89937477D02*
X4686292Y90313708D01*
X3970563Y89549533D02*
X4322175Y89937477D01*
X3631833Y89150293D02*
X3970563Y89549533D01*
X3306347Y88740183D02*
X3631833Y89150293D01*
X2994453Y88319643D02*
X3306347Y88740183D01*
X2696486Y87889124D02*
X2994453Y88319643D01*
X2412765Y87449086D02*
X2696486Y87889124D01*
X2143594Y87000000D02*
X2412765Y87449086D01*
X1889260Y86542348D02*
X2143594Y87000000D01*
X1650036Y86076619D02*
X1889260Y86542348D01*
X1426179Y85603312D02*
X1650036Y86076619D01*
X1217927Y85122935D02*
X1426179Y85603312D01*
X1025505Y84636001D02*
X1217927Y85122935D01*
X849118Y84143031D02*
X1025505Y84636001D01*
X688955Y83644555D02*
X849118Y84143031D01*
X545187Y83141105D02*
X688955Y83644555D01*
X417968Y82633220D02*
X545187Y83141105D01*
X307436Y82121445D02*
X417968Y82633220D01*
X213707Y81606328D02*
X307436Y82121445D01*
X136882Y81088419D02*
X213707Y81606328D01*
X77044Y80568274D02*
X136882Y81088419D01*
X34257Y80046450D02*
X77044Y80568274D01*
X8567Y79523505D02*
X34257Y80046450D01*
X0Y79000000D02*
X8567Y79523505D01*
X0Y34230198D02*
X0Y79000000D01*
M02*
