G04 #@! TF.FileFunction,Legend,Bot*
%FSLAX46Y46*%
G04 Gerber Fmt 4.6, Leading zero omitted, Abs format (unit mm)*
G04 Created by KiCad (PCBNEW 4.0.4+e1-6308~48~ubuntu16.04.1-stable) date Tue Nov 15 10:08:48 2016*
%MOMM*%
%LPD*%
G01*
G04 APERTURE LIST*
%ADD10C,0.500000*%
%ADD11C,0.300000*%
G04 APERTURE END LIST*
D10*
D11*
X52178571Y86321429D02*
X52678571Y87035714D01*
X53035714Y86321429D02*
X53035714Y87821429D01*
X52464286Y87821429D01*
X52321428Y87750000D01*
X52250000Y87678571D01*
X52178571Y87535714D01*
X52178571Y87321429D01*
X52250000Y87178571D01*
X52321428Y87107143D01*
X52464286Y87035714D01*
X53035714Y87035714D01*
X51535714Y87107143D02*
X51035714Y87107143D01*
X50821428Y86321429D02*
X51535714Y86321429D01*
X51535714Y87821429D01*
X50821428Y87821429D01*
X50250000Y86392857D02*
X50035714Y86321429D01*
X49678571Y86321429D01*
X49535714Y86392857D01*
X49464285Y86464286D01*
X49392857Y86607143D01*
X49392857Y86750000D01*
X49464285Y86892857D01*
X49535714Y86964286D01*
X49678571Y87035714D01*
X49964285Y87107143D01*
X50107143Y87178571D01*
X50178571Y87250000D01*
X50250000Y87392857D01*
X50250000Y87535714D01*
X50178571Y87678571D01*
X50107143Y87750000D01*
X49964285Y87821429D01*
X49607143Y87821429D01*
X49392857Y87750000D01*
X48750000Y87107143D02*
X48250000Y87107143D01*
X48035714Y86321429D02*
X48750000Y86321429D01*
X48750000Y87821429D01*
X48035714Y87821429D01*
X47607143Y87821429D02*
X46750000Y87821429D01*
X47178571Y86321429D02*
X47178571Y87821429D01*
M02*
