%FSLAX45Y45*%
G04 Gerber Fmt 4.5, Leading zero omitted, Abs format (unit mm)*
G04 Created by KiCad (PCBNEW 4.0.4+e1-6308~48~ubuntu16.04.1-stable) date Tue Nov 15 09:59:46 2016*
%MOMM*%
%LPD*%
G01*
G04 APERTURE LIST*
%ADD10C,0.127000*%
%ADD11C,0.100000*%
%ADD12C,0.200000*%
%ADD13C,0.300000*%
G04 APERTURE END LIST*
D10*
D11*
X0Y1573020D02*
X0Y3423020D01*
X857Y1547649D02*
X0Y1573020D01*
X3426Y1495355D02*
X857Y1547649D01*
X7704Y1443173D02*
X3426Y1495355D01*
X13688Y1391158D02*
X7704Y1443173D01*
X21371Y1339367D02*
X13688Y1391158D01*
X30744Y1287856D02*
X21371Y1339367D01*
X41797Y1236678D02*
X30744Y1287856D01*
X54519Y1185890D02*
X41797Y1236678D01*
X68896Y1135545D02*
X54519Y1185890D01*
X84912Y1085697D02*
X68896Y1135545D01*
X102550Y1036400D02*
X84912Y1085697D01*
X121793Y987706D02*
X102550Y1036400D01*
X142618Y939669D02*
X121793Y987706D01*
X165004Y892338D02*
X142618Y939669D01*
X188926Y845765D02*
X165004Y892338D01*
X214359Y800000D02*
X188926Y845765D01*
X241276Y755091D02*
X214359Y800000D01*
X269649Y711088D02*
X241276Y755091D01*
X299445Y668036D02*
X269649Y711088D01*
X330635Y625982D02*
X299445Y668036D01*
X363183Y584971D02*
X330635Y625982D01*
X397056Y545047D02*
X363183Y584971D01*
X432217Y506252D02*
X397056Y545047D01*
X468629Y468629D02*
X432217Y506252D01*
X506252Y432217D02*
X468629Y468629D01*
X545047Y397056D02*
X506252Y432217D01*
X584971Y363183D02*
X545047Y397056D01*
X625982Y330635D02*
X584971Y363183D01*
X668036Y299445D02*
X625982Y330635D01*
X711088Y269649D02*
X668036Y299445D01*
X755091Y241276D02*
X711088Y269649D01*
X800000Y214359D02*
X755091Y241276D01*
X845765Y188926D02*
X800000Y214359D01*
X892338Y165004D02*
X845765Y188926D01*
X939669Y142618D02*
X892338Y165004D01*
X987706Y121793D02*
X939669Y142618D01*
X1036400Y102550D02*
X987706Y121793D01*
X1085697Y84912D02*
X1036400Y102550D01*
X1135545Y68896D02*
X1085697Y84912D01*
X1185890Y54519D02*
X1135545Y68896D01*
X1236678Y41797D02*
X1185890Y54519D01*
X1287856Y30744D02*
X1236678Y41797D01*
X1339367Y21371D02*
X1287856Y30744D01*
X1391158Y13688D02*
X1339367Y21371D01*
X1443173Y7704D02*
X1391158Y13688D01*
X1495355Y3426D02*
X1443173Y7704D01*
X1547649Y857D02*
X1495355Y3426D01*
X1600000Y0D02*
X1547649Y857D01*
X13400000Y0D02*
X1600000Y0D01*
X13452350Y857D02*
X13400000Y0D01*
X13504645Y3426D02*
X13452350Y857D01*
X13556827Y7704D02*
X13504645Y3426D01*
X13608842Y13688D02*
X13556827Y7704D01*
X13660633Y21371D02*
X13608842Y13688D01*
X13712144Y30744D02*
X13660633Y21371D01*
X13763322Y41797D02*
X13712144Y30744D01*
X13814110Y54519D02*
X13763322Y41797D01*
X13864455Y68896D02*
X13814110Y54519D01*
X13914303Y84912D02*
X13864455Y68896D01*
X13963600Y102550D02*
X13914303Y84912D01*
X14012293Y121793D02*
X13963600Y102550D01*
X14060331Y142618D02*
X14012293Y121793D01*
X14107662Y165004D02*
X14060331Y142618D01*
X14154235Y188926D02*
X14107662Y165004D01*
X14200000Y214359D02*
X14154235Y188926D01*
X14244909Y241276D02*
X14200000Y214359D01*
X14288912Y269649D02*
X14244909Y241276D01*
X14331964Y299445D02*
X14288912Y269649D01*
X14374018Y330635D02*
X14331964Y299445D01*
X14415029Y363183D02*
X14374018Y330635D01*
X14454953Y397056D02*
X14415029Y363183D01*
X14493748Y432217D02*
X14454953Y397056D01*
X14531371Y468629D02*
X14493748Y432217D01*
X14567782Y506252D02*
X14531371Y468629D01*
X14602944Y545047D02*
X14567782Y506252D01*
X14636817Y584971D02*
X14602944Y545047D01*
X14669365Y625982D02*
X14636817Y584971D01*
X14700555Y668036D02*
X14669365Y625982D01*
X14730351Y711088D02*
X14700555Y668036D01*
X14758723Y755091D02*
X14730351Y711088D01*
X14785641Y800000D02*
X14758723Y755091D01*
X14811074Y845765D02*
X14785641Y800000D01*
X14834996Y892338D02*
X14811074Y845765D01*
X14857382Y939669D02*
X14834996Y892338D01*
X14878207Y987706D02*
X14857382Y939669D01*
X14897449Y1036400D02*
X14878207Y987706D01*
X14915088Y1085697D02*
X14897449Y1036400D01*
X14931104Y1135545D02*
X14915088Y1085697D01*
X14945481Y1185890D02*
X14931104Y1135545D01*
X14958203Y1236678D02*
X14945481Y1185890D01*
X14969256Y1287856D02*
X14958203Y1236678D01*
X14978629Y1339367D02*
X14969256Y1287856D01*
X14986312Y1391158D02*
X14978629Y1339367D01*
X14992296Y1443173D02*
X14986312Y1391158D01*
X14996574Y1495355D02*
X14992296Y1443173D01*
X14999143Y1547649D02*
X14996574Y1495355D01*
X15000000Y1600000D02*
X14999143Y1547649D01*
X15000000Y7900000D02*
X15000000Y1600000D01*
X14999143Y7952350D02*
X15000000Y7900000D01*
X14996574Y8004645D02*
X14999143Y7952350D01*
X14992296Y8056827D02*
X14996574Y8004645D01*
X14986312Y8108842D02*
X14992296Y8056827D01*
X14978629Y8160633D02*
X14986312Y8108842D01*
X14969256Y8212144D02*
X14978629Y8160633D01*
X14958203Y8263322D02*
X14969256Y8212144D01*
X14945481Y8314110D02*
X14958203Y8263322D01*
X14931104Y8364455D02*
X14945481Y8314110D01*
X14915088Y8414303D02*
X14931104Y8364455D01*
X14897449Y8463600D02*
X14915088Y8414303D01*
X14878207Y8512294D02*
X14897449Y8463600D01*
X14857382Y8560331D02*
X14878207Y8512294D01*
X14834996Y8607662D02*
X14857382Y8560331D01*
X14811074Y8654235D02*
X14834996Y8607662D01*
X14785641Y8700000D02*
X14811074Y8654235D01*
X14758723Y8744909D02*
X14785641Y8700000D01*
X14730351Y8788912D02*
X14758723Y8744909D01*
X14700555Y8831964D02*
X14730351Y8788912D01*
X14669365Y8874018D02*
X14700555Y8831964D01*
X14636817Y8915029D02*
X14669365Y8874018D01*
X14602944Y8954953D02*
X14636817Y8915029D01*
X14567782Y8993748D02*
X14602944Y8954953D01*
X14531371Y9031371D02*
X14567782Y8993748D01*
X14493748Y9067783D02*
X14531371Y9031371D01*
X14454953Y9102944D02*
X14493748Y9067783D01*
X14415029Y9136817D02*
X14454953Y9102944D01*
X14374018Y9169365D02*
X14415029Y9136817D01*
X14331964Y9200555D02*
X14374018Y9169365D01*
X14288912Y9230351D02*
X14331964Y9200555D01*
X14244909Y9258724D02*
X14288912Y9230351D01*
X14200000Y9285641D02*
X14244909Y9258724D01*
X14154235Y9311074D02*
X14200000Y9285641D01*
X14107662Y9334996D02*
X14154235Y9311074D01*
X14060331Y9357382D02*
X14107662Y9334996D01*
X14012293Y9378207D02*
X14060331Y9357382D01*
X13963600Y9397450D02*
X14012293Y9378207D01*
X13914303Y9415088D02*
X13963600Y9397450D01*
X13864455Y9431105D02*
X13914303Y9415088D01*
X13814110Y9445481D02*
X13864455Y9431105D01*
X13763322Y9458203D02*
X13814110Y9445481D01*
X13712144Y9469256D02*
X13763322Y9458203D01*
X13660633Y9478629D02*
X13712144Y9469256D01*
X13608842Y9486312D02*
X13660633Y9478629D01*
X13556827Y9492296D02*
X13608842Y9486312D01*
X13504645Y9496574D02*
X13556827Y9492296D01*
X13452350Y9499143D02*
X13504645Y9496574D01*
X13400000Y9500000D02*
X13452350Y9499143D01*
X1600000Y9500000D02*
X13400000Y9500000D01*
X1547649Y9499143D02*
X1600000Y9500000D01*
X1495355Y9496574D02*
X1547649Y9499143D01*
X1443173Y9492296D02*
X1495355Y9496574D01*
X1391158Y9486312D02*
X1443173Y9492296D01*
X1339367Y9478629D02*
X1391158Y9486312D01*
X1287856Y9469256D02*
X1339367Y9478629D01*
X1236678Y9458203D02*
X1287856Y9469256D01*
X1185890Y9445481D02*
X1236678Y9458203D01*
X1135545Y9431105D02*
X1185890Y9445481D01*
X1085697Y9415088D02*
X1135545Y9431105D01*
X1036400Y9397450D02*
X1085697Y9415088D01*
X987706Y9378207D02*
X1036400Y9397450D01*
X939669Y9357382D02*
X987706Y9378207D01*
X892338Y9334996D02*
X939669Y9357382D01*
X845765Y9311074D02*
X892338Y9334996D01*
X800000Y9285641D02*
X845765Y9311074D01*
X755091Y9258724D02*
X800000Y9285641D01*
X711088Y9230351D02*
X755091Y9258724D01*
X668036Y9200555D02*
X711088Y9230351D01*
X625982Y9169365D02*
X668036Y9200555D01*
X584971Y9136817D02*
X625982Y9169365D01*
X545047Y9102944D02*
X584971Y9136817D01*
X506252Y9067783D02*
X545047Y9102944D01*
X468629Y9031371D02*
X506252Y9067783D01*
X432217Y8993748D02*
X468629Y9031371D01*
X397056Y8954953D02*
X432217Y8993748D01*
X363183Y8915029D02*
X397056Y8954953D01*
X330635Y8874018D02*
X363183Y8915029D01*
X299445Y8831964D02*
X330635Y8874018D01*
X269649Y8788912D02*
X299445Y8831964D01*
X241276Y8744909D02*
X269649Y8788912D01*
X214359Y8700000D02*
X241276Y8744909D01*
X188926Y8654235D02*
X214359Y8700000D01*
X165004Y8607662D02*
X188926Y8654235D01*
X142618Y8560331D02*
X165004Y8607662D01*
X121793Y8512294D02*
X142618Y8560331D01*
X102550Y8463600D02*
X121793Y8512294D01*
X84912Y8414303D02*
X102550Y8463600D01*
X68896Y8364455D02*
X84912Y8414303D01*
X54519Y8314110D02*
X68896Y8364455D01*
X41797Y8263322D02*
X54519Y8314110D01*
X30744Y8212144D02*
X41797Y8263322D01*
X21371Y8160633D02*
X30744Y8212144D01*
X13688Y8108842D02*
X21371Y8160633D01*
X7704Y8056827D02*
X13688Y8108842D01*
X3426Y8004645D02*
X7704Y8056827D01*
X857Y7952350D02*
X3426Y8004645D01*
X0Y7900000D02*
X857Y7952350D01*
X0Y3423020D02*
X0Y7900000D01*
D12*
X619764Y2654792D02*
X659764Y2614792D01*
X659764Y2654792D02*
X619764Y2614792D01*
X724270Y3245300D02*
X764270Y3205300D01*
X764270Y3245300D02*
X724270Y3205300D01*
X1041520Y5126430D02*
X1081520Y5086430D01*
X1081520Y5126430D02*
X1041520Y5086430D01*
X1041520Y3618800D02*
X1081520Y3578800D01*
X1081520Y3618800D02*
X1041520Y3578800D01*
X1113000Y2483000D02*
X1153000Y2443000D01*
X1153000Y2483000D02*
X1113000Y2443000D01*
X1155000Y2795000D02*
X1195000Y2755000D01*
X1195000Y2795000D02*
X1155000Y2755000D01*
X1230000Y8330000D02*
X1270000Y8290000D01*
X1270000Y8330000D02*
X1230000Y8290000D01*
X1236520Y3618800D02*
X1276520Y3578800D01*
X1276520Y3618800D02*
X1236520Y3578800D01*
X1251520Y4351300D02*
X1291520Y4311300D01*
X1291520Y4351300D02*
X1251520Y4311300D01*
X1251520Y4026200D02*
X1291520Y3986200D01*
X1291520Y4026200D02*
X1251520Y3986200D01*
X1630000Y3270000D02*
X1670000Y3230000D01*
X1670000Y3270000D02*
X1630000Y3230000D01*
X1754496Y2223282D02*
X1794496Y2183282D01*
X1794496Y2223282D02*
X1754496Y2183282D01*
X1785560Y3133800D02*
X1825560Y3093800D01*
X1825560Y3133800D02*
X1785560Y3093800D01*
X1805460Y4601700D02*
X1845460Y4561700D01*
X1845460Y4601700D02*
X1805460Y4561700D01*
X2080000Y5320000D02*
X2120000Y5280000D01*
X2120000Y5320000D02*
X2080000Y5280000D01*
X2080000Y4395000D02*
X2120000Y4355000D01*
X2120000Y4395000D02*
X2080000Y4355000D01*
X2330000Y4070000D02*
X2370000Y4030000D01*
X2370000Y4070000D02*
X2330000Y4030000D01*
X2437536Y3126810D02*
X2477536Y3086810D01*
X2477536Y3126810D02*
X2437536Y3086810D01*
X2477800Y2538800D02*
X2517800Y2498800D01*
X2517800Y2538800D02*
X2477800Y2498800D01*
X2580000Y4720000D02*
X2620000Y4680000D01*
X2620000Y4720000D02*
X2580000Y4680000D01*
X2855000Y3370000D02*
X2895000Y3330000D01*
X2895000Y3370000D02*
X2855000Y3330000D01*
X2855000Y3120000D02*
X2895000Y3080000D01*
X2895000Y3120000D02*
X2855000Y3080000D01*
X3424400Y1727500D02*
X3464400Y1687500D01*
X3464400Y1727500D02*
X3424400Y1687500D01*
X3438090Y8506370D02*
X3478090Y8466370D01*
X3478090Y8506370D02*
X3438090Y8466370D01*
X3497054Y6172760D02*
X3537054Y6132760D01*
X3537054Y6172760D02*
X3497054Y6132760D01*
X3751241Y6210570D02*
X3791241Y6170570D01*
X3791241Y6210570D02*
X3751241Y6170570D01*
X4180000Y6020000D02*
X4220000Y5980000D01*
X4220000Y6020000D02*
X4180000Y5980000D01*
X4197151Y8603253D02*
X4237151Y8563253D01*
X4237151Y8603253D02*
X4197151Y8563253D01*
X4779560Y5059820D02*
X4819560Y5019820D01*
X4819560Y5059820D02*
X4779560Y5019820D01*
X4799645Y6375783D02*
X4839645Y6335783D01*
X4839645Y6375783D02*
X4799645Y6335783D01*
X4885630Y5202540D02*
X4925630Y5162540D01*
X4925630Y5202540D02*
X4885630Y5162540D01*
X4977260Y3935800D02*
X5017260Y3895800D01*
X5017260Y3935800D02*
X4977260Y3895800D01*
X5090600Y3404200D02*
X5130600Y3364200D01*
X5130600Y3404200D02*
X5090600Y3364200D01*
X5255800Y4403200D02*
X5295800Y4363200D01*
X5295800Y4403200D02*
X5255800Y4363200D01*
X5324600Y4223000D02*
X5364600Y4183000D01*
X5364600Y4223000D02*
X5324600Y4183000D01*
X5480000Y5188660D02*
X5520000Y5148660D01*
X5520000Y5188660D02*
X5480000Y5148660D01*
X5530000Y3720000D02*
X5570000Y3680000D01*
X5570000Y3720000D02*
X5530000Y3680000D01*
X5580000Y4070000D02*
X5620000Y4030000D01*
X5620000Y4070000D02*
X5580000Y4030000D01*
X5686600Y6882930D02*
X5726600Y6842930D01*
X5726600Y6882930D02*
X5686600Y6842930D01*
X5746441Y4721459D02*
X5786441Y4681459D01*
X5786441Y4721459D02*
X5746441Y4681459D01*
X6072125Y7596892D02*
X6112125Y7556892D01*
X6112125Y7596892D02*
X6072125Y7556892D01*
X6180618Y8723230D02*
X6220618Y8683230D01*
X6220618Y8723230D02*
X6180618Y8683230D01*
X6193170Y4693855D02*
X6233170Y4653855D01*
X6233170Y4693855D02*
X6193170Y4653855D01*
X6284500Y7295380D02*
X6324500Y7255380D01*
X6324500Y7295380D02*
X6284500Y7255380D01*
X6383000Y3772100D02*
X6423000Y3732100D01*
X6423000Y3772100D02*
X6383000Y3732100D01*
X6580000Y6895000D02*
X6620000Y6855000D01*
X6620000Y6895000D02*
X6580000Y6855000D01*
X6583400Y3635700D02*
X6623400Y3595700D01*
X6623400Y3635700D02*
X6583400Y3595700D01*
X6592500Y1604100D02*
X6632500Y1564100D01*
X6632500Y1604100D02*
X6592500Y1564100D01*
X6818631Y6081920D02*
X6858631Y6041920D01*
X6858631Y6081920D02*
X6818631Y6041920D01*
X6863800Y4603000D02*
X6903800Y4563000D01*
X6903800Y4603000D02*
X6863800Y4563000D01*
X6963200Y6709040D02*
X7003200Y6669040D01*
X7003200Y6709040D02*
X6963200Y6669040D01*
X6980000Y7320000D02*
X7020000Y7280000D01*
X7020000Y7320000D02*
X6980000Y7280000D01*
X6981411Y3981120D02*
X7021411Y3941120D01*
X7021411Y3981120D02*
X6981411Y3941120D01*
X7037400Y7968980D02*
X7077400Y7928980D01*
X7077400Y7968980D02*
X7037400Y7928980D01*
X7231500Y6709860D02*
X7271500Y6669860D01*
X7271500Y6709860D02*
X7231500Y6669860D01*
X7330000Y2170000D02*
X7370000Y2130000D01*
X7370000Y2170000D02*
X7330000Y2130000D01*
X7443600Y7262340D02*
X7483600Y7222340D01*
X7483600Y7262340D02*
X7443600Y7222340D01*
X7547700Y5049320D02*
X7587700Y5009320D01*
X7587700Y5049320D02*
X7547700Y5009320D01*
X7655000Y3358020D02*
X7695000Y3318020D01*
X7695000Y3358020D02*
X7655000Y3318020D01*
X7785900Y6627710D02*
X7825900Y6587710D01*
X7825900Y6627710D02*
X7785900Y6587710D01*
X7858400Y5435000D02*
X7898400Y5395000D01*
X7898400Y5435000D02*
X7858400Y5395000D01*
X7858400Y5135000D02*
X7898400Y5095000D01*
X7898400Y5135000D02*
X7858400Y5095000D01*
X7893900Y3378200D02*
X7933900Y3338200D01*
X7933900Y3378200D02*
X7893900Y3338200D01*
X7941625Y3946561D02*
X7981625Y3906561D01*
X7981625Y3946561D02*
X7941625Y3906561D01*
X7966200Y6660100D02*
X8006200Y6620100D01*
X8006200Y6660100D02*
X7966200Y6620100D01*
X7981000Y7254910D02*
X8021000Y7214910D01*
X8021000Y7254910D02*
X7981000Y7214910D01*
X8056400Y4339800D02*
X8096400Y4299800D01*
X8096400Y4339800D02*
X8056400Y4299800D01*
X8066000Y6675550D02*
X8106000Y6635550D01*
X8106000Y6675550D02*
X8066000Y6635550D01*
X8087300Y7252980D02*
X8127300Y7212980D01*
X8127300Y7252980D02*
X8087300Y7212980D01*
X8146000Y7583000D02*
X8186000Y7543000D01*
X8186000Y7583000D02*
X8146000Y7543000D01*
X8147400Y8078010D02*
X8187400Y8038010D01*
X8187400Y8078010D02*
X8147400Y8038010D01*
X8311700Y1350200D02*
X8351700Y1310200D01*
X8351700Y1350200D02*
X8311700Y1310200D01*
X8524800Y1590900D02*
X8564800Y1550900D01*
X8564800Y1590900D02*
X8524800Y1550900D01*
X8575600Y4940100D02*
X8615600Y4900100D01*
X8615600Y4940100D02*
X8575600Y4900100D01*
X8606700Y8150020D02*
X8646700Y8110020D01*
X8646700Y8150020D02*
X8606700Y8110020D01*
X8658000Y8730230D02*
X8698000Y8690230D01*
X8698000Y8730230D02*
X8658000Y8690230D01*
X8658100Y7466950D02*
X8698100Y7426950D01*
X8698100Y7466950D02*
X8658100Y7426950D01*
X8719200Y7593420D02*
X8759200Y7553420D01*
X8759200Y7593420D02*
X8719200Y7553420D01*
X8737600Y1943800D02*
X8777600Y1903800D01*
X8777600Y1943800D02*
X8737600Y1903800D01*
X8837200Y7847260D02*
X8877200Y7807260D01*
X8877200Y7847260D02*
X8837200Y7807260D01*
X9014100Y3976100D02*
X9054100Y3936100D01*
X9054100Y3976100D02*
X9014100Y3936100D01*
X9146200Y7169360D02*
X9186200Y7129360D01*
X9186200Y7169360D02*
X9146200Y7129360D01*
X9155000Y8512320D02*
X9195000Y8472320D01*
X9195000Y8512320D02*
X9155000Y8472320D01*
X9230000Y4720000D02*
X9270000Y4680000D01*
X9270000Y4720000D02*
X9230000Y4680000D01*
X9556739Y8238517D02*
X9596739Y8198517D01*
X9596739Y8238517D02*
X9556739Y8198517D01*
X9606000Y3958500D02*
X9646000Y3918500D01*
X9646000Y3958500D02*
X9606000Y3918500D01*
X9610440Y8051528D02*
X9650440Y8011528D01*
X9650440Y8051528D02*
X9610440Y8011528D01*
X9620000Y4323800D02*
X9660000Y4283800D01*
X9660000Y4323800D02*
X9620000Y4283800D01*
X9703500Y3366600D02*
X9743500Y3326600D01*
X9743500Y3366600D02*
X9703500Y3326600D01*
X9792512Y8306223D02*
X9832512Y8266223D01*
X9832512Y8306223D02*
X9792512Y8266223D01*
X9908800Y7686350D02*
X9948800Y7646350D01*
X9948800Y7686350D02*
X9908800Y7646350D01*
X10130600Y8497500D02*
X10170600Y8457500D01*
X10170600Y8497500D02*
X10130600Y8457500D01*
X10174400Y4003600D02*
X10214400Y3963600D01*
X10214400Y4003600D02*
X10174400Y3963600D01*
X10283032Y3870411D02*
X10323032Y3830411D01*
X10323032Y3870411D02*
X10283032Y3830411D01*
X10399950Y8725520D02*
X10439950Y8685520D01*
X10439950Y8725520D02*
X10399950Y8685520D01*
X10572200Y7975690D02*
X10612200Y7935690D01*
X10612200Y7975690D02*
X10572200Y7935690D01*
X10610000Y8250000D02*
X10650000Y8210000D01*
X10650000Y8250000D02*
X10610000Y8210000D01*
X10663800Y6270240D02*
X10703800Y6230240D01*
X10703800Y6270240D02*
X10663800Y6230240D01*
X10748100Y8113590D02*
X10788100Y8073590D01*
X10788100Y8113590D02*
X10748100Y8073590D01*
X11130000Y1520000D02*
X11170000Y1480000D01*
X11170000Y1520000D02*
X11130000Y1480000D01*
X11230000Y8550000D02*
X11270000Y8510000D01*
X11270000Y8550000D02*
X11230000Y8510000D01*
X12081200Y6908750D02*
X12121200Y6868750D01*
X12121200Y6908750D02*
X12081200Y6868750D01*
X12302200Y8244550D02*
X12342200Y8204550D01*
X12342200Y8244550D02*
X12302200Y8204550D01*
X12580000Y1820000D02*
X12620000Y1780000D01*
X12620000Y1820000D02*
X12580000Y1780000D01*
X12740200Y7300740D02*
X12780200Y7260740D01*
X12780200Y7300740D02*
X12740200Y7260740D01*
X13680000Y4920000D02*
X13720000Y4880000D01*
X13720000Y4920000D02*
X13680000Y4880000D01*
X13680000Y4720000D02*
X13720000Y4680000D01*
X13720000Y4720000D02*
X13680000Y4680000D01*
X13746000Y3431200D02*
X13786000Y3391200D01*
X13786000Y3431200D02*
X13746000Y3391200D01*
X13780000Y5020000D02*
X13820000Y4980000D01*
X13820000Y5020000D02*
X13780000Y4980000D01*
X13780000Y4820000D02*
X13820000Y4780000D01*
X13820000Y4820000D02*
X13780000Y4780000D01*
X13880000Y4920000D02*
X13920000Y4880000D01*
X13920000Y4920000D02*
X13880000Y4880000D01*
X13880000Y4720000D02*
X13920000Y4680000D01*
X13920000Y4720000D02*
X13880000Y4680000D01*
X13980000Y5020000D02*
X14020000Y4980000D01*
X14020000Y5020000D02*
X13980000Y4980000D01*
X13980000Y4820000D02*
X14020000Y4780000D01*
X14020000Y4820000D02*
X13980000Y4780000D01*
X14080000Y4920000D02*
X14120000Y4880000D01*
X14120000Y4920000D02*
X14080000Y4880000D01*
X14080000Y4720000D02*
X14120000Y4680000D01*
X14120000Y4720000D02*
X14080000Y4680000D01*
X14080000Y4520000D02*
X14120000Y4480000D01*
X14120000Y4520000D02*
X14080000Y4480000D01*
X14080000Y4320000D02*
X14120000Y4280000D01*
X14120000Y4320000D02*
X14080000Y4280000D01*
X14080000Y4120000D02*
X14120000Y4080000D01*
X14120000Y4120000D02*
X14080000Y4080000D01*
X14180000Y5020000D02*
X14220000Y4980000D01*
X14220000Y5020000D02*
X14180000Y4980000D01*
X14180000Y4820000D02*
X14220000Y4780000D01*
X14220000Y4820000D02*
X14180000Y4780000D01*
X14180000Y4620000D02*
X14220000Y4580000D01*
X14220000Y4620000D02*
X14180000Y4580000D01*
X14180000Y4420000D02*
X14220000Y4380000D01*
X14220000Y4420000D02*
X14180000Y4380000D01*
X14180000Y4220000D02*
X14220000Y4180000D01*
X14220000Y4220000D02*
X14180000Y4180000D01*
X14280000Y4920000D02*
X14320000Y4880000D01*
X14320000Y4920000D02*
X14280000Y4880000D01*
X14280000Y4720000D02*
X14320000Y4680000D01*
X14320000Y4720000D02*
X14280000Y4680000D01*
X14280000Y4520000D02*
X14320000Y4480000D01*
X14320000Y4520000D02*
X14280000Y4480000D01*
X14280000Y4320000D02*
X14320000Y4280000D01*
X14320000Y4320000D02*
X14280000Y4280000D01*
X14280000Y4120000D02*
X14320000Y4080000D01*
X14320000Y4120000D02*
X14280000Y4080000D01*
X14309200Y1646200D02*
X14349200Y1606200D01*
X14349200Y1646200D02*
X14309200Y1606200D01*
X14380000Y5020000D02*
X14420000Y4980000D01*
X14420000Y5020000D02*
X14380000Y4980000D01*
X14380000Y4820000D02*
X14420000Y4780000D01*
X14420000Y4820000D02*
X14380000Y4780000D01*
X14380000Y4620000D02*
X14420000Y4580000D01*
X14420000Y4620000D02*
X14380000Y4580000D01*
X14380000Y4420000D02*
X14420000Y4380000D01*
X14420000Y4420000D02*
X14380000Y4380000D01*
X14380000Y4220000D02*
X14420000Y4180000D01*
X14420000Y4220000D02*
X14380000Y4180000D01*
X14480000Y4920000D02*
X14520000Y4880000D01*
X14520000Y4920000D02*
X14480000Y4880000D01*
X14480000Y4720000D02*
X14520000Y4680000D01*
X14520000Y4720000D02*
X14480000Y4680000D01*
X14480000Y4520000D02*
X14520000Y4480000D01*
X14520000Y4520000D02*
X14480000Y4480000D01*
X14480000Y4320000D02*
X14520000Y4280000D01*
X14520000Y4320000D02*
X14480000Y4280000D01*
X14480000Y4120000D02*
X14520000Y4080000D01*
X14520000Y4120000D02*
X14480000Y4080000D01*
X14580000Y5020000D02*
X14620000Y4980000D01*
X14620000Y5020000D02*
X14580000Y4980000D01*
X14580000Y4820000D02*
X14620000Y4780000D01*
X14620000Y4820000D02*
X14580000Y4780000D01*
X14580000Y4620000D02*
X14620000Y4580000D01*
X14620000Y4620000D02*
X14580000Y4580000D01*
X14580000Y4420000D02*
X14620000Y4380000D01*
X14620000Y4420000D02*
X14580000Y4380000D01*
X14580000Y4220000D02*
X14620000Y4180000D01*
X14620000Y4220000D02*
X14580000Y4180000D01*
X14680000Y4920000D02*
X14720000Y4880000D01*
X14720000Y4920000D02*
X14680000Y4880000D01*
X14680000Y4720000D02*
X14720000Y4680000D01*
X14720000Y4720000D02*
X14680000Y4680000D01*
X14680000Y4520000D02*
X14720000Y4480000D01*
X14720000Y4520000D02*
X14680000Y4480000D01*
X14680000Y4320000D02*
X14720000Y4280000D01*
X14720000Y4320000D02*
X14680000Y4280000D01*
X14680000Y4120000D02*
X14720000Y4080000D01*
X14720000Y4120000D02*
X14680000Y4080000D01*
X14780000Y5020000D02*
X14820000Y4980000D01*
X14820000Y5020000D02*
X14780000Y4980000D01*
X14780000Y4820000D02*
X14820000Y4780000D01*
X14820000Y4820000D02*
X14780000Y4780000D01*
X14780000Y4620000D02*
X14820000Y4580000D01*
X14820000Y4620000D02*
X14780000Y4580000D01*
X14780000Y4420000D02*
X14820000Y4380000D01*
X14820000Y4420000D02*
X14780000Y4380000D01*
X14780000Y4220000D02*
X14820000Y4180000D01*
X14820000Y4220000D02*
X14780000Y4180000D01*
X9912500Y8930000D02*
G75*
G03X9912500Y8930000I-27500J0D01*
G01*
X9900000Y8947500D02*
X9870000Y8947500D01*
X9900000Y8912500D02*
X9870000Y8912500D01*
X9870000Y8947500D02*
G75*
G03X9870000Y8912500I0J-17500D01*
G01*
X9900000Y8912500D02*
G75*
G03X9900000Y8947500I0J17500D01*
G01*
X10412500Y8930000D02*
G75*
G03X10412500Y8930000I-27500J0D01*
G01*
X10400000Y8947500D02*
X10370000Y8947500D01*
X10400000Y8912500D02*
X10370000Y8912500D01*
X10370000Y8947500D02*
G75*
G03X10370000Y8912500I0J-17500D01*
G01*
X10400000Y8912500D02*
G75*
G03X10400000Y8947500I0J17500D01*
G01*
X9785000Y9237500D02*
X9785000Y9162500D01*
X9747500Y9200000D02*
X9822500Y9200000D01*
X9757500Y9220000D02*
X9757500Y9180000D01*
X9812500Y9220000D02*
X9812500Y9180000D01*
X9757500Y9180000D02*
G75*
G03X9812500Y9180000I27500J0D01*
G01*
X9812500Y9220000D02*
G75*
G03X9757500Y9220000I-27500J0D01*
G01*
X10485000Y9237500D02*
X10485000Y9162500D01*
X10447500Y9200000D02*
X10522500Y9200000D01*
X10457500Y9220000D02*
X10457500Y9180000D01*
X10512500Y9220000D02*
X10512500Y9180000D01*
X10457500Y9180000D02*
G75*
G03X10512500Y9180000I27500J0D01*
G01*
X10512500Y9220000D02*
G75*
G03X10457500Y9220000I-27500J0D01*
G01*
X11272941Y9273059D02*
X11272941Y9326941D01*
X11219059Y9326941D01*
X11219059Y9273059D01*
X11272941Y9273059D01*
X11526941Y9273059D02*
X11526941Y9326941D01*
X11473059Y9326941D01*
X11473059Y9273059D01*
X11526941Y9273059D01*
X11780941Y9273059D02*
X11780941Y9326941D01*
X11727059Y9326941D01*
X11727059Y9273059D01*
X11780941Y9273059D01*
X13426941Y2653059D02*
X13426941Y2706941D01*
X13373059Y2706941D01*
X13373059Y2653059D01*
X13426941Y2653059D01*
X13426941Y1893059D02*
X13426941Y1946941D01*
X13373059Y1946941D01*
X13373059Y1893059D01*
X13426941Y1893059D01*
X13674441Y9013059D02*
X13674441Y9066941D01*
X13620559Y9066941D01*
X13620559Y9013059D01*
X13674441Y9013059D01*
X13674441Y7563059D02*
X13674441Y7616941D01*
X13620559Y7616941D01*
X13620559Y7563059D01*
X13674441Y7563059D01*
X13924441Y7563059D02*
X13924441Y7616941D01*
X13870559Y7616941D01*
X13870559Y7563059D01*
X13924441Y7563059D01*
X14174441Y9013059D02*
X14174441Y9066941D01*
X14120559Y9066941D01*
X14120559Y9013059D01*
X14174441Y9013059D01*
X14174441Y7563059D02*
X14174441Y7616941D01*
X14120559Y7616941D01*
X14120559Y7563059D01*
X14174441Y7563059D01*
X2200026Y8959995D02*
X2240031Y9000000D01*
X2200026Y9040005D01*
X2160021Y9000000D01*
X2200026Y8959995D01*
X2399924Y8959995D02*
X2439929Y9000000D01*
X2399924Y9040005D01*
X2359919Y9000000D01*
X2399924Y8959995D01*
X2600076Y8959995D02*
X2640081Y9000000D01*
X2600076Y9040005D01*
X2560071Y9000000D01*
X2600076Y8959995D01*
X2799974Y8959995D02*
X2839979Y9000000D01*
X2799974Y9040005D01*
X2759969Y9000000D01*
X2799974Y8959995D01*
X12200026Y8959995D02*
X12240031Y9000000D01*
X12200026Y9040005D01*
X12160021Y9000000D01*
X12200026Y8959995D01*
X12399924Y8959995D02*
X12439929Y9000000D01*
X12399924Y9040005D01*
X12359919Y9000000D01*
X12399924Y8959995D01*
X12600076Y8959995D02*
X12640081Y9000000D01*
X12600076Y9040005D01*
X12560071Y9000000D01*
X12600076Y8959995D01*
X12799974Y8959995D02*
X12839979Y9000000D01*
X12799974Y9040005D01*
X12759969Y9000000D01*
X12799974Y8959995D01*
X1200000Y8005000D02*
X1300000Y7905000D01*
X1300000Y8005000D02*
X1200000Y7905000D01*
X1300000Y7955000D02*
G75*
G03X1300000Y7955000I-50000J0D01*
G01*
X1450000Y8005000D02*
X1550000Y7905000D01*
X1550000Y8005000D02*
X1450000Y7905000D01*
X1550000Y7955000D02*
G75*
G03X1550000Y7955000I-50000J0D01*
G01*
X1700000Y8005000D02*
X1800000Y7905000D01*
X1800000Y8005000D02*
X1700000Y7905000D01*
X1800000Y7955000D02*
G75*
G03X1800000Y7955000I-50000J0D01*
G01*
X2425000Y7280000D02*
X2525000Y7180000D01*
X2525000Y7280000D02*
X2425000Y7180000D01*
X2525000Y7230000D02*
G75*
G03X2525000Y7230000I-50000J0D01*
G01*
X2425000Y7030000D02*
X2525000Y6930000D01*
X2525000Y7030000D02*
X2425000Y6930000D01*
X2525000Y6980000D02*
G75*
G03X2525000Y6980000I-50000J0D01*
G01*
X2425000Y6780000D02*
X2525000Y6680000D01*
X2525000Y6780000D02*
X2425000Y6680000D01*
X2525000Y6730000D02*
G75*
G03X2525000Y6730000I-50000J0D01*
G01*
X11750000Y2900000D02*
X11850000Y2800000D01*
X11850000Y2900000D02*
X11750000Y2800000D01*
X11850000Y2850000D02*
G75*
G03X11850000Y2850000I-50000J0D01*
G01*
X11750000Y2650000D02*
X11850000Y2550000D01*
X11850000Y2650000D02*
X11750000Y2550000D01*
X11850000Y2600000D02*
G75*
G03X11850000Y2600000I-50000J0D01*
G01*
X11750000Y2400000D02*
X11850000Y2300000D01*
X11850000Y2400000D02*
X11750000Y2300000D01*
X11850000Y2350000D02*
G75*
G03X11850000Y2350000I-50000J0D01*
G01*
X3449962Y9232538D02*
X3550038Y9132462D01*
X3550038Y9232538D02*
X3449962Y9132462D01*
X3500000Y9232538D02*
X3500000Y9132462D01*
X3449962Y9182500D02*
X3550038Y9182500D01*
X3703962Y9232538D02*
X3804038Y9132462D01*
X3804038Y9232538D02*
X3703962Y9132462D01*
X3754000Y9232538D02*
X3754000Y9132462D01*
X3703962Y9182500D02*
X3804038Y9182500D01*
X1430800Y802400D02*
X1532400Y700800D01*
X1532400Y802400D02*
X1430800Y700800D01*
X1517521Y715679D02*
X1517521Y787521D01*
X1445679Y787521D01*
X1445679Y715679D01*
X1517521Y715679D01*
X1684800Y802400D02*
X1786400Y700800D01*
X1786400Y802400D02*
X1684800Y700800D01*
X1771521Y715679D02*
X1771521Y787521D01*
X1699679Y787521D01*
X1699679Y715679D01*
X1771521Y715679D01*
X1938800Y802400D02*
X2040400Y700800D01*
X2040400Y802400D02*
X1938800Y700800D01*
X2025521Y715679D02*
X2025521Y787521D01*
X1953679Y787521D01*
X1953679Y715679D01*
X2025521Y715679D01*
X2192800Y802400D02*
X2294400Y700800D01*
X2294400Y802400D02*
X2192800Y700800D01*
X2279521Y715679D02*
X2279521Y787521D01*
X2207679Y787521D01*
X2207679Y715679D01*
X2279521Y715679D01*
X3097600Y802400D02*
X3199200Y700800D01*
X3199200Y802400D02*
X3097600Y700800D01*
X3184321Y715679D02*
X3184321Y787521D01*
X3112479Y787521D01*
X3112479Y715679D01*
X3184321Y715679D01*
X3149200Y7550800D02*
X3250800Y7449200D01*
X3250800Y7550800D02*
X3149200Y7449200D01*
X3235921Y7464079D02*
X3235921Y7535921D01*
X3164079Y7535921D01*
X3164079Y7464079D01*
X3235921Y7464079D01*
X3149200Y7296800D02*
X3250800Y7195200D01*
X3250800Y7296800D02*
X3149200Y7195200D01*
X3235921Y7210079D02*
X3235921Y7281921D01*
X3164079Y7281921D01*
X3164079Y7210079D01*
X3235921Y7210079D01*
X3149200Y7042800D02*
X3250800Y6941200D01*
X3250800Y7042800D02*
X3149200Y6941200D01*
X3235921Y6956079D02*
X3235921Y7027921D01*
X3164079Y7027921D01*
X3164079Y6956079D01*
X3235921Y6956079D01*
X3149200Y6788800D02*
X3250800Y6687200D01*
X3250800Y6788800D02*
X3149200Y6687200D01*
X3235921Y6702079D02*
X3235921Y6773921D01*
X3164079Y6773921D01*
X3164079Y6702079D01*
X3235921Y6702079D01*
X3149200Y6534800D02*
X3250800Y6433200D01*
X3250800Y6534800D02*
X3149200Y6433200D01*
X3235921Y6448079D02*
X3235921Y6519921D01*
X3164079Y6519921D01*
X3164079Y6448079D01*
X3235921Y6448079D01*
X3149200Y6280800D02*
X3250800Y6179200D01*
X3250800Y6280800D02*
X3149200Y6179200D01*
X3235921Y6194079D02*
X3235921Y6265921D01*
X3164079Y6265921D01*
X3164079Y6194079D01*
X3235921Y6194079D01*
X3149200Y6026800D02*
X3250800Y5925200D01*
X3250800Y6026800D02*
X3149200Y5925200D01*
X3235921Y5940079D02*
X3235921Y6011921D01*
X3164079Y6011921D01*
X3164079Y5940079D01*
X3235921Y5940079D01*
X3149200Y5772800D02*
X3250800Y5671200D01*
X3250800Y5772800D02*
X3149200Y5671200D01*
X3235921Y5686079D02*
X3235921Y5757921D01*
X3164079Y5757921D01*
X3164079Y5686079D01*
X3235921Y5686079D01*
X3149200Y5518800D02*
X3250800Y5417200D01*
X3250800Y5518800D02*
X3149200Y5417200D01*
X3235921Y5432079D02*
X3235921Y5503921D01*
X3164079Y5503921D01*
X3164079Y5432079D01*
X3235921Y5432079D01*
X3149200Y5264800D02*
X3250800Y5163200D01*
X3250800Y5264800D02*
X3149200Y5163200D01*
X3235921Y5178079D02*
X3235921Y5249921D01*
X3164079Y5249921D01*
X3164079Y5178079D01*
X3235921Y5178079D01*
X3149200Y5010800D02*
X3250800Y4909200D01*
X3250800Y5010800D02*
X3149200Y4909200D01*
X3235921Y4924079D02*
X3235921Y4995921D01*
X3164079Y4995921D01*
X3164079Y4924079D01*
X3235921Y4924079D01*
X3149200Y4756800D02*
X3250800Y4655200D01*
X3250800Y4756800D02*
X3149200Y4655200D01*
X3235921Y4670079D02*
X3235921Y4741921D01*
X3164079Y4741921D01*
X3164079Y4670079D01*
X3235921Y4670079D01*
X3149200Y4502800D02*
X3250800Y4401200D01*
X3250800Y4502800D02*
X3149200Y4401200D01*
X3235921Y4416079D02*
X3235921Y4487921D01*
X3164079Y4487921D01*
X3164079Y4416079D01*
X3235921Y4416079D01*
X3149200Y4248800D02*
X3250800Y4147200D01*
X3250800Y4248800D02*
X3149200Y4147200D01*
X3235921Y4162079D02*
X3235921Y4233921D01*
X3164079Y4233921D01*
X3164079Y4162079D01*
X3235921Y4162079D01*
X3351600Y802400D02*
X3453200Y700800D01*
X3453200Y802400D02*
X3351600Y700800D01*
X3438321Y715679D02*
X3438321Y787521D01*
X3366479Y787521D01*
X3366479Y715679D01*
X3438321Y715679D01*
X3605600Y802400D02*
X3707200Y700800D01*
X3707200Y802400D02*
X3605600Y700800D01*
X3692321Y715679D02*
X3692321Y787521D01*
X3620479Y787521D01*
X3620479Y715679D01*
X3692321Y715679D01*
X3859600Y802400D02*
X3961200Y700800D01*
X3961200Y802400D02*
X3859600Y700800D01*
X3946321Y715679D02*
X3946321Y787521D01*
X3874479Y787521D01*
X3874479Y715679D01*
X3946321Y715679D01*
X4113600Y802400D02*
X4215200Y700800D01*
X4215200Y802400D02*
X4113600Y700800D01*
X4200321Y715679D02*
X4200321Y787521D01*
X4128479Y787521D01*
X4128479Y715679D01*
X4200321Y715679D01*
X4624080Y8976860D02*
X4725680Y8875260D01*
X4725680Y8976860D02*
X4624080Y8875260D01*
X4710801Y8890139D02*
X4710801Y8961981D01*
X4638959Y8961981D01*
X4638959Y8890139D01*
X4710801Y8890139D01*
X4624080Y8524740D02*
X4725680Y8423140D01*
X4725680Y8524740D02*
X4624080Y8423140D01*
X4710801Y8438019D02*
X4710801Y8509861D01*
X4638959Y8509861D01*
X4638959Y8438019D01*
X4710801Y8438019D01*
X5018400Y802400D02*
X5120000Y700800D01*
X5120000Y802400D02*
X5018400Y700800D01*
X5105121Y715679D02*
X5105121Y787521D01*
X5033279Y787521D01*
X5033279Y715679D01*
X5105121Y715679D01*
X5272400Y802400D02*
X5374000Y700800D01*
X5374000Y802400D02*
X5272400Y700800D01*
X5359121Y715679D02*
X5359121Y787521D01*
X5287279Y787521D01*
X5287279Y715679D01*
X5359121Y715679D01*
X5274320Y8976860D02*
X5375920Y8875260D01*
X5375920Y8976860D02*
X5274320Y8875260D01*
X5361041Y8890139D02*
X5361041Y8961981D01*
X5289199Y8961981D01*
X5289199Y8890139D01*
X5361041Y8890139D01*
X5274320Y8524740D02*
X5375920Y8423140D01*
X5375920Y8524740D02*
X5274320Y8423140D01*
X5361041Y8438019D02*
X5361041Y8509861D01*
X5289199Y8509861D01*
X5289199Y8438019D01*
X5361041Y8438019D01*
X5526400Y802400D02*
X5628000Y700800D01*
X5628000Y802400D02*
X5526400Y700800D01*
X5613121Y715679D02*
X5613121Y787521D01*
X5541279Y787521D01*
X5541279Y715679D01*
X5613121Y715679D01*
X5780400Y802400D02*
X5882000Y700800D01*
X5882000Y802400D02*
X5780400Y700800D01*
X5867121Y715679D02*
X5867121Y787521D01*
X5795279Y787521D01*
X5795279Y715679D01*
X5867121Y715679D01*
X6034400Y802400D02*
X6136000Y700800D01*
X6136000Y802400D02*
X6034400Y700800D01*
X6121121Y715679D02*
X6121121Y787521D01*
X6049279Y787521D01*
X6049279Y715679D01*
X6121121Y715679D01*
X6939200Y802400D02*
X7040800Y700800D01*
X7040800Y802400D02*
X6939200Y700800D01*
X7025921Y715679D02*
X7025921Y787521D01*
X6954079Y787521D01*
X6954079Y715679D01*
X7025921Y715679D01*
X7193200Y802400D02*
X7294800Y700800D01*
X7294800Y802400D02*
X7193200Y700800D01*
X7279921Y715679D02*
X7279921Y787521D01*
X7208079Y787521D01*
X7208079Y715679D01*
X7279921Y715679D01*
X7447200Y802400D02*
X7548800Y700800D01*
X7548800Y802400D02*
X7447200Y700800D01*
X7533921Y715679D02*
X7533921Y787521D01*
X7462079Y787521D01*
X7462079Y715679D01*
X7533921Y715679D01*
X7701200Y802400D02*
X7802800Y700800D01*
X7802800Y802400D02*
X7701200Y700800D01*
X7787921Y715679D02*
X7787921Y787521D01*
X7716079Y787521D01*
X7716079Y715679D01*
X7787921Y715679D01*
X7955200Y802400D02*
X8056800Y700800D01*
X8056800Y802400D02*
X7955200Y700800D01*
X8041921Y715679D02*
X8041921Y787521D01*
X7970079Y787521D01*
X7970079Y715679D01*
X8041921Y715679D01*
X8860000Y802400D02*
X8961600Y700800D01*
X8961600Y802400D02*
X8860000Y700800D01*
X8946721Y715679D02*
X8946721Y787521D01*
X8874879Y787521D01*
X8874879Y715679D01*
X8946721Y715679D01*
X9114000Y802400D02*
X9215600Y700800D01*
X9215600Y802400D02*
X9114000Y700800D01*
X9200721Y715679D02*
X9200721Y787521D01*
X9128879Y787521D01*
X9128879Y715679D01*
X9200721Y715679D01*
X9368000Y802400D02*
X9469600Y700800D01*
X9469600Y802400D02*
X9368000Y700800D01*
X9454721Y715679D02*
X9454721Y787521D01*
X9382879Y787521D01*
X9382879Y715679D01*
X9454721Y715679D01*
X9622000Y802400D02*
X9723600Y700800D01*
X9723600Y802400D02*
X9622000Y700800D01*
X9708721Y715679D02*
X9708721Y787521D01*
X9636879Y787521D01*
X9636879Y715679D01*
X9708721Y715679D01*
X9876000Y802400D02*
X9977600Y700800D01*
X9977600Y802400D02*
X9876000Y700800D01*
X9962721Y715679D02*
X9962721Y787521D01*
X9890879Y787521D01*
X9890879Y715679D01*
X9962721Y715679D01*
X10780800Y802400D02*
X10882400Y700800D01*
X10882400Y802400D02*
X10780800Y700800D01*
X10867521Y715679D02*
X10867521Y787521D01*
X10795679Y787521D01*
X10795679Y715679D01*
X10867521Y715679D01*
X11034800Y802400D02*
X11136400Y700800D01*
X11136400Y802400D02*
X11034800Y700800D01*
X11121521Y715679D02*
X11121521Y787521D01*
X11049679Y787521D01*
X11049679Y715679D01*
X11121521Y715679D01*
X11249200Y6280800D02*
X11350800Y6179200D01*
X11350800Y6280800D02*
X11249200Y6179200D01*
X11335921Y6194079D02*
X11335921Y6265921D01*
X11264079Y6265921D01*
X11264079Y6194079D01*
X11335921Y6194079D01*
X11249200Y6026800D02*
X11350800Y5925200D01*
X11350800Y6026800D02*
X11249200Y5925200D01*
X11335921Y5940079D02*
X11335921Y6011921D01*
X11264079Y6011921D01*
X11264079Y5940079D01*
X11335921Y5940079D01*
X11249200Y5772800D02*
X11350800Y5671200D01*
X11350800Y5772800D02*
X11249200Y5671200D01*
X11335921Y5686079D02*
X11335921Y5757921D01*
X11264079Y5757921D01*
X11264079Y5686079D01*
X11335921Y5686079D01*
X11249200Y5518800D02*
X11350800Y5417200D01*
X11350800Y5518800D02*
X11249200Y5417200D01*
X11335921Y5432079D02*
X11335921Y5503921D01*
X11264079Y5503921D01*
X11264079Y5432079D01*
X11335921Y5432079D01*
X11288800Y802400D02*
X11390400Y700800D01*
X11390400Y802400D02*
X11288800Y700800D01*
X11375521Y715679D02*
X11375521Y787521D01*
X11303679Y787521D01*
X11303679Y715679D01*
X11375521Y715679D01*
X11542800Y802400D02*
X11644400Y700800D01*
X11644400Y802400D02*
X11542800Y700800D01*
X11629521Y715679D02*
X11629521Y787521D01*
X11557679Y787521D01*
X11557679Y715679D01*
X11629521Y715679D01*
X11796800Y802400D02*
X11898400Y700800D01*
X11898400Y802400D02*
X11796800Y700800D01*
X11883521Y715679D02*
X11883521Y787521D01*
X11811679Y787521D01*
X11811679Y715679D01*
X11883521Y715679D01*
X12555980Y6051070D02*
X12657580Y5949470D01*
X12657580Y6051070D02*
X12555980Y5949470D01*
X12642701Y5964349D02*
X12642701Y6036191D01*
X12570859Y6036191D01*
X12570859Y5964349D01*
X12642701Y5964349D01*
X12555980Y5598950D02*
X12657580Y5497350D01*
X12657580Y5598950D02*
X12555980Y5497350D01*
X12642701Y5512229D02*
X12642701Y5584071D01*
X12570859Y5584071D01*
X12570859Y5512229D01*
X12642701Y5512229D01*
X12701600Y802400D02*
X12803200Y700800D01*
X12803200Y802400D02*
X12701600Y700800D01*
X12788321Y715679D02*
X12788321Y787521D01*
X12716479Y787521D01*
X12716479Y715679D01*
X12788321Y715679D01*
X12955600Y802400D02*
X13057200Y700800D01*
X13057200Y802400D02*
X12955600Y700800D01*
X13042321Y715679D02*
X13042321Y787521D01*
X12970479Y787521D01*
X12970479Y715679D01*
X13042321Y715679D01*
X13206220Y6051070D02*
X13307820Y5949470D01*
X13307820Y6051070D02*
X13206220Y5949470D01*
X13292941Y5964349D02*
X13292941Y6036191D01*
X13221099Y6036191D01*
X13221099Y5964349D01*
X13292941Y5964349D01*
X13206220Y5598950D02*
X13307820Y5497350D01*
X13307820Y5598950D02*
X13206220Y5497350D01*
X13292941Y5512229D02*
X13292941Y5584071D01*
X13221099Y5584071D01*
X13221099Y5512229D01*
X13292941Y5512229D01*
X13209600Y802400D02*
X13311200Y700800D01*
X13311200Y802400D02*
X13209600Y700800D01*
X13296321Y715679D02*
X13296321Y787521D01*
X13224479Y787521D01*
X13224479Y715679D01*
X13296321Y715679D01*
X13463600Y802400D02*
X13565200Y700800D01*
X13565200Y802400D02*
X13463600Y700800D01*
X13550321Y715679D02*
X13550321Y787521D01*
X13478479Y787521D01*
X13478479Y715679D01*
X13550321Y715679D01*
X13735080Y6688100D02*
X13836680Y6586500D01*
X13836680Y6688100D02*
X13735080Y6586500D01*
X13821801Y6601379D02*
X13821801Y6673221D01*
X13749959Y6673221D01*
X13749959Y6601379D01*
X13821801Y6601379D01*
X13735080Y6235980D02*
X13836680Y6134380D01*
X13836680Y6235980D02*
X13735080Y6134380D01*
X13821801Y6149259D02*
X13821801Y6221101D01*
X13749959Y6221101D01*
X13749959Y6149259D01*
X13821801Y6149259D01*
X14385320Y6688100D02*
X14486920Y6586500D01*
X14486920Y6688100D02*
X14385320Y6586500D01*
X14472041Y6601379D02*
X14472041Y6673221D01*
X14400199Y6673221D01*
X14400199Y6601379D01*
X14472041Y6601379D01*
X14385320Y6235980D02*
X14486920Y6134380D01*
X14486920Y6235980D02*
X14385320Y6134380D01*
X14472041Y6149259D02*
X14472041Y6221101D01*
X14400199Y6221101D01*
X14400199Y6149259D01*
X14472041Y6149259D01*
X1047500Y6222500D02*
X1182500Y6087500D01*
X1182500Y6222500D02*
X1047500Y6087500D01*
X1115000Y6087500D02*
X1182500Y6155000D01*
X1115000Y6222500D01*
X1047500Y6155000D01*
X1115000Y6087500D01*
X1047500Y5772500D02*
X1182500Y5637500D01*
X1182500Y5772500D02*
X1047500Y5637500D01*
X1115000Y5637500D02*
X1182500Y5705000D01*
X1115000Y5772500D01*
X1047500Y5705000D01*
X1115000Y5637500D01*
X1817500Y6222500D02*
X1952500Y6087500D01*
X1952500Y6222500D02*
X1817500Y6087500D01*
X1885000Y6087500D02*
X1952500Y6155000D01*
X1885000Y6222500D01*
X1817500Y6155000D01*
X1885000Y6087500D01*
X1817500Y5772500D02*
X1952500Y5637500D01*
X1952500Y5772500D02*
X1817500Y5637500D01*
X1885000Y5637500D02*
X1952500Y5705000D01*
X1885000Y5772500D01*
X1817500Y5705000D01*
X1885000Y5637500D01*
X3855000Y2074000D02*
X3855000Y1936000D01*
X3786000Y2005000D02*
X3924000Y2005000D01*
X3924000Y2005000D02*
G75*
G03X3924000Y2005000I-69000J0D01*
G01*
X3796000Y2076000D02*
X3796000Y1934000D01*
X3914000Y2076000D02*
X3914000Y1934000D01*
X3796000Y1934000D02*
G75*
G03X3914000Y1934000I59000J0D01*
G01*
X3914000Y2076000D02*
G75*
G03X3796000Y2076000I-59000J0D01*
G01*
X11145000Y2074000D02*
X11145000Y1936000D01*
X11076000Y2005000D02*
X11214000Y2005000D01*
X11214000Y2005000D02*
G75*
G03X11214000Y2005000I-69000J0D01*
G01*
X11086000Y2076000D02*
X11086000Y1934000D01*
X11204000Y2076000D02*
X11204000Y1934000D01*
X11086000Y1934000D02*
G75*
G03X11204000Y1934000I59000J0D01*
G01*
X11204000Y2076000D02*
G75*
G03X11086000Y2076000I-59000J0D01*
G01*
X778033Y7591966D02*
X778033Y7698033D01*
X671967Y7698033D01*
X671967Y7591966D01*
X778033Y7591966D01*
X800000Y7645000D02*
G75*
G03X800000Y7645000I-75000J0D01*
G01*
X778033Y6261966D02*
X778033Y6368033D01*
X671967Y6368033D01*
X671967Y6261966D01*
X778033Y6261966D01*
X800000Y6315000D02*
G75*
G03X800000Y6315000I-75000J0D01*
G01*
X2328034Y7591966D02*
X2328034Y7698033D01*
X2221967Y7698033D01*
X2221967Y7591966D01*
X2328034Y7591966D01*
X2350000Y7645000D02*
G75*
G03X2350000Y7645000I-75000J0D01*
G01*
X2328034Y6261966D02*
X2328034Y6368033D01*
X2221967Y6368033D01*
X2221967Y6261966D01*
X2328034Y6261966D01*
X2350000Y6315000D02*
G75*
G03X2350000Y6315000I-75000J0D01*
G01*
X13342500Y8245000D02*
X13437500Y8340000D01*
X13342500Y8435000D01*
X13247500Y8340000D01*
X13342500Y8245000D01*
X13437500Y8340000D02*
G75*
G03X13437500Y8340000I-95000J0D01*
G01*
X13257500Y8355000D02*
X13257500Y8325000D01*
X13427500Y8355000D02*
X13427500Y8325000D01*
X13257500Y8325000D02*
G75*
G03X13427500Y8325000I85000J0D01*
G01*
X13427500Y8355000D02*
G75*
G03X13257500Y8355000I-85000J0D01*
G01*
X14452500Y8245000D02*
X14547500Y8340000D01*
X14452500Y8435000D01*
X14357500Y8340000D01*
X14452500Y8245000D01*
X14547500Y8340000D02*
G75*
G03X14547500Y8340000I-95000J0D01*
G01*
X14367500Y8355000D02*
X14367500Y8325000D01*
X14537500Y8355000D02*
X14537500Y8325000D01*
X14367500Y8325000D02*
G75*
G03X14537500Y8325000I85000J0D01*
G01*
X14537500Y8355000D02*
G75*
G03X14367500Y8355000I-85000J0D01*
G01*
X500000Y8660000D02*
X500000Y8340000D01*
X340000Y8500000D02*
X660000Y8500000D01*
X613138Y8386862D02*
X613138Y8613138D01*
X386862Y8613138D01*
X386862Y8386862D01*
X613138Y8386862D01*
X500000Y1160000D02*
X500000Y840000D01*
X340000Y1000000D02*
X660000Y1000000D01*
X613138Y886862D02*
X613138Y1113138D01*
X386862Y1113138D01*
X386862Y886862D01*
X613138Y886862D01*
X3692000Y8209000D02*
X3692000Y7889000D01*
X3532000Y8049000D02*
X3852000Y8049000D01*
X3805138Y7935862D02*
X3805138Y8162138D01*
X3578862Y8162138D01*
X3578862Y7935862D01*
X3805138Y7935862D01*
X3692000Y3809000D02*
X3692000Y3489000D01*
X3532000Y3649000D02*
X3852000Y3649000D01*
X3805138Y3535862D02*
X3805138Y3762138D01*
X3578862Y3762138D01*
X3578862Y3535862D01*
X3805138Y3535862D01*
X4719500Y2165000D02*
X4719500Y1845000D01*
X4559500Y2005000D02*
X4879500Y2005000D01*
X4832638Y1891862D02*
X4832638Y2118138D01*
X4606362Y2118138D01*
X4606362Y1891862D01*
X4832638Y1891862D01*
X10280500Y2165000D02*
X10280500Y1845000D01*
X10120500Y2005000D02*
X10440500Y2005000D01*
X10393638Y1891862D02*
X10393638Y2118138D01*
X10167362Y2118138D01*
X10167362Y1891862D01*
X10393638Y1891862D01*
X11300000Y8209000D02*
X11300000Y7889000D01*
X11140000Y8049000D02*
X11460000Y8049000D01*
X11413138Y7935862D02*
X11413138Y8162138D01*
X11186862Y8162138D01*
X11186862Y7935862D01*
X11413138Y7935862D01*
X11300000Y3809000D02*
X11300000Y3489000D01*
X11140000Y3649000D02*
X11460000Y3649000D01*
X11413138Y3535862D02*
X11413138Y3762138D01*
X11186862Y3762138D01*
X11186862Y3535862D01*
X11413138Y3535862D01*
X14500000Y1160000D02*
X14500000Y840000D01*
X14340000Y1000000D02*
X14660000Y1000000D01*
X14613138Y886862D02*
X14613138Y1113138D01*
X14386862Y1113138D01*
X14386862Y886862D01*
X14613138Y886862D01*
X1029200Y800000D02*
X1029200Y400000D01*
X829200Y600000D02*
X1229200Y600000D01*
X1029200Y400000D02*
X1229200Y600000D01*
X1029200Y800000D01*
X829200Y600000D01*
X1029200Y400000D01*
X2696000Y800000D02*
X2696000Y400000D01*
X2496000Y600000D02*
X2896000Y600000D01*
X2696000Y400000D02*
X2896000Y600000D01*
X2696000Y800000D01*
X2496000Y600000D01*
X2696000Y400000D01*
X4616800Y800000D02*
X4616800Y400000D01*
X4416800Y600000D02*
X4816800Y600000D01*
X4616800Y400000D02*
X4816800Y600000D01*
X4616800Y800000D01*
X4416800Y600000D01*
X4616800Y400000D01*
X6537600Y800000D02*
X6537600Y400000D01*
X6337600Y600000D02*
X6737600Y600000D01*
X6537600Y400000D02*
X6737600Y600000D01*
X6537600Y800000D01*
X6337600Y600000D01*
X6537600Y400000D01*
X8458400Y800000D02*
X8458400Y400000D01*
X8258400Y600000D02*
X8658400Y600000D01*
X8458400Y400000D02*
X8658400Y600000D01*
X8458400Y800000D01*
X8258400Y600000D01*
X8458400Y400000D01*
X10379200Y800000D02*
X10379200Y400000D01*
X10179200Y600000D02*
X10579200Y600000D01*
X10379200Y400000D02*
X10579200Y600000D01*
X10379200Y800000D01*
X10179200Y600000D01*
X10379200Y400000D01*
X12300000Y800000D02*
X12300000Y400000D01*
X12100000Y600000D02*
X12500000Y600000D01*
X12300000Y400000D02*
X12500000Y600000D01*
X12300000Y800000D01*
X12100000Y600000D01*
X12300000Y400000D01*
X13966800Y800000D02*
X13966800Y400000D01*
X13766800Y600000D02*
X14166800Y600000D01*
X13966800Y400000D02*
X14166800Y600000D01*
X13966800Y800000D01*
X13766800Y600000D01*
X13966800Y400000D01*
D13*
X266429Y-470714D02*
X266429Y-170714D01*
X337857Y-170714D01*
X380714Y-185000D01*
X409286Y-213571D01*
X423571Y-242143D01*
X437857Y-299286D01*
X437857Y-342143D01*
X423571Y-399286D01*
X409286Y-427857D01*
X380714Y-456429D01*
X337857Y-470714D01*
X266429Y-470714D01*
X566429Y-470714D02*
X566429Y-270714D01*
X566429Y-327857D02*
X580714Y-299286D01*
X595000Y-285000D01*
X623571Y-270714D01*
X652143Y-270714D01*
X752143Y-470714D02*
X752143Y-270714D01*
X752143Y-170714D02*
X737857Y-185000D01*
X752143Y-199286D01*
X766428Y-185000D01*
X752143Y-170714D01*
X752143Y-199286D01*
X937857Y-470714D02*
X909286Y-456429D01*
X895000Y-427857D01*
X895000Y-170714D01*
X1095000Y-470714D02*
X1066429Y-456429D01*
X1052143Y-427857D01*
X1052143Y-170714D01*
X1437857Y-470714D02*
X1437857Y-170714D01*
X1537857Y-385000D01*
X1637857Y-170714D01*
X1637857Y-470714D01*
X1909286Y-470714D02*
X1909286Y-313572D01*
X1895000Y-285000D01*
X1866428Y-270714D01*
X1809286Y-270714D01*
X1780714Y-285000D01*
X1909286Y-456429D02*
X1880714Y-470714D01*
X1809286Y-470714D01*
X1780714Y-456429D01*
X1766428Y-427857D01*
X1766428Y-399286D01*
X1780714Y-370714D01*
X1809286Y-356429D01*
X1880714Y-356429D01*
X1909286Y-342143D01*
X2052143Y-270714D02*
X2052143Y-570714D01*
X2052143Y-285000D02*
X2080714Y-270714D01*
X2137857Y-270714D01*
X2166429Y-285000D01*
X2180714Y-299286D01*
X2195000Y-327857D01*
X2195000Y-413571D01*
X2180714Y-442143D01*
X2166429Y-456429D01*
X2137857Y-470714D01*
X2080714Y-470714D01*
X2052143Y-456429D01*
X2323571Y-442143D02*
X2337857Y-456429D01*
X2323571Y-470714D01*
X2309286Y-456429D01*
X2323571Y-442143D01*
X2323571Y-470714D01*
X2323571Y-285000D02*
X2337857Y-299286D01*
X2323571Y-313572D01*
X2309286Y-299286D01*
X2323571Y-285000D01*
X2323571Y-313572D01*
X-45000Y-945000D02*
X-5000Y-985000D01*
X-5000Y-945000D02*
X-45000Y-985000D01*
X323571Y-800714D02*
X352143Y-800714D01*
X380714Y-815000D01*
X395000Y-829286D01*
X409286Y-857857D01*
X423571Y-915000D01*
X423571Y-986429D01*
X409286Y-1043571D01*
X395000Y-1072143D01*
X380714Y-1086429D01*
X352143Y-1100714D01*
X323571Y-1100714D01*
X295000Y-1086429D01*
X280714Y-1072143D01*
X266429Y-1043571D01*
X252143Y-986429D01*
X252143Y-915000D01*
X266429Y-857857D01*
X280714Y-829286D01*
X295000Y-815000D01*
X323571Y-800714D01*
X552143Y-1072143D02*
X566429Y-1086429D01*
X552143Y-1100714D01*
X537857Y-1086429D01*
X552143Y-1072143D01*
X552143Y-1100714D01*
X823571Y-900714D02*
X823571Y-1100714D01*
X752143Y-786429D02*
X680714Y-1000714D01*
X866428Y-1000714D01*
X1037857Y-800714D02*
X1066429Y-800714D01*
X1095000Y-815000D01*
X1109286Y-829286D01*
X1123571Y-857857D01*
X1137857Y-915000D01*
X1137857Y-986429D01*
X1123571Y-1043571D01*
X1109286Y-1072143D01*
X1095000Y-1086429D01*
X1066429Y-1100714D01*
X1037857Y-1100714D01*
X1009286Y-1086429D01*
X995000Y-1072143D01*
X980714Y-1043571D01*
X966428Y-986429D01*
X966428Y-915000D01*
X980714Y-857857D01*
X995000Y-829286D01*
X1009286Y-815000D01*
X1037857Y-800714D01*
X1266429Y-1100714D02*
X1266429Y-900714D01*
X1266429Y-929286D02*
X1280714Y-915000D01*
X1309286Y-900714D01*
X1352143Y-900714D01*
X1380714Y-915000D01*
X1395000Y-943571D01*
X1395000Y-1100714D01*
X1395000Y-943571D02*
X1409286Y-915000D01*
X1437857Y-900714D01*
X1480714Y-900714D01*
X1509286Y-915000D01*
X1523571Y-943571D01*
X1523571Y-1100714D01*
X1666428Y-1100714D02*
X1666428Y-900714D01*
X1666428Y-929286D02*
X1680714Y-915000D01*
X1709286Y-900714D01*
X1752143Y-900714D01*
X1780714Y-915000D01*
X1795000Y-943571D01*
X1795000Y-1100714D01*
X1795000Y-943571D02*
X1809286Y-915000D01*
X1837857Y-900714D01*
X1880714Y-900714D01*
X1909286Y-915000D01*
X1923571Y-943571D01*
X1923571Y-1100714D01*
X2509286Y-786429D02*
X2252143Y-1172143D01*
X2895000Y-800714D02*
X2923571Y-800714D01*
X2952143Y-815000D01*
X2966428Y-829286D01*
X2980714Y-857857D01*
X2995000Y-915000D01*
X2995000Y-986429D01*
X2980714Y-1043571D01*
X2966428Y-1072143D01*
X2952143Y-1086429D01*
X2923571Y-1100714D01*
X2895000Y-1100714D01*
X2866428Y-1086429D01*
X2852143Y-1072143D01*
X2837857Y-1043571D01*
X2823571Y-986429D01*
X2823571Y-915000D01*
X2837857Y-857857D01*
X2852143Y-829286D01*
X2866428Y-815000D01*
X2895000Y-800714D01*
X3123571Y-1072143D02*
X3137857Y-1086429D01*
X3123571Y-1100714D01*
X3109286Y-1086429D01*
X3123571Y-1072143D01*
X3123571Y-1100714D01*
X3323571Y-800714D02*
X3352143Y-800714D01*
X3380714Y-815000D01*
X3395000Y-829286D01*
X3409285Y-857857D01*
X3423571Y-915000D01*
X3423571Y-986429D01*
X3409285Y-1043571D01*
X3395000Y-1072143D01*
X3380714Y-1086429D01*
X3352143Y-1100714D01*
X3323571Y-1100714D01*
X3295000Y-1086429D01*
X3280714Y-1072143D01*
X3266428Y-1043571D01*
X3252143Y-986429D01*
X3252143Y-915000D01*
X3266428Y-857857D01*
X3280714Y-829286D01*
X3295000Y-815000D01*
X3323571Y-800714D01*
X3709285Y-1100714D02*
X3537857Y-1100714D01*
X3623571Y-1100714D02*
X3623571Y-800714D01*
X3595000Y-843571D01*
X3566428Y-872143D01*
X3537857Y-886429D01*
X3966428Y-800714D02*
X3909285Y-800714D01*
X3880714Y-815000D01*
X3866428Y-829286D01*
X3837857Y-872143D01*
X3823571Y-929286D01*
X3823571Y-1043571D01*
X3837857Y-1072143D01*
X3852143Y-1086429D01*
X3880714Y-1100714D01*
X3937857Y-1100714D01*
X3966428Y-1086429D01*
X3980714Y-1072143D01*
X3995000Y-1043571D01*
X3995000Y-972143D01*
X3980714Y-943571D01*
X3966428Y-929286D01*
X3937857Y-915000D01*
X3880714Y-915000D01*
X3852143Y-929286D01*
X3837857Y-943571D01*
X3823571Y-972143D01*
X4109286Y-800714D02*
X4109286Y-857857D01*
X4223571Y-800714D02*
X4223571Y-857857D01*
X4666428Y-1215000D02*
X4652143Y-1200714D01*
X4623571Y-1157857D01*
X4609286Y-1129286D01*
X4595000Y-1086429D01*
X4580714Y-1015000D01*
X4580714Y-957857D01*
X4595000Y-886429D01*
X4609286Y-843571D01*
X4623571Y-815000D01*
X4652143Y-772143D01*
X4666428Y-757857D01*
X4937857Y-1100714D02*
X4766428Y-1100714D01*
X4852143Y-1100714D02*
X4852143Y-800714D01*
X4823571Y-843571D01*
X4795000Y-872143D01*
X4766428Y-886429D01*
X5209286Y-800714D02*
X5066428Y-800714D01*
X5052143Y-943571D01*
X5066428Y-929286D01*
X5095000Y-915000D01*
X5166428Y-915000D01*
X5195000Y-929286D01*
X5209286Y-943571D01*
X5223571Y-972143D01*
X5223571Y-1043571D01*
X5209286Y-1072143D01*
X5195000Y-1086429D01*
X5166428Y-1100714D01*
X5095000Y-1100714D01*
X5066428Y-1086429D01*
X5052143Y-1072143D01*
X5495000Y-800714D02*
X5352143Y-800714D01*
X5337857Y-943571D01*
X5352143Y-929286D01*
X5380714Y-915000D01*
X5452143Y-915000D01*
X5480714Y-929286D01*
X5495000Y-943571D01*
X5509286Y-972143D01*
X5509286Y-1043571D01*
X5495000Y-1072143D01*
X5480714Y-1086429D01*
X5452143Y-1100714D01*
X5380714Y-1100714D01*
X5352143Y-1086429D01*
X5337857Y-1072143D01*
X5866428Y-1100714D02*
X5866428Y-800714D01*
X5995000Y-1100714D02*
X5995000Y-943571D01*
X5980714Y-915000D01*
X5952143Y-900714D01*
X5909285Y-900714D01*
X5880714Y-915000D01*
X5866428Y-929286D01*
X6180714Y-1100714D02*
X6152143Y-1086429D01*
X6137857Y-1072143D01*
X6123571Y-1043571D01*
X6123571Y-957857D01*
X6137857Y-929286D01*
X6152143Y-915000D01*
X6180714Y-900714D01*
X6223571Y-900714D01*
X6252143Y-915000D01*
X6266428Y-929286D01*
X6280714Y-957857D01*
X6280714Y-1043571D01*
X6266428Y-1072143D01*
X6252143Y-1086429D01*
X6223571Y-1100714D01*
X6180714Y-1100714D01*
X6452143Y-1100714D02*
X6423571Y-1086429D01*
X6409286Y-1057857D01*
X6409286Y-800714D01*
X6680714Y-1086429D02*
X6652143Y-1100714D01*
X6595000Y-1100714D01*
X6566428Y-1086429D01*
X6552143Y-1057857D01*
X6552143Y-943571D01*
X6566428Y-915000D01*
X6595000Y-900714D01*
X6652143Y-900714D01*
X6680714Y-915000D01*
X6695000Y-943571D01*
X6695000Y-972143D01*
X6552143Y-1000714D01*
X6809286Y-1086429D02*
X6837857Y-1100714D01*
X6895000Y-1100714D01*
X6923571Y-1086429D01*
X6937857Y-1057857D01*
X6937857Y-1043571D01*
X6923571Y-1015000D01*
X6895000Y-1000714D01*
X6852143Y-1000714D01*
X6823571Y-986429D01*
X6809286Y-957857D01*
X6809286Y-943571D01*
X6823571Y-915000D01*
X6852143Y-900714D01*
X6895000Y-900714D01*
X6923571Y-915000D01*
X7037857Y-1215000D02*
X7052143Y-1200714D01*
X7080714Y-1157857D01*
X7095000Y-1129286D01*
X7109286Y-1086429D01*
X7123571Y-1015000D01*
X7123571Y-957857D01*
X7109286Y-886429D01*
X7095000Y-843571D01*
X7080714Y-815000D01*
X7052143Y-772143D01*
X7037857Y-757857D01*
X-5000Y-1361000D02*
G75*
G03X-5000Y-1361000I-27500J0D01*
G01*
X323571Y-1196714D02*
X352143Y-1196714D01*
X380714Y-1211000D01*
X395000Y-1225286D01*
X409286Y-1253857D01*
X423571Y-1311000D01*
X423571Y-1382429D01*
X409286Y-1439571D01*
X395000Y-1468143D01*
X380714Y-1482429D01*
X352143Y-1496714D01*
X323571Y-1496714D01*
X295000Y-1482429D01*
X280714Y-1468143D01*
X266429Y-1439571D01*
X252143Y-1382429D01*
X252143Y-1311000D01*
X266429Y-1253857D01*
X280714Y-1225286D01*
X295000Y-1211000D01*
X323571Y-1196714D01*
X552143Y-1468143D02*
X566429Y-1482429D01*
X552143Y-1496714D01*
X537857Y-1482429D01*
X552143Y-1468143D01*
X552143Y-1496714D01*
X837857Y-1196714D02*
X695000Y-1196714D01*
X680714Y-1339572D01*
X695000Y-1325286D01*
X723571Y-1311000D01*
X795000Y-1311000D01*
X823571Y-1325286D01*
X837857Y-1339572D01*
X852143Y-1368143D01*
X852143Y-1439571D01*
X837857Y-1468143D01*
X823571Y-1482429D01*
X795000Y-1496714D01*
X723571Y-1496714D01*
X695000Y-1482429D01*
X680714Y-1468143D01*
X1123571Y-1196714D02*
X980714Y-1196714D01*
X966428Y-1339572D01*
X980714Y-1325286D01*
X1009286Y-1311000D01*
X1080714Y-1311000D01*
X1109286Y-1325286D01*
X1123571Y-1339572D01*
X1137857Y-1368143D01*
X1137857Y-1439571D01*
X1123571Y-1468143D01*
X1109286Y-1482429D01*
X1080714Y-1496714D01*
X1009286Y-1496714D01*
X980714Y-1482429D01*
X966428Y-1468143D01*
X1266429Y-1496714D02*
X1266429Y-1296714D01*
X1266429Y-1325286D02*
X1280714Y-1311000D01*
X1309286Y-1296714D01*
X1352143Y-1296714D01*
X1380714Y-1311000D01*
X1395000Y-1339572D01*
X1395000Y-1496714D01*
X1395000Y-1339572D02*
X1409286Y-1311000D01*
X1437857Y-1296714D01*
X1480714Y-1296714D01*
X1509286Y-1311000D01*
X1523571Y-1339572D01*
X1523571Y-1496714D01*
X1666428Y-1496714D02*
X1666428Y-1296714D01*
X1666428Y-1325286D02*
X1680714Y-1311000D01*
X1709286Y-1296714D01*
X1752143Y-1296714D01*
X1780714Y-1311000D01*
X1795000Y-1339572D01*
X1795000Y-1496714D01*
X1795000Y-1339572D02*
X1809286Y-1311000D01*
X1837857Y-1296714D01*
X1880714Y-1296714D01*
X1909286Y-1311000D01*
X1923571Y-1339572D01*
X1923571Y-1496714D01*
X2509286Y-1182429D02*
X2252143Y-1568143D01*
X2895000Y-1196714D02*
X2923571Y-1196714D01*
X2952143Y-1211000D01*
X2966428Y-1225286D01*
X2980714Y-1253857D01*
X2995000Y-1311000D01*
X2995000Y-1382429D01*
X2980714Y-1439571D01*
X2966428Y-1468143D01*
X2952143Y-1482429D01*
X2923571Y-1496714D01*
X2895000Y-1496714D01*
X2866428Y-1482429D01*
X2852143Y-1468143D01*
X2837857Y-1439571D01*
X2823571Y-1382429D01*
X2823571Y-1311000D01*
X2837857Y-1253857D01*
X2852143Y-1225286D01*
X2866428Y-1211000D01*
X2895000Y-1196714D01*
X3123571Y-1468143D02*
X3137857Y-1482429D01*
X3123571Y-1496714D01*
X3109286Y-1482429D01*
X3123571Y-1468143D01*
X3123571Y-1496714D01*
X3323571Y-1196714D02*
X3352143Y-1196714D01*
X3380714Y-1211000D01*
X3395000Y-1225286D01*
X3409285Y-1253857D01*
X3423571Y-1311000D01*
X3423571Y-1382429D01*
X3409285Y-1439571D01*
X3395000Y-1468143D01*
X3380714Y-1482429D01*
X3352143Y-1496714D01*
X3323571Y-1496714D01*
X3295000Y-1482429D01*
X3280714Y-1468143D01*
X3266428Y-1439571D01*
X3252143Y-1382429D01*
X3252143Y-1311000D01*
X3266428Y-1253857D01*
X3280714Y-1225286D01*
X3295000Y-1211000D01*
X3323571Y-1196714D01*
X3537857Y-1225286D02*
X3552143Y-1211000D01*
X3580714Y-1196714D01*
X3652143Y-1196714D01*
X3680714Y-1211000D01*
X3695000Y-1225286D01*
X3709285Y-1253857D01*
X3709285Y-1282429D01*
X3695000Y-1325286D01*
X3523571Y-1496714D01*
X3709285Y-1496714D01*
X3823571Y-1225286D02*
X3837857Y-1211000D01*
X3866428Y-1196714D01*
X3937857Y-1196714D01*
X3966428Y-1211000D01*
X3980714Y-1225286D01*
X3995000Y-1253857D01*
X3995000Y-1282429D01*
X3980714Y-1325286D01*
X3809285Y-1496714D01*
X3995000Y-1496714D01*
X4109286Y-1196714D02*
X4109286Y-1253857D01*
X4223571Y-1196714D02*
X4223571Y-1253857D01*
X4666428Y-1611000D02*
X4652143Y-1596714D01*
X4623571Y-1553857D01*
X4609286Y-1525286D01*
X4595000Y-1482429D01*
X4580714Y-1411000D01*
X4580714Y-1353857D01*
X4595000Y-1282429D01*
X4609286Y-1239572D01*
X4623571Y-1211000D01*
X4652143Y-1168143D01*
X4666428Y-1153857D01*
X4837857Y-1196714D02*
X4866428Y-1196714D01*
X4895000Y-1211000D01*
X4909286Y-1225286D01*
X4923571Y-1253857D01*
X4937857Y-1311000D01*
X4937857Y-1382429D01*
X4923571Y-1439571D01*
X4909286Y-1468143D01*
X4895000Y-1482429D01*
X4866428Y-1496714D01*
X4837857Y-1496714D01*
X4809286Y-1482429D01*
X4795000Y-1468143D01*
X4780714Y-1439571D01*
X4766428Y-1382429D01*
X4766428Y-1311000D01*
X4780714Y-1253857D01*
X4795000Y-1225286D01*
X4809286Y-1211000D01*
X4837857Y-1196714D01*
X5295000Y-1496714D02*
X5295000Y-1196714D01*
X5423571Y-1496714D02*
X5423571Y-1339572D01*
X5409286Y-1311000D01*
X5380714Y-1296714D01*
X5337857Y-1296714D01*
X5309286Y-1311000D01*
X5295000Y-1325286D01*
X5609285Y-1496714D02*
X5580714Y-1482429D01*
X5566428Y-1468143D01*
X5552143Y-1439571D01*
X5552143Y-1353857D01*
X5566428Y-1325286D01*
X5580714Y-1311000D01*
X5609285Y-1296714D01*
X5652143Y-1296714D01*
X5680714Y-1311000D01*
X5695000Y-1325286D01*
X5709285Y-1353857D01*
X5709285Y-1439571D01*
X5695000Y-1468143D01*
X5680714Y-1482429D01*
X5652143Y-1496714D01*
X5609285Y-1496714D01*
X5880714Y-1496714D02*
X5852143Y-1482429D01*
X5837857Y-1453857D01*
X5837857Y-1196714D01*
X6109286Y-1482429D02*
X6080714Y-1496714D01*
X6023571Y-1496714D01*
X5995000Y-1482429D01*
X5980714Y-1453857D01*
X5980714Y-1339572D01*
X5995000Y-1311000D01*
X6023571Y-1296714D01*
X6080714Y-1296714D01*
X6109286Y-1311000D01*
X6123571Y-1339572D01*
X6123571Y-1368143D01*
X5980714Y-1396714D01*
X6237857Y-1482429D02*
X6266428Y-1496714D01*
X6323571Y-1496714D01*
X6352143Y-1482429D01*
X6366428Y-1453857D01*
X6366428Y-1439571D01*
X6352143Y-1411000D01*
X6323571Y-1396714D01*
X6280714Y-1396714D01*
X6252143Y-1382429D01*
X6237857Y-1353857D01*
X6237857Y-1339572D01*
X6252143Y-1311000D01*
X6280714Y-1296714D01*
X6323571Y-1296714D01*
X6352143Y-1311000D01*
X6723571Y-1382429D02*
X6952143Y-1382429D01*
X6837857Y-1496714D02*
X6837857Y-1268143D01*
X7309286Y-1225286D02*
X7323571Y-1211000D01*
X7352143Y-1196714D01*
X7423571Y-1196714D01*
X7452143Y-1211000D01*
X7466428Y-1225286D01*
X7480714Y-1253857D01*
X7480714Y-1282429D01*
X7466428Y-1325286D01*
X7295000Y-1496714D01*
X7480714Y-1496714D01*
X7823571Y-1482429D02*
X7852143Y-1496714D01*
X7909285Y-1496714D01*
X7937857Y-1482429D01*
X7952143Y-1453857D01*
X7952143Y-1439571D01*
X7937857Y-1411000D01*
X7909285Y-1396714D01*
X7866428Y-1396714D01*
X7837857Y-1382429D01*
X7823571Y-1353857D01*
X7823571Y-1339572D01*
X7837857Y-1311000D01*
X7866428Y-1296714D01*
X7909285Y-1296714D01*
X7937857Y-1311000D01*
X8123571Y-1496714D02*
X8095000Y-1482429D01*
X8080714Y-1453857D01*
X8080714Y-1196714D01*
X8280714Y-1496714D02*
X8252143Y-1482429D01*
X8237857Y-1468143D01*
X8223571Y-1439571D01*
X8223571Y-1353857D01*
X8237857Y-1325286D01*
X8252143Y-1311000D01*
X8280714Y-1296714D01*
X8323571Y-1296714D01*
X8352143Y-1311000D01*
X8366428Y-1325286D01*
X8380714Y-1353857D01*
X8380714Y-1439571D01*
X8366428Y-1468143D01*
X8352143Y-1482429D01*
X8323571Y-1496714D01*
X8280714Y-1496714D01*
X8466428Y-1296714D02*
X8580714Y-1296714D01*
X8509286Y-1196714D02*
X8509286Y-1453857D01*
X8523571Y-1482429D01*
X8552143Y-1496714D01*
X8580714Y-1496714D01*
X8666429Y-1482429D02*
X8695000Y-1496714D01*
X8752143Y-1496714D01*
X8780714Y-1482429D01*
X8795000Y-1453857D01*
X8795000Y-1439571D01*
X8780714Y-1411000D01*
X8752143Y-1396714D01*
X8709286Y-1396714D01*
X8680714Y-1382429D01*
X8666429Y-1353857D01*
X8666429Y-1339572D01*
X8680714Y-1311000D01*
X8709286Y-1296714D01*
X8752143Y-1296714D01*
X8780714Y-1311000D01*
X8895000Y-1611000D02*
X8909286Y-1596714D01*
X8937857Y-1553857D01*
X8952143Y-1525286D01*
X8966428Y-1482429D01*
X8980714Y-1411000D01*
X8980714Y-1353857D01*
X8966428Y-1282429D01*
X8952143Y-1239572D01*
X8937857Y-1211000D01*
X8909286Y-1168143D01*
X8895000Y-1153857D01*
X-42500Y-1719500D02*
X-42500Y-1794500D01*
X-80000Y-1757000D02*
X-5000Y-1757000D01*
X323571Y-1592714D02*
X352143Y-1592714D01*
X380714Y-1607000D01*
X395000Y-1621286D01*
X409286Y-1649857D01*
X423571Y-1707000D01*
X423571Y-1778429D01*
X409286Y-1835571D01*
X395000Y-1864143D01*
X380714Y-1878429D01*
X352143Y-1892714D01*
X323571Y-1892714D01*
X295000Y-1878429D01*
X280714Y-1864143D01*
X266429Y-1835571D01*
X252143Y-1778429D01*
X252143Y-1707000D01*
X266429Y-1649857D01*
X280714Y-1621286D01*
X295000Y-1607000D01*
X323571Y-1592714D01*
X552143Y-1864143D02*
X566429Y-1878429D01*
X552143Y-1892714D01*
X537857Y-1878429D01*
X552143Y-1864143D01*
X552143Y-1892714D01*
X666428Y-1592714D02*
X866428Y-1592714D01*
X737857Y-1892714D01*
X1123571Y-1592714D02*
X980714Y-1592714D01*
X966428Y-1735571D01*
X980714Y-1721286D01*
X1009286Y-1707000D01*
X1080714Y-1707000D01*
X1109286Y-1721286D01*
X1123571Y-1735571D01*
X1137857Y-1764143D01*
X1137857Y-1835571D01*
X1123571Y-1864143D01*
X1109286Y-1878429D01*
X1080714Y-1892714D01*
X1009286Y-1892714D01*
X980714Y-1878429D01*
X966428Y-1864143D01*
X1266429Y-1892714D02*
X1266429Y-1692714D01*
X1266429Y-1721286D02*
X1280714Y-1707000D01*
X1309286Y-1692714D01*
X1352143Y-1692714D01*
X1380714Y-1707000D01*
X1395000Y-1735571D01*
X1395000Y-1892714D01*
X1395000Y-1735571D02*
X1409286Y-1707000D01*
X1437857Y-1692714D01*
X1480714Y-1692714D01*
X1509286Y-1707000D01*
X1523571Y-1735571D01*
X1523571Y-1892714D01*
X1666428Y-1892714D02*
X1666428Y-1692714D01*
X1666428Y-1721286D02*
X1680714Y-1707000D01*
X1709286Y-1692714D01*
X1752143Y-1692714D01*
X1780714Y-1707000D01*
X1795000Y-1735571D01*
X1795000Y-1892714D01*
X1795000Y-1735571D02*
X1809286Y-1707000D01*
X1837857Y-1692714D01*
X1880714Y-1692714D01*
X1909286Y-1707000D01*
X1923571Y-1735571D01*
X1923571Y-1892714D01*
X2509286Y-1578429D02*
X2252143Y-1964143D01*
X2895000Y-1592714D02*
X2923571Y-1592714D01*
X2952143Y-1607000D01*
X2966428Y-1621286D01*
X2980714Y-1649857D01*
X2995000Y-1707000D01*
X2995000Y-1778429D01*
X2980714Y-1835571D01*
X2966428Y-1864143D01*
X2952143Y-1878429D01*
X2923571Y-1892714D01*
X2895000Y-1892714D01*
X2866428Y-1878429D01*
X2852143Y-1864143D01*
X2837857Y-1835571D01*
X2823571Y-1778429D01*
X2823571Y-1707000D01*
X2837857Y-1649857D01*
X2852143Y-1621286D01*
X2866428Y-1607000D01*
X2895000Y-1592714D01*
X3123571Y-1864143D02*
X3137857Y-1878429D01*
X3123571Y-1892714D01*
X3109286Y-1878429D01*
X3123571Y-1864143D01*
X3123571Y-1892714D01*
X3323571Y-1592714D02*
X3352143Y-1592714D01*
X3380714Y-1607000D01*
X3395000Y-1621286D01*
X3409285Y-1649857D01*
X3423571Y-1707000D01*
X3423571Y-1778429D01*
X3409285Y-1835571D01*
X3395000Y-1864143D01*
X3380714Y-1878429D01*
X3352143Y-1892714D01*
X3323571Y-1892714D01*
X3295000Y-1878429D01*
X3280714Y-1864143D01*
X3266428Y-1835571D01*
X3252143Y-1778429D01*
X3252143Y-1707000D01*
X3266428Y-1649857D01*
X3280714Y-1621286D01*
X3295000Y-1607000D01*
X3323571Y-1592714D01*
X3523571Y-1592714D02*
X3709285Y-1592714D01*
X3609285Y-1707000D01*
X3652143Y-1707000D01*
X3680714Y-1721286D01*
X3695000Y-1735571D01*
X3709285Y-1764143D01*
X3709285Y-1835571D01*
X3695000Y-1864143D01*
X3680714Y-1878429D01*
X3652143Y-1892714D01*
X3566428Y-1892714D01*
X3537857Y-1878429D01*
X3523571Y-1864143D01*
X3895000Y-1592714D02*
X3923571Y-1592714D01*
X3952143Y-1607000D01*
X3966428Y-1621286D01*
X3980714Y-1649857D01*
X3995000Y-1707000D01*
X3995000Y-1778429D01*
X3980714Y-1835571D01*
X3966428Y-1864143D01*
X3952143Y-1878429D01*
X3923571Y-1892714D01*
X3895000Y-1892714D01*
X3866428Y-1878429D01*
X3852143Y-1864143D01*
X3837857Y-1835571D01*
X3823571Y-1778429D01*
X3823571Y-1707000D01*
X3837857Y-1649857D01*
X3852143Y-1621286D01*
X3866428Y-1607000D01*
X3895000Y-1592714D01*
X4109286Y-1592714D02*
X4109286Y-1649857D01*
X4223571Y-1592714D02*
X4223571Y-1649857D01*
X4666428Y-2007000D02*
X4652143Y-1992714D01*
X4623571Y-1949857D01*
X4609286Y-1921286D01*
X4595000Y-1878429D01*
X4580714Y-1807000D01*
X4580714Y-1749857D01*
X4595000Y-1678429D01*
X4609286Y-1635571D01*
X4623571Y-1607000D01*
X4652143Y-1564143D01*
X4666428Y-1549857D01*
X4837857Y-1592714D02*
X4866428Y-1592714D01*
X4895000Y-1607000D01*
X4909286Y-1621286D01*
X4923571Y-1649857D01*
X4937857Y-1707000D01*
X4937857Y-1778429D01*
X4923571Y-1835571D01*
X4909286Y-1864143D01*
X4895000Y-1878429D01*
X4866428Y-1892714D01*
X4837857Y-1892714D01*
X4809286Y-1878429D01*
X4795000Y-1864143D01*
X4780714Y-1835571D01*
X4766428Y-1778429D01*
X4766428Y-1707000D01*
X4780714Y-1649857D01*
X4795000Y-1621286D01*
X4809286Y-1607000D01*
X4837857Y-1592714D01*
X5295000Y-1892714D02*
X5295000Y-1592714D01*
X5423571Y-1892714D02*
X5423571Y-1735571D01*
X5409286Y-1707000D01*
X5380714Y-1692714D01*
X5337857Y-1692714D01*
X5309286Y-1707000D01*
X5295000Y-1721286D01*
X5609285Y-1892714D02*
X5580714Y-1878429D01*
X5566428Y-1864143D01*
X5552143Y-1835571D01*
X5552143Y-1749857D01*
X5566428Y-1721286D01*
X5580714Y-1707000D01*
X5609285Y-1692714D01*
X5652143Y-1692714D01*
X5680714Y-1707000D01*
X5695000Y-1721286D01*
X5709285Y-1749857D01*
X5709285Y-1835571D01*
X5695000Y-1864143D01*
X5680714Y-1878429D01*
X5652143Y-1892714D01*
X5609285Y-1892714D01*
X5880714Y-1892714D02*
X5852143Y-1878429D01*
X5837857Y-1849857D01*
X5837857Y-1592714D01*
X6109286Y-1878429D02*
X6080714Y-1892714D01*
X6023571Y-1892714D01*
X5995000Y-1878429D01*
X5980714Y-1849857D01*
X5980714Y-1735571D01*
X5995000Y-1707000D01*
X6023571Y-1692714D01*
X6080714Y-1692714D01*
X6109286Y-1707000D01*
X6123571Y-1735571D01*
X6123571Y-1764143D01*
X5980714Y-1792714D01*
X6237857Y-1878429D02*
X6266428Y-1892714D01*
X6323571Y-1892714D01*
X6352143Y-1878429D01*
X6366428Y-1849857D01*
X6366428Y-1835571D01*
X6352143Y-1807000D01*
X6323571Y-1792714D01*
X6280714Y-1792714D01*
X6252143Y-1778429D01*
X6237857Y-1749857D01*
X6237857Y-1735571D01*
X6252143Y-1707000D01*
X6280714Y-1692714D01*
X6323571Y-1692714D01*
X6352143Y-1707000D01*
X6723571Y-1778429D02*
X6952143Y-1778429D01*
X6837857Y-1892714D02*
X6837857Y-1664143D01*
X7309286Y-1621286D02*
X7323571Y-1607000D01*
X7352143Y-1592714D01*
X7423571Y-1592714D01*
X7452143Y-1607000D01*
X7466428Y-1621286D01*
X7480714Y-1649857D01*
X7480714Y-1678429D01*
X7466428Y-1721286D01*
X7295000Y-1892714D01*
X7480714Y-1892714D01*
X7823571Y-1878429D02*
X7852143Y-1892714D01*
X7909285Y-1892714D01*
X7937857Y-1878429D01*
X7952143Y-1849857D01*
X7952143Y-1835571D01*
X7937857Y-1807000D01*
X7909285Y-1792714D01*
X7866428Y-1792714D01*
X7837857Y-1778429D01*
X7823571Y-1749857D01*
X7823571Y-1735571D01*
X7837857Y-1707000D01*
X7866428Y-1692714D01*
X7909285Y-1692714D01*
X7937857Y-1707000D01*
X8123571Y-1892714D02*
X8095000Y-1878429D01*
X8080714Y-1849857D01*
X8080714Y-1592714D01*
X8280714Y-1892714D02*
X8252143Y-1878429D01*
X8237857Y-1864143D01*
X8223571Y-1835571D01*
X8223571Y-1749857D01*
X8237857Y-1721286D01*
X8252143Y-1707000D01*
X8280714Y-1692714D01*
X8323571Y-1692714D01*
X8352143Y-1707000D01*
X8366428Y-1721286D01*
X8380714Y-1749857D01*
X8380714Y-1835571D01*
X8366428Y-1864143D01*
X8352143Y-1878429D01*
X8323571Y-1892714D01*
X8280714Y-1892714D01*
X8466428Y-1692714D02*
X8580714Y-1692714D01*
X8509286Y-1592714D02*
X8509286Y-1849857D01*
X8523571Y-1878429D01*
X8552143Y-1892714D01*
X8580714Y-1892714D01*
X8666429Y-1878429D02*
X8695000Y-1892714D01*
X8752143Y-1892714D01*
X8780714Y-1878429D01*
X8795000Y-1849857D01*
X8795000Y-1835571D01*
X8780714Y-1807000D01*
X8752143Y-1792714D01*
X8709286Y-1792714D01*
X8680714Y-1778429D01*
X8666429Y-1749857D01*
X8666429Y-1735571D01*
X8680714Y-1707000D01*
X8709286Y-1692714D01*
X8752143Y-1692714D01*
X8780714Y-1707000D01*
X8895000Y-2007000D02*
X8909286Y-1992714D01*
X8937857Y-1949857D01*
X8952143Y-1921286D01*
X8966428Y-1878429D01*
X8980714Y-1807000D01*
X8980714Y-1749857D01*
X8966428Y-1678429D01*
X8952143Y-1635571D01*
X8937857Y-1607000D01*
X8909286Y-1564143D01*
X8895000Y-1549857D01*
X-16159Y-2179941D02*
X-16159Y-2126059D01*
X-70041Y-2126059D01*
X-70041Y-2179941D01*
X-16159Y-2179941D01*
X323571Y-1988714D02*
X352143Y-1988714D01*
X380714Y-2003000D01*
X395000Y-2017286D01*
X409286Y-2045857D01*
X423571Y-2103000D01*
X423571Y-2174429D01*
X409286Y-2231572D01*
X395000Y-2260143D01*
X380714Y-2274429D01*
X352143Y-2288714D01*
X323571Y-2288714D01*
X295000Y-2274429D01*
X280714Y-2260143D01*
X266429Y-2231572D01*
X252143Y-2174429D01*
X252143Y-2103000D01*
X266429Y-2045857D01*
X280714Y-2017286D01*
X295000Y-2003000D01*
X323571Y-1988714D01*
X552143Y-2260143D02*
X566429Y-2274429D01*
X552143Y-2288714D01*
X537857Y-2274429D01*
X552143Y-2260143D01*
X552143Y-2288714D01*
X666428Y-1988714D02*
X866428Y-1988714D01*
X737857Y-2288714D01*
X1109286Y-1988714D02*
X1052143Y-1988714D01*
X1023571Y-2003000D01*
X1009286Y-2017286D01*
X980714Y-2060143D01*
X966428Y-2117286D01*
X966428Y-2231572D01*
X980714Y-2260143D01*
X995000Y-2274429D01*
X1023571Y-2288714D01*
X1080714Y-2288714D01*
X1109286Y-2274429D01*
X1123571Y-2260143D01*
X1137857Y-2231572D01*
X1137857Y-2160143D01*
X1123571Y-2131572D01*
X1109286Y-2117286D01*
X1080714Y-2103000D01*
X1023571Y-2103000D01*
X995000Y-2117286D01*
X980714Y-2131572D01*
X966428Y-2160143D01*
X1266429Y-2288714D02*
X1266429Y-2088714D01*
X1266429Y-2117286D02*
X1280714Y-2103000D01*
X1309286Y-2088714D01*
X1352143Y-2088714D01*
X1380714Y-2103000D01*
X1395000Y-2131572D01*
X1395000Y-2288714D01*
X1395000Y-2131572D02*
X1409286Y-2103000D01*
X1437857Y-2088714D01*
X1480714Y-2088714D01*
X1509286Y-2103000D01*
X1523571Y-2131572D01*
X1523571Y-2288714D01*
X1666428Y-2288714D02*
X1666428Y-2088714D01*
X1666428Y-2117286D02*
X1680714Y-2103000D01*
X1709286Y-2088714D01*
X1752143Y-2088714D01*
X1780714Y-2103000D01*
X1795000Y-2131572D01*
X1795000Y-2288714D01*
X1795000Y-2131572D02*
X1809286Y-2103000D01*
X1837857Y-2088714D01*
X1880714Y-2088714D01*
X1909286Y-2103000D01*
X1923571Y-2131572D01*
X1923571Y-2288714D01*
X2509286Y-1974429D02*
X2252143Y-2360143D01*
X2895000Y-1988714D02*
X2923571Y-1988714D01*
X2952143Y-2003000D01*
X2966428Y-2017286D01*
X2980714Y-2045857D01*
X2995000Y-2103000D01*
X2995000Y-2174429D01*
X2980714Y-2231572D01*
X2966428Y-2260143D01*
X2952143Y-2274429D01*
X2923571Y-2288714D01*
X2895000Y-2288714D01*
X2866428Y-2274429D01*
X2852143Y-2260143D01*
X2837857Y-2231572D01*
X2823571Y-2174429D01*
X2823571Y-2103000D01*
X2837857Y-2045857D01*
X2852143Y-2017286D01*
X2866428Y-2003000D01*
X2895000Y-1988714D01*
X3123571Y-2260143D02*
X3137857Y-2274429D01*
X3123571Y-2288714D01*
X3109286Y-2274429D01*
X3123571Y-2260143D01*
X3123571Y-2288714D01*
X3323571Y-1988714D02*
X3352143Y-1988714D01*
X3380714Y-2003000D01*
X3395000Y-2017286D01*
X3409285Y-2045857D01*
X3423571Y-2103000D01*
X3423571Y-2174429D01*
X3409285Y-2231572D01*
X3395000Y-2260143D01*
X3380714Y-2274429D01*
X3352143Y-2288714D01*
X3323571Y-2288714D01*
X3295000Y-2274429D01*
X3280714Y-2260143D01*
X3266428Y-2231572D01*
X3252143Y-2174429D01*
X3252143Y-2103000D01*
X3266428Y-2045857D01*
X3280714Y-2017286D01*
X3295000Y-2003000D01*
X3323571Y-1988714D01*
X3523571Y-1988714D02*
X3709285Y-1988714D01*
X3609285Y-2103000D01*
X3652143Y-2103000D01*
X3680714Y-2117286D01*
X3695000Y-2131572D01*
X3709285Y-2160143D01*
X3709285Y-2231572D01*
X3695000Y-2260143D01*
X3680714Y-2274429D01*
X3652143Y-2288714D01*
X3566428Y-2288714D01*
X3537857Y-2274429D01*
X3523571Y-2260143D01*
X3895000Y-1988714D02*
X3923571Y-1988714D01*
X3952143Y-2003000D01*
X3966428Y-2017286D01*
X3980714Y-2045857D01*
X3995000Y-2103000D01*
X3995000Y-2174429D01*
X3980714Y-2231572D01*
X3966428Y-2260143D01*
X3952143Y-2274429D01*
X3923571Y-2288714D01*
X3895000Y-2288714D01*
X3866428Y-2274429D01*
X3852143Y-2260143D01*
X3837857Y-2231572D01*
X3823571Y-2174429D01*
X3823571Y-2103000D01*
X3837857Y-2045857D01*
X3852143Y-2017286D01*
X3866428Y-2003000D01*
X3895000Y-1988714D01*
X4109286Y-1988714D02*
X4109286Y-2045857D01*
X4223571Y-1988714D02*
X4223571Y-2045857D01*
X4666428Y-2403000D02*
X4652143Y-2388714D01*
X4623571Y-2345857D01*
X4609286Y-2317286D01*
X4595000Y-2274429D01*
X4580714Y-2203000D01*
X4580714Y-2145857D01*
X4595000Y-2074429D01*
X4609286Y-2031571D01*
X4623571Y-2003000D01*
X4652143Y-1960143D01*
X4666428Y-1945857D01*
X4937857Y-2288714D02*
X4766428Y-2288714D01*
X4852143Y-2288714D02*
X4852143Y-1988714D01*
X4823571Y-2031571D01*
X4795000Y-2060143D01*
X4766428Y-2074429D01*
X5123571Y-1988714D02*
X5152143Y-1988714D01*
X5180714Y-2003000D01*
X5195000Y-2017286D01*
X5209286Y-2045857D01*
X5223571Y-2103000D01*
X5223571Y-2174429D01*
X5209286Y-2231572D01*
X5195000Y-2260143D01*
X5180714Y-2274429D01*
X5152143Y-2288714D01*
X5123571Y-2288714D01*
X5095000Y-2274429D01*
X5080714Y-2260143D01*
X5066428Y-2231572D01*
X5052143Y-2174429D01*
X5052143Y-2103000D01*
X5066428Y-2045857D01*
X5080714Y-2017286D01*
X5095000Y-2003000D01*
X5123571Y-1988714D01*
X5580714Y-2288714D02*
X5580714Y-1988714D01*
X5709285Y-2288714D02*
X5709285Y-2131572D01*
X5695000Y-2103000D01*
X5666428Y-2088714D01*
X5623571Y-2088714D01*
X5595000Y-2103000D01*
X5580714Y-2117286D01*
X5895000Y-2288714D02*
X5866428Y-2274429D01*
X5852143Y-2260143D01*
X5837857Y-2231572D01*
X5837857Y-2145857D01*
X5852143Y-2117286D01*
X5866428Y-2103000D01*
X5895000Y-2088714D01*
X5937857Y-2088714D01*
X5966428Y-2103000D01*
X5980714Y-2117286D01*
X5995000Y-2145857D01*
X5995000Y-2231572D01*
X5980714Y-2260143D01*
X5966428Y-2274429D01*
X5937857Y-2288714D01*
X5895000Y-2288714D01*
X6166428Y-2288714D02*
X6137857Y-2274429D01*
X6123571Y-2245857D01*
X6123571Y-1988714D01*
X6395000Y-2274429D02*
X6366428Y-2288714D01*
X6309286Y-2288714D01*
X6280714Y-2274429D01*
X6266428Y-2245857D01*
X6266428Y-2131572D01*
X6280714Y-2103000D01*
X6309286Y-2088714D01*
X6366428Y-2088714D01*
X6395000Y-2103000D01*
X6409286Y-2131572D01*
X6409286Y-2160143D01*
X6266428Y-2188714D01*
X6523571Y-2274429D02*
X6552143Y-2288714D01*
X6609286Y-2288714D01*
X6637857Y-2274429D01*
X6652143Y-2245857D01*
X6652143Y-2231572D01*
X6637857Y-2203000D01*
X6609286Y-2188714D01*
X6566428Y-2188714D01*
X6537857Y-2174429D01*
X6523571Y-2145857D01*
X6523571Y-2131572D01*
X6537857Y-2103000D01*
X6566428Y-2088714D01*
X6609286Y-2088714D01*
X6637857Y-2103000D01*
X6752143Y-2403000D02*
X6766428Y-2388714D01*
X6795000Y-2345857D01*
X6809286Y-2317286D01*
X6823571Y-2274429D01*
X6837857Y-2203000D01*
X6837857Y-2145857D01*
X6823571Y-2074429D01*
X6809286Y-2031571D01*
X6795000Y-2003000D01*
X6766428Y-1960143D01*
X6752143Y-1945857D01*
X-45005Y-2589005D02*
X-5000Y-2549000D01*
X-45005Y-2508995D01*
X-85010Y-2549000D01*
X-45005Y-2589005D01*
X323571Y-2384714D02*
X352143Y-2384714D01*
X380714Y-2399000D01*
X395000Y-2413286D01*
X409286Y-2441857D01*
X423571Y-2499000D01*
X423571Y-2570429D01*
X409286Y-2627572D01*
X395000Y-2656143D01*
X380714Y-2670429D01*
X352143Y-2684714D01*
X323571Y-2684714D01*
X295000Y-2670429D01*
X280714Y-2656143D01*
X266429Y-2627572D01*
X252143Y-2570429D01*
X252143Y-2499000D01*
X266429Y-2441857D01*
X280714Y-2413286D01*
X295000Y-2399000D01*
X323571Y-2384714D01*
X552143Y-2656143D02*
X566429Y-2670429D01*
X552143Y-2684714D01*
X537857Y-2670429D01*
X552143Y-2656143D01*
X552143Y-2684714D01*
X737857Y-2513286D02*
X709286Y-2499000D01*
X695000Y-2484714D01*
X680714Y-2456143D01*
X680714Y-2441857D01*
X695000Y-2413286D01*
X709286Y-2399000D01*
X737857Y-2384714D01*
X795000Y-2384714D01*
X823571Y-2399000D01*
X837857Y-2413286D01*
X852143Y-2441857D01*
X852143Y-2456143D01*
X837857Y-2484714D01*
X823571Y-2499000D01*
X795000Y-2513286D01*
X737857Y-2513286D01*
X709286Y-2527572D01*
X695000Y-2541857D01*
X680714Y-2570429D01*
X680714Y-2627572D01*
X695000Y-2656143D01*
X709286Y-2670429D01*
X737857Y-2684714D01*
X795000Y-2684714D01*
X823571Y-2670429D01*
X837857Y-2656143D01*
X852143Y-2627572D01*
X852143Y-2570429D01*
X837857Y-2541857D01*
X823571Y-2527572D01*
X795000Y-2513286D01*
X1037857Y-2384714D02*
X1066429Y-2384714D01*
X1095000Y-2399000D01*
X1109286Y-2413286D01*
X1123571Y-2441857D01*
X1137857Y-2499000D01*
X1137857Y-2570429D01*
X1123571Y-2627572D01*
X1109286Y-2656143D01*
X1095000Y-2670429D01*
X1066429Y-2684714D01*
X1037857Y-2684714D01*
X1009286Y-2670429D01*
X995000Y-2656143D01*
X980714Y-2627572D01*
X966428Y-2570429D01*
X966428Y-2499000D01*
X980714Y-2441857D01*
X995000Y-2413286D01*
X1009286Y-2399000D01*
X1037857Y-2384714D01*
X1266429Y-2684714D02*
X1266429Y-2484714D01*
X1266429Y-2513286D02*
X1280714Y-2499000D01*
X1309286Y-2484714D01*
X1352143Y-2484714D01*
X1380714Y-2499000D01*
X1395000Y-2527572D01*
X1395000Y-2684714D01*
X1395000Y-2527572D02*
X1409286Y-2499000D01*
X1437857Y-2484714D01*
X1480714Y-2484714D01*
X1509286Y-2499000D01*
X1523571Y-2527572D01*
X1523571Y-2684714D01*
X1666428Y-2684714D02*
X1666428Y-2484714D01*
X1666428Y-2513286D02*
X1680714Y-2499000D01*
X1709286Y-2484714D01*
X1752143Y-2484714D01*
X1780714Y-2499000D01*
X1795000Y-2527572D01*
X1795000Y-2684714D01*
X1795000Y-2527572D02*
X1809286Y-2499000D01*
X1837857Y-2484714D01*
X1880714Y-2484714D01*
X1909286Y-2499000D01*
X1923571Y-2527572D01*
X1923571Y-2684714D01*
X2509286Y-2370429D02*
X2252143Y-2756143D01*
X2895000Y-2384714D02*
X2923571Y-2384714D01*
X2952143Y-2399000D01*
X2966428Y-2413286D01*
X2980714Y-2441857D01*
X2995000Y-2499000D01*
X2995000Y-2570429D01*
X2980714Y-2627572D01*
X2966428Y-2656143D01*
X2952143Y-2670429D01*
X2923571Y-2684714D01*
X2895000Y-2684714D01*
X2866428Y-2670429D01*
X2852143Y-2656143D01*
X2837857Y-2627572D01*
X2823571Y-2570429D01*
X2823571Y-2499000D01*
X2837857Y-2441857D01*
X2852143Y-2413286D01*
X2866428Y-2399000D01*
X2895000Y-2384714D01*
X3123571Y-2656143D02*
X3137857Y-2670429D01*
X3123571Y-2684714D01*
X3109286Y-2670429D01*
X3123571Y-2656143D01*
X3123571Y-2684714D01*
X3323571Y-2384714D02*
X3352143Y-2384714D01*
X3380714Y-2399000D01*
X3395000Y-2413286D01*
X3409285Y-2441857D01*
X3423571Y-2499000D01*
X3423571Y-2570429D01*
X3409285Y-2627572D01*
X3395000Y-2656143D01*
X3380714Y-2670429D01*
X3352143Y-2684714D01*
X3323571Y-2684714D01*
X3295000Y-2670429D01*
X3280714Y-2656143D01*
X3266428Y-2627572D01*
X3252143Y-2570429D01*
X3252143Y-2499000D01*
X3266428Y-2441857D01*
X3280714Y-2413286D01*
X3295000Y-2399000D01*
X3323571Y-2384714D01*
X3523571Y-2384714D02*
X3709285Y-2384714D01*
X3609285Y-2499000D01*
X3652143Y-2499000D01*
X3680714Y-2513286D01*
X3695000Y-2527572D01*
X3709285Y-2556143D01*
X3709285Y-2627572D01*
X3695000Y-2656143D01*
X3680714Y-2670429D01*
X3652143Y-2684714D01*
X3566428Y-2684714D01*
X3537857Y-2670429D01*
X3523571Y-2656143D01*
X3823571Y-2413286D02*
X3837857Y-2399000D01*
X3866428Y-2384714D01*
X3937857Y-2384714D01*
X3966428Y-2399000D01*
X3980714Y-2413286D01*
X3995000Y-2441857D01*
X3995000Y-2470429D01*
X3980714Y-2513286D01*
X3809285Y-2684714D01*
X3995000Y-2684714D01*
X4109286Y-2384714D02*
X4109286Y-2441857D01*
X4223571Y-2384714D02*
X4223571Y-2441857D01*
X4666428Y-2799000D02*
X4652143Y-2784714D01*
X4623571Y-2741857D01*
X4609286Y-2713286D01*
X4595000Y-2670429D01*
X4580714Y-2599000D01*
X4580714Y-2541857D01*
X4595000Y-2470429D01*
X4609286Y-2427572D01*
X4623571Y-2399000D01*
X4652143Y-2356143D01*
X4666428Y-2341857D01*
X4823571Y-2513286D02*
X4795000Y-2499000D01*
X4780714Y-2484714D01*
X4766428Y-2456143D01*
X4766428Y-2441857D01*
X4780714Y-2413286D01*
X4795000Y-2399000D01*
X4823571Y-2384714D01*
X4880714Y-2384714D01*
X4909286Y-2399000D01*
X4923571Y-2413286D01*
X4937857Y-2441857D01*
X4937857Y-2456143D01*
X4923571Y-2484714D01*
X4909286Y-2499000D01*
X4880714Y-2513286D01*
X4823571Y-2513286D01*
X4795000Y-2527572D01*
X4780714Y-2541857D01*
X4766428Y-2570429D01*
X4766428Y-2627572D01*
X4780714Y-2656143D01*
X4795000Y-2670429D01*
X4823571Y-2684714D01*
X4880714Y-2684714D01*
X4909286Y-2670429D01*
X4923571Y-2656143D01*
X4937857Y-2627572D01*
X4937857Y-2570429D01*
X4923571Y-2541857D01*
X4909286Y-2527572D01*
X4880714Y-2513286D01*
X5295000Y-2684714D02*
X5295000Y-2384714D01*
X5423571Y-2684714D02*
X5423571Y-2527572D01*
X5409286Y-2499000D01*
X5380714Y-2484714D01*
X5337857Y-2484714D01*
X5309286Y-2499000D01*
X5295000Y-2513286D01*
X5609285Y-2684714D02*
X5580714Y-2670429D01*
X5566428Y-2656143D01*
X5552143Y-2627572D01*
X5552143Y-2541857D01*
X5566428Y-2513286D01*
X5580714Y-2499000D01*
X5609285Y-2484714D01*
X5652143Y-2484714D01*
X5680714Y-2499000D01*
X5695000Y-2513286D01*
X5709285Y-2541857D01*
X5709285Y-2627572D01*
X5695000Y-2656143D01*
X5680714Y-2670429D01*
X5652143Y-2684714D01*
X5609285Y-2684714D01*
X5880714Y-2684714D02*
X5852143Y-2670429D01*
X5837857Y-2641857D01*
X5837857Y-2384714D01*
X6109286Y-2670429D02*
X6080714Y-2684714D01*
X6023571Y-2684714D01*
X5995000Y-2670429D01*
X5980714Y-2641857D01*
X5980714Y-2527572D01*
X5995000Y-2499000D01*
X6023571Y-2484714D01*
X6080714Y-2484714D01*
X6109286Y-2499000D01*
X6123571Y-2527572D01*
X6123571Y-2556143D01*
X5980714Y-2584714D01*
X6237857Y-2670429D02*
X6266428Y-2684714D01*
X6323571Y-2684714D01*
X6352143Y-2670429D01*
X6366428Y-2641857D01*
X6366428Y-2627572D01*
X6352143Y-2599000D01*
X6323571Y-2584714D01*
X6280714Y-2584714D01*
X6252143Y-2570429D01*
X6237857Y-2541857D01*
X6237857Y-2527572D01*
X6252143Y-2499000D01*
X6280714Y-2484714D01*
X6323571Y-2484714D01*
X6352143Y-2499000D01*
X6466428Y-2799000D02*
X6480714Y-2784714D01*
X6509286Y-2741857D01*
X6523571Y-2713286D01*
X6537857Y-2670429D01*
X6552143Y-2599000D01*
X6552143Y-2541857D01*
X6537857Y-2470429D01*
X6523571Y-2427572D01*
X6509286Y-2399000D01*
X6480714Y-2356143D01*
X6466428Y-2341857D01*
X-105000Y-2895000D02*
X-5000Y-2995000D01*
X-5000Y-2895000D02*
X-105000Y-2995000D01*
X-5000Y-2945000D02*
G75*
G03X-5000Y-2945000I-50000J0D01*
G01*
X423571Y-3080714D02*
X252143Y-3080714D01*
X337857Y-3080714D02*
X337857Y-2780714D01*
X309286Y-2823571D01*
X280714Y-2852143D01*
X252143Y-2866429D01*
X552143Y-3052143D02*
X566429Y-3066429D01*
X552143Y-3080714D01*
X537857Y-3066429D01*
X552143Y-3052143D01*
X552143Y-3080714D01*
X752143Y-2780714D02*
X780714Y-2780714D01*
X809286Y-2795000D01*
X823571Y-2809286D01*
X837857Y-2837857D01*
X852143Y-2895000D01*
X852143Y-2966429D01*
X837857Y-3023571D01*
X823571Y-3052143D01*
X809286Y-3066429D01*
X780714Y-3080714D01*
X752143Y-3080714D01*
X723571Y-3066429D01*
X709286Y-3052143D01*
X695000Y-3023571D01*
X680714Y-2966429D01*
X680714Y-2895000D01*
X695000Y-2837857D01*
X709286Y-2809286D01*
X723571Y-2795000D01*
X752143Y-2780714D01*
X1037857Y-2780714D02*
X1066429Y-2780714D01*
X1095000Y-2795000D01*
X1109286Y-2809286D01*
X1123571Y-2837857D01*
X1137857Y-2895000D01*
X1137857Y-2966429D01*
X1123571Y-3023571D01*
X1109286Y-3052143D01*
X1095000Y-3066429D01*
X1066429Y-3080714D01*
X1037857Y-3080714D01*
X1009286Y-3066429D01*
X995000Y-3052143D01*
X980714Y-3023571D01*
X966428Y-2966429D01*
X966428Y-2895000D01*
X980714Y-2837857D01*
X995000Y-2809286D01*
X1009286Y-2795000D01*
X1037857Y-2780714D01*
X1266429Y-3080714D02*
X1266429Y-2880714D01*
X1266429Y-2909286D02*
X1280714Y-2895000D01*
X1309286Y-2880714D01*
X1352143Y-2880714D01*
X1380714Y-2895000D01*
X1395000Y-2923571D01*
X1395000Y-3080714D01*
X1395000Y-2923571D02*
X1409286Y-2895000D01*
X1437857Y-2880714D01*
X1480714Y-2880714D01*
X1509286Y-2895000D01*
X1523571Y-2923571D01*
X1523571Y-3080714D01*
X1666428Y-3080714D02*
X1666428Y-2880714D01*
X1666428Y-2909286D02*
X1680714Y-2895000D01*
X1709286Y-2880714D01*
X1752143Y-2880714D01*
X1780714Y-2895000D01*
X1795000Y-2923571D01*
X1795000Y-3080714D01*
X1795000Y-2923571D02*
X1809286Y-2895000D01*
X1837857Y-2880714D01*
X1880714Y-2880714D01*
X1909286Y-2895000D01*
X1923571Y-2923571D01*
X1923571Y-3080714D01*
X2509286Y-2766429D02*
X2252143Y-3152143D01*
X2895000Y-2780714D02*
X2923571Y-2780714D01*
X2952143Y-2795000D01*
X2966428Y-2809286D01*
X2980714Y-2837857D01*
X2995000Y-2895000D01*
X2995000Y-2966429D01*
X2980714Y-3023571D01*
X2966428Y-3052143D01*
X2952143Y-3066429D01*
X2923571Y-3080714D01*
X2895000Y-3080714D01*
X2866428Y-3066429D01*
X2852143Y-3052143D01*
X2837857Y-3023571D01*
X2823571Y-2966429D01*
X2823571Y-2895000D01*
X2837857Y-2837857D01*
X2852143Y-2809286D01*
X2866428Y-2795000D01*
X2895000Y-2780714D01*
X3123571Y-3052143D02*
X3137857Y-3066429D01*
X3123571Y-3080714D01*
X3109286Y-3066429D01*
X3123571Y-3052143D01*
X3123571Y-3080714D01*
X3323571Y-2780714D02*
X3352143Y-2780714D01*
X3380714Y-2795000D01*
X3395000Y-2809286D01*
X3409285Y-2837857D01*
X3423571Y-2895000D01*
X3423571Y-2966429D01*
X3409285Y-3023571D01*
X3395000Y-3052143D01*
X3380714Y-3066429D01*
X3352143Y-3080714D01*
X3323571Y-3080714D01*
X3295000Y-3066429D01*
X3280714Y-3052143D01*
X3266428Y-3023571D01*
X3252143Y-2966429D01*
X3252143Y-2895000D01*
X3266428Y-2837857D01*
X3280714Y-2809286D01*
X3295000Y-2795000D01*
X3323571Y-2780714D01*
X3523571Y-2780714D02*
X3709285Y-2780714D01*
X3609285Y-2895000D01*
X3652143Y-2895000D01*
X3680714Y-2909286D01*
X3695000Y-2923571D01*
X3709285Y-2952143D01*
X3709285Y-3023571D01*
X3695000Y-3052143D01*
X3680714Y-3066429D01*
X3652143Y-3080714D01*
X3566428Y-3080714D01*
X3537857Y-3066429D01*
X3523571Y-3052143D01*
X3852143Y-3080714D02*
X3909285Y-3080714D01*
X3937857Y-3066429D01*
X3952143Y-3052143D01*
X3980714Y-3009286D01*
X3995000Y-2952143D01*
X3995000Y-2837857D01*
X3980714Y-2809286D01*
X3966428Y-2795000D01*
X3937857Y-2780714D01*
X3880714Y-2780714D01*
X3852143Y-2795000D01*
X3837857Y-2809286D01*
X3823571Y-2837857D01*
X3823571Y-2909286D01*
X3837857Y-2937857D01*
X3852143Y-2952143D01*
X3880714Y-2966429D01*
X3937857Y-2966429D01*
X3966428Y-2952143D01*
X3980714Y-2937857D01*
X3995000Y-2909286D01*
X4109286Y-2780714D02*
X4109286Y-2837857D01*
X4223571Y-2780714D02*
X4223571Y-2837857D01*
X4666428Y-3195000D02*
X4652143Y-3180714D01*
X4623571Y-3137857D01*
X4609286Y-3109286D01*
X4595000Y-3066429D01*
X4580714Y-2995000D01*
X4580714Y-2937857D01*
X4595000Y-2866429D01*
X4609286Y-2823571D01*
X4623571Y-2795000D01*
X4652143Y-2752143D01*
X4666428Y-2737857D01*
X4795000Y-3080714D02*
X4852143Y-3080714D01*
X4880714Y-3066429D01*
X4895000Y-3052143D01*
X4923571Y-3009286D01*
X4937857Y-2952143D01*
X4937857Y-2837857D01*
X4923571Y-2809286D01*
X4909286Y-2795000D01*
X4880714Y-2780714D01*
X4823571Y-2780714D01*
X4795000Y-2795000D01*
X4780714Y-2809286D01*
X4766428Y-2837857D01*
X4766428Y-2909286D01*
X4780714Y-2937857D01*
X4795000Y-2952143D01*
X4823571Y-2966429D01*
X4880714Y-2966429D01*
X4909286Y-2952143D01*
X4923571Y-2937857D01*
X4937857Y-2909286D01*
X5295000Y-3080714D02*
X5295000Y-2780714D01*
X5423571Y-3080714D02*
X5423571Y-2923571D01*
X5409286Y-2895000D01*
X5380714Y-2880714D01*
X5337857Y-2880714D01*
X5309286Y-2895000D01*
X5295000Y-2909286D01*
X5609285Y-3080714D02*
X5580714Y-3066429D01*
X5566428Y-3052143D01*
X5552143Y-3023571D01*
X5552143Y-2937857D01*
X5566428Y-2909286D01*
X5580714Y-2895000D01*
X5609285Y-2880714D01*
X5652143Y-2880714D01*
X5680714Y-2895000D01*
X5695000Y-2909286D01*
X5709285Y-2937857D01*
X5709285Y-3023571D01*
X5695000Y-3052143D01*
X5680714Y-3066429D01*
X5652143Y-3080714D01*
X5609285Y-3080714D01*
X5880714Y-3080714D02*
X5852143Y-3066429D01*
X5837857Y-3037857D01*
X5837857Y-2780714D01*
X6109286Y-3066429D02*
X6080714Y-3080714D01*
X6023571Y-3080714D01*
X5995000Y-3066429D01*
X5980714Y-3037857D01*
X5980714Y-2923571D01*
X5995000Y-2895000D01*
X6023571Y-2880714D01*
X6080714Y-2880714D01*
X6109286Y-2895000D01*
X6123571Y-2923571D01*
X6123571Y-2952143D01*
X5980714Y-2980714D01*
X6237857Y-3066429D02*
X6266428Y-3080714D01*
X6323571Y-3080714D01*
X6352143Y-3066429D01*
X6366428Y-3037857D01*
X6366428Y-3023571D01*
X6352143Y-2995000D01*
X6323571Y-2980714D01*
X6280714Y-2980714D01*
X6252143Y-2966429D01*
X6237857Y-2937857D01*
X6237857Y-2923571D01*
X6252143Y-2895000D01*
X6280714Y-2880714D01*
X6323571Y-2880714D01*
X6352143Y-2895000D01*
X6466428Y-3195000D02*
X6480714Y-3180714D01*
X6509286Y-3137857D01*
X6523571Y-3109286D01*
X6537857Y-3066429D01*
X6552143Y-2995000D01*
X6552143Y-2937857D01*
X6537857Y-2866429D01*
X6523571Y-2823571D01*
X6509286Y-2795000D01*
X6480714Y-2752143D01*
X6466428Y-2737857D01*
X-105076Y-3290962D02*
X-5000Y-3391038D01*
X-5000Y-3290962D02*
X-105076Y-3391038D01*
X-55038Y-3290962D02*
X-55038Y-3391038D01*
X-105076Y-3341000D02*
X-5000Y-3341000D01*
X423571Y-3476714D02*
X252143Y-3476714D01*
X337857Y-3476714D02*
X337857Y-3176714D01*
X309286Y-3219571D01*
X280714Y-3248143D01*
X252143Y-3262429D01*
X552143Y-3448143D02*
X566429Y-3462429D01*
X552143Y-3476714D01*
X537857Y-3462429D01*
X552143Y-3448143D01*
X552143Y-3476714D01*
X752143Y-3176714D02*
X780714Y-3176714D01*
X809286Y-3191000D01*
X823571Y-3205286D01*
X837857Y-3233857D01*
X852143Y-3291000D01*
X852143Y-3362429D01*
X837857Y-3419571D01*
X823571Y-3448143D01*
X809286Y-3462429D01*
X780714Y-3476714D01*
X752143Y-3476714D01*
X723571Y-3462429D01*
X709286Y-3448143D01*
X695000Y-3419571D01*
X680714Y-3362429D01*
X680714Y-3291000D01*
X695000Y-3233857D01*
X709286Y-3205286D01*
X723571Y-3191000D01*
X752143Y-3176714D01*
X1037857Y-3176714D02*
X1066429Y-3176714D01*
X1095000Y-3191000D01*
X1109286Y-3205286D01*
X1123571Y-3233857D01*
X1137857Y-3291000D01*
X1137857Y-3362429D01*
X1123571Y-3419571D01*
X1109286Y-3448143D01*
X1095000Y-3462429D01*
X1066429Y-3476714D01*
X1037857Y-3476714D01*
X1009286Y-3462429D01*
X995000Y-3448143D01*
X980714Y-3419571D01*
X966428Y-3362429D01*
X966428Y-3291000D01*
X980714Y-3233857D01*
X995000Y-3205286D01*
X1009286Y-3191000D01*
X1037857Y-3176714D01*
X1266429Y-3476714D02*
X1266429Y-3276714D01*
X1266429Y-3305286D02*
X1280714Y-3291000D01*
X1309286Y-3276714D01*
X1352143Y-3276714D01*
X1380714Y-3291000D01*
X1395000Y-3319571D01*
X1395000Y-3476714D01*
X1395000Y-3319571D02*
X1409286Y-3291000D01*
X1437857Y-3276714D01*
X1480714Y-3276714D01*
X1509286Y-3291000D01*
X1523571Y-3319571D01*
X1523571Y-3476714D01*
X1666428Y-3476714D02*
X1666428Y-3276714D01*
X1666428Y-3305286D02*
X1680714Y-3291000D01*
X1709286Y-3276714D01*
X1752143Y-3276714D01*
X1780714Y-3291000D01*
X1795000Y-3319571D01*
X1795000Y-3476714D01*
X1795000Y-3319571D02*
X1809286Y-3291000D01*
X1837857Y-3276714D01*
X1880714Y-3276714D01*
X1909286Y-3291000D01*
X1923571Y-3319571D01*
X1923571Y-3476714D01*
X2509286Y-3162429D02*
X2252143Y-3548143D01*
X2895000Y-3176714D02*
X2923571Y-3176714D01*
X2952143Y-3191000D01*
X2966428Y-3205286D01*
X2980714Y-3233857D01*
X2995000Y-3291000D01*
X2995000Y-3362429D01*
X2980714Y-3419571D01*
X2966428Y-3448143D01*
X2952143Y-3462429D01*
X2923571Y-3476714D01*
X2895000Y-3476714D01*
X2866428Y-3462429D01*
X2852143Y-3448143D01*
X2837857Y-3419571D01*
X2823571Y-3362429D01*
X2823571Y-3291000D01*
X2837857Y-3233857D01*
X2852143Y-3205286D01*
X2866428Y-3191000D01*
X2895000Y-3176714D01*
X3123571Y-3448143D02*
X3137857Y-3462429D01*
X3123571Y-3476714D01*
X3109286Y-3462429D01*
X3123571Y-3448143D01*
X3123571Y-3476714D01*
X3323571Y-3176714D02*
X3352143Y-3176714D01*
X3380714Y-3191000D01*
X3395000Y-3205286D01*
X3409285Y-3233857D01*
X3423571Y-3291000D01*
X3423571Y-3362429D01*
X3409285Y-3419571D01*
X3395000Y-3448143D01*
X3380714Y-3462429D01*
X3352143Y-3476714D01*
X3323571Y-3476714D01*
X3295000Y-3462429D01*
X3280714Y-3448143D01*
X3266428Y-3419571D01*
X3252143Y-3362429D01*
X3252143Y-3291000D01*
X3266428Y-3233857D01*
X3280714Y-3205286D01*
X3295000Y-3191000D01*
X3323571Y-3176714D01*
X3523571Y-3176714D02*
X3709285Y-3176714D01*
X3609285Y-3291000D01*
X3652143Y-3291000D01*
X3680714Y-3305286D01*
X3695000Y-3319571D01*
X3709285Y-3348143D01*
X3709285Y-3419571D01*
X3695000Y-3448143D01*
X3680714Y-3462429D01*
X3652143Y-3476714D01*
X3566428Y-3476714D01*
X3537857Y-3462429D01*
X3523571Y-3448143D01*
X3852143Y-3476714D02*
X3909285Y-3476714D01*
X3937857Y-3462429D01*
X3952143Y-3448143D01*
X3980714Y-3405286D01*
X3995000Y-3348143D01*
X3995000Y-3233857D01*
X3980714Y-3205286D01*
X3966428Y-3191000D01*
X3937857Y-3176714D01*
X3880714Y-3176714D01*
X3852143Y-3191000D01*
X3837857Y-3205286D01*
X3823571Y-3233857D01*
X3823571Y-3305286D01*
X3837857Y-3333857D01*
X3852143Y-3348143D01*
X3880714Y-3362429D01*
X3937857Y-3362429D01*
X3966428Y-3348143D01*
X3980714Y-3333857D01*
X3995000Y-3305286D01*
X4109286Y-3176714D02*
X4109286Y-3233857D01*
X4223571Y-3176714D02*
X4223571Y-3233857D01*
X4666428Y-3591000D02*
X4652143Y-3576714D01*
X4623571Y-3533857D01*
X4609286Y-3505286D01*
X4595000Y-3462429D01*
X4580714Y-3391000D01*
X4580714Y-3333857D01*
X4595000Y-3262429D01*
X4609286Y-3219571D01*
X4623571Y-3191000D01*
X4652143Y-3148143D01*
X4666428Y-3133857D01*
X4766428Y-3205286D02*
X4780714Y-3191000D01*
X4809286Y-3176714D01*
X4880714Y-3176714D01*
X4909286Y-3191000D01*
X4923571Y-3205286D01*
X4937857Y-3233857D01*
X4937857Y-3262429D01*
X4923571Y-3305286D01*
X4752143Y-3476714D01*
X4937857Y-3476714D01*
X5295000Y-3476714D02*
X5295000Y-3176714D01*
X5423571Y-3476714D02*
X5423571Y-3319571D01*
X5409286Y-3291000D01*
X5380714Y-3276714D01*
X5337857Y-3276714D01*
X5309286Y-3291000D01*
X5295000Y-3305286D01*
X5609285Y-3476714D02*
X5580714Y-3462429D01*
X5566428Y-3448143D01*
X5552143Y-3419571D01*
X5552143Y-3333857D01*
X5566428Y-3305286D01*
X5580714Y-3291000D01*
X5609285Y-3276714D01*
X5652143Y-3276714D01*
X5680714Y-3291000D01*
X5695000Y-3305286D01*
X5709285Y-3333857D01*
X5709285Y-3419571D01*
X5695000Y-3448143D01*
X5680714Y-3462429D01*
X5652143Y-3476714D01*
X5609285Y-3476714D01*
X5880714Y-3476714D02*
X5852143Y-3462429D01*
X5837857Y-3433857D01*
X5837857Y-3176714D01*
X6109286Y-3462429D02*
X6080714Y-3476714D01*
X6023571Y-3476714D01*
X5995000Y-3462429D01*
X5980714Y-3433857D01*
X5980714Y-3319571D01*
X5995000Y-3291000D01*
X6023571Y-3276714D01*
X6080714Y-3276714D01*
X6109286Y-3291000D01*
X6123571Y-3319571D01*
X6123571Y-3348143D01*
X5980714Y-3376714D01*
X6237857Y-3462429D02*
X6266428Y-3476714D01*
X6323571Y-3476714D01*
X6352143Y-3462429D01*
X6366428Y-3433857D01*
X6366428Y-3419571D01*
X6352143Y-3391000D01*
X6323571Y-3376714D01*
X6280714Y-3376714D01*
X6252143Y-3362429D01*
X6237857Y-3333857D01*
X6237857Y-3319571D01*
X6252143Y-3291000D01*
X6280714Y-3276714D01*
X6323571Y-3276714D01*
X6352143Y-3291000D01*
X6466428Y-3591000D02*
X6480714Y-3576714D01*
X6509286Y-3533857D01*
X6523571Y-3505286D01*
X6537857Y-3462429D01*
X6552143Y-3391000D01*
X6552143Y-3333857D01*
X6537857Y-3262429D01*
X6523571Y-3219571D01*
X6509286Y-3191000D01*
X6480714Y-3148143D01*
X6466428Y-3133857D01*
X-106600Y-3686200D02*
X-5000Y-3787800D01*
X-5000Y-3686200D02*
X-106600Y-3787800D01*
X-19879Y-3772921D02*
X-19879Y-3701079D01*
X-91721Y-3701079D01*
X-91721Y-3772921D01*
X-19879Y-3772921D01*
X423571Y-3872714D02*
X252143Y-3872714D01*
X337857Y-3872714D02*
X337857Y-3572714D01*
X309286Y-3615571D01*
X280714Y-3644143D01*
X252143Y-3658429D01*
X552143Y-3844143D02*
X566429Y-3858429D01*
X552143Y-3872714D01*
X537857Y-3858429D01*
X552143Y-3844143D01*
X552143Y-3872714D01*
X752143Y-3572714D02*
X780714Y-3572714D01*
X809286Y-3587000D01*
X823571Y-3601286D01*
X837857Y-3629857D01*
X852143Y-3687000D01*
X852143Y-3758429D01*
X837857Y-3815571D01*
X823571Y-3844143D01*
X809286Y-3858429D01*
X780714Y-3872714D01*
X752143Y-3872714D01*
X723571Y-3858429D01*
X709286Y-3844143D01*
X695000Y-3815571D01*
X680714Y-3758429D01*
X680714Y-3687000D01*
X695000Y-3629857D01*
X709286Y-3601286D01*
X723571Y-3587000D01*
X752143Y-3572714D01*
X966428Y-3601286D02*
X980714Y-3587000D01*
X1009286Y-3572714D01*
X1080714Y-3572714D01*
X1109286Y-3587000D01*
X1123571Y-3601286D01*
X1137857Y-3629857D01*
X1137857Y-3658429D01*
X1123571Y-3701286D01*
X952143Y-3872714D01*
X1137857Y-3872714D01*
X1266429Y-3872714D02*
X1266429Y-3672714D01*
X1266429Y-3701286D02*
X1280714Y-3687000D01*
X1309286Y-3672714D01*
X1352143Y-3672714D01*
X1380714Y-3687000D01*
X1395000Y-3715571D01*
X1395000Y-3872714D01*
X1395000Y-3715571D02*
X1409286Y-3687000D01*
X1437857Y-3672714D01*
X1480714Y-3672714D01*
X1509286Y-3687000D01*
X1523571Y-3715571D01*
X1523571Y-3872714D01*
X1666428Y-3872714D02*
X1666428Y-3672714D01*
X1666428Y-3701286D02*
X1680714Y-3687000D01*
X1709286Y-3672714D01*
X1752143Y-3672714D01*
X1780714Y-3687000D01*
X1795000Y-3715571D01*
X1795000Y-3872714D01*
X1795000Y-3715571D02*
X1809286Y-3687000D01*
X1837857Y-3672714D01*
X1880714Y-3672714D01*
X1909286Y-3687000D01*
X1923571Y-3715571D01*
X1923571Y-3872714D01*
X2509286Y-3558429D02*
X2252143Y-3944143D01*
X2895000Y-3572714D02*
X2923571Y-3572714D01*
X2952143Y-3587000D01*
X2966428Y-3601286D01*
X2980714Y-3629857D01*
X2995000Y-3687000D01*
X2995000Y-3758429D01*
X2980714Y-3815571D01*
X2966428Y-3844143D01*
X2952143Y-3858429D01*
X2923571Y-3872714D01*
X2895000Y-3872714D01*
X2866428Y-3858429D01*
X2852143Y-3844143D01*
X2837857Y-3815571D01*
X2823571Y-3758429D01*
X2823571Y-3687000D01*
X2837857Y-3629857D01*
X2852143Y-3601286D01*
X2866428Y-3587000D01*
X2895000Y-3572714D01*
X3123571Y-3844143D02*
X3137857Y-3858429D01*
X3123571Y-3872714D01*
X3109286Y-3858429D01*
X3123571Y-3844143D01*
X3123571Y-3872714D01*
X3323571Y-3572714D02*
X3352143Y-3572714D01*
X3380714Y-3587000D01*
X3395000Y-3601286D01*
X3409285Y-3629857D01*
X3423571Y-3687000D01*
X3423571Y-3758429D01*
X3409285Y-3815571D01*
X3395000Y-3844143D01*
X3380714Y-3858429D01*
X3352143Y-3872714D01*
X3323571Y-3872714D01*
X3295000Y-3858429D01*
X3280714Y-3844143D01*
X3266428Y-3815571D01*
X3252143Y-3758429D01*
X3252143Y-3687000D01*
X3266428Y-3629857D01*
X3280714Y-3601286D01*
X3295000Y-3587000D01*
X3323571Y-3572714D01*
X3680714Y-3672714D02*
X3680714Y-3872714D01*
X3609285Y-3558429D02*
X3537857Y-3772714D01*
X3723571Y-3772714D01*
X3895000Y-3572714D02*
X3923571Y-3572714D01*
X3952143Y-3587000D01*
X3966428Y-3601286D01*
X3980714Y-3629857D01*
X3995000Y-3687000D01*
X3995000Y-3758429D01*
X3980714Y-3815571D01*
X3966428Y-3844143D01*
X3952143Y-3858429D01*
X3923571Y-3872714D01*
X3895000Y-3872714D01*
X3866428Y-3858429D01*
X3852143Y-3844143D01*
X3837857Y-3815571D01*
X3823571Y-3758429D01*
X3823571Y-3687000D01*
X3837857Y-3629857D01*
X3852143Y-3601286D01*
X3866428Y-3587000D01*
X3895000Y-3572714D01*
X4109286Y-3572714D02*
X4109286Y-3629857D01*
X4223571Y-3572714D02*
X4223571Y-3629857D01*
X4666428Y-3987000D02*
X4652143Y-3972714D01*
X4623571Y-3929857D01*
X4609286Y-3901286D01*
X4595000Y-3858429D01*
X4580714Y-3787000D01*
X4580714Y-3729857D01*
X4595000Y-3658429D01*
X4609286Y-3615571D01*
X4623571Y-3587000D01*
X4652143Y-3544143D01*
X4666428Y-3529857D01*
X4909286Y-3572714D02*
X4852143Y-3572714D01*
X4823571Y-3587000D01*
X4809286Y-3601286D01*
X4780714Y-3644143D01*
X4766428Y-3701286D01*
X4766428Y-3815571D01*
X4780714Y-3844143D01*
X4795000Y-3858429D01*
X4823571Y-3872714D01*
X4880714Y-3872714D01*
X4909286Y-3858429D01*
X4923571Y-3844143D01*
X4937857Y-3815571D01*
X4937857Y-3744143D01*
X4923571Y-3715571D01*
X4909286Y-3701286D01*
X4880714Y-3687000D01*
X4823571Y-3687000D01*
X4795000Y-3701286D01*
X4780714Y-3715571D01*
X4766428Y-3744143D01*
X5037857Y-3572714D02*
X5223571Y-3572714D01*
X5123571Y-3687000D01*
X5166428Y-3687000D01*
X5195000Y-3701286D01*
X5209286Y-3715571D01*
X5223571Y-3744143D01*
X5223571Y-3815571D01*
X5209286Y-3844143D01*
X5195000Y-3858429D01*
X5166428Y-3872714D01*
X5080714Y-3872714D01*
X5052143Y-3858429D01*
X5037857Y-3844143D01*
X5580714Y-3872714D02*
X5580714Y-3572714D01*
X5709285Y-3872714D02*
X5709285Y-3715571D01*
X5695000Y-3687000D01*
X5666428Y-3672714D01*
X5623571Y-3672714D01*
X5595000Y-3687000D01*
X5580714Y-3701286D01*
X5895000Y-3872714D02*
X5866428Y-3858429D01*
X5852143Y-3844143D01*
X5837857Y-3815571D01*
X5837857Y-3729857D01*
X5852143Y-3701286D01*
X5866428Y-3687000D01*
X5895000Y-3672714D01*
X5937857Y-3672714D01*
X5966428Y-3687000D01*
X5980714Y-3701286D01*
X5995000Y-3729857D01*
X5995000Y-3815571D01*
X5980714Y-3844143D01*
X5966428Y-3858429D01*
X5937857Y-3872714D01*
X5895000Y-3872714D01*
X6166428Y-3872714D02*
X6137857Y-3858429D01*
X6123571Y-3829857D01*
X6123571Y-3572714D01*
X6395000Y-3858429D02*
X6366428Y-3872714D01*
X6309286Y-3872714D01*
X6280714Y-3858429D01*
X6266428Y-3829857D01*
X6266428Y-3715571D01*
X6280714Y-3687000D01*
X6309286Y-3672714D01*
X6366428Y-3672714D01*
X6395000Y-3687000D01*
X6409286Y-3715571D01*
X6409286Y-3744143D01*
X6266428Y-3772714D01*
X6523571Y-3858429D02*
X6552143Y-3872714D01*
X6609286Y-3872714D01*
X6637857Y-3858429D01*
X6652143Y-3829857D01*
X6652143Y-3815571D01*
X6637857Y-3787000D01*
X6609286Y-3772714D01*
X6566428Y-3772714D01*
X6537857Y-3758429D01*
X6523571Y-3729857D01*
X6523571Y-3715571D01*
X6537857Y-3687000D01*
X6566428Y-3672714D01*
X6609286Y-3672714D01*
X6637857Y-3687000D01*
X6752143Y-3987000D02*
X6766428Y-3972714D01*
X6795000Y-3929857D01*
X6809286Y-3901286D01*
X6823571Y-3858429D01*
X6837857Y-3787000D01*
X6837857Y-3729857D01*
X6823571Y-3658429D01*
X6809286Y-3615571D01*
X6795000Y-3587000D01*
X6766428Y-3544143D01*
X6752143Y-3529857D01*
X-140000Y-4065500D02*
X-5000Y-4200500D01*
X-5000Y-4065500D02*
X-140000Y-4200500D01*
X-72500Y-4200500D02*
X-5000Y-4133000D01*
X-72500Y-4065500D01*
X-140000Y-4133000D01*
X-72500Y-4200500D01*
X423571Y-4268714D02*
X252143Y-4268714D01*
X337857Y-4268714D02*
X337857Y-3968714D01*
X309286Y-4011571D01*
X280714Y-4040143D01*
X252143Y-4054429D01*
X552143Y-4240143D02*
X566429Y-4254429D01*
X552143Y-4268714D01*
X537857Y-4254429D01*
X552143Y-4240143D01*
X552143Y-4268714D01*
X666428Y-3968714D02*
X852143Y-3968714D01*
X752143Y-4083000D01*
X795000Y-4083000D01*
X823571Y-4097286D01*
X837857Y-4111571D01*
X852143Y-4140143D01*
X852143Y-4211572D01*
X837857Y-4240143D01*
X823571Y-4254429D01*
X795000Y-4268714D01*
X709286Y-4268714D01*
X680714Y-4254429D01*
X666428Y-4240143D01*
X1123571Y-3968714D02*
X980714Y-3968714D01*
X966428Y-4111571D01*
X980714Y-4097286D01*
X1009286Y-4083000D01*
X1080714Y-4083000D01*
X1109286Y-4097286D01*
X1123571Y-4111571D01*
X1137857Y-4140143D01*
X1137857Y-4211572D01*
X1123571Y-4240143D01*
X1109286Y-4254429D01*
X1080714Y-4268714D01*
X1009286Y-4268714D01*
X980714Y-4254429D01*
X966428Y-4240143D01*
X1266429Y-4268714D02*
X1266429Y-4068714D01*
X1266429Y-4097286D02*
X1280714Y-4083000D01*
X1309286Y-4068714D01*
X1352143Y-4068714D01*
X1380714Y-4083000D01*
X1395000Y-4111571D01*
X1395000Y-4268714D01*
X1395000Y-4111571D02*
X1409286Y-4083000D01*
X1437857Y-4068714D01*
X1480714Y-4068714D01*
X1509286Y-4083000D01*
X1523571Y-4111571D01*
X1523571Y-4268714D01*
X1666428Y-4268714D02*
X1666428Y-4068714D01*
X1666428Y-4097286D02*
X1680714Y-4083000D01*
X1709286Y-4068714D01*
X1752143Y-4068714D01*
X1780714Y-4083000D01*
X1795000Y-4111571D01*
X1795000Y-4268714D01*
X1795000Y-4111571D02*
X1809286Y-4083000D01*
X1837857Y-4068714D01*
X1880714Y-4068714D01*
X1909286Y-4083000D01*
X1923571Y-4111571D01*
X1923571Y-4268714D01*
X2509286Y-3954429D02*
X2252143Y-4340143D01*
X2895000Y-3968714D02*
X2923571Y-3968714D01*
X2952143Y-3983000D01*
X2966428Y-3997286D01*
X2980714Y-4025857D01*
X2995000Y-4083000D01*
X2995000Y-4154429D01*
X2980714Y-4211572D01*
X2966428Y-4240143D01*
X2952143Y-4254429D01*
X2923571Y-4268714D01*
X2895000Y-4268714D01*
X2866428Y-4254429D01*
X2852143Y-4240143D01*
X2837857Y-4211572D01*
X2823571Y-4154429D01*
X2823571Y-4083000D01*
X2837857Y-4025857D01*
X2852143Y-3997286D01*
X2866428Y-3983000D01*
X2895000Y-3968714D01*
X3123571Y-4240143D02*
X3137857Y-4254429D01*
X3123571Y-4268714D01*
X3109286Y-4254429D01*
X3123571Y-4240143D01*
X3123571Y-4268714D01*
X3323571Y-3968714D02*
X3352143Y-3968714D01*
X3380714Y-3983000D01*
X3395000Y-3997286D01*
X3409285Y-4025857D01*
X3423571Y-4083000D01*
X3423571Y-4154429D01*
X3409285Y-4211572D01*
X3395000Y-4240143D01*
X3380714Y-4254429D01*
X3352143Y-4268714D01*
X3323571Y-4268714D01*
X3295000Y-4254429D01*
X3280714Y-4240143D01*
X3266428Y-4211572D01*
X3252143Y-4154429D01*
X3252143Y-4083000D01*
X3266428Y-4025857D01*
X3280714Y-3997286D01*
X3295000Y-3983000D01*
X3323571Y-3968714D01*
X3695000Y-3968714D02*
X3552143Y-3968714D01*
X3537857Y-4111571D01*
X3552143Y-4097286D01*
X3580714Y-4083000D01*
X3652143Y-4083000D01*
X3680714Y-4097286D01*
X3695000Y-4111571D01*
X3709285Y-4140143D01*
X3709285Y-4211572D01*
X3695000Y-4240143D01*
X3680714Y-4254429D01*
X3652143Y-4268714D01*
X3580714Y-4268714D01*
X3552143Y-4254429D01*
X3537857Y-4240143D01*
X3809285Y-3968714D02*
X3995000Y-3968714D01*
X3895000Y-4083000D01*
X3937857Y-4083000D01*
X3966428Y-4097286D01*
X3980714Y-4111571D01*
X3995000Y-4140143D01*
X3995000Y-4211572D01*
X3980714Y-4240143D01*
X3966428Y-4254429D01*
X3937857Y-4268714D01*
X3852143Y-4268714D01*
X3823571Y-4254429D01*
X3809285Y-4240143D01*
X4109286Y-3968714D02*
X4109286Y-4025857D01*
X4223571Y-3968714D02*
X4223571Y-4025857D01*
X4666428Y-4383000D02*
X4652143Y-4368714D01*
X4623571Y-4325857D01*
X4609286Y-4297286D01*
X4595000Y-4254429D01*
X4580714Y-4183000D01*
X4580714Y-4125857D01*
X4595000Y-4054429D01*
X4609286Y-4011571D01*
X4623571Y-3983000D01*
X4652143Y-3940143D01*
X4666428Y-3925857D01*
X4909286Y-4068714D02*
X4909286Y-4268714D01*
X4837857Y-3954429D02*
X4766428Y-4168714D01*
X4952143Y-4168714D01*
X5295000Y-4268714D02*
X5295000Y-3968714D01*
X5423571Y-4268714D02*
X5423571Y-4111571D01*
X5409286Y-4083000D01*
X5380714Y-4068714D01*
X5337857Y-4068714D01*
X5309286Y-4083000D01*
X5295000Y-4097286D01*
X5609285Y-4268714D02*
X5580714Y-4254429D01*
X5566428Y-4240143D01*
X5552143Y-4211572D01*
X5552143Y-4125857D01*
X5566428Y-4097286D01*
X5580714Y-4083000D01*
X5609285Y-4068714D01*
X5652143Y-4068714D01*
X5680714Y-4083000D01*
X5695000Y-4097286D01*
X5709285Y-4125857D01*
X5709285Y-4211572D01*
X5695000Y-4240143D01*
X5680714Y-4254429D01*
X5652143Y-4268714D01*
X5609285Y-4268714D01*
X5880714Y-4268714D02*
X5852143Y-4254429D01*
X5837857Y-4225857D01*
X5837857Y-3968714D01*
X6109286Y-4254429D02*
X6080714Y-4268714D01*
X6023571Y-4268714D01*
X5995000Y-4254429D01*
X5980714Y-4225857D01*
X5980714Y-4111571D01*
X5995000Y-4083000D01*
X6023571Y-4068714D01*
X6080714Y-4068714D01*
X6109286Y-4083000D01*
X6123571Y-4111571D01*
X6123571Y-4140143D01*
X5980714Y-4168714D01*
X6237857Y-4254429D02*
X6266428Y-4268714D01*
X6323571Y-4268714D01*
X6352143Y-4254429D01*
X6366428Y-4225857D01*
X6366428Y-4211572D01*
X6352143Y-4183000D01*
X6323571Y-4168714D01*
X6280714Y-4168714D01*
X6252143Y-4154429D01*
X6237857Y-4125857D01*
X6237857Y-4111571D01*
X6252143Y-4083000D01*
X6280714Y-4068714D01*
X6323571Y-4068714D01*
X6352143Y-4083000D01*
X6466428Y-4383000D02*
X6480714Y-4368714D01*
X6509286Y-4325857D01*
X6523571Y-4297286D01*
X6537857Y-4254429D01*
X6552143Y-4183000D01*
X6552143Y-4125857D01*
X6537857Y-4054429D01*
X6523571Y-4011571D01*
X6509286Y-3983000D01*
X6480714Y-3940143D01*
X6466428Y-3925857D01*
X-74000Y-4460000D02*
X-74000Y-4598000D01*
X-143000Y-4529000D02*
X-5000Y-4529000D01*
X-5000Y-4529000D02*
G75*
G03X-5000Y-4529000I-69000J0D01*
G01*
X423571Y-4664714D02*
X252143Y-4664714D01*
X337857Y-4664714D02*
X337857Y-4364714D01*
X309286Y-4407572D01*
X280714Y-4436143D01*
X252143Y-4450429D01*
X552143Y-4636143D02*
X566429Y-4650429D01*
X552143Y-4664714D01*
X537857Y-4650429D01*
X552143Y-4636143D01*
X552143Y-4664714D01*
X666428Y-4364714D02*
X852143Y-4364714D01*
X752143Y-4479000D01*
X795000Y-4479000D01*
X823571Y-4493286D01*
X837857Y-4507572D01*
X852143Y-4536143D01*
X852143Y-4607572D01*
X837857Y-4636143D01*
X823571Y-4650429D01*
X795000Y-4664714D01*
X709286Y-4664714D01*
X680714Y-4650429D01*
X666428Y-4636143D01*
X1023571Y-4493286D02*
X995000Y-4479000D01*
X980714Y-4464714D01*
X966428Y-4436143D01*
X966428Y-4421857D01*
X980714Y-4393286D01*
X995000Y-4379000D01*
X1023571Y-4364714D01*
X1080714Y-4364714D01*
X1109286Y-4379000D01*
X1123571Y-4393286D01*
X1137857Y-4421857D01*
X1137857Y-4436143D01*
X1123571Y-4464714D01*
X1109286Y-4479000D01*
X1080714Y-4493286D01*
X1023571Y-4493286D01*
X995000Y-4507572D01*
X980714Y-4521857D01*
X966428Y-4550429D01*
X966428Y-4607572D01*
X980714Y-4636143D01*
X995000Y-4650429D01*
X1023571Y-4664714D01*
X1080714Y-4664714D01*
X1109286Y-4650429D01*
X1123571Y-4636143D01*
X1137857Y-4607572D01*
X1137857Y-4550429D01*
X1123571Y-4521857D01*
X1109286Y-4507572D01*
X1080714Y-4493286D01*
X1266429Y-4664714D02*
X1266429Y-4464714D01*
X1266429Y-4493286D02*
X1280714Y-4479000D01*
X1309286Y-4464714D01*
X1352143Y-4464714D01*
X1380714Y-4479000D01*
X1395000Y-4507572D01*
X1395000Y-4664714D01*
X1395000Y-4507572D02*
X1409286Y-4479000D01*
X1437857Y-4464714D01*
X1480714Y-4464714D01*
X1509286Y-4479000D01*
X1523571Y-4507572D01*
X1523571Y-4664714D01*
X1666428Y-4664714D02*
X1666428Y-4464714D01*
X1666428Y-4493286D02*
X1680714Y-4479000D01*
X1709286Y-4464714D01*
X1752143Y-4464714D01*
X1780714Y-4479000D01*
X1795000Y-4507572D01*
X1795000Y-4664714D01*
X1795000Y-4507572D02*
X1809286Y-4479000D01*
X1837857Y-4464714D01*
X1880714Y-4464714D01*
X1909286Y-4479000D01*
X1923571Y-4507572D01*
X1923571Y-4664714D01*
X2509286Y-4350429D02*
X2252143Y-4736143D01*
X2895000Y-4364714D02*
X2923571Y-4364714D01*
X2952143Y-4379000D01*
X2966428Y-4393286D01*
X2980714Y-4421857D01*
X2995000Y-4479000D01*
X2995000Y-4550429D01*
X2980714Y-4607572D01*
X2966428Y-4636143D01*
X2952143Y-4650429D01*
X2923571Y-4664714D01*
X2895000Y-4664714D01*
X2866428Y-4650429D01*
X2852143Y-4636143D01*
X2837857Y-4607572D01*
X2823571Y-4550429D01*
X2823571Y-4479000D01*
X2837857Y-4421857D01*
X2852143Y-4393286D01*
X2866428Y-4379000D01*
X2895000Y-4364714D01*
X3123571Y-4636143D02*
X3137857Y-4650429D01*
X3123571Y-4664714D01*
X3109286Y-4650429D01*
X3123571Y-4636143D01*
X3123571Y-4664714D01*
X3323571Y-4364714D02*
X3352143Y-4364714D01*
X3380714Y-4379000D01*
X3395000Y-4393286D01*
X3409285Y-4421857D01*
X3423571Y-4479000D01*
X3423571Y-4550429D01*
X3409285Y-4607572D01*
X3395000Y-4636143D01*
X3380714Y-4650429D01*
X3352143Y-4664714D01*
X3323571Y-4664714D01*
X3295000Y-4650429D01*
X3280714Y-4636143D01*
X3266428Y-4607572D01*
X3252143Y-4550429D01*
X3252143Y-4479000D01*
X3266428Y-4421857D01*
X3280714Y-4393286D01*
X3295000Y-4379000D01*
X3323571Y-4364714D01*
X3695000Y-4364714D02*
X3552143Y-4364714D01*
X3537857Y-4507572D01*
X3552143Y-4493286D01*
X3580714Y-4479000D01*
X3652143Y-4479000D01*
X3680714Y-4493286D01*
X3695000Y-4507572D01*
X3709285Y-4536143D01*
X3709285Y-4607572D01*
X3695000Y-4636143D01*
X3680714Y-4650429D01*
X3652143Y-4664714D01*
X3580714Y-4664714D01*
X3552143Y-4650429D01*
X3537857Y-4636143D01*
X3966428Y-4464714D02*
X3966428Y-4664714D01*
X3895000Y-4350429D02*
X3823571Y-4564714D01*
X4009285Y-4564714D01*
X4109286Y-4364714D02*
X4109286Y-4421857D01*
X4223571Y-4364714D02*
X4223571Y-4421857D01*
X4666428Y-4779000D02*
X4652143Y-4764714D01*
X4623571Y-4721857D01*
X4609286Y-4693286D01*
X4595000Y-4650429D01*
X4580714Y-4579000D01*
X4580714Y-4521857D01*
X4595000Y-4450429D01*
X4609286Y-4407572D01*
X4623571Y-4379000D01*
X4652143Y-4336143D01*
X4666428Y-4321857D01*
X4837857Y-4364714D02*
X4866428Y-4364714D01*
X4895000Y-4379000D01*
X4909286Y-4393286D01*
X4923571Y-4421857D01*
X4937857Y-4479000D01*
X4937857Y-4550429D01*
X4923571Y-4607572D01*
X4909286Y-4636143D01*
X4895000Y-4650429D01*
X4866428Y-4664714D01*
X4837857Y-4664714D01*
X4809286Y-4650429D01*
X4795000Y-4636143D01*
X4780714Y-4607572D01*
X4766428Y-4550429D01*
X4766428Y-4479000D01*
X4780714Y-4421857D01*
X4795000Y-4393286D01*
X4809286Y-4379000D01*
X4837857Y-4364714D01*
X5295000Y-4664714D02*
X5295000Y-4364714D01*
X5423571Y-4664714D02*
X5423571Y-4507572D01*
X5409286Y-4479000D01*
X5380714Y-4464714D01*
X5337857Y-4464714D01*
X5309286Y-4479000D01*
X5295000Y-4493286D01*
X5609285Y-4664714D02*
X5580714Y-4650429D01*
X5566428Y-4636143D01*
X5552143Y-4607572D01*
X5552143Y-4521857D01*
X5566428Y-4493286D01*
X5580714Y-4479000D01*
X5609285Y-4464714D01*
X5652143Y-4464714D01*
X5680714Y-4479000D01*
X5695000Y-4493286D01*
X5709285Y-4521857D01*
X5709285Y-4607572D01*
X5695000Y-4636143D01*
X5680714Y-4650429D01*
X5652143Y-4664714D01*
X5609285Y-4664714D01*
X5880714Y-4664714D02*
X5852143Y-4650429D01*
X5837857Y-4621857D01*
X5837857Y-4364714D01*
X6109286Y-4650429D02*
X6080714Y-4664714D01*
X6023571Y-4664714D01*
X5995000Y-4650429D01*
X5980714Y-4621857D01*
X5980714Y-4507572D01*
X5995000Y-4479000D01*
X6023571Y-4464714D01*
X6080714Y-4464714D01*
X6109286Y-4479000D01*
X6123571Y-4507572D01*
X6123571Y-4536143D01*
X5980714Y-4564714D01*
X6237857Y-4650429D02*
X6266428Y-4664714D01*
X6323571Y-4664714D01*
X6352143Y-4650429D01*
X6366428Y-4621857D01*
X6366428Y-4607572D01*
X6352143Y-4579000D01*
X6323571Y-4564714D01*
X6280714Y-4564714D01*
X6252143Y-4550429D01*
X6237857Y-4521857D01*
X6237857Y-4507572D01*
X6252143Y-4479000D01*
X6280714Y-4464714D01*
X6323571Y-4464714D01*
X6352143Y-4479000D01*
X6723571Y-4550429D02*
X6952143Y-4550429D01*
X6837857Y-4664714D02*
X6837857Y-4436143D01*
X7309286Y-4393286D02*
X7323571Y-4379000D01*
X7352143Y-4364714D01*
X7423571Y-4364714D01*
X7452143Y-4379000D01*
X7466428Y-4393286D01*
X7480714Y-4421857D01*
X7480714Y-4450429D01*
X7466428Y-4493286D01*
X7295000Y-4664714D01*
X7480714Y-4664714D01*
X7823571Y-4650429D02*
X7852143Y-4664714D01*
X7909285Y-4664714D01*
X7937857Y-4650429D01*
X7952143Y-4621857D01*
X7952143Y-4607572D01*
X7937857Y-4579000D01*
X7909285Y-4564714D01*
X7866428Y-4564714D01*
X7837857Y-4550429D01*
X7823571Y-4521857D01*
X7823571Y-4507572D01*
X7837857Y-4479000D01*
X7866428Y-4464714D01*
X7909285Y-4464714D01*
X7937857Y-4479000D01*
X8123571Y-4664714D02*
X8095000Y-4650429D01*
X8080714Y-4621857D01*
X8080714Y-4364714D01*
X8280714Y-4664714D02*
X8252143Y-4650429D01*
X8237857Y-4636143D01*
X8223571Y-4607572D01*
X8223571Y-4521857D01*
X8237857Y-4493286D01*
X8252143Y-4479000D01*
X8280714Y-4464714D01*
X8323571Y-4464714D01*
X8352143Y-4479000D01*
X8366428Y-4493286D01*
X8380714Y-4521857D01*
X8380714Y-4607572D01*
X8366428Y-4636143D01*
X8352143Y-4650429D01*
X8323571Y-4664714D01*
X8280714Y-4664714D01*
X8466428Y-4464714D02*
X8580714Y-4464714D01*
X8509286Y-4364714D02*
X8509286Y-4621857D01*
X8523571Y-4650429D01*
X8552143Y-4664714D01*
X8580714Y-4664714D01*
X8666429Y-4650429D02*
X8695000Y-4664714D01*
X8752143Y-4664714D01*
X8780714Y-4650429D01*
X8795000Y-4621857D01*
X8795000Y-4607572D01*
X8780714Y-4579000D01*
X8752143Y-4564714D01*
X8709286Y-4564714D01*
X8680714Y-4550429D01*
X8666429Y-4521857D01*
X8666429Y-4507572D01*
X8680714Y-4479000D01*
X8709286Y-4464714D01*
X8752143Y-4464714D01*
X8780714Y-4479000D01*
X8895000Y-4779000D02*
X8909286Y-4764714D01*
X8937857Y-4721857D01*
X8952143Y-4693286D01*
X8966428Y-4650429D01*
X8980714Y-4579000D01*
X8980714Y-4521857D01*
X8966428Y-4450429D01*
X8952143Y-4407572D01*
X8937857Y-4379000D01*
X8909286Y-4336143D01*
X8895000Y-4321857D01*
X-26967Y-4978034D02*
X-26967Y-4871967D01*
X-133034Y-4871967D01*
X-133034Y-4978034D01*
X-26967Y-4978034D01*
X-5000Y-4925000D02*
G75*
G03X-5000Y-4925000I-75000J0D01*
G01*
X423571Y-5060714D02*
X252143Y-5060714D01*
X337857Y-5060714D02*
X337857Y-4760714D01*
X309286Y-4803572D01*
X280714Y-4832143D01*
X252143Y-4846429D01*
X552143Y-5032143D02*
X566429Y-5046429D01*
X552143Y-5060714D01*
X537857Y-5046429D01*
X552143Y-5032143D01*
X552143Y-5060714D01*
X837857Y-4760714D02*
X695000Y-4760714D01*
X680714Y-4903572D01*
X695000Y-4889286D01*
X723571Y-4875000D01*
X795000Y-4875000D01*
X823571Y-4889286D01*
X837857Y-4903572D01*
X852143Y-4932143D01*
X852143Y-5003572D01*
X837857Y-5032143D01*
X823571Y-5046429D01*
X795000Y-5060714D01*
X723571Y-5060714D01*
X695000Y-5046429D01*
X680714Y-5032143D01*
X1037857Y-4760714D02*
X1066429Y-4760714D01*
X1095000Y-4775000D01*
X1109286Y-4789286D01*
X1123571Y-4817857D01*
X1137857Y-4875000D01*
X1137857Y-4946429D01*
X1123571Y-5003572D01*
X1109286Y-5032143D01*
X1095000Y-5046429D01*
X1066429Y-5060714D01*
X1037857Y-5060714D01*
X1009286Y-5046429D01*
X995000Y-5032143D01*
X980714Y-5003572D01*
X966428Y-4946429D01*
X966428Y-4875000D01*
X980714Y-4817857D01*
X995000Y-4789286D01*
X1009286Y-4775000D01*
X1037857Y-4760714D01*
X1266429Y-5060714D02*
X1266429Y-4860714D01*
X1266429Y-4889286D02*
X1280714Y-4875000D01*
X1309286Y-4860714D01*
X1352143Y-4860714D01*
X1380714Y-4875000D01*
X1395000Y-4903572D01*
X1395000Y-5060714D01*
X1395000Y-4903572D02*
X1409286Y-4875000D01*
X1437857Y-4860714D01*
X1480714Y-4860714D01*
X1509286Y-4875000D01*
X1523571Y-4903572D01*
X1523571Y-5060714D01*
X1666428Y-5060714D02*
X1666428Y-4860714D01*
X1666428Y-4889286D02*
X1680714Y-4875000D01*
X1709286Y-4860714D01*
X1752143Y-4860714D01*
X1780714Y-4875000D01*
X1795000Y-4903572D01*
X1795000Y-5060714D01*
X1795000Y-4903572D02*
X1809286Y-4875000D01*
X1837857Y-4860714D01*
X1880714Y-4860714D01*
X1909286Y-4875000D01*
X1923571Y-4903572D01*
X1923571Y-5060714D01*
X2509286Y-4746429D02*
X2252143Y-5132143D01*
X2895000Y-4760714D02*
X2923571Y-4760714D01*
X2952143Y-4775000D01*
X2966428Y-4789286D01*
X2980714Y-4817857D01*
X2995000Y-4875000D01*
X2995000Y-4946429D01*
X2980714Y-5003572D01*
X2966428Y-5032143D01*
X2952143Y-5046429D01*
X2923571Y-5060714D01*
X2895000Y-5060714D01*
X2866428Y-5046429D01*
X2852143Y-5032143D01*
X2837857Y-5003572D01*
X2823571Y-4946429D01*
X2823571Y-4875000D01*
X2837857Y-4817857D01*
X2852143Y-4789286D01*
X2866428Y-4775000D01*
X2895000Y-4760714D01*
X3123571Y-5032143D02*
X3137857Y-5046429D01*
X3123571Y-5060714D01*
X3109286Y-5046429D01*
X3123571Y-5032143D01*
X3123571Y-5060714D01*
X3323571Y-4760714D02*
X3352143Y-4760714D01*
X3380714Y-4775000D01*
X3395000Y-4789286D01*
X3409285Y-4817857D01*
X3423571Y-4875000D01*
X3423571Y-4946429D01*
X3409285Y-5003572D01*
X3395000Y-5032143D01*
X3380714Y-5046429D01*
X3352143Y-5060714D01*
X3323571Y-5060714D01*
X3295000Y-5046429D01*
X3280714Y-5032143D01*
X3266428Y-5003572D01*
X3252143Y-4946429D01*
X3252143Y-4875000D01*
X3266428Y-4817857D01*
X3280714Y-4789286D01*
X3295000Y-4775000D01*
X3323571Y-4760714D01*
X3695000Y-4760714D02*
X3552143Y-4760714D01*
X3537857Y-4903572D01*
X3552143Y-4889286D01*
X3580714Y-4875000D01*
X3652143Y-4875000D01*
X3680714Y-4889286D01*
X3695000Y-4903572D01*
X3709285Y-4932143D01*
X3709285Y-5003572D01*
X3695000Y-5032143D01*
X3680714Y-5046429D01*
X3652143Y-5060714D01*
X3580714Y-5060714D01*
X3552143Y-5046429D01*
X3537857Y-5032143D01*
X3852143Y-5060714D02*
X3909285Y-5060714D01*
X3937857Y-5046429D01*
X3952143Y-5032143D01*
X3980714Y-4989286D01*
X3995000Y-4932143D01*
X3995000Y-4817857D01*
X3980714Y-4789286D01*
X3966428Y-4775000D01*
X3937857Y-4760714D01*
X3880714Y-4760714D01*
X3852143Y-4775000D01*
X3837857Y-4789286D01*
X3823571Y-4817857D01*
X3823571Y-4889286D01*
X3837857Y-4917857D01*
X3852143Y-4932143D01*
X3880714Y-4946429D01*
X3937857Y-4946429D01*
X3966428Y-4932143D01*
X3980714Y-4917857D01*
X3995000Y-4889286D01*
X4109286Y-4760714D02*
X4109286Y-4817857D01*
X4223571Y-4760714D02*
X4223571Y-4817857D01*
X4666428Y-5175000D02*
X4652143Y-5160714D01*
X4623571Y-5117857D01*
X4609286Y-5089286D01*
X4595000Y-5046429D01*
X4580714Y-4975000D01*
X4580714Y-4917857D01*
X4595000Y-4846429D01*
X4609286Y-4803572D01*
X4623571Y-4775000D01*
X4652143Y-4732143D01*
X4666428Y-4717857D01*
X4909286Y-4860714D02*
X4909286Y-5060714D01*
X4837857Y-4746429D02*
X4766428Y-4960714D01*
X4952143Y-4960714D01*
X5295000Y-5060714D02*
X5295000Y-4760714D01*
X5423571Y-5060714D02*
X5423571Y-4903572D01*
X5409286Y-4875000D01*
X5380714Y-4860714D01*
X5337857Y-4860714D01*
X5309286Y-4875000D01*
X5295000Y-4889286D01*
X5609285Y-5060714D02*
X5580714Y-5046429D01*
X5566428Y-5032143D01*
X5552143Y-5003572D01*
X5552143Y-4917857D01*
X5566428Y-4889286D01*
X5580714Y-4875000D01*
X5609285Y-4860714D01*
X5652143Y-4860714D01*
X5680714Y-4875000D01*
X5695000Y-4889286D01*
X5709285Y-4917857D01*
X5709285Y-5003572D01*
X5695000Y-5032143D01*
X5680714Y-5046429D01*
X5652143Y-5060714D01*
X5609285Y-5060714D01*
X5880714Y-5060714D02*
X5852143Y-5046429D01*
X5837857Y-5017857D01*
X5837857Y-4760714D01*
X6109286Y-5046429D02*
X6080714Y-5060714D01*
X6023571Y-5060714D01*
X5995000Y-5046429D01*
X5980714Y-5017857D01*
X5980714Y-4903572D01*
X5995000Y-4875000D01*
X6023571Y-4860714D01*
X6080714Y-4860714D01*
X6109286Y-4875000D01*
X6123571Y-4903572D01*
X6123571Y-4932143D01*
X5980714Y-4960714D01*
X6237857Y-5046429D02*
X6266428Y-5060714D01*
X6323571Y-5060714D01*
X6352143Y-5046429D01*
X6366428Y-5017857D01*
X6366428Y-5003572D01*
X6352143Y-4975000D01*
X6323571Y-4960714D01*
X6280714Y-4960714D01*
X6252143Y-4946429D01*
X6237857Y-4917857D01*
X6237857Y-4903572D01*
X6252143Y-4875000D01*
X6280714Y-4860714D01*
X6323571Y-4860714D01*
X6352143Y-4875000D01*
X6466428Y-5175000D02*
X6480714Y-5160714D01*
X6509286Y-5117857D01*
X6523571Y-5089286D01*
X6537857Y-5046429D01*
X6552143Y-4975000D01*
X6552143Y-4917857D01*
X6537857Y-4846429D01*
X6523571Y-4803572D01*
X6509286Y-4775000D01*
X6480714Y-4732143D01*
X6466428Y-4717857D01*
X-100000Y-5416000D02*
X-5000Y-5321000D01*
X-100000Y-5226000D01*
X-195000Y-5321000D01*
X-100000Y-5416000D01*
X-5000Y-5321000D02*
G75*
G03X-5000Y-5321000I-95000J0D01*
G01*
X423571Y-5456714D02*
X252143Y-5456714D01*
X337857Y-5456714D02*
X337857Y-5156714D01*
X309286Y-5199572D01*
X280714Y-5228143D01*
X252143Y-5242429D01*
X552143Y-5428143D02*
X566429Y-5442429D01*
X552143Y-5456714D01*
X537857Y-5442429D01*
X552143Y-5428143D01*
X552143Y-5456714D01*
X709286Y-5456714D02*
X766428Y-5456714D01*
X795000Y-5442429D01*
X809286Y-5428143D01*
X837857Y-5385286D01*
X852143Y-5328143D01*
X852143Y-5213857D01*
X837857Y-5185286D01*
X823571Y-5171000D01*
X795000Y-5156714D01*
X737857Y-5156714D01*
X709286Y-5171000D01*
X695000Y-5185286D01*
X680714Y-5213857D01*
X680714Y-5285286D01*
X695000Y-5313857D01*
X709286Y-5328143D01*
X737857Y-5342429D01*
X795000Y-5342429D01*
X823571Y-5328143D01*
X837857Y-5313857D01*
X852143Y-5285286D01*
X1037857Y-5156714D02*
X1066429Y-5156714D01*
X1095000Y-5171000D01*
X1109286Y-5185286D01*
X1123571Y-5213857D01*
X1137857Y-5271000D01*
X1137857Y-5342429D01*
X1123571Y-5399572D01*
X1109286Y-5428143D01*
X1095000Y-5442429D01*
X1066429Y-5456714D01*
X1037857Y-5456714D01*
X1009286Y-5442429D01*
X995000Y-5428143D01*
X980714Y-5399572D01*
X966428Y-5342429D01*
X966428Y-5271000D01*
X980714Y-5213857D01*
X995000Y-5185286D01*
X1009286Y-5171000D01*
X1037857Y-5156714D01*
X1266429Y-5456714D02*
X1266429Y-5256714D01*
X1266429Y-5285286D02*
X1280714Y-5271000D01*
X1309286Y-5256714D01*
X1352143Y-5256714D01*
X1380714Y-5271000D01*
X1395000Y-5299572D01*
X1395000Y-5456714D01*
X1395000Y-5299572D02*
X1409286Y-5271000D01*
X1437857Y-5256714D01*
X1480714Y-5256714D01*
X1509286Y-5271000D01*
X1523571Y-5299572D01*
X1523571Y-5456714D01*
X1666428Y-5456714D02*
X1666428Y-5256714D01*
X1666428Y-5285286D02*
X1680714Y-5271000D01*
X1709286Y-5256714D01*
X1752143Y-5256714D01*
X1780714Y-5271000D01*
X1795000Y-5299572D01*
X1795000Y-5456714D01*
X1795000Y-5299572D02*
X1809286Y-5271000D01*
X1837857Y-5256714D01*
X1880714Y-5256714D01*
X1909286Y-5271000D01*
X1923571Y-5299572D01*
X1923571Y-5456714D01*
X2509286Y-5142429D02*
X2252143Y-5528143D01*
X2895000Y-5156714D02*
X2923571Y-5156714D01*
X2952143Y-5171000D01*
X2966428Y-5185286D01*
X2980714Y-5213857D01*
X2995000Y-5271000D01*
X2995000Y-5342429D01*
X2980714Y-5399572D01*
X2966428Y-5428143D01*
X2952143Y-5442429D01*
X2923571Y-5456714D01*
X2895000Y-5456714D01*
X2866428Y-5442429D01*
X2852143Y-5428143D01*
X2837857Y-5399572D01*
X2823571Y-5342429D01*
X2823571Y-5271000D01*
X2837857Y-5213857D01*
X2852143Y-5185286D01*
X2866428Y-5171000D01*
X2895000Y-5156714D01*
X3123571Y-5428143D02*
X3137857Y-5442429D01*
X3123571Y-5456714D01*
X3109286Y-5442429D01*
X3123571Y-5428143D01*
X3123571Y-5456714D01*
X3323571Y-5156714D02*
X3352143Y-5156714D01*
X3380714Y-5171000D01*
X3395000Y-5185286D01*
X3409285Y-5213857D01*
X3423571Y-5271000D01*
X3423571Y-5342429D01*
X3409285Y-5399572D01*
X3395000Y-5428143D01*
X3380714Y-5442429D01*
X3352143Y-5456714D01*
X3323571Y-5456714D01*
X3295000Y-5442429D01*
X3280714Y-5428143D01*
X3266428Y-5399572D01*
X3252143Y-5342429D01*
X3252143Y-5271000D01*
X3266428Y-5213857D01*
X3280714Y-5185286D01*
X3295000Y-5171000D01*
X3323571Y-5156714D01*
X3523571Y-5156714D02*
X3723571Y-5156714D01*
X3595000Y-5456714D01*
X3980714Y-5156714D02*
X3837857Y-5156714D01*
X3823571Y-5299572D01*
X3837857Y-5285286D01*
X3866428Y-5271000D01*
X3937857Y-5271000D01*
X3966428Y-5285286D01*
X3980714Y-5299572D01*
X3995000Y-5328143D01*
X3995000Y-5399572D01*
X3980714Y-5428143D01*
X3966428Y-5442429D01*
X3937857Y-5456714D01*
X3866428Y-5456714D01*
X3837857Y-5442429D01*
X3823571Y-5428143D01*
X4109286Y-5156714D02*
X4109286Y-5213857D01*
X4223571Y-5156714D02*
X4223571Y-5213857D01*
X4666428Y-5571000D02*
X4652143Y-5556714D01*
X4623571Y-5513857D01*
X4609286Y-5485286D01*
X4595000Y-5442429D01*
X4580714Y-5371000D01*
X4580714Y-5313857D01*
X4595000Y-5242429D01*
X4609286Y-5199572D01*
X4623571Y-5171000D01*
X4652143Y-5128143D01*
X4666428Y-5113857D01*
X4837857Y-5156714D02*
X4866428Y-5156714D01*
X4895000Y-5171000D01*
X4909286Y-5185286D01*
X4923571Y-5213857D01*
X4937857Y-5271000D01*
X4937857Y-5342429D01*
X4923571Y-5399572D01*
X4909286Y-5428143D01*
X4895000Y-5442429D01*
X4866428Y-5456714D01*
X4837857Y-5456714D01*
X4809286Y-5442429D01*
X4795000Y-5428143D01*
X4780714Y-5399572D01*
X4766428Y-5342429D01*
X4766428Y-5271000D01*
X4780714Y-5213857D01*
X4795000Y-5185286D01*
X4809286Y-5171000D01*
X4837857Y-5156714D01*
X5295000Y-5456714D02*
X5295000Y-5156714D01*
X5423571Y-5456714D02*
X5423571Y-5299572D01*
X5409286Y-5271000D01*
X5380714Y-5256714D01*
X5337857Y-5256714D01*
X5309286Y-5271000D01*
X5295000Y-5285286D01*
X5609285Y-5456714D02*
X5580714Y-5442429D01*
X5566428Y-5428143D01*
X5552143Y-5399572D01*
X5552143Y-5313857D01*
X5566428Y-5285286D01*
X5580714Y-5271000D01*
X5609285Y-5256714D01*
X5652143Y-5256714D01*
X5680714Y-5271000D01*
X5695000Y-5285286D01*
X5709285Y-5313857D01*
X5709285Y-5399572D01*
X5695000Y-5428143D01*
X5680714Y-5442429D01*
X5652143Y-5456714D01*
X5609285Y-5456714D01*
X5880714Y-5456714D02*
X5852143Y-5442429D01*
X5837857Y-5413857D01*
X5837857Y-5156714D01*
X6109286Y-5442429D02*
X6080714Y-5456714D01*
X6023571Y-5456714D01*
X5995000Y-5442429D01*
X5980714Y-5413857D01*
X5980714Y-5299572D01*
X5995000Y-5271000D01*
X6023571Y-5256714D01*
X6080714Y-5256714D01*
X6109286Y-5271000D01*
X6123571Y-5299572D01*
X6123571Y-5328143D01*
X5980714Y-5356714D01*
X6237857Y-5442429D02*
X6266428Y-5456714D01*
X6323571Y-5456714D01*
X6352143Y-5442429D01*
X6366428Y-5413857D01*
X6366428Y-5399572D01*
X6352143Y-5371000D01*
X6323571Y-5356714D01*
X6280714Y-5356714D01*
X6252143Y-5342429D01*
X6237857Y-5313857D01*
X6237857Y-5299572D01*
X6252143Y-5271000D01*
X6280714Y-5256714D01*
X6323571Y-5256714D01*
X6352143Y-5271000D01*
X6723571Y-5342429D02*
X6952143Y-5342429D01*
X6837857Y-5456714D02*
X6837857Y-5228143D01*
X7309286Y-5185286D02*
X7323571Y-5171000D01*
X7352143Y-5156714D01*
X7423571Y-5156714D01*
X7452143Y-5171000D01*
X7466428Y-5185286D01*
X7480714Y-5213857D01*
X7480714Y-5242429D01*
X7466428Y-5285286D01*
X7295000Y-5456714D01*
X7480714Y-5456714D01*
X7823571Y-5442429D02*
X7852143Y-5456714D01*
X7909285Y-5456714D01*
X7937857Y-5442429D01*
X7952143Y-5413857D01*
X7952143Y-5399572D01*
X7937857Y-5371000D01*
X7909285Y-5356714D01*
X7866428Y-5356714D01*
X7837857Y-5342429D01*
X7823571Y-5313857D01*
X7823571Y-5299572D01*
X7837857Y-5271000D01*
X7866428Y-5256714D01*
X7909285Y-5256714D01*
X7937857Y-5271000D01*
X8123571Y-5456714D02*
X8095000Y-5442429D01*
X8080714Y-5413857D01*
X8080714Y-5156714D01*
X8280714Y-5456714D02*
X8252143Y-5442429D01*
X8237857Y-5428143D01*
X8223571Y-5399572D01*
X8223571Y-5313857D01*
X8237857Y-5285286D01*
X8252143Y-5271000D01*
X8280714Y-5256714D01*
X8323571Y-5256714D01*
X8352143Y-5271000D01*
X8366428Y-5285286D01*
X8380714Y-5313857D01*
X8380714Y-5399572D01*
X8366428Y-5428143D01*
X8352143Y-5442429D01*
X8323571Y-5456714D01*
X8280714Y-5456714D01*
X8466428Y-5256714D02*
X8580714Y-5256714D01*
X8509286Y-5156714D02*
X8509286Y-5413857D01*
X8523571Y-5442429D01*
X8552143Y-5456714D01*
X8580714Y-5456714D01*
X8666429Y-5442429D02*
X8695000Y-5456714D01*
X8752143Y-5456714D01*
X8780714Y-5442429D01*
X8795000Y-5413857D01*
X8795000Y-5399572D01*
X8780714Y-5371000D01*
X8752143Y-5356714D01*
X8709286Y-5356714D01*
X8680714Y-5342429D01*
X8666429Y-5313857D01*
X8666429Y-5299572D01*
X8680714Y-5271000D01*
X8709286Y-5256714D01*
X8752143Y-5256714D01*
X8780714Y-5271000D01*
X8895000Y-5571000D02*
X8909286Y-5556714D01*
X8937857Y-5513857D01*
X8952143Y-5485286D01*
X8966428Y-5442429D01*
X8980714Y-5371000D01*
X8980714Y-5313857D01*
X8966428Y-5242429D01*
X8952143Y-5199572D01*
X8937857Y-5171000D01*
X8909286Y-5128143D01*
X8895000Y-5113857D01*
X-165000Y-5557000D02*
X-165000Y-5877000D01*
X-325000Y-5717000D02*
X-5000Y-5717000D01*
X-51862Y-5830138D02*
X-51862Y-5603862D01*
X-278138Y-5603862D01*
X-278138Y-5830138D01*
X-51862Y-5830138D01*
X237857Y-5552714D02*
X423571Y-5552714D01*
X323571Y-5667000D01*
X366428Y-5667000D01*
X395000Y-5681286D01*
X409286Y-5695571D01*
X423571Y-5724143D01*
X423571Y-5795571D01*
X409286Y-5824143D01*
X395000Y-5838429D01*
X366428Y-5852714D01*
X280714Y-5852714D01*
X252143Y-5838429D01*
X237857Y-5824143D01*
X552143Y-5824143D02*
X566429Y-5838429D01*
X552143Y-5852714D01*
X537857Y-5838429D01*
X552143Y-5824143D01*
X552143Y-5852714D01*
X680714Y-5581286D02*
X695000Y-5567000D01*
X723571Y-5552714D01*
X795000Y-5552714D01*
X823571Y-5567000D01*
X837857Y-5581286D01*
X852143Y-5609857D01*
X852143Y-5638429D01*
X837857Y-5681286D01*
X666428Y-5852714D01*
X852143Y-5852714D01*
X1037857Y-5552714D02*
X1066429Y-5552714D01*
X1095000Y-5567000D01*
X1109286Y-5581286D01*
X1123571Y-5609857D01*
X1137857Y-5667000D01*
X1137857Y-5738429D01*
X1123571Y-5795571D01*
X1109286Y-5824143D01*
X1095000Y-5838429D01*
X1066429Y-5852714D01*
X1037857Y-5852714D01*
X1009286Y-5838429D01*
X995000Y-5824143D01*
X980714Y-5795571D01*
X966428Y-5738429D01*
X966428Y-5667000D01*
X980714Y-5609857D01*
X995000Y-5581286D01*
X1009286Y-5567000D01*
X1037857Y-5552714D01*
X1266429Y-5852714D02*
X1266429Y-5652714D01*
X1266429Y-5681286D02*
X1280714Y-5667000D01*
X1309286Y-5652714D01*
X1352143Y-5652714D01*
X1380714Y-5667000D01*
X1395000Y-5695571D01*
X1395000Y-5852714D01*
X1395000Y-5695571D02*
X1409286Y-5667000D01*
X1437857Y-5652714D01*
X1480714Y-5652714D01*
X1509286Y-5667000D01*
X1523571Y-5695571D01*
X1523571Y-5852714D01*
X1666428Y-5852714D02*
X1666428Y-5652714D01*
X1666428Y-5681286D02*
X1680714Y-5667000D01*
X1709286Y-5652714D01*
X1752143Y-5652714D01*
X1780714Y-5667000D01*
X1795000Y-5695571D01*
X1795000Y-5852714D01*
X1795000Y-5695571D02*
X1809286Y-5667000D01*
X1837857Y-5652714D01*
X1880714Y-5652714D01*
X1909286Y-5667000D01*
X1923571Y-5695571D01*
X1923571Y-5852714D01*
X2509286Y-5538429D02*
X2252143Y-5924143D01*
X2895000Y-5552714D02*
X2923571Y-5552714D01*
X2952143Y-5567000D01*
X2966428Y-5581286D01*
X2980714Y-5609857D01*
X2995000Y-5667000D01*
X2995000Y-5738429D01*
X2980714Y-5795571D01*
X2966428Y-5824143D01*
X2952143Y-5838429D01*
X2923571Y-5852714D01*
X2895000Y-5852714D01*
X2866428Y-5838429D01*
X2852143Y-5824143D01*
X2837857Y-5795571D01*
X2823571Y-5738429D01*
X2823571Y-5667000D01*
X2837857Y-5609857D01*
X2852143Y-5581286D01*
X2866428Y-5567000D01*
X2895000Y-5552714D01*
X3123571Y-5824143D02*
X3137857Y-5838429D01*
X3123571Y-5852714D01*
X3109286Y-5838429D01*
X3123571Y-5824143D01*
X3123571Y-5852714D01*
X3423571Y-5852714D02*
X3252143Y-5852714D01*
X3337857Y-5852714D02*
X3337857Y-5552714D01*
X3309285Y-5595571D01*
X3280714Y-5624143D01*
X3252143Y-5638429D01*
X3537857Y-5581286D02*
X3552143Y-5567000D01*
X3580714Y-5552714D01*
X3652143Y-5552714D01*
X3680714Y-5567000D01*
X3695000Y-5581286D01*
X3709285Y-5609857D01*
X3709285Y-5638429D01*
X3695000Y-5681286D01*
X3523571Y-5852714D01*
X3709285Y-5852714D01*
X3966428Y-5552714D02*
X3909285Y-5552714D01*
X3880714Y-5567000D01*
X3866428Y-5581286D01*
X3837857Y-5624143D01*
X3823571Y-5681286D01*
X3823571Y-5795571D01*
X3837857Y-5824143D01*
X3852143Y-5838429D01*
X3880714Y-5852714D01*
X3937857Y-5852714D01*
X3966428Y-5838429D01*
X3980714Y-5824143D01*
X3995000Y-5795571D01*
X3995000Y-5724143D01*
X3980714Y-5695571D01*
X3966428Y-5681286D01*
X3937857Y-5667000D01*
X3880714Y-5667000D01*
X3852143Y-5681286D01*
X3837857Y-5695571D01*
X3823571Y-5724143D01*
X4109286Y-5552714D02*
X4109286Y-5609857D01*
X4223571Y-5552714D02*
X4223571Y-5609857D01*
X4666428Y-5967000D02*
X4652143Y-5952714D01*
X4623571Y-5909857D01*
X4609286Y-5881286D01*
X4595000Y-5838429D01*
X4580714Y-5767000D01*
X4580714Y-5709857D01*
X4595000Y-5638429D01*
X4609286Y-5595571D01*
X4623571Y-5567000D01*
X4652143Y-5524143D01*
X4666428Y-5509857D01*
X4795000Y-5852714D02*
X4852143Y-5852714D01*
X4880714Y-5838429D01*
X4895000Y-5824143D01*
X4923571Y-5781286D01*
X4937857Y-5724143D01*
X4937857Y-5609857D01*
X4923571Y-5581286D01*
X4909286Y-5567000D01*
X4880714Y-5552714D01*
X4823571Y-5552714D01*
X4795000Y-5567000D01*
X4780714Y-5581286D01*
X4766428Y-5609857D01*
X4766428Y-5681286D01*
X4780714Y-5709857D01*
X4795000Y-5724143D01*
X4823571Y-5738429D01*
X4880714Y-5738429D01*
X4909286Y-5724143D01*
X4923571Y-5709857D01*
X4937857Y-5681286D01*
X5295000Y-5852714D02*
X5295000Y-5552714D01*
X5423571Y-5852714D02*
X5423571Y-5695571D01*
X5409286Y-5667000D01*
X5380714Y-5652714D01*
X5337857Y-5652714D01*
X5309286Y-5667000D01*
X5295000Y-5681286D01*
X5609285Y-5852714D02*
X5580714Y-5838429D01*
X5566428Y-5824143D01*
X5552143Y-5795571D01*
X5552143Y-5709857D01*
X5566428Y-5681286D01*
X5580714Y-5667000D01*
X5609285Y-5652714D01*
X5652143Y-5652714D01*
X5680714Y-5667000D01*
X5695000Y-5681286D01*
X5709285Y-5709857D01*
X5709285Y-5795571D01*
X5695000Y-5824143D01*
X5680714Y-5838429D01*
X5652143Y-5852714D01*
X5609285Y-5852714D01*
X5880714Y-5852714D02*
X5852143Y-5838429D01*
X5837857Y-5809857D01*
X5837857Y-5552714D01*
X6109286Y-5838429D02*
X6080714Y-5852714D01*
X6023571Y-5852714D01*
X5995000Y-5838429D01*
X5980714Y-5809857D01*
X5980714Y-5695571D01*
X5995000Y-5667000D01*
X6023571Y-5652714D01*
X6080714Y-5652714D01*
X6109286Y-5667000D01*
X6123571Y-5695571D01*
X6123571Y-5724143D01*
X5980714Y-5752714D01*
X6237857Y-5838429D02*
X6266428Y-5852714D01*
X6323571Y-5852714D01*
X6352143Y-5838429D01*
X6366428Y-5809857D01*
X6366428Y-5795571D01*
X6352143Y-5767000D01*
X6323571Y-5752714D01*
X6280714Y-5752714D01*
X6252143Y-5738429D01*
X6237857Y-5709857D01*
X6237857Y-5695571D01*
X6252143Y-5667000D01*
X6280714Y-5652714D01*
X6323571Y-5652714D01*
X6352143Y-5667000D01*
X6466428Y-5967000D02*
X6480714Y-5952714D01*
X6509286Y-5909857D01*
X6523571Y-5881286D01*
X6537857Y-5838429D01*
X6552143Y-5767000D01*
X6552143Y-5709857D01*
X6537857Y-5638429D01*
X6523571Y-5595571D01*
X6509286Y-5567000D01*
X6480714Y-5524143D01*
X6466428Y-5509857D01*
X-205000Y-5967000D02*
X-205000Y-6367000D01*
X-405000Y-6167000D02*
X-5000Y-6167000D01*
X-205000Y-6367000D02*
X-5000Y-6167000D01*
X-205000Y-5967000D01*
X-405000Y-6167000D01*
X-205000Y-6367000D01*
X395000Y-6102714D02*
X395000Y-6302714D01*
X323571Y-5988429D02*
X252143Y-6202714D01*
X437857Y-6202714D01*
X552143Y-6274143D02*
X566429Y-6288429D01*
X552143Y-6302714D01*
X537857Y-6288429D01*
X552143Y-6274143D01*
X552143Y-6302714D01*
X752143Y-6002714D02*
X780714Y-6002714D01*
X809286Y-6017000D01*
X823571Y-6031286D01*
X837857Y-6059857D01*
X852143Y-6117000D01*
X852143Y-6188429D01*
X837857Y-6245571D01*
X823571Y-6274143D01*
X809286Y-6288429D01*
X780714Y-6302714D01*
X752143Y-6302714D01*
X723571Y-6288429D01*
X709286Y-6274143D01*
X695000Y-6245571D01*
X680714Y-6188429D01*
X680714Y-6117000D01*
X695000Y-6059857D01*
X709286Y-6031286D01*
X723571Y-6017000D01*
X752143Y-6002714D01*
X1037857Y-6002714D02*
X1066429Y-6002714D01*
X1095000Y-6017000D01*
X1109286Y-6031286D01*
X1123571Y-6059857D01*
X1137857Y-6117000D01*
X1137857Y-6188429D01*
X1123571Y-6245571D01*
X1109286Y-6274143D01*
X1095000Y-6288429D01*
X1066429Y-6302714D01*
X1037857Y-6302714D01*
X1009286Y-6288429D01*
X995000Y-6274143D01*
X980714Y-6245571D01*
X966428Y-6188429D01*
X966428Y-6117000D01*
X980714Y-6059857D01*
X995000Y-6031286D01*
X1009286Y-6017000D01*
X1037857Y-6002714D01*
X1266429Y-6302714D02*
X1266429Y-6102714D01*
X1266429Y-6131286D02*
X1280714Y-6117000D01*
X1309286Y-6102714D01*
X1352143Y-6102714D01*
X1380714Y-6117000D01*
X1395000Y-6145571D01*
X1395000Y-6302714D01*
X1395000Y-6145571D02*
X1409286Y-6117000D01*
X1437857Y-6102714D01*
X1480714Y-6102714D01*
X1509286Y-6117000D01*
X1523571Y-6145571D01*
X1523571Y-6302714D01*
X1666428Y-6302714D02*
X1666428Y-6102714D01*
X1666428Y-6131286D02*
X1680714Y-6117000D01*
X1709286Y-6102714D01*
X1752143Y-6102714D01*
X1780714Y-6117000D01*
X1795000Y-6145571D01*
X1795000Y-6302714D01*
X1795000Y-6145571D02*
X1809286Y-6117000D01*
X1837857Y-6102714D01*
X1880714Y-6102714D01*
X1909286Y-6117000D01*
X1923571Y-6145571D01*
X1923571Y-6302714D01*
X2509286Y-5988429D02*
X2252143Y-6374143D01*
X2895000Y-6002714D02*
X2923571Y-6002714D01*
X2952143Y-6017000D01*
X2966428Y-6031286D01*
X2980714Y-6059857D01*
X2995000Y-6117000D01*
X2995000Y-6188429D01*
X2980714Y-6245571D01*
X2966428Y-6274143D01*
X2952143Y-6288429D01*
X2923571Y-6302714D01*
X2895000Y-6302714D01*
X2866428Y-6288429D01*
X2852143Y-6274143D01*
X2837857Y-6245571D01*
X2823571Y-6188429D01*
X2823571Y-6117000D01*
X2837857Y-6059857D01*
X2852143Y-6031286D01*
X2866428Y-6017000D01*
X2895000Y-6002714D01*
X3123571Y-6274143D02*
X3137857Y-6288429D01*
X3123571Y-6302714D01*
X3109286Y-6288429D01*
X3123571Y-6274143D01*
X3123571Y-6302714D01*
X3423571Y-6302714D02*
X3252143Y-6302714D01*
X3337857Y-6302714D02*
X3337857Y-6002714D01*
X3309285Y-6045571D01*
X3280714Y-6074143D01*
X3252143Y-6088429D01*
X3695000Y-6002714D02*
X3552143Y-6002714D01*
X3537857Y-6145571D01*
X3552143Y-6131286D01*
X3580714Y-6117000D01*
X3652143Y-6117000D01*
X3680714Y-6131286D01*
X3695000Y-6145571D01*
X3709285Y-6174143D01*
X3709285Y-6245571D01*
X3695000Y-6274143D01*
X3680714Y-6288429D01*
X3652143Y-6302714D01*
X3580714Y-6302714D01*
X3552143Y-6288429D01*
X3537857Y-6274143D01*
X3809285Y-6002714D02*
X4009285Y-6002714D01*
X3880714Y-6302714D01*
X4109286Y-6002714D02*
X4109286Y-6059857D01*
X4223571Y-6002714D02*
X4223571Y-6059857D01*
X4666428Y-6417000D02*
X4652143Y-6402714D01*
X4623571Y-6359857D01*
X4609286Y-6331286D01*
X4595000Y-6288429D01*
X4580714Y-6217000D01*
X4580714Y-6159857D01*
X4595000Y-6088429D01*
X4609286Y-6045571D01*
X4623571Y-6017000D01*
X4652143Y-5974143D01*
X4666428Y-5959857D01*
X4823571Y-6131286D02*
X4795000Y-6117000D01*
X4780714Y-6102714D01*
X4766428Y-6074143D01*
X4766428Y-6059857D01*
X4780714Y-6031286D01*
X4795000Y-6017000D01*
X4823571Y-6002714D01*
X4880714Y-6002714D01*
X4909286Y-6017000D01*
X4923571Y-6031286D01*
X4937857Y-6059857D01*
X4937857Y-6074143D01*
X4923571Y-6102714D01*
X4909286Y-6117000D01*
X4880714Y-6131286D01*
X4823571Y-6131286D01*
X4795000Y-6145571D01*
X4780714Y-6159857D01*
X4766428Y-6188429D01*
X4766428Y-6245571D01*
X4780714Y-6274143D01*
X4795000Y-6288429D01*
X4823571Y-6302714D01*
X4880714Y-6302714D01*
X4909286Y-6288429D01*
X4923571Y-6274143D01*
X4937857Y-6245571D01*
X4937857Y-6188429D01*
X4923571Y-6159857D01*
X4909286Y-6145571D01*
X4880714Y-6131286D01*
X5295000Y-6302714D02*
X5295000Y-6002714D01*
X5423571Y-6302714D02*
X5423571Y-6145571D01*
X5409286Y-6117000D01*
X5380714Y-6102714D01*
X5337857Y-6102714D01*
X5309286Y-6117000D01*
X5295000Y-6131286D01*
X5609285Y-6302714D02*
X5580714Y-6288429D01*
X5566428Y-6274143D01*
X5552143Y-6245571D01*
X5552143Y-6159857D01*
X5566428Y-6131286D01*
X5580714Y-6117000D01*
X5609285Y-6102714D01*
X5652143Y-6102714D01*
X5680714Y-6117000D01*
X5695000Y-6131286D01*
X5709285Y-6159857D01*
X5709285Y-6245571D01*
X5695000Y-6274143D01*
X5680714Y-6288429D01*
X5652143Y-6302714D01*
X5609285Y-6302714D01*
X5880714Y-6302714D02*
X5852143Y-6288429D01*
X5837857Y-6259857D01*
X5837857Y-6002714D01*
X6109286Y-6288429D02*
X6080714Y-6302714D01*
X6023571Y-6302714D01*
X5995000Y-6288429D01*
X5980714Y-6259857D01*
X5980714Y-6145571D01*
X5995000Y-6117000D01*
X6023571Y-6102714D01*
X6080714Y-6102714D01*
X6109286Y-6117000D01*
X6123571Y-6145571D01*
X6123571Y-6174143D01*
X5980714Y-6202714D01*
X6237857Y-6288429D02*
X6266428Y-6302714D01*
X6323571Y-6302714D01*
X6352143Y-6288429D01*
X6366428Y-6259857D01*
X6366428Y-6245571D01*
X6352143Y-6217000D01*
X6323571Y-6202714D01*
X6280714Y-6202714D01*
X6252143Y-6188429D01*
X6237857Y-6159857D01*
X6237857Y-6145571D01*
X6252143Y-6117000D01*
X6280714Y-6102714D01*
X6323571Y-6102714D01*
X6352143Y-6117000D01*
X6466428Y-6417000D02*
X6480714Y-6402714D01*
X6509286Y-6359857D01*
X6523571Y-6331286D01*
X6537857Y-6288429D01*
X6552143Y-6217000D01*
X6552143Y-6159857D01*
X6537857Y-6088429D01*
X6523571Y-6045571D01*
X6509286Y-6017000D01*
X6480714Y-5974143D01*
X6466428Y-5959857D01*
M02*
