M48
;DRILL file {KiCad 4.0.4+e1-6308~48~ubuntu16.04.1-stable} date Tue Nov 15 09:59:45 2016
;FORMAT={-:-/ absolute / metric / decimal}
FMAT,2
METRIC,TZ
T1C0.400
T2C0.550
T3C0.750
T4C0.762
T5C0.800
T6C1.000
T7C1.001
T8C1.016
T9C1.350
T10C1.380
T11C1.500
T12C1.900
T13C3.200
T14C4.000
%
G90
G05
M71
T1
X6.398Y26.348
X7.443Y32.253
X10.615Y51.064
X10.615Y35.988
X11.33Y24.63
X11.75Y27.75
X12.5Y83.1
X12.565Y35.988
X12.715Y43.313
X12.715Y40.062
X16.5Y32.5
X17.745Y22.033
X18.056Y31.138
X18.255Y45.817
X21.Y53.
X21.Y43.75
X23.5Y40.5
X24.575Y31.068
X24.978Y25.188
X26.Y47.
X28.75Y33.5
X28.75Y31.
X34.444Y17.075
X34.581Y84.864
X35.171Y61.528
X37.712Y61.906
X42.Y60.
X42.172Y85.833
X47.996Y50.398
X48.196Y63.558
X49.056Y51.825
X49.973Y39.158
X51.106Y33.842
X52.758Y43.832
X53.446Y42.03
X55.Y51.687
X55.5Y37.
X56.Y40.5
X57.066Y68.629
X57.664Y47.015
X60.921Y75.769
X62.006Y87.032
X62.132Y46.739
X63.045Y72.754
X64.03Y37.521
X66.Y68.75
X66.034Y36.157
X66.125Y15.841
X68.386Y60.619
X68.838Y45.83
X69.832Y66.89
X70.Y73.
X70.014Y39.611
X70.574Y79.49
X72.515Y66.899
X73.5Y21.5
X74.636Y72.423
X75.677Y50.293
X76.75Y33.38
X78.059Y66.077
X78.784Y54.15
X78.784Y51.15
X79.139Y33.582
X79.616Y39.266
X79.862Y66.401
X80.01Y72.349
X80.764Y43.198
X80.86Y66.555
X81.073Y72.33
X81.66Y75.63
X81.674Y80.58
X83.317Y13.302
X85.448Y15.709
X85.956Y49.201
X86.267Y81.3
X86.78Y87.102
X86.781Y74.469
X87.392Y75.734
X87.576Y19.238
X88.572Y78.273
X90.341Y39.561
X91.662Y71.494
X91.75Y84.923
X92.5Y47.
X95.767Y82.185
X96.26Y39.385
X96.304Y80.315
X96.4Y43.038
X97.235Y33.466
X98.125Y82.862
X99.288Y76.663
X101.506Y84.775
X101.944Y39.836
X103.03Y38.504
X104.2Y87.055
X105.922Y79.557
X106.3Y82.3
X106.838Y62.502
X107.681Y80.936
X111.5Y15.
X112.5Y85.3
X121.012Y68.888
X123.222Y82.245
X126.Y18.
X127.602Y72.807
X137.Y49.
X137.Y47.
X137.66Y34.112
X138.Y50.
X138.Y48.
X139.Y49.
X139.Y47.
X140.Y50.
X140.Y48.
X141.Y49.
X141.Y47.
X141.Y45.
X141.Y43.
X141.Y41.
X142.Y50.
X142.Y48.
X142.Y46.
X142.Y44.
X142.Y42.
X143.Y49.
X143.Y47.
X143.Y45.
X143.Y43.
X143.Y41.
X143.292Y16.262
X144.Y50.
X144.Y48.
X144.Y46.
X144.Y44.
X144.Y42.
X145.Y49.
X145.Y47.
X145.Y45.
X145.Y43.
X145.Y41.
X146.Y50.
X146.Y48.
X146.Y46.
X146.Y44.
X146.Y42.
X147.Y49.
X147.Y47.
X147.Y45.
X147.Y43.
X147.Y41.
X148.Y50.
X148.Y48.
X148.Y46.
X148.Y44.
X148.Y42.
T4
X112.46Y93.
X115.Y93.
X117.54Y93.
X134.Y26.8
X134.Y19.2
X136.475Y90.4
X136.475Y75.9
X138.975Y75.9
X141.475Y90.4
X141.475Y75.9
T5
X22.Y90.
X23.999Y90.
X26.001Y90.
X28.Y90.
X122.Y90.
X123.999Y90.
X126.001Y90.
X128.Y90.
T6
X12.5Y79.55
X15.Y79.55
X17.5Y79.55
X24.75Y72.3
X24.75Y69.8
X24.75Y67.3
X118.Y28.5
X118.Y26.
X118.Y23.5
T7
X35.Y91.825
X37.54Y91.825
T8
X14.816Y7.516
X17.356Y7.516
X19.896Y7.516
X22.436Y7.516
X31.484Y7.516
X32.Y75.
X32.Y72.46
X32.Y69.92
X32.Y67.38
X32.Y64.84
X32.Y62.3
X32.Y59.76
X32.Y57.22
X32.Y54.68
X32.Y52.14
X32.Y49.6
X32.Y47.06
X32.Y44.52
X32.Y41.98
X34.024Y7.516
X36.564Y7.516
X39.104Y7.516
X41.644Y7.516
X46.749Y89.261
X46.749Y84.739
X50.692Y7.516
X53.232Y7.516
X53.251Y89.261
X53.251Y84.739
X55.772Y7.516
X58.312Y7.516
X60.852Y7.516
X69.9Y7.516
X72.44Y7.516
X74.98Y7.516
X77.52Y7.516
X80.06Y7.516
X89.108Y7.516
X91.648Y7.516
X94.188Y7.516
X96.728Y7.516
X99.268Y7.516
X108.316Y7.516
X110.856Y7.516
X113.Y62.3
X113.Y59.76
X113.Y57.22
X113.Y54.68
X113.396Y7.516
X115.936Y7.516
X118.476Y7.516
X126.068Y60.003
X126.068Y55.481
X127.524Y7.516
X130.064Y7.516
X132.57Y60.003
X132.57Y55.481
X132.604Y7.516
X135.144Y7.516
X137.859Y66.373
X137.859Y61.852
X144.361Y66.373
X144.361Y61.852
T9
X11.15Y61.55
X11.15Y57.05
X18.85Y61.55
X18.85Y57.05
T11
X7.25Y76.45
X7.25Y63.15
X22.75Y76.45
X22.75Y63.15
T13
X5.Y85.
X5.Y10.
X36.92Y80.49
X36.92Y36.49
X47.195Y20.05
X102.805Y20.05
X113.Y80.49
X113.Y36.49
X145.Y10.
T14
X10.292Y6.
X26.96Y6.
X46.168Y6.
X65.376Y6.
X84.584Y6.
X103.792Y6.
X123.Y6.
X139.668Y6.
T2
X99.Y89.3G85X98.7Y89.3
G05
X104.Y89.3G85X103.7Y89.3
G05
T3
X97.85Y92.2G85X97.85Y91.8
G05
X104.85Y92.2G85X104.85Y91.8
G05
T10
X38.55Y20.76G85X38.55Y19.34
G05
X111.45Y20.76G85X111.45Y19.34
G05
T12
X133.425Y83.55G85X133.425Y83.25
G05
X144.525Y83.55G85X144.525Y83.25
G05
T0
M30
