G04 #@! TF.FileFunction,Other,ECO1*
%FSLAX46Y46*%
G04 Gerber Fmt 4.6, Leading zero omitted, Abs format (unit mm)*
G04 Created by KiCad (PCBNEW 4.0.4+e1-6308~48~ubuntu16.04.1-stable) date Tue Nov 15 10:08:49 2016*
%MOMM*%
%LPD*%
G01*
G04 APERTURE LIST*
%ADD10C,0.500000*%
%ADD11C,0.100000*%
%ADD12C,0.125000*%
%ADD13C,0.150000*%
G04 APERTURE END LIST*
D10*
D11*
X141410666Y59554050D02*
X141378666Y59582850D01*
X140875666Y59554050D02*
X140834666Y59538150D01*
X140834666Y59538150D02*
X140791666Y59536950D01*
X140907666Y59582850D02*
X140875666Y59554050D01*
X141569666Y59577650D02*
X141535666Y59550650D01*
X141451666Y59538150D02*
X141410666Y59554050D01*
X141494666Y59536950D02*
X141451666Y59538150D01*
X140791666Y59536950D02*
X140750666Y59550650D01*
X141535666Y59550650D02*
X141494666Y59536950D01*
X140750666Y59550650D02*
X140716666Y59577650D01*
X129502200Y53416000D02*
X129528200Y53466700D01*
X128973200Y53184200D02*
X128962200Y53214700D01*
X128962200Y53214700D02*
X128956200Y53246700D01*
X129019200Y53138500D02*
X128994200Y53159300D01*
X129206200Y53371700D02*
X129433200Y53371700D01*
X129206200Y53645500D02*
X129206200Y53371700D01*
X129483200Y53397100D02*
X129502200Y53416000D01*
X128994200Y53159300D02*
X128973200Y53184200D01*
X129433200Y53371700D02*
X129483200Y53397100D01*
X128956200Y53246700D02*
X128956200Y54246700D01*
X129462200Y53121700D02*
X129081200Y53121700D01*
X129613200Y53182500D02*
X129518200Y53134900D01*
X129773200Y53408900D02*
X129765200Y53381300D01*
X129778200Y53437200D02*
X129773200Y53408900D01*
X129778200Y53580100D02*
X129778200Y53437200D01*
X129081200Y53121700D02*
X129049200Y53127400D01*
X129491200Y53126700D02*
X129462200Y53121700D01*
X129049200Y53127400D02*
X129019200Y53138500D01*
X129518200Y53134900D02*
X129491200Y53126700D01*
X129646200Y53206000D02*
X129613200Y53182500D01*
X129717200Y53286100D02*
X129693200Y53253600D01*
X129693200Y53253600D02*
X129646200Y53206000D01*
X129765200Y53381300D02*
X129717200Y53286100D01*
X47557143Y37428571D02*
X47557143Y38028571D01*
X47700000Y38028571D01*
X47785715Y38000000D01*
X47842857Y37942857D01*
X47871429Y37885714D01*
X47900000Y37771429D01*
X47900000Y37685714D01*
X47871429Y37571429D01*
X47842857Y37514286D01*
X47785715Y37457143D01*
X47700000Y37428571D01*
X47557143Y37428571D01*
X48414286Y37828571D02*
X48414286Y37428571D01*
X48271429Y38057143D02*
X48128572Y37628571D01*
X48500000Y37628571D01*
X73985714Y37428571D02*
X73985714Y38028571D01*
X74128571Y38028571D01*
X74214286Y38000000D01*
X74271428Y37942857D01*
X74300000Y37885714D01*
X74328571Y37771429D01*
X74328571Y37685714D01*
X74300000Y37571429D01*
X74271428Y37514286D01*
X74214286Y37457143D01*
X74128571Y37428571D01*
X73985714Y37428571D01*
X74557143Y37971429D02*
X74585714Y38000000D01*
X74642857Y38028571D01*
X74785714Y38028571D01*
X74842857Y38000000D01*
X74871428Y37971429D01*
X74900000Y37914286D01*
X74900000Y37857143D01*
X74871428Y37771429D01*
X74528571Y37428571D01*
X74900000Y37428571D01*
X75271429Y38028571D02*
X75328572Y38028571D01*
X75385715Y38000000D01*
X75414286Y37971429D01*
X75442857Y37914286D01*
X75471429Y37800000D01*
X75471429Y37657143D01*
X75442857Y37542857D01*
X75414286Y37485714D01*
X75385715Y37457143D01*
X75328572Y37428571D01*
X75271429Y37428571D01*
X75214286Y37457143D01*
X75185715Y37485714D01*
X75157143Y37542857D01*
X75128572Y37657143D01*
X75128572Y37800000D01*
X75157143Y37914286D01*
X75185715Y37971429D01*
X75214286Y38000000D01*
X75271429Y38028571D01*
X76042858Y37428571D02*
X75700001Y37428571D01*
X75871429Y37428571D02*
X75871429Y38028571D01*
X75814286Y37942857D01*
X75757144Y37885714D01*
X75700001Y37857143D01*
X51800000Y37042857D02*
X51600000Y37042857D01*
X51600000Y36728571D02*
X51600000Y37328571D01*
X51885714Y37328571D01*
X52428572Y36728571D02*
X52085715Y36728571D01*
X52257143Y36728571D02*
X52257143Y37328571D01*
X52200000Y37242857D01*
X52142858Y37185714D01*
X52085715Y37157143D01*
X105476191Y36676190D02*
X105428572Y36700000D01*
X105380953Y36747619D01*
X105309524Y36819048D01*
X105261905Y36842857D01*
X105214286Y36842857D01*
X105238096Y36723810D02*
X105190477Y36747619D01*
X105142858Y36795238D01*
X105119048Y36890476D01*
X105119048Y37057143D01*
X105142858Y37152381D01*
X105190477Y37200000D01*
X105238096Y37223810D01*
X105333334Y37223810D01*
X105380953Y37200000D01*
X105428572Y37152381D01*
X105452381Y37057143D01*
X105452381Y36890476D01*
X105428572Y36795238D01*
X105380953Y36747619D01*
X105333334Y36723810D01*
X105238096Y36723810D01*
X105642858Y37176190D02*
X105666668Y37200000D01*
X105714287Y37223810D01*
X105833334Y37223810D01*
X105880953Y37200000D01*
X105904763Y37176190D01*
X105928572Y37128571D01*
X105928572Y37080952D01*
X105904763Y37009524D01*
X105619049Y36723810D01*
X105928572Y36723810D01*
X106238096Y37223810D02*
X106285715Y37223810D01*
X106333334Y37200000D01*
X106357143Y37176190D01*
X106380953Y37128571D01*
X106404762Y37033333D01*
X106404762Y36914286D01*
X106380953Y36819048D01*
X106357143Y36771429D01*
X106333334Y36747619D01*
X106285715Y36723810D01*
X106238096Y36723810D01*
X106190477Y36747619D01*
X106166667Y36771429D01*
X106142858Y36819048D01*
X106119048Y36914286D01*
X106119048Y37033333D01*
X106142858Y37128571D01*
X106166667Y37176190D01*
X106190477Y37200000D01*
X106238096Y37223810D01*
X106595238Y37176190D02*
X106619048Y37200000D01*
X106666667Y37223810D01*
X106785714Y37223810D01*
X106833333Y37200000D01*
X106857143Y37176190D01*
X106880952Y37128571D01*
X106880952Y37080952D01*
X106857143Y37009524D01*
X106571429Y36723810D01*
X106880952Y36723810D01*
X99476191Y36676190D02*
X99428572Y36700000D01*
X99380953Y36747619D01*
X99309524Y36819048D01*
X99261905Y36842857D01*
X99214286Y36842857D01*
X99238096Y36723810D02*
X99190477Y36747619D01*
X99142858Y36795238D01*
X99119048Y36890476D01*
X99119048Y37057143D01*
X99142858Y37152381D01*
X99190477Y37200000D01*
X99238096Y37223810D01*
X99333334Y37223810D01*
X99380953Y37200000D01*
X99428572Y37152381D01*
X99452381Y37057143D01*
X99452381Y36890476D01*
X99428572Y36795238D01*
X99380953Y36747619D01*
X99333334Y36723810D01*
X99238096Y36723810D01*
X99642858Y37176190D02*
X99666668Y37200000D01*
X99714287Y37223810D01*
X99833334Y37223810D01*
X99880953Y37200000D01*
X99904763Y37176190D01*
X99928572Y37128571D01*
X99928572Y37080952D01*
X99904763Y37009524D01*
X99619049Y36723810D01*
X99928572Y36723810D01*
X100238096Y37223810D02*
X100285715Y37223810D01*
X100333334Y37200000D01*
X100357143Y37176190D01*
X100380953Y37128571D01*
X100404762Y37033333D01*
X100404762Y36914286D01*
X100380953Y36819048D01*
X100357143Y36771429D01*
X100333334Y36747619D01*
X100285715Y36723810D01*
X100238096Y36723810D01*
X100190477Y36747619D01*
X100166667Y36771429D01*
X100142858Y36819048D01*
X100119048Y36914286D01*
X100119048Y37033333D01*
X100142858Y37128571D01*
X100166667Y37176190D01*
X100190477Y37200000D01*
X100238096Y37223810D01*
X100571429Y37223810D02*
X100880952Y37223810D01*
X100714286Y37033333D01*
X100785714Y37033333D01*
X100833333Y37009524D01*
X100857143Y36985714D01*
X100880952Y36938095D01*
X100880952Y36819048D01*
X100857143Y36771429D01*
X100833333Y36747619D01*
X100785714Y36723810D01*
X100642857Y36723810D01*
X100595238Y36747619D01*
X100571429Y36771429D01*
X49150000Y86757143D02*
X49235714Y86728571D01*
X49378571Y86728571D01*
X49435714Y86757143D01*
X49464285Y86785714D01*
X49492857Y86842857D01*
X49492857Y86900000D01*
X49464285Y86957143D01*
X49435714Y86985714D01*
X49378571Y87014286D01*
X49264285Y87042857D01*
X49207143Y87071429D01*
X49178571Y87100000D01*
X49150000Y87157143D01*
X49150000Y87214286D01*
X49178571Y87271429D01*
X49207143Y87300000D01*
X49264285Y87328571D01*
X49407143Y87328571D01*
X49492857Y87300000D01*
X49692857Y87328571D02*
X49835714Y86728571D01*
X49950000Y87157143D01*
X50064286Y86728571D01*
X50207143Y87328571D01*
X50721428Y87328571D02*
X50435714Y87328571D01*
X50407143Y87042857D01*
X50435714Y87071429D01*
X50492857Y87100000D01*
X50635714Y87100000D01*
X50692857Y87071429D01*
X50721428Y87042857D01*
X50750000Y86985714D01*
X50750000Y86842857D01*
X50721428Y86785714D01*
X50692857Y86757143D01*
X50635714Y86728571D01*
X50492857Y86728571D01*
X50435714Y86757143D01*
X50407143Y86785714D01*
D12*
X89561905Y35678571D02*
X90209524Y35678571D01*
X90285714Y35716666D01*
X90323810Y35754762D01*
X90361905Y35830952D01*
X90361905Y35983333D01*
X90323810Y36059524D01*
X90285714Y36097619D01*
X90209524Y36135714D01*
X89561905Y36135714D01*
X89638095Y36478571D02*
X89600000Y36516666D01*
X89561905Y36592857D01*
X89561905Y36783333D01*
X89600000Y36859523D01*
X89638095Y36897619D01*
X89714286Y36935714D01*
X89790476Y36935714D01*
X89904762Y36897619D01*
X90361905Y36440476D01*
X90361905Y36935714D01*
X89561905Y37430952D02*
X89561905Y37507143D01*
X89600000Y37583333D01*
X89638095Y37621428D01*
X89714286Y37659524D01*
X89866667Y37697619D01*
X90057143Y37697619D01*
X90209524Y37659524D01*
X90285714Y37621428D01*
X90323810Y37583333D01*
X90361905Y37507143D01*
X90361905Y37430952D01*
X90323810Y37354762D01*
X90285714Y37316666D01*
X90209524Y37278571D01*
X90057143Y37240476D01*
X89866667Y37240476D01*
X89714286Y37278571D01*
X89638095Y37316666D01*
X89600000Y37354762D01*
X89561905Y37430952D01*
X89638095Y38002381D02*
X89600000Y38040476D01*
X89561905Y38116667D01*
X89561905Y38307143D01*
X89600000Y38383333D01*
X89638095Y38421429D01*
X89714286Y38459524D01*
X89790476Y38459524D01*
X89904762Y38421429D01*
X90361905Y37964286D01*
X90361905Y38459524D01*
D11*
X140260000Y63869543D02*
X140345714Y63840971D01*
X140488571Y63840971D01*
X140545714Y63869543D01*
X140574285Y63898114D01*
X140602857Y63955257D01*
X140602857Y64012400D01*
X140574285Y64069543D01*
X140545714Y64098114D01*
X140488571Y64126686D01*
X140374285Y64155257D01*
X140317143Y64183829D01*
X140288571Y64212400D01*
X140260000Y64269543D01*
X140260000Y64326686D01*
X140288571Y64383829D01*
X140317143Y64412400D01*
X140374285Y64440971D01*
X140517143Y64440971D01*
X140602857Y64412400D01*
X140802857Y64440971D02*
X140945714Y63840971D01*
X141060000Y64269543D01*
X141174286Y63840971D01*
X141317143Y64440971D01*
X141802857Y64240971D02*
X141802857Y63840971D01*
X141660000Y64469543D02*
X141517143Y64040971D01*
X141888571Y64040971D01*
X128469000Y57499243D02*
X128554714Y57470671D01*
X128697571Y57470671D01*
X128754714Y57499243D01*
X128783285Y57527814D01*
X128811857Y57584957D01*
X128811857Y57642100D01*
X128783285Y57699243D01*
X128754714Y57727814D01*
X128697571Y57756386D01*
X128583285Y57784957D01*
X128526143Y57813529D01*
X128497571Y57842100D01*
X128469000Y57899243D01*
X128469000Y57956386D01*
X128497571Y58013529D01*
X128526143Y58042100D01*
X128583285Y58070671D01*
X128726143Y58070671D01*
X128811857Y58042100D01*
X129011857Y58070671D02*
X129154714Y57470671D01*
X129269000Y57899243D01*
X129383286Y57470671D01*
X129526143Y58070671D01*
X130011857Y58070671D02*
X129897571Y58070671D01*
X129840428Y58042100D01*
X129811857Y58013529D01*
X129754714Y57927814D01*
X129726143Y57813529D01*
X129726143Y57584957D01*
X129754714Y57527814D01*
X129783286Y57499243D01*
X129840428Y57470671D01*
X129954714Y57470671D01*
X130011857Y57499243D01*
X130040428Y57527814D01*
X130069000Y57584957D01*
X130069000Y57727814D01*
X130040428Y57784957D01*
X130011857Y57813529D01*
X129954714Y57842100D01*
X129840428Y57842100D01*
X129783286Y57813529D01*
X129754714Y57784957D01*
X129726143Y57727814D01*
D13*
X14252381Y69038095D02*
X15061905Y69038095D01*
X15157143Y69085714D01*
X15204762Y69133333D01*
X15252381Y69228571D01*
X15252381Y69419048D01*
X15204762Y69514286D01*
X15157143Y69561905D01*
X15061905Y69609524D01*
X14252381Y69609524D01*
X14585714Y70514286D02*
X15252381Y70514286D01*
X14204762Y70276190D02*
X14919048Y70038095D01*
X14919048Y70657143D01*
D11*
X100907143Y93728571D02*
X100907143Y94328571D01*
X101135715Y94328571D01*
X101192857Y94300000D01*
X101221429Y94271429D01*
X101250000Y94214286D01*
X101250000Y94128571D01*
X101221429Y94071429D01*
X101192857Y94042857D01*
X101135715Y94014286D01*
X100907143Y94014286D01*
X101450000Y94328571D02*
X101821429Y94328571D01*
X101621429Y94100000D01*
X101707143Y94100000D01*
X101764286Y94071429D01*
X101792857Y94042857D01*
X101821429Y93985714D01*
X101821429Y93842857D01*
X101792857Y93785714D01*
X101764286Y93757143D01*
X101707143Y93728571D01*
X101535715Y93728571D01*
X101478572Y93757143D01*
X101450000Y93785714D01*
X38952381Y85675390D02*
X38904762Y85699200D01*
X38857143Y85746819D01*
X38785714Y85818248D01*
X38738095Y85842057D01*
X38690476Y85842057D01*
X38714286Y85723010D02*
X38666667Y85746819D01*
X38619048Y85794438D01*
X38595238Y85889676D01*
X38595238Y86056343D01*
X38619048Y86151581D01*
X38666667Y86199200D01*
X38714286Y86223010D01*
X38809524Y86223010D01*
X38857143Y86199200D01*
X38904762Y86151581D01*
X38928571Y86056343D01*
X38928571Y85889676D01*
X38904762Y85794438D01*
X38857143Y85746819D01*
X38809524Y85723010D01*
X38714286Y85723010D01*
X39357143Y86056343D02*
X39357143Y85723010D01*
X39238096Y86246819D02*
X39119048Y85889676D01*
X39428572Y85889676D01*
X42952381Y52776190D02*
X42904762Y52800000D01*
X42857143Y52847619D01*
X42785714Y52919048D01*
X42738095Y52942857D01*
X42690476Y52942857D01*
X42714286Y52823810D02*
X42666667Y52847619D01*
X42619048Y52895238D01*
X42595238Y52990476D01*
X42595238Y53157143D01*
X42619048Y53252381D01*
X42666667Y53300000D01*
X42714286Y53323810D01*
X42809524Y53323810D01*
X42857143Y53300000D01*
X42904762Y53252381D01*
X42928571Y53157143D01*
X42928571Y52990476D01*
X42904762Y52895238D01*
X42857143Y52847619D01*
X42809524Y52823810D01*
X42714286Y52823810D01*
X43095239Y53323810D02*
X43404762Y53323810D01*
X43238096Y53133333D01*
X43309524Y53133333D01*
X43357143Y53109524D01*
X43380953Y53085714D01*
X43404762Y53038095D01*
X43404762Y52919048D01*
X43380953Y52871429D01*
X43357143Y52847619D01*
X43309524Y52823810D01*
X43166667Y52823810D01*
X43119048Y52847619D01*
X43095239Y52871429D01*
M02*
